<?xml version="1.0" encoding="UTF-8" standalone="no"?><!-- Generator: Gravit.io --><svg xmlns="http://www.w3.org/2000/svg" xmlns:xlink="http://www.w3.org/1999/xlink" style="isolation:isolate" viewBox="0 0 350 350" width="350pt" height="350pt"><defs><clipPath id="_clipPath_GPMrFL4V4km8e3GoP9jK8lfvdGCfftjA"><rect width="350" height="350"/></clipPath></defs><g clip-path="url(#_clipPath_GPMrFL4V4km8e3GoP9jK8lfvdGCfftjA)"><rect width="350" height="350" style="fill:rgb(254,141,0)"/><g><g><path d=" M 175 49.25 C 123 49.25 80.5 91.5 80.5 143.75 C 80.5 154.25 82.25 164.5 85.5 174.5 C 87.75 181.25 95.25 185 102.25 182.75 C 109 180.5 112.75 173 110.5 166 C 107.75 158.25 106.5 150 106.75 141.75 C 107.75 106.5 136.25 77.5 171.5 75.75 C 210.75 73.75 243.25 105 243.25 143.75 C 243.25 180 214.75 209.75 179 211.75 C 179 211.75 165.75 212.5 159.25 213.5 C 156 214 153.5 214.5 151.75 214.75 C 151 215 150.25 214.25 150.5 213.5 L 152.75 202.5 L 165 146 C 166.5 139 162 132 155 130.5 C 148 129 141 133.5 139.5 140.5 C 139.5 140.5 110 278 109.75 279.5 C 108.25 286.5 112.75 293.5 119.75 295 C 126.75 296.5 133.75 292 135.25 285 C 135.5 283.5 139.5 265.25 139.5 265.25 C 142.5 251.25 154 241 167.5 239.25 C 170.5 238.75 182.25 238 182.25 238 C 231 234.25 269.5 193.5 269.5 143.75 C 269.5 91.5 227 49.25 175 49.25 Z  M 181.75 266.75 C 173.25 265 164.75 270.25 163 279 C 161.25 287.5 166.5 296 175.25 297.75 C 183.75 299.5 192.25 294.25 194 285.5 C 195.75 276.75 190.5 268.5 181.75 266.75 Z " fill="rgb(255,255,255)"/></g></g></g></svg>