<?xml version="1.0" encoding="UTF-8" standalone="no"?><!-- Generator: Gravit.io --><svg xmlns="http://www.w3.org/2000/svg" xmlns:xlink="http://www.w3.org/1999/xlink" style="isolation:isolate" viewBox="0 0 350 350" width="350pt" height="350pt"><defs><clipPath id="_clipPath_4OeJWqlnKXbCadfHx6hjFqYsqUiR4RWD"><rect width="350" height="350"/></clipPath></defs><g clip-path="url(#_clipPath_4OeJWqlnKXbCadfHx6hjFqYsqUiR4RWD)"><rect width="350" height="350" style="fill:rgb(214,253,128)"/><g><path d=" M 103.184 158.668 C 122.718 167.02 143.072 168.786 163.154 160.98 C 172.57 157.486 180.093 159.829 189.087 163.09 C 211.557 171.206 232.78 164.207 253.573 154.73 C 262.235 150.951 271.694 151.231 280.642 154.187 C 287.315 156.957 294.212 161.605 297.965 167.948 C 299.028 170.593 298.931 173.091 298.004 175.774 C 295.577 181.049 291.702 183.14 286.626 185.515 C 282.083 187.714 278.205 190.134 274.381 193.457 C 273.948 193.78 273.516 194.104 273.07 194.438 C 269.167 197.44 266.885 201.304 264.443 205.524 C 264.157 205.975 263.87 206.426 263.575 206.891 C 259.616 213.681 259.4 222.266 259.163 229.926 C 258.771 241.414 256.05 251.332 250.956 261.604 C 250.427 262.689 250.427 262.689 249.888 263.797 C 247.463 268.509 244.467 272.502 241.018 276.511 C 240.283 277.388 240.283 277.388 239.534 278.283 C 226.269 293.658 205.907 304 185.605 305.741 C 182.1 305.931 178.598 305.92 175.089 305.882 C 174.56 305.879 174.031 305.876 173.487 305.873 C 165.756 305.824 158.377 305.455 150.865 303.486 C 150.033 303.288 149.201 303.09 148.344 302.887 C 128.247 297.701 110.743 284.915 99.754 267.283 C 92.48 254.945 88.381 241.533 88.086 227.22 C 87.633 214.019 84.169 203.729 74.507 194.399 C 69.625 189.877 64.235 187.008 58.287 184.185 C 54.615 182.387 52.323 180.621 50.064 177.13 C 49 173.939 48.644 171.22 49.354 167.901 C 54.319 159.837 63.197 155.419 71.92 152.581 C 83.26 150.437 92.946 154.27 103.184 158.668 Z " fill="rgb(252,72,72)"/><path d=" M 187.068 45.095 C 192.06 49.02 195.004 53.286 197.006 59.292 C 197.091 61.376 197.137 63.444 197.152 65.529 C 197.159 66.166 197.166 66.803 197.173 67.46 C 197.195 69.569 197.213 71.677 197.23 73.786 C 197.245 75.247 197.26 76.708 197.275 78.169 C 197.314 82.017 197.349 85.865 197.384 89.712 C 197.419 93.638 197.459 97.563 197.498 101.489 C 197.574 109.192 197.646 116.896 197.716 124.6 C 198.623 124.643 199.531 124.687 200.466 124.733 C 200.977 124.757 201.488 124.782 202.014 124.807 C 202.469 124.739 202.925 124.67 203.395 124.6 C 205.121 122.01 204.982 120.817 204.962 117.734 C 204.961 117.256 204.96 116.778 204.959 116.285 C 204.957 115.248 204.952 114.21 204.944 113.172 C 204.934 111.528 204.935 109.884 204.94 108.239 C 204.953 103.564 204.958 98.889 204.924 94.214 C 204.904 91.353 204.909 88.493 204.929 85.632 C 204.932 84.543 204.926 83.455 204.911 82.367 C 204.796 73.865 204.796 73.865 206.609 71.162 C 208.876 69.157 210.979 67.987 214.043 67.81 C 214.929 67.746 215.816 67.682 216.73 67.616 C 225.084 67.334 231.678 68.386 238.089 74.243 C 248.069 85.11 247.471 98.947 247.631 112.79 C 247.646 113.875 247.66 114.96 247.676 116.045 C 247.714 118.867 247.75 121.69 247.784 124.513 C 247.82 127.407 247.859 130.301 247.899 133.194 C 247.974 138.848 248.046 144.501 248.116 150.155 C 246.419 150.955 244.721 151.753 243.022 152.551 C 242.307 152.888 242.307 152.888 241.577 153.233 C 231.506 157.953 221.615 159.78 210.538 159.782 C 209.189 159.785 209.189 159.785 207.813 159.788 C 199.606 159.643 191.907 158.453 184.273 155.346 C 176.174 152.333 168.69 153.106 160.579 155.741 C 152.396 158.252 144.401 159.084 135.869 159.028 C 135.108 159.026 135.108 159.026 134.332 159.025 C 121.564 158.962 111.241 156.39 99.754 150.865 C 99.839 145.642 99.928 140.42 100.019 135.198 C 100.049 133.43 100.078 131.663 100.107 129.895 C 100.206 123.87 100.327 117.846 100.464 111.822 C 100.482 110.973 100.499 110.124 100.517 109.249 C 100.571 106.777 100.639 104.306 100.711 101.834 C 100.725 101.105 100.74 100.376 100.755 99.625 C 101.071 90.068 103.445 79.899 110.624 73.134 C 116.796 68.119 123.171 66.566 130.988 67.1 C 139.456 68.316 139.456 68.316 142.304 71.891 C 144.101 75.71 143.538 80.392 143.508 84.545 C 143.514 85.632 143.521 86.719 143.53 87.806 C 143.551 90.658 143.551 93.51 143.546 96.363 C 143.541 100.936 143.563 105.509 143.59 110.082 C 143.597 111.678 143.593 113.274 143.588 114.87 C 143.59 115.846 143.593 116.823 143.596 117.799 C 143.595 118.652 143.593 119.505 143.592 120.383 C 143.608 122.605 143.608 122.605 145.186 124.6 C 147.315 124.895 147.315 124.895 149.445 124.6 C 151.269 122.776 151.037 121.567 151.055 119.081 C 151.052 118.507 151.049 117.934 151.046 117.343 C 151.048 116.739 151.051 116.135 151.054 115.513 C 151.059 114.198 151.06 112.883 151.059 111.568 C 151.059 109.481 151.068 107.395 151.08 105.308 C 151.113 99.374 151.13 93.44 151.135 87.505 C 151.138 83.877 151.156 80.248 151.181 76.62 C 151.188 75.241 151.19 73.863 151.186 72.484 C 151.162 63.22 151.18 54.844 157.969 47.734 C 160.351 45.679 162.921 44.269 165.772 42.965 C 166.431 42.657 167.089 42.35 167.768 42.033 C 174.771 40.523 180.89 41.431 187.068 45.095 Z " fill="rgb(252,72,72)"/><path d=" M 208.297 198.129 C 212.083 201.088 215.559 204.317 219.012 207.654 C 219.582 208.187 220.152 208.721 220.739 209.27 C 232.103 220.162 232.103 220.162 232.366 226.332 C 232.121 231.53 228.378 235.537 224.957 239.11 C 224.58 239.508 224.203 239.907 223.815 240.317 C 223.05 241.124 222.282 241.928 221.511 242.729 C 220.554 243.729 219.611 244.742 218.671 245.756 C 208.245 256.706 192.633 267.15 177.102 268.128 C 158.469 268.462 143.016 259.694 129.824 247.151 C 128.685 246.042 127.55 244.929 126.419 243.813 C 125.889 243.294 125.36 242.774 124.815 242.24 C 114.6 231.934 114.6 231.934 114.387 225.55 C 115.418 219.653 121.361 214.643 125.309 210.493 C 125.649 210.13 125.989 209.768 126.339 209.394 C 149.723 184.528 179.605 177.497 208.297 198.129 Z " fill="rgb(214,249,127)"/><path d=" M 193.232 199.862 C 199.696 205.377 204.678 212.516 205.693 221.156 C 206.31 230.881 204.984 239.762 198.373 247.392 C 197.922 247.866 197.471 248.339 197.006 248.826 C 196.547 249.321 196.089 249.816 195.617 250.326 C 189.608 256.245 182.55 259.152 174.201 259.208 C 165.253 258.997 158.3 256.239 151.574 250.246 C 143.707 241.867 141.849 233.152 142.077 221.99 C 142.432 214.92 145.572 209.348 150.155 204.105 C 150.493 203.684 150.832 203.263 151.181 202.829 C 161.921 190.632 180.802 190.485 193.232 199.862 Z " fill="rgb(214,249,127)"/><path d=" M 193.232 199.862 C 199.696 205.377 204.678 212.516 205.693 221.156 C 206.31 230.881 204.984 239.762 198.373 247.392 C 197.922 247.866 197.471 248.339 197.006 248.826 C 196.547 249.321 196.089 249.816 195.617 250.326 C 189.608 256.245 182.55 259.152 174.201 259.208 C 165.253 258.997 158.3 256.239 151.574 250.246 C 143.707 241.867 141.849 233.152 142.077 221.99 C 142.432 214.92 145.572 209.348 150.155 204.105 C 150.493 203.684 150.832 203.263 151.181 202.829 C 161.921 190.632 180.802 190.485 193.232 199.862 Z  M 152.284 211.203 C 147.886 218.643 146.507 226.565 148.668 235.014 C 151.675 242.617 156.522 247.754 164.055 251.047 C 171.088 253.581 178.363 253.014 185.038 249.919 C 191.739 246.312 195.643 241.844 198.517 234.792 C 200.247 228.376 200.152 220.93 197.228 214.93 C 196.478 213.667 195.698 212.421 194.876 211.203 C 194.604 210.769 194.333 210.336 194.053 209.889 C 190.549 204.991 183.66 201.666 177.839 200.555 C 167.555 199.506 158.835 203.111 152.284 211.203 Z " fill="rgb(251,76,73)"/><path d=" M 181.794 210.213 C 185.631 212.416 188.285 215.428 190.617 219.145 C 191.917 224.101 192.356 229.543 190.085 234.274 C 189.573 235.115 189.043 235.945 188.487 236.758 C 188.107 237.388 187.726 238.017 187.334 238.666 C 183.205 242.686 177.5 244.834 171.789 244.769 C 167.369 244.26 163.255 241.96 160.093 238.888 C 156.127 233.676 155.275 228.979 155.834 222.561 C 156.726 217.567 159.737 214.284 163.642 211.203 C 169.648 207.419 175.371 207.382 181.794 210.213 Z " fill="rgb(251,76,73)"/><path d=" M 177.13 215.462 C 180.508 216.629 182.238 218.192 184.228 221.141 C 185.423 224.725 185.337 227.758 183.829 231.213 C 182.188 234.157 180.37 235.774 177.13 236.758 C 173.507 237.309 170.88 237.191 167.591 235.516 C 164.889 233.144 163.19 231.172 162.763 227.494 C 162.602 222.585 164.023 220.316 167.236 216.616 C 170.46 214.832 173.528 215.028 177.13 215.462 Z " fill="rgb(215,248,127)"/><path d=" M 135.957 211.203 C 136.963 213.215 136.294 214.173 135.647 216.305 C 133.732 223.664 133.814 230.849 136.271 238.056 C 136.667 239.598 136.667 239.598 135.957 241.727 C 134.357 240.148 132.761 238.564 131.166 236.98 C 130.716 236.536 130.265 236.092 129.802 235.634 C 128.526 234.366 127.27 233.082 126.019 231.789 C 125.135 230.882 125.135 230.882 124.233 229.956 C 123.18 228.24 123.18 228.24 123.147 226.135 C 124.062 223.481 125.319 222.052 127.262 220.032 C 127.873 219.387 128.484 218.742 129.114 218.077 C 130.912 216.249 132.72 214.431 134.538 212.623 C 135.006 212.154 135.475 211.686 135.957 211.203 Z " fill="rgb(252,75,73)"/><path d=" M 211.203 211.913 C 221.812 220.446 221.812 220.446 224.006 225.761 C 223.969 228.349 222.865 229.371 221.186 231.301 C 220.602 231.977 220.018 232.652 219.417 233.348 C 216.995 235.99 214.51 238.548 211.913 241.018 C 211.203 238.888 211.203 238.888 211.858 237.102 C 212.909 233.705 212.829 230.532 212.8 226.998 C 212.806 226.332 212.811 225.665 212.817 224.979 C 212.805 220.47 212.252 216.297 211.203 211.913 Z " fill="rgb(251,77,73)"/><path d=" M 174.335 221.984 C 176.42 222.561 176.42 222.561 177.839 223.981 C 177.706 226.465 177.706 226.465 177.13 228.95 C 175 230.37 175 230.37 173.181 230.192 C 171.451 229.66 171.451 229.66 170.031 228.24 C 169.795 226.018 169.693 224.564 170.83 222.605 C 172.161 221.851 172.161 221.851 174.335 221.984 Z " fill="rgb(251,79,74)"/></g></g></svg>