<svg width="20" height="20" viewBox="0 0 20 20" fill="none" xmlns="http://www.w3.org/2000/svg">
<path fill-rule="evenodd" clip-rule="evenodd" d="M16 1H4C2.34315 1 1 2.34315 1 4V16C1 17.6569 2.34315 19 4 19H16C17.6569 19 19 17.6569 19 16V4C19 2.34315 17.6569 1 16 1ZM4 0C1.79086 0 0 1.79086 0 4V16C0 18.2091 1.79086 20 4 20H16C18.2091 20 20 18.2091 20 16V4C20 1.79086 18.2091 0 16 0H4ZM10 15.5C9.72386 15.5 9.5 15.2761 9.5 15V9.99387L8.00204 10C7.7259 10.0011 7.50113 9.77818 7.5 9.50204C7.49887 9.2259 7.72182 9.00113 7.99796 9L9.99796 8.99183C10.1309 8.99128 10.2586 9.04372 10.3528 9.13755C10.447 9.23137 10.5 9.35886 10.5 9.49182V15C10.5 15.2761 10.2761 15.5 10 15.5ZM10 7C10.5523 7 11 6.55228 11 6C11 5.44772 10.5523 5 10 5C9.44771 5 9 5.44772 9 6C9 6.55228 9.44771 7 10 7Z" fill="white"/>
</svg>
