<svg width="40" height="40" viewBox="0 0 40 40" fill="none" xmlns="http://www.w3.org/2000/svg">
<path d="M36.6841 32.5387C38.5295 31.6703 39.6265 29.0784 39.8225 28.0834C39.6752 26.9446 39.1568 24.6836 38.6574 24.0252C38.1579 23.3669 36.1834 22.0293 35.2091 21.4239V14.508L33.9742 11.6229L29.8699 5.92094L25.3746 3.00506L18.4562 0.272949L9.41821 3.00506L5.5634 9.11636L2.89469 9.98738L0.382965 12.6004V14.1508L4.28369 16.458V19.4376C3.54589 20.166 2.25177 21.4456 1.63883 22.5125C1.02589 23.5795 0.964504 25.601 0.853916 27.1986L3.15633 28.7142L6.19133 22.6867L17.2149 29.7009L19.7406 30.279C16.9059 33.8261 17.1023 36.1041 17.4339 37.5363L19.7406 39.0289L23.9354 30.567L28.2387 27.8615V29.1228L32.4953 32.154C33.2039 32.5159 34.8388 33.4071 36.6841 32.5387Z" fill="#00FF29"/>
<path d="M33.0139 27.564C33.0566 27.868 33.3022 28.1144 33.5624 28.1144C33.8226 28.1144 33.9989 27.868 33.9561 27.564C33.9134 27.2601 33.6679 27.0137 33.4077 27.0137C33.1475 27.0137 32.9712 27.2601 33.0139 27.564Z" fill="white"/>
<path fill-rule="evenodd" clip-rule="evenodd" d="M9.24602 2.69882L18.5309 0L25.6079 2.88713L30.0978 5.73646L34.2553 11.6597L35.5665 14.5709V21.3788C36.7731 22.0669 37.9253 22.8586 38.9408 23.8725L38.9573 23.889L38.9711 23.9078C39.4089 24.5058 39.6612 25.3709 39.8069 26.1768C39.9543 26.9917 40 27.7896 40 28.2864L40 29.3811C40 30.3056 39.5302 31.1668 38.7529 31.6674L37.0186 32.7842L36.9953 32.7942C36.5395 32.9897 35.7707 33.1988 34.9103 33.2111C34.048 33.2233 33.0699 33.0376 32.2255 32.415L27.9972 29.297V28.4961L24.5353 30.7135V31.451C24.5353 32.2984 24.4032 33.1407 24.1439 33.9475L23.0644 37.3057L19.6617 39.4759L17.1759 37.8838L17.0011 36.6274C16.7917 35.1216 17.1299 33.5907 17.9541 32.3133L19.177 30.4178L17.1861 30.0418L8.3302 24.3519L7.87003 24.0562L7.19576 26.5029L3.16666 29.0865L0.616051 27.4788V25.4229C0.616051 23.7231 1.29804 22.0944 2.50917 20.9018L4.10755 19.3279V18.7617L-3.8147e-06 14.125V12.273L2.67985 9.72434L5.47686 8.72983L9.24602 2.69882ZM4.10755 20.176V21.6386L5.77114 22.7076L3.0416 28.2934L1.22034 27.1454V25.4229C1.22034 23.885 1.83738 22.4114 2.93317 21.3324L4.10755 20.176ZM22.0432 31.263V30.9591L19.8181 30.5389L18.4618 32.6409C17.7161 33.7967 17.4102 35.1818 17.5997 36.5441L17.7361 37.525L19.5252 38.6709L21.4281 34.2486C21.8339 33.3055 22.0432 32.2897 22.0432 31.263ZM4.96152 9.55441L4.31808 10.584L3.51996 10.067L4.96152 9.55441ZM4.10755 11.1676V11.5414L1.19947 11.9662L2.87719 10.3706L4.10755 11.1676ZM4.10755 12.1521V16.0818L0.604286 13.8449V12.6638L4.10755 12.1521ZM28.3973 22.6709L34.9622 18.4768V14.8174L28.1891 11.218L24.6936 16.569L28.3973 22.6709ZM28.2767 10.5802L34.6261 13.9545L33.7278 11.9601L29.6723 6.18217L25.6586 3.63505L24.8635 6.75488L28.2767 10.5802ZM24.289 6.56192L25.111 3.33706L18.5802 0.672775L15.7457 3.35109L18.786 7.25294L24.289 6.56192ZM15.2263 3.01049L17.3978 0.958638L11.1936 2.76202L15.2263 3.01049ZM15.184 3.61331L9.71825 3.27655L9.1354 10.4443L12.9005 12.8469L16.3932 10.8516L18.2892 7.59859L15.184 3.61331ZM12.5705 13.3532L8.89604 11.0084L4.84326 16.5514L8.65658 18.9944L11.7158 20.9551L12.5705 13.3532ZM8.19139 19.414L4.71184 17.1849V21.3086L8.19139 23.5444V19.414ZM8.79568 19.8013V23.9327L12.5879 26.3692V22.2318L8.79568 19.8013ZM13.1922 22.6192V26.7574L16.9979 29.2026V25.0584L13.1922 22.6192ZM17.6021 25.2577V29.5054L23.3076 30.583V26.3353L17.6021 25.2577ZM23.5482 25.7657L27.8878 22.9961L24.1744 16.8782L20.3838 17.1614L16.4521 23.9908L17.4137 24.6071L23.5482 25.7657ZM20.3621 16.5571L24.1652 16.2729L27.7077 10.8502L24.4112 7.15562L18.839 7.85531L16.9659 11.0691L20.3621 16.5571ZM19.8499 16.8776L16.5101 11.4808L13.1749 13.386L12.283 21.3187L15.9428 23.6644L19.8499 16.8776ZM28.9529 23.0332L28.6015 23.2575V26.9833L31.196 28.8965C31.0834 28.489 31.0711 28.0645 31.1406 27.6482C31.2903 26.7517 31.8166 25.8985 32.5087 25.3216C32.3077 25.2013 32.1095 25.077 31.9139 24.9486L31.9131 24.948L28.9529 23.0332ZM34.6907 30.3093C34.011 30.3713 33.3636 30.3208 32.8728 30.0906C31.867 29.4755 31.5949 28.5962 31.7366 27.7477C31.8736 26.9271 32.4018 26.1291 33.0761 25.6461C33.7122 25.9935 34.3763 26.3018 35.0734 26.5697L35.0818 26.5812L35.0818 26.5812C35.8215 27.5904 36.506 28.5243 36.5693 29.8949C36.0896 30.0634 35.398 30.2449 34.6907 30.3093ZM32.1027 30.316L28.6015 27.7342V28.9918L32.1027 31.5736V30.316ZM32.707 30.6782V32.0148C33.3871 32.4688 34.1715 32.6172 34.9017 32.6068C35.5678 32.5974 36.1711 32.4557 36.5741 32.3106V30.5307C36.0723 30.6922 35.4181 30.8498 34.7456 30.9111C34.067 30.973 33.3276 30.9407 32.707 30.6782ZM37.1498 29.5678L39.394 28.1226C39.385 27.6523 39.3368 26.9732 39.2123 26.2843C39.0923 25.6209 38.9067 24.9788 38.6372 24.5039L35.6977 26.3992C36.3445 27.2834 37.0063 28.2425 37.1498 29.5678ZM35.2294 25.9821L38.2435 24.0387C37.3026 23.1575 36.242 22.45 35.1165 21.8185C34.3507 21.3889 33.558 20.996 32.7536 20.6072L29.5129 22.6758L32.2438 24.4423L32.2447 24.4429C33.1722 25.0517 34.1605 25.5665 35.2294 25.9821ZM8.52527 10.4917L4.71184 15.7073V11.0941L9.03934 4.16975L8.52527 10.4917ZM33.8395 29.5758C33.0926 29.5758 32.3877 28.8685 32.2651 27.9959C32.1424 27.1234 32.6485 26.416 33.3954 26.416C34.1423 26.416 34.8472 27.1234 34.9698 27.9959C35.0924 28.8685 34.5864 29.5758 33.8395 29.5758ZM33.5623 28.1144C33.3021 28.1144 33.0566 27.868 33.0139 27.564C32.9712 27.2601 33.1474 27.0137 33.4076 27.0137C33.6678 27.0137 33.9134 27.2601 33.9561 27.564C33.9988 27.868 33.8225 28.1144 33.5623 28.1144Z" fill="#001B04"/>
</svg>
