<svg width="19" height="21" viewBox="0 0 19 21" fill="none" xmlns="http://www.w3.org/2000/svg">
<path d="M9.50108 0.5C9.77722 0.5 10.0011 0.723858 10.0011 1V18.6064L17.4278 8.20898C17.5883 7.9846 17.9005 7.93262 18.1251 8.09277C18.3497 8.25331 18.4018 8.56635 18.2413 8.79102L9.90831 20.457C9.81444 20.5883 9.66247 20.667 9.50108 20.667C9.33981 20.6669 9.18863 20.5882 9.09483 20.457L0.760845 8.79102L0.71104 8.70312C0.616332 8.49063 0.6805 8.23334 0.877056 8.09277C1.07354 7.95242 1.33754 7.97479 1.50792 8.13281L1.5753 8.20898L9.00108 18.6055V1C9.00108 0.723968 9.22509 0.500178 9.50108 0.5Z" fill="white"/>
</svg>
