<svg width="24" height="24" viewBox="0 0 24 24" fill="none" xmlns="http://www.w3.org/2000/svg">
<path d="M7.5 14.5C8.15293 14.5 8.70703 14.9177 8.91309 15.5H17C17.2761 15.5 17.5 15.7239 17.5 16C17.5 16.2761 17.2761 16.5 17 16.5H8.91309C8.70703 17.0823 8.15293 17.5 7.5 17.5C6.67157 17.5 6 16.8284 6 16C6 15.1716 6.67157 14.5 7.5 14.5ZM16.5 10.5C17.3284 10.5 18 11.1716 18 12C18 12.8284 17.3284 13.5 16.5 13.5C15.8471 13.5 15.293 13.0823 15.0869 12.5H7C6.72386 12.5 6.5 12.2761 6.5 12C6.5 11.7239 6.72386 11.5 7 11.5H15.0869C15.293 10.9177 15.8471 10.5 16.5 10.5ZM9.5 6.5C10.1529 6.5 10.707 6.91766 10.9131 7.5H17C17.2761 7.5 17.5 7.72386 17.5 8C17.5 8.27614 17.2761 8.5 17 8.5H10.9131C10.707 9.08234 10.1529 9.5 9.5 9.5C8.84707 9.5 8.29297 9.08234 8.08691 8.5H7C6.72386 8.5 6.5 8.27614 6.5 8C6.5 7.72386 6.72386 7.5 7 7.5H8.08691C8.29297 6.91766 8.84707 6.5 9.5 6.5Z" fill="#001B04"/>
</svg>
