<svg width="16" height="16" viewBox="0 0 16 16" fill="none" xmlns="http://www.w3.org/2000/svg">
<path d="M10.6667 1.33325C12.8757 1.33343 14.6667 3.12423 14.6667 5.33325V10.6663C14.6667 12.8753 12.8757 14.6661 10.6667 14.6663H5.33374L5.12769 14.6614C3.01431 14.5541 1.33374 12.8063 1.33374 10.6663V5.33325C1.33375 3.19322 3.0143 1.44537 5.12769 1.33813L5.33374 1.33325H10.6667ZM5.33374 2.33325C3.72864 2.33325 2.41797 3.59382 2.33765 5.17896L2.33374 5.33325V10.6663C2.33374 12.3231 3.67689 13.6663 5.33374 13.6663H10.6667C12.3235 13.6661 13.6667 12.323 13.6667 10.6663V5.33325C13.6667 3.72815 12.4062 2.41746 10.821 2.33716L10.6667 2.33325H5.33374ZM7.99976 10.0002C8.36783 10.0002 8.66657 10.2982 8.66675 10.6663C8.66675 11.0344 8.36795 11.3333 7.99976 11.3333C7.63172 11.3331 7.33374 11.0343 7.33374 10.6663C7.33392 10.2983 7.63183 10.0004 7.99976 10.0002ZM7.99976 4.33325C8.55457 4.33325 8.9796 4.82786 8.89526 5.37622L8.32983 9.05103C8.30467 9.21346 8.16416 9.33325 7.99976 9.33325C7.83551 9.33309 7.69582 9.21332 7.67065 9.05103L7.10522 5.37622C7.02087 4.82795 7.44508 4.33345 7.99976 4.33325Z" fill="#001B04"/>
</svg>
