<svg width="24" height="24" viewBox="0 0 24 24" fill="none" xmlns="http://www.w3.org/2000/svg">
<path d="M18 16C18.5523 16 19 16.4477 19 17V18C19 18.5523 18.5523 19 18 19H17C16.4477 19 16 18.5523 16 18V17C16 16.4477 16.4477 16 17 16H18ZM6.50294 10C6.51013 10 6.51725 10.0016 6.52442 10.002C6.53067 10.0023 6.53679 10.0034 6.54298 10.0039C6.56021 10.0054 6.57762 10.0055 6.59473 10.0088C6.61353 10.0124 6.63144 10.0188 6.64942 10.0244C6.663 10.0287 6.67712 10.0316 6.69044 10.0371C6.70178 10.0418 6.71176 10.0492 6.72266 10.0547C6.74138 10.064 6.76079 10.0723 6.77833 10.084H6.77735L9.77735 12.084L9.85548 12.1484C10.0192 12.3136 10.05 12.5763 9.91602 12.7773C9.78209 12.9782 9.52785 13.0512 9.31251 12.9639L9.22266 12.916L7.00001 11.4336V15.5C7.00001 16.3284 7.67158 17 8.50001 17H13C13.2761 17 13.5 17.2239 13.5 17.5C13.5 17.7417 13.3286 17.9437 13.1006 17.9902L13 18H8.50001C7.1193 18 6.00001 16.8807 6.00001 15.5V11.4336L3.77735 12.916L3.68751 12.9639C3.47217 13.0512 3.21793 12.9782 3.08399 12.7773C2.94997 12.5763 2.98084 12.3136 3.14454 12.1484L3.22266 12.084L6.22071 10.085L6.22169 10.084C6.23727 10.0736 6.25399 10.0652 6.27052 10.0566C6.28276 10.0503 6.29481 10.0434 6.30762 10.0381C6.30869 10.0376 6.30949 10.0366 6.31055 10.0361C6.31962 10.0324 6.32968 10.0315 6.33887 10.0283C6.36027 10.021 6.38171 10.0132 6.4043 10.0088C6.41912 10.0059 6.43431 10.0064 6.44923 10.0049C6.46518 10.0032 6.481 10.0001 6.49708 10H6.50294ZM15.5 6C16.8807 6 18 7.11929 18 8.5V12.5654L20.2227 11.084L20.3125 11.0361C20.5278 10.9488 20.7821 11.0218 20.916 11.2227C21.05 11.4237 21.0192 11.6864 20.8555 11.8516L20.7774 11.916L17.7813 13.9131C17.7645 13.9245 17.7464 13.9332 17.7285 13.9424C17.7168 13.9485 17.7056 13.9558 17.6934 13.9609C17.6721 13.9699 17.6498 13.9746 17.6279 13.9805C17.6168 13.9834 17.6061 13.988 17.5947 13.9902C17.5776 13.9935 17.5602 13.9936 17.543 13.9951C17.5293 13.9963 17.5158 13.999 17.502 13.999H17.5V14L17.4981 13.999C17.4747 13.9989 17.4518 13.9955 17.4287 13.9922C17.4207 13.991 17.4123 13.9918 17.4043 13.9902C17.3889 13.9872 17.3743 13.9819 17.3594 13.9775C17.3518 13.9753 17.3444 13.9733 17.3369 13.9707C17.3276 13.9675 17.3178 13.9657 17.3086 13.9619C17.2954 13.9564 17.2832 13.949 17.2705 13.9424C17.2537 13.9337 17.2365 13.9257 17.2207 13.915C17.2197 13.9144 17.2187 13.9137 17.2178 13.9131L14.2227 11.916L14.1445 11.8516C13.9808 11.6864 13.95 11.4237 14.084 11.2227C14.2179 11.0218 14.4722 10.9488 14.6875 11.0361L14.7774 11.084L17 12.5654V8.5C17 7.67157 16.3284 7 15.5 7H11C10.7239 7 10.5 6.77614 10.5 6.5C10.5 6.25829 10.6715 6.05629 10.8994 6.00977L11 6H15.5ZM6.50001 5C7.32843 5 8.00001 5.67157 8.00001 6.5C8.00001 7.32843 7.32843 8 6.50001 8C5.67158 8 5.00001 7.32843 5.00001 6.5C5.00001 5.67157 5.67158 5 6.50001 5Z" fill="#001B04"/>
</svg>
