<svg width="24" height="24" viewBox="0 0 24 24" fill="none" xmlns="http://www.w3.org/2000/svg">
<path d="M15.2572 3.63483C15.4247 3.47792 15.6777 3.45567 15.8705 3.58014C16.0633 3.70482 16.147 3.94494 16.0726 4.16217L13.8988 10.5001H16.7347C17.6412 10.5001 18.0803 11.6095 17.4193 12.2296L8.74158 20.3653C8.5741 20.5222 8.32108 20.5444 8.12829 20.42C7.93546 20.2953 7.85173 20.0552 7.92615 19.8379L10.1 13.5001H7.26404C6.3576 13.5001 5.91843 12.3906 6.57947 11.7706L15.2572 3.63483ZM7.26404 12.5001H10.7992C10.9606 12.5001 11.1126 12.5778 11.2064 12.709C11.3002 12.8404 11.3251 13.0095 11.2728 13.1622L9.52478 18.2579L16.7347 11.5001H13.1996C13.0382 11.5001 12.8862 11.4224 12.7924 11.2911C12.6985 11.1597 12.6737 10.9906 12.7259 10.838L14.473 5.74127L7.26404 12.5001Z" fill="#001B04"/>
</svg>
