<svg width="24" height="24" viewBox="0 0 24 24" fill="none" xmlns="http://www.w3.org/2000/svg">
<path d="M7.14844 11.6445C7.31361 11.4808 7.57631 11.45 7.77734 11.584C7.97825 11.7179 8.05117 11.9722 7.96387 12.1875L7.91602 12.2774L6.43457 14.5H18.5C18.7761 14.5 19 14.7239 19 15C19 15.2761 18.7761 15.5 18.5 15.5H6.43457L7.91602 17.7227L7.96387 17.8125C8.05117 18.0278 7.97825 18.2821 7.77734 18.416C7.57631 18.55 7.31361 18.5192 7.14844 18.3555L7.08398 18.2774L5.08398 15.2774C5.07358 15.2617 5.06516 15.2451 5.05664 15.2285C5.05011 15.2159 5.04256 15.2037 5.03711 15.1904C5.03162 15.1771 5.02869 15.163 5.02441 15.1494C5.00956 15.1021 5 15.0522 5 15C5 14.9478 5.00956 14.8979 5.02441 14.8506C5.02878 14.8367 5.03147 14.8222 5.03711 14.8086C5.04258 14.7954 5.05009 14.7831 5.05664 14.7705C5.0653 14.7538 5.07339 14.7365 5.08398 14.7207C5.08464 14.7197 5.08528 14.7187 5.08594 14.7178L7.08398 11.7227L7.14844 11.6445ZM16.2227 5.58399C16.4237 5.44997 16.6864 5.48084 16.8516 5.64454L16.916 5.72266L18.9141 8.71973C18.925 8.73589 18.9335 8.75334 18.9424 8.77052C18.949 8.78315 18.9564 8.79536 18.9619 8.8086C18.9676 8.82221 18.9702 8.83671 18.9746 8.85059C18.9895 8.898 19 8.94768 19 9.00001C19 9.05233 18.9895 9.10202 18.9746 9.14942C18.9703 9.16302 18.9674 9.1771 18.9619 9.19044C18.9567 9.20302 18.9495 9.21453 18.9434 9.22657C18.9346 9.24367 18.9267 9.26124 18.916 9.27735L16.916 12.2774L16.8516 12.3555C16.6864 12.5192 16.4237 12.55 16.2227 12.416C16.0218 12.2821 15.9488 12.0278 16.0361 11.8125L16.084 11.7227L17.5654 9.50001H5.5C5.22386 9.50001 5 9.27615 5 9.00001C5 8.72387 5.22386 8.50001 5.5 8.50001H17.5654L16.084 6.27735L16.0361 6.18751C15.9488 5.97217 16.0218 5.71793 16.2227 5.58399Z" fill="#001B04"/>
</svg>
