<?xml version="1.0" encoding="UTF-8" standalone="no"?><!-- Generator: Gravit.io --><svg xmlns="http://www.w3.org/2000/svg" xmlns:xlink="http://www.w3.org/1999/xlink" style="isolation:isolate" viewBox="0 0 123.032 123.032" width="123.032pt" height="123.032pt"><defs><clipPath id="_clipPath_QijGu2MSeuy0xPuDncX5qT8iQYivzyRC"><rect width="123.032" height="123.032"/></clipPath></defs><g clip-path="url(#_clipPath_QijGu2MSeuy0xPuDncX5qT8iQYivzyRC)"><g><path d=" M 61.516 123.032 C 95.49 123.032 123.032 95.49 123.032 61.516 C 123.032 27.542 95.49 0 61.516 0 C 27.542 0 0 27.542 0 61.516 C 0 95.49 27.542 123.032 61.516 123.032 Z " fill="rgb(255,255,255)"/><linearGradient id="_lgradient_2" x1="0.7878620548847828" y1="0.9410876511438628" x2="0.20315836232575868" y2="0.04516538905275824" gradientTransform="matrix(107.753,0,0,107.753,7.639,7.639)" gradientUnits="userSpaceOnUse"><stop offset="1%" stop-opacity="1" style="stop-color:rgb(100,90,255)"/><stop offset="50%" stop-opacity="1" style="stop-color:rgb(228,12,91)"/><stop offset="100%" stop-opacity="1" style="stop-color:rgb(255,76,59)"/></linearGradient><path d=" M 61.515 115.393 C 91.27 115.393 115.392 91.273 115.392 61.516 C 115.392 31.759 91.27 7.639 61.515 7.639 C 31.761 7.639 7.639 31.767 7.639 61.516 C 7.639 91.266 31.758 115.393 61.515 115.393 Z  M 61.735 110.339 C 88.698 110.339 110.553 88.481 110.553 61.519 C 110.553 34.556 88.698 12.698 61.735 12.698 C 34.773 12.698 12.915 34.546 12.915 61.516 C 12.915 88.486 34.773 110.336 61.735 110.336 L 61.735 110.339 Z  M 61.515 106.599 C 70.432 106.599 79.147 103.955 86.561 99.002 C 93.974 94.048 99.752 87.007 103.164 78.77 C 106.577 70.533 107.469 61.469 105.73 52.724 C 103.99 43.979 99.697 35.947 93.392 29.642 C 87.087 23.337 79.055 19.044 70.31 17.304 C 61.565 15.565 52.501 16.458 44.264 19.87 C 36.027 23.282 28.986 29.06 24.032 36.473 C 19.079 43.887 16.435 52.603 16.435 61.519 C 16.436 73.474 21.185 84.94 29.64 93.394 C 38.094 101.847 49.56 106.597 61.515 106.597 L 61.515 106.599 Z  M 61.624 101.103 C 69.475 101.103 77.149 98.775 83.676 94.414 C 90.203 90.052 95.291 83.853 98.296 76.6 C 101.3 69.348 102.086 61.367 100.555 53.667 C 99.023 45.968 95.243 38.895 89.692 33.344 C 84.141 27.792 77.069 24.012 69.369 22.48 C 61.67 20.948 53.689 21.734 46.436 24.738 C 39.183 27.742 32.984 32.829 28.622 39.356 C 24.26 45.883 21.932 53.557 21.931 61.407 C 21.931 71.935 26.113 82.031 33.557 89.475 C 41.001 96.918 51.097 101.101 61.624 101.101 L 61.624 101.103 Z  M 61.712 68.119 C 59.765 68.117 57.821 68.279 55.901 68.604 L 58.794 63.606 C 59.769 63.54 60.744 63.507 61.712 63.507 C 63.988 63.509 66.26 63.69 68.507 64.051 L 57.308 44.654 L 38.654 76.951 L 35.988 72.334 L 57.265 35.481 L 57.308 35.557 L 57.351 35.484 L 83.03 79.958 L 77.698 79.958 L 71.696 69.564 C 68.458 68.594 65.093 68.106 61.712 68.116 L 61.712 68.119 Z  M 84.68 77.026 L 59.82 33.968 L 65.152 33.968 L 87.346 72.41 L 84.68 77.026 Z  M 60.007 55.214 L 49.798 72.902 C 53.452 71.801 57.75 71.308 61.806 71.308 C 62.135 71.308 62.463 71.308 62.792 71.321 C 65.095 71.375 67.39 71.613 69.655 72.033 L 73.061 77.934 C 69.457 76.606 65.647 75.922 61.806 75.912 C 56.21 75.892 50.696 77.268 45.765 79.915 L 45.841 79.781 L 45.737 79.958 L 40.406 79.958 L 57.359 50.597 L 60.007 55.214 Z " fill-rule="evenodd" fill="url(#_lgradient_2)"/></g></g></svg>