<?xml version="1.0" encoding="UTF-8" standalone="no"?><!-- Generator: Gravit.io --><svg xmlns="http://www.w3.org/2000/svg" xmlns:xlink="http://www.w3.org/1999/xlink" style="isolation:isolate" viewBox="0 0 350 350" width="350pt" height="350pt"><defs><clipPath id="_clipPath_5jT9IKdkIbtQZfj8QPJMvyV79H54zjVK"><rect width="350" height="350"/></clipPath></defs><g clip-path="url(#_clipPath_5jT9IKdkIbtQZfj8QPJMvyV79H54zjVK)"><rect width="350" height="350" style="fill:rgb(254,254,255)"/><g><linearGradient id="_lgradient_0" x1="0.7878620548847828" y1="0.9410876511438628" x2="0.20315836232575868" y2="0.04516538905275824" gradientTransform="matrix(269.999,0,0,270,40,40)" gradientUnits="userSpaceOnUse"><stop offset="1%" stop-opacity="1" style="stop-color:rgb(100,90,255)"/><stop offset="50%" stop-opacity="1" style="stop-color:rgb(228,12,91)"/><stop offset="100%" stop-opacity="1" style="stop-color:rgb(255,76,59)"/></linearGradient><path d=" M 175 310 C 249.557 310 310 249.563 310 175 C 310 100.437 249.557 40 175 40 C 100.443 40 40 100.456 40 175 C 40 249.544 100.437 310 175 310 Z  M 175.551 297.336 C 243.111 297.336 297.874 242.566 297.874 175.006 C 297.874 107.446 243.111 52.676 175.551 52.676 C 107.991 52.676 53.221 107.421 53.221 175 C 53.221 242.578 107.991 297.329 175.551 297.329 L 175.551 297.336 Z  M 175 287.965 C 197.342 287.965 219.181 281.34 237.757 268.929 C 256.333 256.516 270.81 238.874 279.36 218.234 C 287.912 197.593 290.147 174.881 285.789 152.969 C 281.429 131.057 270.672 110.93 254.874 95.132 C 239.076 79.334 218.949 68.576 197.037 64.218 C 175.125 59.859 152.413 62.096 131.773 70.646 C 111.132 79.195 93.491 93.673 81.078 112.25 C 68.666 130.825 62.041 152.665 62.041 175.006 C 62.043 204.963 73.945 233.693 95.129 254.876 C 116.312 276.057 145.043 287.96 175 287.96 L 175 287.965 Z  M 175.273 274.193 C 194.944 274.193 214.173 268.36 230.529 257.432 C 246.884 246.503 259.633 230.97 267.162 212.797 C 274.689 194.623 276.658 174.626 272.822 155.332 C 268.983 136.04 259.513 118.317 245.603 104.407 C 231.694 90.497 213.973 81.024 194.68 77.186 C 175.387 73.348 155.39 75.316 137.216 82.843 C 119.042 90.37 103.507 103.117 92.578 119.472 C 81.649 135.828 75.814 155.057 75.813 174.727 C 75.813 201.106 86.292 226.404 104.944 245.056 C 123.596 263.708 148.894 274.188 175.273 274.188 L 175.273 274.193 Z  M 175.494 191.544 C 170.614 191.539 165.743 191.946 160.931 192.76 L 168.181 180.236 C 170.625 180.071 173.069 179.989 175.494 179.989 C 181.197 179.993 186.89 180.448 192.52 181.351 L 164.458 132.748 L 117.717 213.674 L 111.036 202.106 L 164.35 109.763 L 164.458 109.953 L 164.566 109.77 L 228.909 221.209 L 215.549 221.209 L 200.511 195.166 C 192.395 192.735 183.966 191.513 175.494 191.538 L 175.494 191.544 Z  M 233.044 213.864 L 170.752 105.971 L 184.112 105.971 L 239.724 202.296 L 233.044 213.864 Z  M 171.22 159.208 L 145.64 203.531 C 154.796 200.77 165.566 199.535 175.729 199.535 C 176.552 199.535 177.375 199.535 178.198 199.567 C 183.969 199.704 189.719 200.301 195.395 201.353 L 203.93 216.138 C 194.899 212.81 185.353 211.096 175.729 211.072 C 161.705 211.022 147.891 214.469 135.534 221.101 L 135.724 220.766 L 135.465 221.209 L 122.105 221.209 L 164.584 147.64 L 171.22 159.208 Z " fill-rule="evenodd" fill="url(#_lgradient_0)"/></g></g></svg>