<?xml version="1.0" encoding="UTF-8" standalone="no"?><!-- Generator: Gravit.io --><svg xmlns="http://www.w3.org/2000/svg" xmlns:xlink="http://www.w3.org/1999/xlink" style="isolation:isolate" viewBox="0 0 350 350" width="350pt" height="350pt"><defs><clipPath id="_clipPath_Qxv8BC9w2Ev17oxEns5t5ATQU92uYKOG"><rect width="350" height="350"/></clipPath></defs><g clip-path="url(#_clipPath_Qxv8BC9w2Ev17oxEns5t5ATQU92uYKOG)"><g><linearGradient id="_lgradient_1" x1="0.15822132453074067" y1="0.8415477353955695" x2="0.7963721913572026" y2="0.20331344797421258" gradientTransform="matrix(279.852,0,0,279.855,35.074,35.145)" gradientUnits="userSpaceOnUse"><stop offset="0%" stop-opacity="1" style="stop-color:rgb(230,0,122)"/><stop offset="21%" stop-opacity="1" style="stop-color:rgb(112,58,194)"/><stop offset="46%" stop-opacity="1" style="stop-color:rgb(0,112,235)"/><stop offset="77%" stop-opacity="1" style="stop-color:rgb(2,151,251)"/><stop offset="100%" stop-opacity="1" style="stop-color:rgb(10,226,255)"/></linearGradient><path d=" M 314.554 165.728 C 309.418 88.688 242.65 30.324 165.143 35.46 C 126.856 37.794 93.238 56.004 69.893 82.618 L 69.893 82.618 C 69.893 82.618 69.426 83.085 69.426 83.085 C 46.08 110.166 33.007 146.118 35.341 184.404 C 35.808 188.14 35.808 191.875 36.742 195.143 C 36.742 195.143 36.742 195.61 36.742 195.61 C 37.209 197.945 37.676 200.279 38.143 202.614 C 38.61 204.948 39.077 206.816 39.544 209.151 C 55.419 273.584 115.65 319.342 184.286 314.673 C 261.793 309.537 320.157 242.768 314.554 165.728 C 314.554 165.728 314.554 165.728 314.554 165.728 Z  M 284.205 167.596 C 284.672 176.934 284.205 186.272 282.337 195.143 C 282.337 195.143 282.337 195.143 282.337 195.143 C 272.065 170.397 251.988 152.188 234.245 142.382 C 237.981 100.36 223.507 82.618 207.165 79.816 C 194.558 77.482 182.418 85.886 180.084 98.493 C 180.084 98.96 180.084 99.427 180.084 99.894 C 178.216 112.5 187.554 124.64 200.161 126.041 C 200.161 126.041 200.161 126.041 200.161 126.041 C 201.095 126.041 202.496 126.041 203.429 126.041 C 203.429 127.441 203.429 128.842 203.429 130.71 C 188.488 126.974 174.481 126.041 161.874 127.441 C 157.205 127.908 152.536 128.375 147.4 129.309 C 148.801 115.302 154.404 98.96 164.676 87.287 C 174.481 76.081 189.422 69.544 205.764 71.412 C 209.032 71.879 212.301 72.346 215.102 73.28 C 215.102 73.28 215.569 73.28 215.569 73.28 C 253.389 89.155 281.403 124.64 284.205 167.596 C 284.205 167.596 284.205 167.596 284.205 167.596 Z  M 186.621 189.074 C 186.621 189.074 186.621 189.074 186.621 189.074 C 182.885 194.21 179.15 198.879 174.481 203.081 C 167.944 196.077 161.874 188.14 157.672 179.268 C 157.672 178.801 157.205 178.335 157.205 177.868 L 157.205 177.868 C 154.404 172.265 152.536 166.195 151.135 160.592 C 160.94 158.257 170.746 157.324 180.084 157.791 L 181.485 157.791 L 181.485 157.791 C 187.554 158.257 193.624 159.191 199.694 161.059 C 196.426 170.864 192.224 180.669 186.621 189.074 C 186.621 189.074 186.621 189.074 186.621 189.074 Z  M 138.529 71.879 L 138.529 71.879 C 122.187 93.357 116.584 119.504 116.584 139.581 C 78.297 157.324 70.36 178.801 75.963 194.21 C 75.963 194.676 76.43 195.143 76.43 195.61 C 81.566 207.75 95.106 213.353 107.246 208.217 C 119.385 203.081 124.988 189.54 119.852 177.401 C 119.385 176.467 118.919 175.533 118.452 174.599 C 119.852 173.665 120.786 173.199 122.187 172.265 C 126.389 187.206 132.926 199.346 139.93 210.085 C 142.731 213.82 145.532 218.022 148.801 221.29 C 135.727 226.893 119.385 230.162 103.977 227.36 C 89.036 224.559 76.43 214.754 69.426 199.812 C 68.025 197.011 67.091 193.743 66.625 190.941 C 66.158 188.14 66.158 185.338 65.691 183.004 C 62.422 132.11 93.238 87.754 138.529 71.879 Z  M 182.418 284.323 C 152.536 286.191 124.988 276.386 103.51 258.176 C 130.124 261.912 155.804 253.507 173.08 243.235 C 207.632 267.515 230.043 263.779 240.782 251.173 C 249.187 241.368 248.253 226.426 238.448 218.022 C 237.981 217.555 237.514 217.555 237.514 217.088 C 227.242 209.151 212.768 211.018 204.83 221.29 C 204.83 221.29 204.83 221.29 204.83 221.29 C 204.363 222.224 203.429 223.158 202.962 224.092 C 201.562 223.625 200.161 222.691 198.76 221.757 C 208.565 211.485 216.503 200.279 222.573 187.206 C 224.907 183.004 226.775 178.335 228.176 174.132 C 239.848 182.537 251.054 195.143 255.723 210.085 C 260.392 224.559 258.525 240.434 249.187 253.507 C 247.319 255.842 244.984 258.643 242.65 260.511 L 242.65 260.511 C 225.374 274.985 204.363 282.923 182.418 284.323 C 182.418 284.323 182.418 284.323 182.418 284.323 Z " fill="url(#_lgradient_1)"/><g opacity="0.9"><radialGradient id="_rgradient_0" fx="0.5703948177236806" fy="0.47097450858547457" cx="0.5703948177236806" cy="0.47097450858547457" r="1" gradientTransform="matrix(47.888,0,0,142.758,187.554,79.466)" gradientUnits="userSpaceOnUse"><stop offset="0%" stop-opacity="1" style="stop-color:rgb(255,255,255)"/><stop offset="100%" stop-opacity="0" style="stop-color:rgb(255,255,255)"/></radialGradient><path d=" M 207.632 79.816 C 204.83 79.349 202.496 79.349 199.694 79.816 C 213.235 87.287 223.04 107.364 217.904 147.518 C 216.036 160.592 212.301 173.199 206.698 184.871 C 201.562 195.61 195.025 205.415 187.554 214.754 C 191.29 217.555 195.025 219.89 199.227 222.224 C 209.032 211.952 216.97 200.746 223.04 187.673 C 228.643 176 232.845 163.393 234.245 150.32 C 239.848 102.695 224.907 83.085 207.632 79.816 L 207.632 79.816 L 207.632 79.816 Z " fill="url(#_rgradient_0)"/></g><g opacity="0.8"><path d=" M 217.904 147.518 C 223.04 107.364 213.235 87.287 199.694 79.816 C 199.227 79.816 198.76 79.816 198.293 80.283 C 211.367 87.754 220.705 108.298 215.569 147.518 C 213.701 160.592 209.966 173.199 204.363 184.871 C 199.694 195.143 193.157 204.948 185.687 213.82 C 186.154 214.287 186.621 214.287 187.087 214.754 C 195.025 205.882 201.562 195.61 206.231 184.871 C 212.301 173.199 216.036 160.592 217.904 147.518 L 217.904 147.518 Z " fill="rgb(255,255,255)"/></g><g opacity="0.5"><radialGradient id="_rgradient_1" fx="0.5572691712707345" fy="0.41745663446772774" cx="0.5572691712707345" cy="0.41745663446772774" r="1" gradientTransform="matrix(84.511,0,0,23.315,89.036,235.765)" gradientUnits="userSpaceOnUse"><stop offset="0%" stop-opacity="1" style="stop-color:rgb(255,255,255)"/><stop offset="100%" stop-opacity="0" style="stop-color:rgb(255,255,255)"/></radialGradient><path d=" M 167.01 238.566 C 165.61 237.632 164.676 236.698 163.275 235.765 C 143.665 244.169 116.117 249.305 89.036 242.768 C 93.238 248.371 98.374 253.507 103.977 258.176 C 130.591 261.912 156.271 253.507 173.547 243.235 C 171.213 241.368 168.878 239.967 167.01 238.566 L 167.01 238.566 Z " fill="url(#_rgradient_1)"/></g><g opacity="0.6"><linearGradient id="_lgradient_2" x1="0.03837195121951209" y1="0.5527626287508944" x2="0.4284939024390244" y2="0.5473967750923578" gradientTransform="matrix(76.573,0,0,11.523,86.702,233.897)" gradientUnits="userSpaceOnUse"><stop offset="0%" stop-opacity="0" style="stop-color:rgb(255,255,255)"/><stop offset="100%" stop-opacity="1" style="stop-color:rgb(255,255,255)"/></linearGradient><path d=" M 163.275 235.298 C 162.808 234.831 161.874 234.364 161.407 233.897 C 141.33 241.834 113.783 246.504 86.702 239.967 C 87.169 240.901 88.102 241.834 88.569 242.768 C 116.117 248.838 143.198 243.702 163.275 235.298 L 163.275 235.298 Z " fill="url(#_lgradient_2)"/></g><g opacity="0.9"><radialGradient id="_rgradient_2" fx="0.43248110672767814" fy="0.3732119482027265" cx="0.43248110672767814" cy="0.3732119482027265" r="1" gradientTransform="matrix(129.397,0,0,74.313,74.499,126.9)" gradientUnits="userSpaceOnUse"><stop offset="0%" stop-opacity="1" style="stop-color:rgb(255,255,255)"/><stop offset="100%" stop-opacity="0" style="stop-color:rgb(255,255,255)"/></radialGradient><path d=" M 75.963 194.21 C 75.963 194.676 76.43 195.143 76.43 195.61 C 77.363 197.945 78.297 199.812 79.698 201.213 C 79.231 185.805 91.838 167.129 129.191 151.721 C 141.33 146.585 154.404 143.783 167.477 142.849 C 179.15 141.916 191.29 142.382 202.962 144.717 C 203.429 139.581 203.896 134.912 203.896 130.71 C 190.356 127.441 176.349 126.041 162.341 127.441 C 149.268 128.375 136.194 131.177 124.055 136.313 C 79.698 154.989 70.36 177.868 75.963 194.21 L 75.963 194.21 L 75.963 194.21 Z " fill="url(#_rgradient_2)"/></g><g opacity="0.8"><path d=" M 129.657 151.721 C 92.305 167.129 79.698 185.805 80.165 201.213 C 80.632 201.68 80.632 202.147 81.099 202.614 C 81.099 187.673 93.705 168.996 130.591 153.588 C 142.731 148.452 155.804 145.651 168.878 144.717 C 180.084 143.783 191.757 144.25 202.962 146.585 C 202.962 146.118 202.962 145.651 202.962 145.184 C 191.29 142.849 179.617 142.382 167.477 143.316 C 154.871 143.783 141.797 146.585 129.657 151.721 C 129.657 151.721 129.657 151.721 129.657 151.721 Z " fill="rgb(255,255,255)"/></g><g opacity="0.4"><radialGradient id="_rgradient_3" fx="0.4554841867924986" fy="0.4237010904458296" cx="0.4554841867924986" cy="0.4237010904458296" r="1" gradientTransform="matrix(49.493,0,0,73.305,232.845,142.382)" gradientUnits="userSpaceOnUse"><stop offset="0%" stop-opacity="1" style="stop-color:rgb(255,255,255)"/><stop offset="100%" stop-opacity="0" style="stop-color:rgb(255,255,255)"/></radialGradient><path d=" M 233.779 150.32 C 233.779 151.721 233.312 153.588 232.845 154.989 C 249.654 168.063 267.863 189.074 276.267 215.687 C 279.069 209.151 280.937 202.147 282.337 195.143 C 272.065 170.397 251.988 152.654 234.245 142.382 C 234.245 145.184 234.245 147.518 233.779 150.32 C 233.779 150.32 233.779 150.32 233.779 150.32 Z " fill="url(#_rgradient_3)"/></g><g opacity="0.5"><linearGradient id="_lgradient_3" x1="0.949202127659575" y1="0.9588321167883209" x2="0.6772117948504693" y2="0.502386660568827" gradientTransform="matrix(43.89,0,0,63.967,232.378,154.989)" gradientUnits="userSpaceOnUse"><stop offset="0%" stop-opacity="0" style="stop-color:rgb(255,255,255)"/><stop offset="100%" stop-opacity="1" style="stop-color:rgb(255,255,255)"/></linearGradient><path d=" M 232.845 154.989 C 232.845 155.923 232.378 156.39 232.378 157.324 C 249.187 170.397 266.929 191.875 274.867 218.956 C 275.334 218.022 275.801 217.088 276.267 215.687 C 268.33 189.074 250.12 168.063 232.845 154.989 C 232.845 154.989 232.845 154.989 232.845 154.989 Z " fill="url(#_lgradient_3)"/></g><g opacity="0.9"><radialGradient id="_rgradient_4" fx="0.4461232456273787" fy="0.5852581596780932" cx="0.4461232456273787" cy="0.5852581596780932" r="1" gradientTransform="matrix(122.798,0,0,95.058,122.187,165.728)" gradientUnits="userSpaceOnUse"><stop offset="0%" stop-opacity="1" style="stop-color:rgb(255,255,255)"/><stop offset="100%" stop-opacity="0" style="stop-color:rgb(255,255,255)"/></radialGradient><path d=" M 240.782 251.173 C 242.65 249.305 244.051 246.97 244.984 244.169 C 231.911 252.106 209.499 250.239 177.282 225.959 C 167.01 218.022 157.672 208.217 150.668 197.478 C 143.665 187.673 138.529 176.934 134.793 165.728 C 130.124 167.596 125.922 169.93 122.187 171.798 C 125.922 185.338 131.992 197.945 140.396 209.618 C 147.4 220.357 156.738 230.162 167.01 238.099 C 205.297 267.515 229.576 264.246 240.782 251.173 L 240.782 251.173 L 240.782 251.173 Z " fill="url(#_rgradient_4)"/></g><g opacity="0.8"><path d=" M 177.282 225.959 C 209.499 250.239 231.911 252.106 244.984 244.169 C 244.984 243.702 245.451 243.235 245.451 242.768 C 232.378 250.239 209.966 248.371 178.216 224.092 C 167.944 216.154 158.606 206.349 151.602 195.61 C 145.066 186.272 139.93 176 136.194 165.261 C 135.727 165.261 135.26 165.728 134.793 165.728 C 138.529 176.934 144.132 187.673 150.668 197.478 C 157.672 208.217 166.543 218.022 177.282 225.959 L 177.282 225.959 L 177.282 225.959 Z " fill="rgb(255,255,255)"/></g><g opacity="0.3"><radialGradient id="_rgradient_5" fx="0.393980229796725" fy="0.5491819076923186" cx="0.393980229796725" cy="0.5491819076923186" r="1" gradientTransform="matrix(42.516,0,0,72.838,116.557,66.276)" gradientUnits="userSpaceOnUse"><stop offset="0%" stop-opacity="1" style="stop-color:rgb(255,255,255)"/><stop offset="100%" stop-opacity="0" style="stop-color:rgb(255,255,255)"/></radialGradient><path d=" M 124.055 136.313 C 125.455 135.846 126.856 135.379 128.257 134.445 C 131.058 113.434 140.396 86.82 159.073 66.276 C 152.069 67.21 145.066 69.077 138.062 71.412 C 121.72 92.423 116.117 119.037 116.584 139.114 C 119.385 138.647 121.72 137.246 124.055 136.313 L 124.055 136.313 L 124.055 136.313 Z " fill="url(#_rgradient_5)"/></g><g opacity="0.4"><linearGradient id="_lgradient_4" x1="0.9358918918918921" y1="0.033360544217686916" x2="0.6592461011027597" y2="0.5289104105655171" gradientTransform="matrix(34.551,0,0,68.636,128.724,66.276)" gradientUnits="userSpaceOnUse"><stop offset="0%" stop-opacity="0" style="stop-color:rgb(255,255,255)"/><stop offset="100%" stop-opacity="1" style="stop-color:rgb(255,255,255)"/></linearGradient><path d=" M 128.724 134.912 C 129.657 134.445 130.124 134.445 131.058 133.978 C 134.327 112.5 143.665 86.353 163.275 66.276 C 162.341 66.276 160.94 66.743 160.007 66.743 C 140.396 87.287 131.058 113.434 128.724 134.912 L 128.724 134.912 L 128.724 134.912 Z " fill="url(#_lgradient_4)"/></g><g opacity="0.4"><linearGradient id="_lgradient_5" x1="0.6804757281553397" y1="0.3110401156025653" x2="0.3641003236245955" y2="0.40307895055402126" gradientTransform="matrix(144.275,0,0,65.36,69.426,35)" gradientUnits="userSpaceOnUse"><stop offset="0%" stop-opacity="1" style="stop-color:rgb(35,31,32)"/><stop offset="100%" stop-opacity="1" style="stop-color:rgb(255,255,255)"/></linearGradient><path d=" M 165.61 35.46 C 126.856 37.794 93.238 56.004 69.893 82.618 L 69.426 83.085 C 74.095 87.754 89.036 96.625 95.106 100.36 C 107.246 87.287 122.187 77.482 138.996 71.412 C 140.396 70.011 141.33 68.144 142.731 66.743 C 158.606 49 180.084 39.662 205.297 39.662 C 208.098 39.662 213.701 40.129 213.701 40.129 C 197.826 35.927 181.485 34.059 165.61 35.46 L 165.61 35.46 Z " fill="url(#_lgradient_5)"/></g><g opacity="0.4"><linearGradient id="_lgradient_6" x1="0.29333114227152274" y1="0.19098695772401864" x2="0.5551847513543076" y2="0.4643090757438769" gradientTransform="matrix(145.75,0,0,105.849,38.61,209.151)" gradientUnits="userSpaceOnUse"><stop offset="0%" stop-opacity="1" style="stop-color:rgb(35,31,32)"/><stop offset="100%" stop-opacity="1" style="stop-color:rgb(255,255,255)"/></linearGradient><path d=" M 182.418 284.323 C 152.536 286.191 124.988 276.386 103.51 258.176 C 101.643 257.709 99.775 257.709 97.441 257.243 C 74.095 252.573 54.952 238.566 42.345 216.621 C 40.944 214.287 39.544 211.952 38.61 209.151 C 55.419 273.584 115.65 319.342 184.286 314.673 C 184.753 307.669 182.885 291.327 182.418 284.323 C 182.418 284.323 182.418 284.323 182.418 284.323 Z " fill="url(#_lgradient_6)"/></g><g opacity="0.4"><linearGradient id="_lgradient_7" x1="0.32996550711944206" y1="0.525593624297823" x2="0.4802886229420311" y2="0.06859866670214643" gradientTransform="matrix(42.799,0,0,109.798,272.065,165.654)" gradientUnits="userSpaceOnUse"><stop offset="0%" stop-opacity="1" style="stop-color:rgb(35,31,32)"/><stop offset="100%" stop-opacity="1" style="stop-color:rgb(255,255,255)"/></linearGradient><path d=" M 314.554 165.728 C 310.352 165.261 289.341 167.129 284.205 167.596 C 284.672 176.934 284.205 186.272 282.337 195.143 C 283.271 197.011 283.738 198.879 284.205 200.746 C 291.676 223.158 289.341 246.97 276.734 268.448 C 275.334 270.783 273.933 273.117 272.065 275.452 C 272.065 275.452 272.065 275.452 272.065 275.452 C 301.014 247.904 317.356 208.217 314.554 165.728 C 314.554 165.728 314.554 165.728 314.554 165.728 Z " fill="url(#_lgradient_7)"/></g><g opacity="0.5"><linearGradient id="_lgradient_8" x1="0.2742064220183482" y1="0.5034566097644184" x2="0.875261467889908" y2="0.6410254171038678" gradientTransform="matrix(101.787,0,0,31.017,160.474,62.806)" gradientUnits="userSpaceOnUse"><stop offset="0%" stop-opacity="1" style="stop-color:rgb(35,31,32)"/><stop offset="100%" stop-opacity="1" style="stop-color:rgb(255,255,255)"/></linearGradient><path d=" M 206.231 71.412 C 209.499 71.879 212.768 72.346 215.569 73.28 C 215.569 73.28 216.036 73.28 216.036 73.28 C 228.176 78.416 238.915 84.952 248.72 93.824 C 248.72 93.824 248.72 93.824 248.72 93.824 C 253.389 88.688 262.26 82.618 262.26 82.618 C 262.26 82.618 248.72 68.611 228.176 64.408 C 213.701 61.607 181.018 58.339 160.474 93.824 L 160.474 93.824 C 161.874 91.489 163.742 89.155 165.61 87.287 C 175.415 76.081 190.356 69.544 206.231 71.412 Z " fill="url(#_lgradient_8)"/></g><g opacity="0.5"><linearGradient id="_lgradient_9" x1="0.8241598152036866" y1="0.3453084577114425" x2="0.18320334374938063" y2="1.034923011924978" gradientTransform="matrix(53.173,0,0,93.849,208.098,202.614)" gradientUnits="userSpaceOnUse"><stop offset="0%" stop-opacity="1" style="stop-color:rgb(35,31,32)"/><stop offset="100%" stop-opacity="1" style="stop-color:rgb(255,255,255)"/></linearGradient><path d=" M 249.187 253.974 C 247.319 256.309 244.984 259.11 242.65 260.978 C 242.65 260.978 242.65 260.978 242.183 261.445 C 231.911 269.382 220.238 275.452 208.098 279.187 C 208.098 279.187 208.098 279.187 208.098 279.187 C 210.433 285.724 210.9 296.463 210.9 296.463 C 210.9 296.463 229.576 291.794 243.584 275.919 C 253.389 264.713 272.532 238.099 252.455 202.614 C 252.455 202.614 252.455 202.614 252.455 203.081 C 253.856 205.415 254.79 208.217 255.723 210.551 C 260.392 224.559 258.525 240.901 249.187 253.974 C 249.187 253.974 249.187 253.974 249.187 253.974 Z " fill="url(#_lgradient_9)"/></g><g opacity="0.5"><linearGradient id="_lgradient_10" x1="0.5549856159812202" y1="0.7956460674157302" x2="0.32589434432676556" y2="0.05043245995039192" gradientTransform="matrix(62.616,0,0,83.11,49.765,145.651)" gradientUnits="userSpaceOnUse"><stop offset="0%" stop-opacity="1" style="stop-color:rgb(35,31,32)"/><stop offset="100%" stop-opacity="1" style="stop-color:rgb(255,255,255)"/></linearGradient><path d=" M 69.426 199.812 C 68.025 197.011 67.091 193.743 66.625 190.941 C 66.625 190.941 66.625 190.474 66.625 190.474 C 64.757 177.401 65.224 164.327 68.025 151.721 L 68.025 151.721 C 61.022 150.32 51.683 145.651 51.683 145.651 C 51.683 145.651 46.547 164.327 53.084 184.404 C 57.753 198.412 71.761 228.294 112.382 228.761 C 112.382 228.761 112.382 228.761 111.915 228.761 C 109.113 228.761 106.312 228.294 103.51 227.827 C 89.036 224.092 75.963 214.754 69.426 199.812 C 69.426 199.812 69.426 199.812 69.426 199.812 Z " fill="url(#_lgradient_10)"/></g><g opacity="0.6"><linearGradient id="_lgradient_11" x1="0.9090861063219409" y1="0.35475640764032756" x2="0.23098286991940165" y2="1.0338416907284604" gradientTransform="matrix(23.594,0,0,38.84,180.303,87.2)" gradientUnits="userSpaceOnUse"><stop offset="0%" stop-opacity="1" style="stop-color:rgb(35,31,32)"/><stop offset="100%" stop-opacity="1" style="stop-color:rgb(255,255,255)"/></linearGradient><path d=" M 200.628 126.041 C 201.562 126.041 202.962 126.041 203.896 126.041 C 203.896 126.041 202.962 111.566 201.562 104.096 C 199.694 96.625 196.893 91.489 194.091 88.688 C 192.224 86.82 185.687 84.019 180.551 99.427 C 178.683 112.5 187.554 124.64 200.628 126.041 C 200.628 126.041 200.628 126.041 200.628 126.041 L 200.628 126.041 L 200.628 126.041 Z " fill="url(#_lgradient_11)"/></g><g opacity="0.5"><linearGradient id="_lgradient_12" x1="0.20006354392094172" y1="0.4142491752143993" x2="1.0610556223290188" y2="0.6455400532184058" gradientTransform="matrix(30.478,0,0,34.469,91.286,174.599)" gradientUnits="userSpaceOnUse"><stop offset="0%" stop-opacity="1" style="stop-color:rgb(35,31,32)"/><stop offset="100%" stop-opacity="1" style="stop-color:rgb(255,255,255)"/></linearGradient><path d=" M 119.852 177.401 C 119.385 176.467 118.919 175.533 118.452 174.599 C 118.452 174.599 106.312 182.537 100.709 187.673 C 95.106 192.809 92.305 197.945 91.371 201.68 C 90.904 204.482 91.838 211.485 107.713 208.217 C 119.385 203.081 124.988 189.54 119.852 177.401 L 119.852 177.401 Z " fill="url(#_lgradient_12)"/></g><g opacity="0.6"><linearGradient id="_lgradient_13" x1="0.5605397879708036" y1="0.9957218539864758" x2="0.3891765099183857" y2="0.3563572173505606" gradientTransform="matrix(41.333,0,0,22.974,202.496,212.44)" gradientUnits="userSpaceOnUse"><stop offset="0%" stop-opacity="1" style="stop-color:rgb(35,31,32)"/><stop offset="100%" stop-opacity="1" style="stop-color:rgb(255,255,255)"/></linearGradient><path d=" M 204.363 221.757 C 203.896 222.691 202.962 223.625 202.496 224.559 C 202.496 224.559 215.569 231.096 223.04 233.43 C 230.51 235.765 236.113 235.765 239.848 234.831 C 242.65 233.897 248.253 229.695 237.514 217.555 C 227.242 209.151 212.301 211.485 204.363 221.757 C 204.363 221.757 204.363 221.757 204.363 221.757 C 204.363 221.757 204.363 221.757 204.363 221.757 Z " fill="url(#_lgradient_13)"/></g><g opacity="0.3"><linearGradient id="_lgradient_14" x1="0.20507894736842225" y1="0.8294656488549617" x2="0.4053761856154465" y2="0.553232429521515" gradientTransform="matrix(53.228,0,0,61.165,174.481,161.059)" gradientUnits="userSpaceOnUse"><stop offset="0%" stop-opacity="1" style="stop-color:rgb(35,31,32)"/><stop offset="100%" stop-opacity="1" style="stop-color:rgb(255,255,255)"/></linearGradient><path d=" M 199.694 161.059 C 196.893 170.864 192.69 179.735 187.554 187.673 C 187.087 188.14 187.087 188.607 186.621 189.074 C 186.621 189.074 186.621 189.074 186.621 189.074 C 182.885 194.21 179.15 198.879 174.481 203.081 C 177.749 206.349 181.018 209.618 184.753 212.886 C 188.955 216.154 193.624 219.423 198.293 222.224 C 208.098 211.952 216.036 200.746 222.106 187.673 C 224.44 183.471 225.841 178.801 227.709 174.599 C 222.573 170.864 217.904 168.063 213.235 166.195 C 209.032 164.327 204.363 162.46 199.694 161.059 L 199.694 161.059 L 199.694 161.059 Z " fill="url(#_lgradient_14)"/></g><g opacity="0.3"><linearGradient id="_lgradient_15" x1="0.741362445414847" y1="0.20411786790373787" x2="0.5241135371179039" y2="0.3076986539299386" gradientTransform="matrix(106.923,0,0,68.139,66.158,190.941)" gradientUnits="userSpaceOnUse"><stop offset="0%" stop-opacity="1" style="stop-color:rgb(35,31,32)"/><stop offset="100%" stop-opacity="1" style="stop-color:rgb(255,255,255)"/></linearGradient><path d=" M 103.51 258.176 C 130.124 261.912 155.804 253.507 173.08 243.235 C 170.746 241.834 168.878 240.434 166.543 238.566 C 160.007 233.43 153.937 227.827 148.334 221.29 C 135.26 226.893 118.919 230.162 103.51 227.36 C 88.569 224.559 75.963 214.754 68.959 199.812 C 67.558 197.011 66.625 193.743 66.158 190.941 C 70.36 217.555 83.9 241.368 103.51 258.176 L 103.51 258.176 L 103.51 258.176 Z " fill="url(#_lgradient_15)"/></g><g opacity="0.3"><linearGradient id="_lgradient_16" x1="0.2771171171171174" y1="0.09274418604651169" x2="0.40037167119488404" y2="0.3487775097444179" gradientTransform="matrix(51.827,0,0,60.231,122.654,160.592)" gradientUnits="userSpaceOnUse"><stop offset="0%" stop-opacity="1" style="stop-color:rgb(35,31,32)"/><stop offset="100%" stop-opacity="1" style="stop-color:rgb(255,255,255)"/></linearGradient><path d=" M 174.481 203.081 C 167.944 196.077 161.874 188.14 157.672 179.268 C 157.672 178.801 157.205 178.335 157.205 177.868 L 157.205 177.868 C 154.404 172.265 152.536 166.195 151.135 160.592 C 146.466 161.526 141.797 162.927 137.595 164.794 C 132.459 166.662 127.323 169.463 122.654 171.798 C 126.856 186.739 133.393 198.879 140.396 209.618 C 143.198 213.353 145.999 217.555 149.268 220.823 C 154.871 218.489 160.007 215.687 163.742 212.419 C 167.477 210.085 171.213 206.816 174.481 203.081 C 174.481 203.081 174.481 203.081 174.481 203.081 Z " fill="url(#_lgradient_16)"/></g><g opacity="0.3"><linearGradient id="_lgradient_17" x1="0.5392562494196294" y1="0.7378667800733401" x2="0.4891282498631184" y2="0.5647530581806293" gradientTransform="matrix(99.012,0,0,74.415,117.024,65.166)" gradientUnits="userSpaceOnUse"><stop offset="0%" stop-opacity="1" style="stop-color:rgb(35,31,32)"/><stop offset="100%" stop-opacity="1" style="stop-color:rgb(255,255,255)"/></linearGradient><path d=" M 138.529 71.879 C 122.187 92.89 116.584 119.504 117.051 139.581 C 119.385 138.647 121.72 137.246 124.055 136.313 C 131.525 133.044 139.93 130.71 147.867 129.309 C 149.268 115.302 154.871 98.96 165.143 87.287 C 174.948 76.081 189.889 69.544 206.231 71.412 C 209.499 71.879 212.768 72.346 215.569 73.28 C 215.569 73.28 216.036 73.28 216.036 73.28 C 200.628 67.21 183.819 64.408 167.477 65.342 C 157.205 66.276 147.867 68.611 138.529 71.879 C 138.529 71.879 138.529 71.879 138.529 71.879 L 138.529 71.879 L 138.529 71.879 Z " fill="url(#_lgradient_17)"/></g><g opacity="0.3"><linearGradient id="_lgradient_18" x1="-0.07525477099236566" y1="0.4737440944881889" x2="0.183939175771335" y2="0.5334091945711319" gradientTransform="matrix(54.369,0,0,118.595,228.176,142.382)" gradientUnits="userSpaceOnUse"><stop offset="0%" stop-opacity="1" style="stop-color:rgb(35,31,32)"/><stop offset="100%" stop-opacity="1" style="stop-color:rgb(255,255,255)"/></linearGradient><path d=" M 282.337 195.143 C 272.532 170.397 252.455 152.654 234.712 142.382 C 234.712 144.717 234.245 147.518 233.779 150.32 C 232.845 158.724 230.977 166.662 228.176 174.599 C 239.848 183.004 251.054 195.61 255.723 210.551 C 260.392 225.026 258.525 240.901 249.187 253.974 C 247.319 256.309 244.984 259.11 242.65 260.978 L 242.65 260.978 C 263.194 245.103 277.668 221.757 282.337 195.143 C 282.804 195.143 282.337 195.143 282.337 195.143 L 282.337 195.143 L 282.337 195.143 Z " fill="url(#_lgradient_18)"/></g><g opacity="0.3"><linearGradient id="_lgradient_19" x1="0.9659666666666662" y1="0.6764094636924676" x2="0.6403833333333329" y2="0.6173261303591346" gradientTransform="matrix(56.029,0,0,34.236,147.4,126.823)" gradientUnits="userSpaceOnUse"><stop offset="0%" stop-opacity="1" style="stop-color:rgb(35,31,32)"/><stop offset="100%" stop-opacity="1" style="stop-color:rgb(255,255,255)"/></linearGradient><path d=" M 147.867 146.118 C 148.334 150.787 149.268 155.923 150.668 160.592 C 160.474 158.257 170.279 157.324 179.617 157.791 L 181.018 157.791 L 181.018 157.791 C 187.087 158.257 193.157 159.191 199.227 161.059 C 200.628 156.39 201.562 151.721 202.496 147.052 C 203.429 140.982 203.429 135.379 203.429 130.71 C 188.488 126.974 174.481 126.041 161.874 127.441 C 157.205 127.908 152.536 128.375 147.4 129.309 C 147.4 135.379 147.4 140.982 147.867 146.118 C 147.867 146.118 147.867 146.118 147.867 146.118 Z " fill="url(#_lgradient_19)"/></g></g></g></svg>