<svg xmlns="http://www.w3.org/2000/svg" width="350pt" height="350pt" style="isolation:isolate" viewBox="0 0 350 350"><defs><clipPath id="a"><path d="M0 0h350v350H0z"/></clipPath></defs><g clip-path="url(#a)"><path d="M0 0h350v350H0z" style="fill:#331c47"/><circle cx="174.973" cy="66.055" r="25.898" fill="#E40B7B" vector-effect="non-scaling-stroke"/><circle cx="174.973" cy="283.945" r="25.898" fill="#E40B7B" vector-effect="non-scaling-stroke"/><circle cx="79.468" cy="117.85" r="25.898" fill="#E40B7B" vector-effect="non-scaling-stroke"/><circle cx="270.532" cy="117.85" r="25.898" fill="#E40B7B" vector-effect="non-scaling-stroke"/><circle cx="79.468" cy="233.024" r="25.898" fill="#E40B7B" vector-effect="non-scaling-stroke"/><circle cx="270.532" cy="233.024" r="25.898" fill="#E40B7B" vector-effect="non-scaling-stroke"/><path fill="#FFF" d="M232.013 183.305c-2.732-4.098-6.83-7.267-12.239-9.616-1.748-.765-3.66-1.366-5.682-1.913.437-.218.82-.437 1.257-.655 4.808-2.787 8.305-6.229 10.435-10.326s3.224-8.633 3.224-13.605q0-8.195-3.77-14.096c-2.513-3.988-6.174-6.993-10.873-9.124-4.753-2.131-10.38-3.169-16.937-3.169h-80.861l8.086 52.669-8.086 55.565h83.866c7.759 0 14.26-1.311 19.669-3.988 5.355-2.623 9.398-6.338 12.075-10.982 2.677-4.699 4.043-10.053 4.043-16.063-.109-5.737-1.475-10.6-4.207-14.697m-44.419-36.934c1.311.655 2.349 1.584 3.005 2.731.71 1.148 1.038 2.459 1.038 3.989q0 2.377-1.148 4.261a8.1 8.1 0 0 1-3.114 2.951c-1.311.71-2.786 1.038-4.48 1.038h-25.297l-2.568-15.899h27.92c1.748-.055 3.332.273 4.644.929m8.468 55.401c-1.803 1.694-4.261 2.513-7.43 2.513h-33.765l2.841-18.74h30.596c3.278 0 5.846.874 7.649 2.622 1.858 1.749 2.732 3.88 2.732 6.721.109 2.895-.82 5.19-2.623 6.884"/></g></svg>