<svg xmlns="http://www.w3.org/2000/svg" width="350pt" height="350pt" style="isolation:isolate" viewBox="0 0 350 350"><defs><clipPath id="a"><path d="M0 0h350v350H0z"/></clipPath></defs><g clip-path="url(#a)"><path d="M0 0h350v350H0z" style="fill:#000"/><g fill="#FFF" fill-rule="evenodd"><path d="M73.305 252.119c-8.051-16.95-12.288-35.594-12.288-55.509 0-72.881 58.898-131.779 131.78-131.779 40.678 0 76.695 18.22 100.847 47.033l14.407-12.288c-27.543-33.051-69.068-53.813-115.254-53.813-83.475 0-150.848 67.373-150.848 150.423 0 22.882 5.085 44.492 13.983 63.56z"/><path d="M192.797 285.593c-49.153 0-89.407-39.83-89.407-89.407 0-49.152 39.83-89.406 89.407-89.406 27.542 0 52.118 12.288 68.644 31.779l14.406-12.288c-19.915-23.729-49.576-38.559-83.05-38.559-59.746.424-108.475 48.729-108.475 108.474s48.305 108.051 108.051 108.051v-18.644z"/><path d="M225 223.305c-7.627 9.322-19.492 15.254-32.627 15.254-23.305 0-42.373-19.067-42.373-42.373s19.068-42.372 42.373-42.372c13.135 0 24.576 5.932 32.627 15.254l16.102-13.56c-11.865-13.983-29.238-22.881-48.729-22.881-35.17 0-63.559 28.39-63.559 63.559 0 35.17 28.389 63.56 63.559 63.56 17.796 0 33.898-7.204 45.763-19.492z"/></g></g></svg>