<?xml version="1.0" encoding="UTF-8" standalone="no"?><!-- Generator: Gravit.io --><svg xmlns="http://www.w3.org/2000/svg" xmlns:xlink="http://www.w3.org/1999/xlink" style="isolation:isolate" viewBox="0 0 350 350" width="350pt" height="350pt"><defs><clipPath id="_clipPath_N332H8WwllXjJCkDks8rmsaBeorvBnIR"><rect width="350" height="350"/></clipPath></defs><g clip-path="url(#_clipPath_N332H8WwllXjJCkDks8rmsaBeorvBnIR)"><rect width="350" height="350" style="fill:rgb(0,0,0)"/><g><path d=" M 73.305 252.119 C 65.254 235.169 61.017 216.525 61.017 196.61 C 61.017 123.729 119.915 64.831 192.797 64.831 C 233.475 64.831 269.492 83.051 293.644 111.864 L 308.051 99.576 C 280.508 66.525 238.983 45.763 192.797 45.763 C 109.322 45.763 41.949 113.136 41.949 196.186 C 41.949 219.068 47.034 240.678 55.932 259.746 L 73.305 252.119 L 73.305 252.119 Z " fill-rule="evenodd" fill="rgb(255,255,255)"/><path d=" M 192.797 285.593 C 143.644 285.593 103.39 245.763 103.39 196.186 C 103.39 147.034 143.22 106.78 192.797 106.78 C 220.339 106.78 244.915 119.068 261.441 138.559 L 275.847 126.271 C 255.932 102.542 226.271 87.712 192.797 87.712 C 133.051 88.136 84.322 136.441 84.322 196.186 C 84.322 255.932 132.627 304.237 192.373 304.237 L 192.373 285.593 L 192.797 285.593 Z " fill-rule="evenodd" fill="rgb(255,255,255)"/><path d=" M 225 223.305 C 217.373 232.627 205.508 238.559 192.373 238.559 C 169.068 238.559 150 219.492 150 196.186 C 150 172.881 169.068 153.814 192.373 153.814 C 205.508 153.814 216.949 159.746 225 169.068 L 241.102 155.508 C 229.237 141.525 211.864 132.627 192.373 132.627 C 157.203 132.627 128.814 161.017 128.814 196.186 C 128.814 231.356 157.203 259.746 192.373 259.746 C 210.169 259.746 226.271 252.542 238.136 240.254 L 225 223.305 L 225 223.305 Z " fill-rule="evenodd" fill="rgb(255,255,255)"/></g></g></svg>