<svg xmlns="http://www.w3.org/2000/svg" width="350pt" height="350pt" style="isolation:isolate" viewBox="0 0 350 350"><defs><clipPath id="a"><path d="M0 0h350v350H0z"/></clipPath></defs><g clip-path="url(#a)"><path d="M0 0h350v350H0z" style="fill:#f5ac37"/><path fill="#FEFEFD" d="M177.732 187.385h66.497c1.418 0 2.087 0 2.19-1.859a127 127 0 0 0 0-20.341c0-1.315-.654-1.858-2.079-1.858H111.999c-1.638 0-2.079.543-2.079 2.079v19.467c0 2.512 0 2.512 2.622 2.512zm61.26-46.81a2.13 2.13 0 0 0 0-1.527 43 43 0 0 0-3.953-6.891 55.8 55.8 0 0 0-8.095-10.175 26.9 26.9 0 0 0-5.033-4.922 78.6 78.6 0 0 0-32.815-16.624 81.6 81.6 0 0 0-18.593-1.969h-58.732c-1.638 0-1.859.654-1.859 2.079v38.825c0 1.638 0 2.079 2.079 2.079h126.214s1.095-.221 1.315-.875h-.535zm0 69.561a25.5 25.5 0 0 0-5.591 0H112.109c-1.638 0-2.189 0-2.189 2.189v37.958c0 1.748 0 2.189 2.189 2.189h56c2.677.205 5.355.016 7.977-.543a83.4 83.4 0 0 0 23.744-5.253 43.4 43.4 0 0 0 7.977-3.717h.764a71.05 71.05 0 0 0 30.516-30.72s.764-1.654-.095-2.087zM87.941 272.152v-60.48c0-1.426 0-1.638-1.749-1.638H62.457c-1.315 0-1.859 0-1.859-1.749v-20.782h25.374c1.417 0 1.969 0 1.969-1.858v-20.562c0-1.315 0-1.638-1.749-1.638H62.457c-1.315 0-1.859 0-1.859-1.749V142.45c0-1.205 0-1.528 1.749-1.528h23.515c1.638 0 2.079 0 2.079-2.079V79.89c0-1.748 0-2.189 2.189-2.189h82.027c5.953.236 11.867.89 17.719 1.969a106.9 106.9 0 0 1 34.233 12.686 96.5 96.5 0 0 1 19.246 14.876 105.4 105.4 0 0 1 11.703 14.546 87.7 87.7 0 0 1 8.544 16.734 2.85 2.85 0 0 0 3.268 2.3h19.578c2.512 0 2.512 0 2.622 2.409v17.94c0 1.748-.654 2.189-2.41 2.189h-15.096c-1.528 0-1.969 0-1.859 1.969.599 6.662.599 13.348 0 20.011 0 1.858 0 2.079 2.087 2.079h17.27c.764.984 0 1.968 0 2.961a22 22 0 0 1 0 3.819v13.238c0 1.859-.543 2.41-2.189 2.41h-20.672a2.737 2.737 0 0 0-3.174 2.079 87.5 87.5 0 0 1-22.971 33.469 132 132 0 0 1-11.703 9.403c-4.378 2.52-8.639 5.142-13.128 7.221a118.2 118.2 0 0 1-25.814 8.198 134.6 134.6 0 0 1-25.594 2.079H87.909v-.11z"/></g></svg>