<?xml version="1.0" encoding="UTF-8" standalone="no"?><!-- Generator: Gravit.io --><svg xmlns="http://www.w3.org/2000/svg" xmlns:xlink="http://www.w3.org/1999/xlink" style="isolation:isolate" viewBox="0 0 350 350" width="350pt" height="350pt"><defs><clipPath id="_clipPath_MmOpSJWE6qdIXSsJZL55Br2h4biweseA"><rect width="350" height="350"/></clipPath></defs><g clip-path="url(#_clipPath_MmOpSJWE6qdIXSsJZL55Br2h4biweseA)"><rect width="350" height="350" style="fill:rgb(78,5,39)"/><path d=" M 301.999 135.824 L 201.482 149.024 C 200.912 149.097 200.379 149.364 199.965 149.768 L 191.689 157.986 C 190.658 159.006 188.994 159.006 187.963 157.986 L 186.512 156.543 C 185.472 155.513 185.472 153.831 186.512 152.802 L 196.397 142.994 C 197.435 141.964 197.435 140.282 196.397 139.253 L 176.864 119.839 C 175.834 118.819 174.169 118.819 173.139 119.839 L 153.606 139.253 C 152.567 140.282 152.567 141.964 153.606 142.994 L 163.483 152.811 C 164.522 153.84 164.522 155.522 163.483 156.552 L 162.03 157.995 C 161 159.015 159.335 159.015 158.305 157.995 L 150.028 149.777 C 149.615 149.373 149.081 149.106 148.511 149.033 L 47.994 135.824 C 45.493 135.493 43.994 138.536 45.787 140.31 L 67.711 162.095 C 69.385 163.758 68.208 166.608 65.854 166.608 C 63.499 166.608 62.322 169.457 63.996 171.121 L 84.541 191.536 C 84.881 191.867 85.295 192.106 85.764 192.226 L 155.693 209.745 C 156.264 209.883 156.76 210.214 157.128 210.674 L 167.952 224.416 C 169.883 227.081 173.139 230.161 173.139 230.161 C 174.169 231.181 175.834 231.181 176.864 230.161 C 176.864 230.161 179.558 227.44 182.05 224.416 L 192.875 210.674 C 193.233 210.214 193.739 209.892 194.309 209.745 L 264.248 192.226 C 264.707 192.106 265.13 191.876 265.471 191.536 L 286.016 171.121 C 287.689 169.457 286.513 166.608 284.158 166.608 C 281.804 166.608 280.627 163.758 282.302 162.095 L 304.225 140.31 C 306 138.536 304.501 135.502 301.999 135.824 Z " fill="rgb(255,255,255)"/></g></svg>