<?xml version="1.0" encoding="UTF-8" standalone="no"?><!-- Generator: Gravit.io --><svg xmlns="http://www.w3.org/2000/svg" xmlns:xlink="http://www.w3.org/1999/xlink" style="isolation:isolate" viewBox="0 0 350 350" width="350pt" height="350pt"><defs><clipPath id="_clipPath_AXlB9Upgw9hoRwbsfZp1r7NqQLcGwBSY"><rect width="350" height="350"/></clipPath></defs><g clip-path="url(#_clipPath_AXlB9Upgw9hoRwbsfZp1r7NqQLcGwBSY)"><circle vector-effect="non-scaling-stroke" cx="174.99999999999997" cy="175.00000000000009" r="174.99999999999997" fill="rgb(229,62,118)"/><g><path d=" M 58.102 156.496 C 100.159 116.867 148.473 108.038 202.873 123.62 C 188.795 109.909 172.026 101.34 153.084 99.592 C 134.349 97.863 115.331 99.214 99.101 99.214 C 115.768 82.229 134.565 62.267 154.293 43.272 C 165.984 32.015 184.711 32.347 196.549 43.659 C 216.699 62.913 236.523 82.543 255.752 102.712 C 269.74 117.383 265.606 138.926 247.67 148.681 C 228.796 158.948 208.178 162.964 186.991 164.618 C 184.481 164.814 181.96 164.873 179.598 165.892 C 222.009 179.708 259.632 170.742 292.822 141.382 C 313.774 154.632 315.307 170.293 298.095 188.012 C 258.857 228.405 212.321 242.429 157.55 227.855 C 154.518 227.048 151.231 227.202 147.912 227.922 C 179.452 253.103 223.318 257.556 262 246 C 262.752 247.356 261.248 244.644 262 246 C 255.915 251.101 243.29 260.776 237.583 266.269 C 224.758 278.61 212.344 291.377 199.637 303.843 C 184.457 318.736 165.796 318.733 150.598 303.752 C 132.659 286.069 114.765 268.336 97.079 250.401 C 79.879 232.957 83.531 210.733 105.583 200.177 C 126.123 190.345 147.539 184.264 170.716 188.749 C 171.893 188.976 173.232 188.367 174.692 188.113 C 157.372 167.466 100.836 177.607 56.852 208.902 C 35.982 193.789 34.714 179.846 52.585 161.966 C 54.247 160.303 55.92 158.651 58.102 156.496 Z " fill="rgb(255,252,253)"/></g></g></svg>