<?xml version="1.0" encoding="UTF-8" standalone="no"?><!-- Generator: Gravit.io --><svg xmlns="http://www.w3.org/2000/svg" xmlns:xlink="http://www.w3.org/1999/xlink" style="isolation:isolate" viewBox="0 0 350 350" width="350pt" height="350pt"><defs><clipPath id="_clipPath_f414AJ9qiXTvIcJTp17299fexdRlokBk"><rect width="350" height="350"/></clipPath></defs><g clip-path="url(#_clipPath_f414AJ9qiXTvIcJTp17299fexdRlokBk)"><circle vector-effect="non-scaling-stroke" cx="174.99999999999997" cy="174.99999999999997" r="174.99999999999997" fill="rgb(27,11,45)"/><g><path d=" M 303.352 270.117 L 239.39 230.644 C 238.664 230.182 237.872 229.984 237.014 229.984 L 60.048 229.984 C 58.001 229.984 56.219 231.305 55.691 233.285 C 55.163 235.265 55.955 237.311 57.671 238.367 L 121.633 277.84 C 122.359 278.302 123.151 278.5 124.009 278.5 L 300.976 278.5 C 303.022 278.5 304.804 277.18 305.332 275.2 C 305.86 273.285 305.068 271.173 303.352 270.117 Z  M 125.263 269.457 L 76.022 239.093 L 235.694 239.093 L 284.936 269.457 L 125.263 269.457 Z " fill-rule="evenodd" fill="rgb(255,255,255)"/><path d=" M 112.92 120.016 L 289.886 120.016 C 291.933 120.016 293.715 118.695 294.243 116.715 C 294.771 114.735 293.979 112.689 292.263 111.633 L 228.301 72.16 C 227.575 71.698 226.783 71.5 225.925 71.5 L 49.024 71.5 C 46.978 71.5 45.196 72.82 44.668 74.8 C 44.14 76.781 44.932 78.827 46.648 79.883 L 110.61 119.356 C 111.27 119.752 112.128 120.016 112.92 120.016 Z  M 224.671 80.543 L 273.912 110.907 L 114.24 110.907 L 64.998 80.543 L 224.671 80.543 Z " fill-rule="evenodd" fill="rgb(255,255,255)"/></g><g><g><path d=" M 223.584 175.405 C 223.363 202.239 201.428 223.813 174.591 223.591 C 147.765 223.367 126.19 201.431 126.416 174.598 C 126.634 147.762 148.568 126.187 175.397 126.409 C 202.232 126.631 223.806 148.57 223.584 175.405 Z " fill="rgb(247,147,26)"/><path d=" M 194.214 163.255 C 193.642 156.741 188.042 154.513 180.953 153.832 L 181.028 144.804 L 175.532 144.759 L 175.46 153.55 C 174.015 153.538 172.538 153.554 171.07 153.571 L 171.145 144.722 L 165.652 144.677 L 165.575 153.703 C 164.385 153.717 163.216 153.73 162.077 153.721 L 162.077 153.693 L 154.497 153.628 L 154.45 159.497 C 154.45 159.497 158.509 159.453 158.441 159.527 C 160.667 159.547 161.38 160.845 161.582 161.962 L 161.497 172.247 C 161.651 172.249 161.851 172.257 162.078 172.29 C 161.895 172.289 161.699 172.286 161.497 172.286 L 161.377 186.695 C 161.273 187.395 160.852 188.508 159.297 188.498 C 159.367 188.561 155.302 188.464 155.302 188.464 L 154.156 195.018 L 161.307 195.077 C 162.638 195.09 163.948 195.123 165.233 195.142 L 165.16 204.273 L 170.649 204.32 L 170.724 195.285 C 172.231 195.328 173.69 195.353 175.114 195.363 L 175.037 204.356 L 180.533 204.401 L 180.61 195.286 C 189.853 194.832 196.339 192.558 197.214 183.889 C 197.92 176.908 194.66 173.763 189.425 172.46 C 192.625 170.864 194.641 168.022 194.214 163.255 Z  M 186.364 182.717 C 186.311 189.541 174.633 188.668 170.908 188.64 L 171.01 176.542 C 174.735 176.574 186.423 175.599 186.364 182.717 Z  M 183.949 165.626 C 183.896 171.835 174.158 171.029 171.055 171.004 L 171.147 160.031 C 174.249 160.057 184.002 159.151 183.949 165.626 Z " fill="rgb(255,255,255)"/></g></g></g></svg>