<svg xmlns="http://www.w3.org/2000/svg" width="350pt" height="350pt" style="isolation:isolate" viewBox="0 0 350 350"><defs><clipPath id="a"><path d="M0 0h350v350H0z"/></clipPath></defs><g clip-path="url(#a)"><path d="M0 0h350v350H0z" style="fill:#1b0a2c"/><g fill="#FFF" fill-rule="evenodd"><path d="m303.352 270.117-63.962-39.473c-.726-.462-1.518-.66-2.376-.66H60.048c-2.047 0-3.829 1.321-4.357 3.301s.264 4.026 1.98 5.082l63.962 39.473c.726.462 1.518.66 2.376.66h176.967c2.046 0 3.828-1.32 4.356-3.3.528-1.915-.264-4.027-1.98-5.083m-178.089-.66-49.241-30.364h159.672l49.242 30.364zM112.92 120.016h176.966c2.047 0 3.829-1.321 4.357-3.301s-.264-4.026-1.98-5.082L228.301 72.16c-.726-.462-1.518-.66-2.376-.66H49.024c-2.046 0-3.828 1.32-4.356 3.3-.528 1.981.264 4.027 1.98 5.083l63.962 39.473c.66.396 1.518.66 2.31.66m111.751-39.473 49.241 30.364H114.24L64.998 80.543z"/></g><path fill="#F7931A" d="M223.584 175.405c-.221 26.834-22.156 48.408-48.993 48.186-26.826-.224-48.401-22.16-48.175-48.993.218-26.836 22.152-48.411 48.981-48.189 26.835.222 48.409 22.161 48.187 48.996"/><path fill="#FFF" d="M194.214 163.255c-.572-6.514-6.172-8.742-13.261-9.423l.075-9.028-5.496-.045-.072 8.791c-1.445-.012-2.922.004-4.39.021l.075-8.849-5.493-.045-.077 9.026c-1.19.014-2.359.027-3.498.018v-.028l-7.58-.065-.047 5.869s4.059-.044 3.991.03c2.226.02 2.939 1.318 3.141 2.435l-.085 10.285c.154.002.354.01.581.043q-.276-.003-.581-.004l-.12 14.409c-.104.7-.525 1.813-2.08 1.803.07.063-3.995-.034-3.995-.034l-1.146 6.554 7.151.059c1.331.013 2.641.046 3.926.065l-.073 9.131 5.489.047.075-9.035c1.507.043 2.966.068 4.39.078l-.077 8.993 5.496.045.077-9.115c9.243-.454 15.729-2.728 16.604-11.397.706-6.981-2.554-10.126-7.789-11.429 3.2-1.596 5.216-4.438 4.789-9.205m-7.85 19.462c-.053 6.824-11.731 5.951-15.456 5.923l.102-12.098c3.725.032 15.413-.943 15.354 6.175m-2.415-17.091c-.053 6.209-9.791 5.403-12.894 5.378l.092-10.973c3.102.026 12.855-.88 12.802 5.595"/></g></svg>