<?xml version="1.0" encoding="UTF-8" standalone="no"?><!-- Generator: Gravit.io --><svg xmlns="http://www.w3.org/2000/svg" xmlns:xlink="http://www.w3.org/1999/xlink" style="isolation:isolate" viewBox="0 0 350 350" width="350pt" height="350pt"><defs><clipPath id="_clipPath_r4BMu3iReztwBrUdujwYUUBbbJlpmlZO"><rect width="350" height="350"/></clipPath></defs><g clip-path="url(#_clipPath_r4BMu3iReztwBrUdujwYUUBbbJlpmlZO)"><circle vector-effect="non-scaling-stroke" cx="174.99999999999997" cy="175.00000000000009" r="174.99999999999997" fill="rgb(25,10,45)"/><g><path d=" M 303.352 270.117 L 239.39 230.644 C 238.664 230.182 237.872 229.984 237.014 229.984 L 60.048 229.984 C 58.001 229.984 56.219 231.305 55.691 233.285 C 55.163 235.265 55.955 237.311 57.671 238.367 L 121.633 277.84 C 122.359 278.302 123.151 278.5 124.009 278.5 L 300.976 278.5 C 303.022 278.5 304.804 277.18 305.332 275.2 C 305.86 273.285 305.068 271.173 303.352 270.117 Z  M 125.263 269.457 L 76.022 239.093 L 235.694 239.093 L 284.936 269.457 L 125.263 269.457 Z " fill-rule="evenodd" fill="rgb(255,255,255)"/><path d=" M 112.92 120.016 L 289.886 120.016 C 291.933 120.016 293.715 118.695 294.243 116.715 C 294.771 114.735 293.979 112.689 292.263 111.633 L 228.301 72.16 C 227.575 71.698 226.783 71.5 225.925 71.5 L 49.024 71.5 C 46.978 71.5 45.196 72.82 44.668 74.8 C 44.14 76.781 44.932 78.827 46.648 79.883 L 110.61 119.356 C 111.27 119.752 112.128 120.016 112.92 120.016 Z  M 224.671 80.543 L 273.912 110.907 L 114.24 110.907 L 64.998 80.543 L 224.671 80.543 Z " fill-rule="evenodd" fill="rgb(255,255,255)"/><path d=" M 179.588 147.277 C 172.129 147.343 165.198 150.313 159.983 155.66 C 154.769 161.006 151.93 168.003 151.996 175.462 C 152.128 190.71 164.604 203.053 179.852 203.053 C 179.918 203.053 180.05 203.053 180.116 203.053 C 195.495 202.921 207.839 190.248 207.707 174.934 C 207.641 167.475 204.67 160.544 199.324 155.33 C 194.109 150.181 187.178 147.343 179.852 147.343 C 179.786 147.277 179.72 147.277 179.588 147.277 Z " fill-rule="evenodd" fill="rgb(255,255,255)"/></g></g></svg>