<?xml version="1.0" encoding="UTF-8" standalone="no"?><!-- Generator: Gravit.io --><svg xmlns="http://www.w3.org/2000/svg" xmlns:xlink="http://www.w3.org/1999/xlink" style="isolation:isolate" viewBox="0 0 349.945 349.945" width="349.945pt" height="349.945pt"><defs><clipPath id="_clipPath_kalxNMYlDrbIemDB6e3HXDL8q9LipTQ2"><rect width="349.945" height="349.945"/></clipPath></defs><g clip-path="url(#_clipPath_kalxNMYlDrbIemDB6e3HXDL8q9LipTQ2)"><rect width="349.945" height="349.945" style="fill:rgb(207,33,111)"/><g><path d=" M 287.585 98.265 C 282.685 93.925 277.226 90.636 270.717 89.551 C 262.564 88.466 254.375 93.89 248.951 97.705 C 243.527 101.519 232.608 111.317 228.269 115.132 C 223.93 118.946 213.011 121.116 195.059 131.999 C 177.107 142.882 107.363 187.57 107.363 187.57 L 125.315 187.57 L 44.198 229.494 L 52.352 229.494 L 40.944 238.207 C 47.488 239.852 53.996 238.767 60.016 235.478 L 60.016 238.207 C 60.016 238.207 156.39 200.098 174.902 209.897 L 163.459 213.151 C 164.544 213.151 182.531 214.236 182.531 214.236 C 183.616 221.865 187.99 228.934 194.499 232.748 C 205.383 239.817 205.943 244.192 205.943 244.192 C 205.943 244.192 200.483 246.361 200.483 249.651 C 210.842 246.396 221.725 246.396 231.524 249.651 C 231.524 249.651 230.964 246.396 223.37 244.192 C 215.741 240.937 209.197 236.038 204.298 228.934 C 199.958 222.95 198.314 215.321 201.043 208.252 C 203.773 201.183 213.011 197.369 232.083 187.57 C 254.41 176.127 259.834 167.414 262.564 160.345 C 265.293 153.276 270.717 140.188 272.922 133.679 C 275.092 127.695 278.906 122.796 283.805 118.421 C 289.789 115.167 296.333 112.437 302.317 110.268 C 303.367 110.793 291.399 100.994 287.585 98.265 Z " fill="rgb(255,255,255)"/></g></g></svg>