<?xml version="1.0" encoding="UTF-8" standalone="no"?><!-- Generator: Gravit.io --><svg xmlns="http://www.w3.org/2000/svg" xmlns:xlink="http://www.w3.org/1999/xlink" style="isolation:isolate" viewBox="0 0 350 350" width="350pt" height="350pt"><defs><clipPath id="_clipPath_DSMflDFs3Q6iNtp1DC7nC2fRElBQyiuC"><rect width="350" height="350"/></clipPath></defs><g clip-path="url(#_clipPath_DSMflDFs3Q6iNtp1DC7nC2fRElBQyiuC)"><rect width="350" height="350" style="fill:rgb(149,142,221)"/><g><path d=" M 305.38 174.81 C 305.38 103.063 247.032 45 175 45 C 102.968 45 44.525 103.063 44.525 174.81 C 44.525 189.635 46.996 203.889 51.652 217.193 C 51.652 217.288 51.937 218.048 51.937 218.048 C 53.838 223.94 44.62 226.221 44.62 229.737 C 44.62 235.249 64.006 234.488 64.006 240.855 C 64.006 246.462 44.81 248.173 44.81 253.779 C 44.81 261.572 87.288 258.816 87.858 265.563 C 88.238 270.694 73.224 271.075 73.129 276.586 C 72.939 285.424 131.096 282.478 131.096 288.37 C 131.096 292.836 104.678 291.221 104.678 296.447 C 104.678 301.674 139.459 305 177.851 305 C 216.243 305 242.661 300.724 242.661 296.162 C 242.661 291.601 217.953 292.551 218.523 288.37 C 219.379 281.148 274.211 284.854 274.211 276.491 C 274.211 272.12 259.101 271.075 259.671 266.323 C 260.336 259.576 305.475 260.621 305.475 253.684 C 305.475 248.173 283.143 246.842 283.143 241.14 C 283.143 235.344 305.475 235.534 305.285 230.117 C 305.19 225.936 295.307 226.031 298.443 217.193 C 302.909 203.794 305.475 189.539 305.38 174.81 L 305.38 174.81 Z  M 263.947 211.681 C 259.386 221.849 249.218 219.854 248.077 224.13 C 246.842 228.596 260.621 229.167 260.621 233.823 C 260.621 239.43 218.713 237.244 219.094 244.656 C 219.379 249.313 248.838 250.168 248.268 255.015 C 247.412 262.142 202.558 258.531 202.178 265.373 C 201.893 270.314 224.13 270.504 224.13 275.066 C 224.13 278.867 206.645 280.958 173.194 280.958 C 134.993 280.958 116.462 278.867 118.553 274.686 C 120.548 270.694 154.284 271.455 153.999 265.183 C 153.618 258.911 93.94 260.716 92.135 254.635 C 90.614 249.598 111.711 248.553 111.615 243.706 C 111.52 238.86 84.627 239.905 83.962 234.013 C 83.582 230.117 98.026 230.402 97.361 225.461 C 96.886 221.944 90.899 222.42 87.383 215.102 C 81.681 202.844 78.45 189.159 78.45 174.81 C 78.45 121.879 121.594 78.925 174.81 78.925 C 228.026 78.925 271.17 121.879 271.17 174.81 C 271.36 187.829 268.699 200.278 263.947 211.681 L 263.947 211.681 Z " fill="rgb(43,29,60)"/></g></g></svg>