<svg xmlns="http://www.w3.org/2000/svg" width="350pt" height="350pt" style="isolation:isolate" viewBox="0 0 350 350"><defs><clipPath id="a"><path d="M0 0h350v350H0z"/></clipPath></defs><g clip-path="url(#a)"><path d="M0 0h350v350H0z" style="fill:#ff0037"/><g fill="#FFF"><path d="M183.285 325c-5.387 0-10.774 0-16.445-.171-4.103-.637-7.93-1.042-11.739-1.582-9.214-1.307-18.029-4.109-26.453-7.939-8.518-3.872-16.525-8.639-23.94-14.47-7.172-5.641-13.612-11.972-19.257-19.052a108.7 108.7 0 0 1-16.116-27.769c-3.209-8.092-5.638-16.402-6.868-25.047-.226-1.594-.84-3.133-1.275-4.697 0-.194 0-.387.155-.783.052-.891-.052-1.58-.155-2.269 0-30.678 0-61.356.155-92.294.052-.95-.052-1.639-.155-2.328 0-.194 0-.388.166-.784.636-2.61 1.164-5.009 1.565-7.429 1.757-10.594 5.132-20.682 9.962-30.228 2.607-5.151 5.658-10.112 8.882-14.908 6.213-9.244 13.979-17.145 22.676-24.024 8.122-6.424 17.069-11.578 26.682-15.552 9.593-3.965 19.48-6.709 29.813-7.815 1.934-.208 3.852-.569 5.777-.859 5.387 0 10.774 0 16.445.171 3.263.492 6.25.756 9.22 1.145 10.001 1.308 19.558 4.22 28.756 8.286 11.234 4.965 21.462 11.562 30.546 19.822a113.8 113.8 0 0 1 17.953 20.773c4.902 7.295 9.008 15.028 12.034 23.256 3.072 8.357 5.457 16.931 6.29 25.863.14 1.501.559 2.976.849 4.463 0 30.678 0 61.356-.155 92.294-.052.95.052 1.639.155 2.328 0 .194 0 .388-.166.784-.636 2.61-1.164 5.009-1.565 7.429-1.758 10.593-5.168 20.662-9.937 30.24-3.826 7.684-8.493 14.84-13.968 21.512-5.739 6.992-12.169 13.232-19.313 18.687-7.723 5.895-16.163 10.671-25.169 14.376-9.522 3.917-19.355 6.656-29.628 7.714-1.934.199-3.852.567-5.777.857M99.77 132.279c-.069.785-.197 1.57-.197 2.355-.01 52.905-.009 105.809-.009 158.713v2.299h150.872v-2.728c0-51.451.018-102.902-.037-154.353-.004-3.64-.459-7.289-.848-10.918-.801-7.454-3.136-14.494-6.411-21.177-4.62-9.431-10.732-17.745-18.824-24.601-4.91-4.16-10.142-7.757-15.855-10.641-9.081-4.583-18.805-7.057-28.898-7.792-7.312-.531-14.588.256-21.75 1.991-7.038 1.705-13.72 4.233-20.018 7.836-8.287 4.741-15.547 10.723-21.479 18.167-4.454 5.59-8.299 11.631-10.971 18.326-2.846 7.132-5.035 14.427-5.575 22.523"/><path d="M130.507 140.665c26.954-3.546 41.28-19.23 44.712-45.615.771 12.564 5.35 23.347 14.431 32.168 9.085 8.826 20.067 12.997 31.456 13.49-27.475 3.12-43.533 18.53-46.096 46.169-2.653-27.566-18.644-43.045-46.845-46.212z"/></g></g></svg>