<?xml version="1.0" encoding="UTF-8" standalone="no"?><!-- Generator: Gravit.io --><svg xmlns="http://www.w3.org/2000/svg" xmlns:xlink="http://www.w3.org/1999/xlink" style="isolation:isolate" viewBox="0 0 350 350" width="350pt" height="350pt"><defs><clipPath id="_clipPath_b591CxosBtKYC5dT6Q0KOGNBM6saSB22"><rect width="350" height="350"/></clipPath></defs><g clip-path="url(#_clipPath_b591CxosBtKYC5dT6Q0KOGNBM6saSB22)"><circle vector-effect="non-scaling-stroke" cx="174.99999999999997" cy="175.00000000000003" r="174.99999999999997" fill="rgb(254,1,55)"/><g><path d=" M 183.285 325 C 177.898 325 172.511 325 166.84 324.829 C 162.737 324.192 158.91 323.787 155.101 323.247 C 145.887 321.94 137.072 319.138 128.648 315.308 C 120.13 311.436 112.123 306.669 104.708 300.838 C 97.536 295.197 91.096 288.866 85.451 281.786 C 78.73 273.358 73.323 264.071 69.335 254.017 C 66.126 245.925 63.697 237.615 62.467 228.97 C 62.241 227.376 61.627 225.837 61.192 224.273 C 61.192 224.079 61.192 223.886 61.347 223.49 C 61.399 222.599 61.295 221.91 61.192 221.221 C 61.192 190.543 61.192 159.865 61.347 128.927 C 61.399 127.977 61.295 127.288 61.192 126.599 C 61.192 126.405 61.192 126.211 61.358 125.815 C 61.994 123.205 62.522 120.806 62.923 118.386 C 64.68 107.792 68.055 97.704 72.885 88.158 C 75.492 83.007 78.543 78.046 81.767 73.25 C 87.98 64.006 95.746 56.105 104.443 49.226 C 112.565 42.802 121.512 37.648 131.125 33.674 C 140.718 29.709 150.605 26.965 160.938 25.859 C 162.872 25.651 164.79 25.29 166.715 25 C 172.102 25 177.489 25 183.16 25.171 C 186.423 25.663 189.41 25.927 192.38 26.316 C 202.381 27.624 211.938 30.536 221.136 34.602 C 232.37 39.567 242.598 46.164 251.682 54.424 C 258.487 60.61 264.491 67.543 269.635 75.197 C 274.537 82.492 278.643 90.225 281.669 98.453 C 284.741 106.81 287.126 115.384 287.959 124.316 C 288.099 125.817 288.518 127.292 288.808 128.779 C 288.808 159.457 288.808 190.135 288.653 221.073 C 288.601 222.023 288.705 222.712 288.808 223.401 C 288.808 223.595 288.808 223.789 288.642 224.185 C 288.006 226.795 287.478 229.194 287.077 231.614 C 285.319 242.207 281.909 252.276 277.14 261.854 C 273.314 269.538 268.647 276.694 263.172 283.366 C 257.433 290.358 251.003 296.598 243.859 302.053 C 236.136 307.948 227.696 312.724 218.69 316.429 C 209.168 320.346 199.335 323.085 189.062 324.143 C 187.128 324.342 185.21 324.71 183.285 325 Z  M 99.77 132.279 C 99.701 133.064 99.573 133.849 99.573 134.634 C 99.563 187.539 99.564 240.443 99.564 293.347 C 99.564 294.119 99.564 294.89 99.564 295.646 C 149.989 295.646 200.16 295.646 250.436 295.646 C 250.436 294.645 250.436 293.781 250.436 292.918 C 250.436 241.467 250.454 190.016 250.399 138.565 C 250.395 134.925 249.94 131.276 249.551 127.647 C 248.75 120.193 246.415 113.153 243.14 106.47 C 238.52 97.039 232.408 88.725 224.316 81.869 C 219.406 77.709 214.174 74.112 208.461 71.228 C 199.38 66.645 189.656 64.171 179.563 63.436 C 172.251 62.905 164.975 63.692 157.813 65.427 C 150.775 67.132 144.093 69.66 137.795 73.263 C 129.508 78.004 122.248 83.986 116.316 91.43 C 111.862 97.02 108.017 103.061 105.345 109.756 C 102.499 116.888 100.31 124.183 99.77 132.279 Z " fill="rgb(255,255,255)"/><path d=" M 130.507 140.665 C 157.461 137.119 171.787 121.435 175.219 95.05 C 175.99 107.614 180.569 118.397 189.65 127.218 C 198.735 136.044 209.717 140.215 221.106 140.708 C 193.631 143.828 177.573 159.238 175.01 186.877 C 172.357 159.311 156.366 143.832 128.165 140.665 C 128.644 140.665 129.477 140.665 130.507 140.665 Z " fill="rgb(255,255,255)"/></g></g></svg>