<?xml version="1.0" encoding="UTF-8" standalone="no"?><!-- Generator: Gravit.io --><svg xmlns="http://www.w3.org/2000/svg" xmlns:xlink="http://www.w3.org/1999/xlink" style="isolation:isolate" viewBox="0 0 350 350" width="350pt" height="350pt"><defs><clipPath id="_clipPath_fq9rDZj7HWcDTRZtL8HFVdtQgerxkNP9"><rect width="350" height="350"/></clipPath></defs><g clip-path="url(#_clipPath_fq9rDZj7HWcDTRZtL8HFVdtQgerxkNP9)"><rect width="350" height="350" style="fill:rgb(60,129,49)"/><g><path d=" M 107.427 279.692 L 109.956 280.171 C 107.974 279.556 105.649 278.872 103.462 278.188 L 107.427 279.692 Z " fill="none"/><path d=" M 252.964 151.587 L 252.964 151.587 L 252.964 151.587 L 252.964 151.587 Z " fill="rgb(61,129,48)"/><path d=" M 254.741 183.237 L 254.741 183.237 L 254.741 183.237 L 254.741 183.237 Z " fill="rgb(61,129,48)"/><path d=" M 241.685 231.978 L 241.685 231.978 L 241.616 231.909 L 241.685 231.978 Z " fill="rgb(61,129,48)"/><path d=" M 104.009 138.735 L 96.147 154.048 L 88.013 170.112 L 82.271 185.151 L 78.442 201.147 L 76.05 218.647 L 74.614 233.755 L 72.974 243.667 L 74.614 251.392 L 77.417 258.022 L 82.612 267.183 L 94.644 274.702 L 103.53 278.188 C 105.718 278.872 108.042 279.556 110.024 280.171 L 120.552 282.085 L 135.591 282.769 L 148.032 282.769 C 149.468 282.769 162.046 282.085 162.114 282.017 L 162.114 282.017 L 162.114 282.017 L 178.11 282.29 L 193.56 280.376 L 200.259 277.573 L 204.839 272.104 L 205.044 264.858 C 204.771 264.243 203.882 261.919 203.608 261.03 C 203.403 260.415 200.327 256.792 197.524 253.647 L 197.456 253.579 C 196.226 251.802 194.243 248.726 194.243 247.7 C 194.243 246.675 195.474 243.667 195.747 243.12 L 195.884 242.847 L 202.31 241.001 L 206.548 244.077 L 210.376 241.958 L 214.683 237.651 L 222.202 232.114 L 229.038 228.218 L 234.438 227.192 L 241.548 232.046 L 241.069 231.499 L 244.009 228.901 L 246.743 224.39 L 246.743 219.673 L 246.196 218.306 L 242.71 221.108 L 236.489 222.886 L 236.353 222.886 L 226.782 222.681 L 212.905 224.116 L 208.53 224.595 L 205.181 224.116 L 196.226 222.886 L 186.108 220.972 L 169.771 218.306 L 169.702 218.306 L 154.048 211.812 L 140.308 203.882 L 131.899 198.208 L 131.079 194.175 L 132.173 190.415 L 135.522 187.954 L 143.315 189.731 L 160.337 194.995 C 168.677 196.704 181.392 199.233 182.212 199.302 L 182.212 199.302 C 182.622 199.302 184.263 199.575 188.364 200.259 C 192.739 200.942 198.755 201.968 199.985 201.968 C 202.104 201.968 218.442 202.856 219.399 202.925 C 220.288 202.925 233.55 202.651 234.985 202.651 C 235.942 202.651 241.069 200.942 244.146 199.849 L 248.794 194.312 L 253.237 186.587 C 253.511 184.331 253.237 182.075 252.417 179.956 C 251.323 177.085 249.272 174.624 246.675 172.983 C 245.308 175.581 243.53 177.222 241.479 177.974 C 240.728 178.247 239.839 178.384 239.019 178.384 C 237.788 178.384 236.558 178.11 235.532 177.563 L 236.216 176.333 C 237.72 177.085 239.429 177.222 241.069 176.675 C 242.915 175.991 244.487 174.351 245.718 171.821 C 244.214 172.368 242.573 172.71 240.933 172.71 C 239.907 172.71 238.882 172.642 237.856 172.368 L 237.993 171.685 L 238.13 171.001 C 238.198 171.001 243.462 172.3 247.427 169.224 C 250.229 167.104 251.802 163.276 252.075 158.013 L 247.495 163.413 L 241.958 165.942 C 239.497 166.558 231.294 168.608 230.542 168.608 C 230.269 168.608 229.175 168.472 226.509 167.993 C 223.159 167.446 218.169 166.694 216.87 166.694 C 214.546 166.694 211.265 164.165 210.923 163.892 L 210.513 163.618 L 213.11 156.03 L 220.288 147.896 L 227.876 142.495 L 237.31 142.495 L 246.196 143.452 L 250.024 147.827 L 251.87 150.562 L 251.87 143.179 L 244.487 140.513 C 243.667 140.376 236.353 139.351 234.575 139.351 C 232.866 139.351 226.304 140.376 225.21 140.513 L 215.708 146.665 L 214.956 145.503 L 224.663 139.214 L 224.8 139.214 C 225.142 139.146 232.524 137.983 234.507 137.983 C 236.421 137.983 244.351 139.146 244.692 139.214 L 244.829 139.282 L 252.827 142.222 L 253.579 142.632 L 253.647 142.085 L 249.888 138.804 L 243.12 135.522 L 234.917 134.839 L 225.483 136.479 L 221.724 138.12 L 221.177 136.821 L 225.142 135.112 L 234.849 133.403 L 243.462 134.155 L 243.804 134.36 L 241.206 130.327 L 233.892 123.901 L 233.96 123.833 L 205.522 124.653 C 205.522 124.653 201.831 125.132 197.593 125.679 L 201.626 131.489 L 203.677 135.112 L 202.651 138.735 L 201.284 138.325 L 202.173 135.249 L 200.396 132.173 L 196.089 125.952 L 196.362 125.747 C 191.03 126.431 185.356 127.114 185.015 127.114 C 184.399 127.114 161.567 128.823 160.61 128.823 C 158.696 128.687 156.782 128.481 154.937 128.071 C 154.595 127.866 139.351 122.329 138.804 121.987 C 138.257 121.646 132.925 116.519 132.925 116.519 L 122.534 113.306 L 113.442 124.517 L 104.009 138.735 Z  M 214.956 170.112 C 216.323 170.728 217.554 171.479 218.853 172.231 L 226.646 173.12 L 231.089 172.163 L 231.362 173.53 L 226.714 174.487 L 221.313 173.872 C 223.638 175.581 225.757 177.495 227.671 179.683 C 229.038 181.255 230.269 182.964 231.294 184.741 L 230.063 185.425 C 228.833 183.374 227.397 181.392 225.688 179.683 C 223.433 177.358 220.903 175.239 218.169 173.53 L 218.169 173.53 L 214.204 171.274 L 214.956 170.112 Z  M 136.821 144.546 L 143.042 138.599 L 148.442 134.155 L 156.167 132.651 L 164.302 132.378 L 172.983 132.378 L 180.161 132.651 L 194.722 132.925 L 199.302 135.728 L 204.907 140.854 L 208.12 144.819 L 209.624 152.886 L 208.257 153.159 L 206.821 145.435 L 203.882 141.743 L 198.481 136.821 L 194.38 134.292 L 182.964 134.087 L 187.954 136.821 C 190.62 138.188 195.2 140.649 195.679 141.675 C 196.021 142.222 199.644 145.776 202.993 148.921 L 203.062 148.989 L 208.188 155.62 L 208.94 161.089 L 207.573 161.294 L 206.89 156.235 L 202.036 149.946 C 200.327 148.374 194.995 143.315 194.517 142.358 C 194.106 141.812 190.552 139.761 187.407 138.12 L 180.093 134.087 L 173.052 133.882 L 164.438 133.882 L 156.372 134.087 L 149.194 135.454 L 144.067 139.624 L 138.257 145.229 L 137.642 148.921 L 138.872 150.015 L 141.948 148.374 L 147.007 142.085 L 156.167 138.599 L 168.062 137.368 L 178.11 138.325 L 191.167 145.093 L 196.567 148.306 L 201.763 155.21 L 204.155 162.729 L 207.642 164.985 L 207.642 168.062 L 204.429 171.001 L 198.687 173.394 L 196.226 175.444 L 193.628 179.683 L 192.329 181.802 L 192.192 181.87 C 190.483 182.759 187.476 184.331 186.655 184.331 C 186.04 184.468 182.212 186.177 178.794 187.886 L 178.452 187.954 C 178.179 188.022 172.163 189.868 170.659 190.142 L 170.454 188.774 C 171.753 188.569 177.427 186.86 177.974 186.655 C 181.392 185.015 185.63 183.032 186.382 183.032 C 188.022 182.417 189.595 181.665 191.167 180.776 L 191.782 179.751 L 194.927 174.624 L 195.679 174.009 C 193.491 173.804 190.62 173.462 189.868 173.052 C 189.526 172.915 187.476 172.642 176.743 172.642 C 174.077 172.642 167.788 171.206 166.899 170.933 C 166.216 170.728 159.79 168.813 159.722 168.813 L 159.585 168.745 L 159.448 168.608 C 159.38 168.54 153.433 162.866 149.058 160.337 L 149.741 159.106 C 153.979 161.567 159.38 166.626 160.337 167.515 C 161.362 167.788 166.694 169.429 167.378 169.634 C 168.13 169.907 174.282 171.274 176.743 171.274 C 189.663 171.274 190.21 171.616 190.552 171.89 C 191.03 172.163 194.106 172.505 196.704 172.71 L 196.636 173.188 L 197.661 172.3 L 203.403 169.907 L 205.933 167.583 L 205.933 165.874 L 204.155 164.712 L 204.224 164.917 L 198.276 167.104 L 190.073 168.062 C 189.663 168.062 187.886 168.13 185.903 168.13 C 183.579 168.13 181.05 168.062 180.298 167.788 C 179.204 167.446 172.3 165.942 168.882 165.19 L 168.813 165.19 L 168.745 165.122 C 164.438 162.798 159.106 159.858 158.696 159.106 C 158.354 158.696 155.688 157.329 153.433 156.235 L 153.364 156.235 L 145.776 151.792 L 144.751 151.997 L 144.614 151.108 L 142.222 149.741 L 138.53 151.724 L 135.933 149.468 L 136.821 144.546 Z  M 139.966 177.29 L 140.308 178.657 L 135.659 179.751 L 133.335 180.298 L 133.198 179.751 L 132.993 178.931 L 139.966 177.29 Z  M 142.905 183.784 L 142.563 185.151 C 140.991 184.81 139.351 184.878 137.778 185.151 C 135.181 185.63 131.353 187.134 127.661 191.372 L 126.636 190.483 C 134.224 181.597 142.563 183.647 142.905 183.784 L 142.905 183.784 Z " fill="rgb(61,129,48)"/><path d=" M 152.271 149.194 C 152.681 149.126 162.388 147.964 163.618 147.964 C 164.097 147.964 165.464 148.101 167.241 148.237 C 169.634 148.442 173.667 148.784 174.282 148.716 C 175.239 148.442 184.81 147.622 185.903 147.485 L 191.577 147.075 L 190.415 146.392 L 177.632 139.761 L 167.993 138.804 L 156.372 139.966 L 147.759 143.247 L 143.384 148.716 L 146.187 150.356 L 152.271 149.194 Z " fill="rgb(61,129,48)"/><path d=" M 185.972 148.921 C 181.733 149.331 175.239 149.946 174.556 150.083 C 173.94 150.22 171.753 150.083 167.104 149.673 C 165.532 149.536 164.028 149.399 163.618 149.399 C 162.661 149.399 155.278 150.288 152.476 150.562 L 147.964 151.382 L 154.116 155.005 C 156.03 155.894 159.312 157.534 159.858 158.354 C 160.405 158.901 165.054 161.567 169.36 163.892 C 170.454 164.097 179.478 166.079 180.845 166.558 C 181.802 166.899 187.065 166.831 190.142 166.763 L 198.208 165.806 L 203.062 163.96 L 202.788 163.823 L 200.327 156.03 L 195.474 149.536 L 192.603 147.827 L 192.671 148.511 L 185.972 148.921 Z " fill="rgb(61,129,48)"/><path d=" M 249.136 148.374 L 245.718 144.546 L 237.378 143.589 L 228.491 143.589 L 221.313 148.716 L 214.478 156.44 L 212.29 162.798 C 213.384 163.618 215.571 164.985 217.007 164.985 C 218.442 164.985 223.091 165.737 226.851 166.353 C 228.628 166.626 230.405 166.899 230.679 166.899 C 231.294 166.831 237.72 165.259 241.685 164.302 L 246.743 161.978 L 250.776 157.329 L 250.435 155.142 L 237.993 150.083 L 222.065 149.604 L 222.134 148.237 L 238.335 148.716 L 251.733 154.185 L 252.28 157.671 C 252.28 157.466 252.28 157.261 252.28 157.056 L 252.28 153.228 L 249.136 148.374 Z " fill="rgb(61,129,48)"/><path d=" M 234.233 228.56 L 229.585 229.448 L 223.022 233.208 L 215.64 238.677 L 213.589 240.728 L 218.237 244.009 L 218.579 246.606 L 215.435 249.751 L 214.478 248.794 L 217.144 246.128 L 217.007 244.829 L 212.632 241.753 L 211.333 243.052 L 208.599 244.556 L 207.847 248.247 L 211.675 251.597 L 217.212 251.392 C 218.237 250.64 219.946 249.546 220.767 249.478 C 221.587 248.999 222.407 248.452 223.159 247.837 C 225.005 246.401 225.757 245.923 226.304 245.923 C 227.944 245.103 229.517 244.214 231.021 243.188 L 231.226 243.052 L 237.925 243.804 L 240.249 246.128 L 239.771 246.606 C 238.335 248.179 236.694 250.229 236.626 250.708 C 236.626 251.05 236.558 251.392 236.421 251.665 L 237.993 250.776 L 245.376 245.513 L 246.196 246.675 L 238.677 252.007 L 235.19 253.921 C 235.054 254.126 234.917 254.331 234.849 254.399 L 234.575 254.194 L 229.243 257.134 L 225.552 262.466 L 224.253 265.61 L 226.919 269.37 L 229.858 272.72 L 233.345 273.13 L 236.558 272.446 L 236.489 271.763 L 240.044 266.157 L 246.743 259.663 L 247.7 260.688 L 241.069 267.114 L 237.856 272.104 L 238.062 275.864 L 241.479 278.188 L 245.991 278.667 L 248.521 277.915 L 248.042 277.163 L 248.384 276.753 C 248.521 276.548 252.212 272.378 252.964 271.694 C 253.511 271.147 256.655 267.524 258.228 265.747 L 259.253 266.636 C 259.048 266.841 254.673 271.968 253.921 272.651 C 253.374 273.198 250.708 276.138 249.751 277.231 L 252.144 280.786 L 256.177 280.786 L 259.663 279.214 L 262.534 274.976 L 266.362 270.874 L 267.388 271.831 L 263.56 275.864 L 260.62 280.308 L 256.45 282.153 L 251.392 282.153 L 249.272 279.009 L 246.06 279.966 L 240.933 279.487 L 236.694 276.548 L 236.558 273.813 L 233.345 274.497 L 229.106 273.95 L 225.894 270.259 L 221.108 267.388 L 216.118 261.851 L 214.888 253.237 L 216.255 253.032 L 217.28 260.415 L 223.228 255.698 L 229.653 249.546 L 233.345 244.487 L 231.567 244.282 C 229.585 245.581 227.261 247.017 226.44 247.153 C 225.62 247.632 224.8 248.179 224.048 248.794 C 222.134 250.229 221.382 250.708 220.903 250.708 C 219.878 251.187 218.853 251.802 217.964 252.485 L 217.759 252.622 L 211.265 252.896 L 206.411 248.589 L 207.095 245.308 L 206.616 245.581 L 202.241 242.437 L 197.114 243.94 C 196.567 245.171 196.157 246.401 195.884 247.7 C 195.952 248.247 197.456 250.776 198.823 252.759 C 200.669 254.81 204.907 259.663 205.181 260.688 C 205.386 261.44 206.274 263.628 206.616 264.448 L 206.685 264.585 L 206.479 273.882 L 209.146 277.847 C 210.513 278.667 220.562 284.546 221.724 285.229 C 222.544 285.708 229.79 287.759 234.233 288.989 L 249.204 290.425 L 261.235 288.784 L 271.558 284.067 L 277.163 278.667 L 275.864 273.882 L 268.96 261.03 L 263.97 253.442 L 255.288 244.009 L 242.505 236.968 L 240.591 232.866 L 234.233 228.56 Z " fill="rgb(61,129,48)"/><path d=" M 245.103 200.874 L 244.897 200.942 C 243.53 201.421 236.558 203.882 235.054 203.882 C 233.618 203.882 219.604 204.087 219.468 204.155 L 219.468 204.155 L 219.468 204.155 C 219.263 204.155 202.173 203.198 200.054 203.198 C 198.687 203.198 193.149 202.31 188.228 201.489 C 185.493 201.011 182.69 200.601 182.28 200.601 C 181.323 200.601 163.618 196.978 160.063 196.294 L 159.995 196.294 L 142.974 191.03 L 135.864 189.458 L 133.403 191.304 L 132.583 194.243 L 133.198 197.388 L 141.128 202.72 L 154.731 210.581 L 170.181 217.007 L 186.382 219.604 L 196.499 221.519 L 208.599 223.159 L 226.782 221.245 L 226.851 221.245 L 236.353 221.45 L 242.095 219.81 L 246.948 215.913 L 250.913 209.829 L 251.802 207.026 L 250.503 203.882 C 244.761 209.077 244.146 209.282 243.804 209.351 L 237.925 210.786 L 221.587 211.538 L 221.519 211.538 L 204.429 210.581 L 187.476 207.505 L 173.804 207.778 L 173.735 207.778 L 159.517 204.155 L 146.938 199.78 L 140.239 195.679 L 140.991 194.517 L 147.622 198.55 L 159.995 202.856 L 174.009 206.411 L 187.681 206.138 L 187.749 206.138 L 204.702 209.214 L 221.655 210.171 L 237.856 209.487 L 243.53 208.052 C 243.872 207.915 245.786 206.411 249.819 202.72 C 250.366 202.241 250.708 201.899 250.845 201.763 L 256.04 194.653 L 257.817 191.304 C 257.544 190.142 257.271 189.048 257.134 187.886 C 256.45 186.792 255.698 185.835 254.81 184.878 C 254.81 185.493 254.81 186.108 254.673 186.724 L 254.673 186.86 L 249.956 194.995 L 245.103 200.874 Z " fill="rgb(152,59,31)"/><path d=" M 276.958 273.403 L 269.985 260.415 L 264.927 252.69 L 256.177 242.915 L 243.53 236.011 L 241.685 232.046 L 241.343 232.251 C 241.343 232.251 242.505 236.489 243.325 236.899 C 244.146 237.31 255.083 242.915 255.63 243.188 C 256.177 243.462 265.679 254.81 265.679 254.81 L 273.335 268.14 L 277.915 278.394 C 277.915 278.394 272.036 284.409 271.694 284.478 C 271.353 284.546 260.005 290.083 259.663 290.083 C 259.321 290.083 248.315 291.313 247.7 291.177 C 247.085 290.972 233.55 289.81 232.524 289.741 C 231.431 289.673 218.921 284.683 218.921 284.683 L 208.12 278.188 L 205.044 273.403 L 200.737 278.257 C 200.737 278.257 194.653 281.333 193.833 281.333 C 193.013 281.333 178.11 283.315 176.948 283.315 L 146.938 283.315 C 146.938 283.315 117.271 282.769 115.972 282.153 C 115.562 281.948 113.169 281.196 110.024 280.171 L 107.495 279.692 L 103.53 278.188 C 98.677 276.685 94.302 275.386 94.302 275.386 L 82.065 267.456 C 82.065 267.456 76.938 258.569 76.733 258.091 C 76.528 257.612 73.384 250.161 73.384 249.819 C 73.384 249.478 72.29 243.53 72.29 243.53 L 74.478 229.927 L 75.435 215.64 L 77.759 200.054 C 77.759 200.054 81.655 184.399 81.724 183.716 C 81.792 182.964 88.081 167.515 88.081 167.515 L 94.712 155.552 L 103.462 137.505 L 113.101 123.901 L 122.466 112.759 L 123.081 112.964 L 123.081 112.964 L 121.987 112.075 L 112.896 123.354 L 102.778 138.052 L 94.849 153.501 L 86.714 169.497 L 80.903 184.673 L 77.007 200.806 L 74.614 218.442 L 73.179 233.55 L 71.47 243.735 L 73.179 251.802 L 76.118 258.638 L 81.519 268.208 L 93.892 276.001 L 106.948 281.128 L 120.278 283.589 L 135.522 284.341 L 147.964 284.341 C 149.399 284.341 161.362 283.657 162.114 283.589 L 178.179 283.862 L 178.247 283.862 L 193.901 281.948 L 193.97 281.948 L 201.147 278.94 L 204.839 274.497 L 207.915 279.077 L 208.052 279.146 C 208.188 279.214 219.604 285.845 220.767 286.597 C 221.997 287.349 232.456 290.22 233.687 290.493 L 248.999 291.929 L 261.304 290.22 L 261.372 290.22 L 272.036 285.366 L 272.173 285.298 L 278.53 279.146 L 276.958 273.403 Z " fill="rgb(0,0,0)"/><path d=" M 113.101 123.901 L 103.462 137.505 L 94.712 155.552 L 88.081 167.515 C 88.081 167.515 81.792 182.964 81.724 183.716 C 81.655 184.468 77.759 200.054 77.759 200.054 L 75.435 215.64 L 74.478 229.927 L 72.29 243.53 C 72.29 243.53 73.384 249.478 73.384 249.819 C 73.384 250.161 76.528 257.612 76.733 258.091 C 76.938 258.569 82.065 267.456 82.065 267.456 L 94.302 275.386 C 94.302 275.386 98.677 276.685 103.53 278.188 L 94.644 274.702 L 82.612 267.183 L 77.417 258.022 L 74.614 251.392 L 72.974 243.667 L 74.614 233.755 L 76.05 218.647 L 78.442 201.147 L 82.271 185.151 L 88.013 170.112 L 96.147 154.048 L 104.009 138.735 L 114.058 124.175 L 123.149 112.964 L 122.534 112.759 L 113.101 123.901 Z " fill="rgb(0,0,0)"/><path d=" M 234.507 227.124 L 229.106 228.149 L 222.271 232.046 L 214.751 237.583 L 210.444 241.89 L 206.616 244.009 L 202.378 240.933 L 195.952 242.778 L 195.815 243.052 C 195.542 243.667 194.312 246.606 194.312 247.632 C 194.312 248.657 196.362 251.802 197.524 253.511 L 197.593 253.579 C 200.396 256.724 203.472 260.347 203.677 260.962 C 203.882 261.851 204.839 264.175 205.112 264.79 L 204.907 272.036 L 200.327 277.505 L 193.628 280.308 L 178.179 282.222 L 162.183 281.948 L 162.183 281.948 L 162.183 281.948 C 162.046 281.948 149.468 282.7 148.101 282.7 L 135.659 282.7 L 120.62 282.017 L 110.093 280.103 C 113.169 281.06 115.63 281.88 116.04 282.085 C 117.271 282.7 147.007 283.247 147.007 283.247 L 177.017 283.247 C 178.179 283.247 193.149 281.265 193.901 281.265 C 194.722 281.265 200.806 278.188 200.806 278.188 L 205.112 273.335 L 208.188 278.12 L 218.989 284.614 C 218.989 284.614 231.499 289.536 232.593 289.673 C 233.687 289.741 247.153 290.903 247.769 291.108 C 248.384 291.313 259.39 290.015 259.731 290.015 C 260.073 290.015 271.421 284.546 271.763 284.409 C 272.104 284.341 277.983 278.325 277.983 278.325 L 273.403 268.071 L 265.747 254.741 C 265.747 254.741 256.245 243.394 255.698 243.12 C 255.151 242.847 244.214 237.241 243.394 236.831 C 242.573 236.421 241.411 232.183 241.411 232.183 L 241.753 231.978 L 241.753 231.909 L 234.507 227.124 Z  M 242.437 236.968 L 255.22 244.009 L 263.765 253.442 L 268.755 261.03 L 275.659 273.882 L 276.958 278.667 L 271.353 284.067 L 261.03 288.784 L 248.999 290.425 L 234.028 288.989 C 229.585 287.759 222.339 285.708 221.519 285.229 C 220.356 284.546 210.308 278.667 208.94 277.847 L 206.274 273.882 L 206.479 264.585 L 206.479 264.517 C 206.138 263.696 205.249 261.509 205.044 260.757 C 204.771 259.731 200.532 254.878 198.687 252.827 C 197.319 250.776 195.747 248.247 195.747 247.769 C 196.021 246.47 196.431 245.239 196.978 244.009 L 202.104 242.505 L 206.479 245.649 L 206.958 245.376 L 206.274 248.657 L 211.128 252.964 L 217.622 252.69 L 217.827 252.554 C 218.716 251.87 219.741 251.255 220.767 250.776 C 221.313 250.776 221.997 250.298 223.911 248.862 C 224.663 248.247 225.483 247.7 226.304 247.222 C 227.124 247.153 229.517 245.649 231.431 244.351 L 233.208 244.556 L 229.517 249.614 L 223.091 255.767 L 217.144 260.483 L 216.118 253.101 L 214.751 253.306 L 215.981 261.919 L 220.972 267.456 L 225.757 270.327 L 228.97 274.019 L 233.208 274.565 L 236.421 273.882 L 236.558 276.616 L 240.796 279.556 L 245.923 280.034 L 249.136 279.077 L 251.255 282.222 L 256.313 282.222 L 260.483 280.376 L 263.423 275.933 L 267.251 271.899 L 266.226 270.942 L 262.397 275.044 L 259.526 279.282 L 256.04 280.854 L 252.007 280.854 L 249.614 277.3 C 250.571 276.206 253.237 273.267 253.784 272.72 C 254.536 271.968 258.911 266.909 259.116 266.704 L 258.091 265.815 C 256.519 267.661 253.374 271.216 252.827 271.763 C 252.075 272.515 248.384 276.685 248.247 276.821 L 247.905 277.231 L 248.384 277.983 L 245.854 278.735 L 241.343 278.257 L 237.925 275.933 L 237.72 272.173 L 240.933 267.183 L 247.563 260.757 L 246.606 259.731 L 239.907 266.226 L 236.353 271.831 L 236.421 272.515 L 233.208 273.198 L 229.722 272.788 L 226.782 269.438 L 224.116 265.679 L 225.415 262.534 L 229.106 257.202 L 234.438 254.263 L 234.712 254.468 C 234.78 254.331 234.917 254.194 235.054 253.989 L 238.54 252.075 L 246.06 246.743 L 245.239 245.581 L 237.856 250.845 L 236.284 251.733 C 236.421 251.46 236.489 251.118 236.489 250.776 C 236.558 250.229 238.198 248.247 239.634 246.675 L 240.112 246.196 L 237.788 243.872 L 231.089 243.12 L 230.884 243.257 C 229.38 244.282 227.808 245.239 226.167 245.991 C 225.62 245.991 224.868 246.538 223.022 247.905 C 222.271 248.521 221.45 249.067 220.63 249.546 C 219.81 249.614 218.169 250.708 217.075 251.46 L 211.538 251.665 L 207.71 248.315 L 208.462 244.624 L 211.196 243.12 L 212.495 241.821 L 216.87 244.897 L 217.007 246.196 L 214.341 248.862 L 215.298 249.819 L 218.442 246.675 L 218.101 244.077 L 213.452 240.796 L 215.503 238.745 L 222.886 233.276 L 229.448 229.517 L 234.097 228.628 L 240.386 232.935 L 242.437 236.968 Z  M 223.706 267.524 L 221.86 266.431 L 217.759 261.919 L 224.048 256.997 L 230.542 250.708 L 234.78 244.829 L 237.173 245.103 L 238.198 246.128 C 236.899 247.563 235.122 249.683 235.122 250.64 C 234.917 251.46 234.507 252.212 234.028 252.827 L 228.081 256.108 L 224.116 261.782 L 222.476 265.884 L 223.706 267.524 Z " fill="rgb(0,0,0)"/><path d=" M 240.454 128.208 L 243.94 132.788 C 243.94 132.788 245.649 135.454 246.265 135.659 C 246.88 135.864 252.554 139.146 252.554 139.146 L 254.878 141.743 L 254.399 143.247 L 252.622 142.7 L 252.896 151.519 L 253.442 151.519 L 253.442 143.589 L 255.015 144.478 L 255.425 141.128 L 250.981 137.231 L 246.196 134.907 L 246.401 134.771 L 242.71 128.96 L 235.259 122.397 L 234.438 123.354 L 235.19 123.354 L 240.454 128.208 Z " fill="rgb(0,0,0)"/><path d=" M 252.075 164.233 C 252.075 164.233 249.546 169.292 249.272 169.429 C 248.999 169.634 246.743 170.591 246.743 170.591 L 246.948 171.821 C 247.974 172.573 248.999 173.394 249.888 174.282 C 250.024 174.487 251.528 177.495 252.759 179.751 L 253.989 179.751 C 252.827 176.333 250.503 173.394 247.427 171.548 C 247.563 171.274 247.7 170.933 247.837 170.659 C 248.042 170.522 248.315 170.386 248.521 170.181 C 251.87 167.651 253.579 163.276 253.784 157.124 L 253.784 152.817 L 252.964 151.587 L 253.169 158.218 L 252.075 164.233 Z " fill="rgb(0,0,0)"/><path d=" M 241.685 129.985 L 244.282 134.019 L 243.94 133.813 L 235.327 133.062 L 225.62 134.771 L 221.655 136.479 L 222.202 137.778 L 225.962 136.138 L 235.396 134.497 L 243.599 135.181 L 250.366 138.462 L 254.126 141.743 L 254.058 142.29 L 253.306 141.88 L 245.308 138.94 L 245.171 138.872 C 244.829 138.804 236.968 137.642 234.985 137.642 C 233.003 137.642 225.62 138.804 225.278 138.872 L 225.142 138.872 L 215.435 145.161 L 216.187 146.323 L 225.688 140.171 C 226.782 140.034 233.345 139.009 235.054 139.009 C 236.831 139.009 244.146 140.103 244.966 140.171 L 252.349 142.837 L 252.349 150.356 L 250.503 147.622 L 246.675 143.247 L 237.788 142.29 L 228.354 142.29 L 220.767 147.69 L 213.589 155.825 L 210.991 163.413 L 211.401 163.687 C 211.743 163.96 215.024 166.489 217.349 166.489 C 218.647 166.489 223.706 167.31 226.987 167.788 C 229.653 168.198 230.747 168.403 231.021 168.403 C 231.772 168.403 239.976 166.353 242.437 165.737 L 247.974 163.208 L 252.554 157.808 C 252.28 163.071 250.708 166.899 247.905 169.019 C 243.872 172.095 238.608 170.796 238.608 170.796 L 238.472 171.479 L 238.335 172.163 C 239.36 172.368 240.386 172.505 241.411 172.505 C 243.052 172.505 244.692 172.231 246.196 171.616 C 244.966 174.146 243.394 175.786 241.548 176.47 C 239.976 177.017 238.198 176.88 236.694 176.128 L 236.011 177.358 C 237.104 177.905 238.335 178.179 239.497 178.179 C 240.317 178.179 241.138 178.042 241.958 177.769 C 244.009 177.017 245.718 175.376 247.153 172.778 C 249.751 174.419 251.802 176.88 252.896 179.751 L 253.101 179.751 C 251.938 177.495 250.366 174.487 250.229 174.282 C 249.272 173.394 248.315 172.573 247.29 171.821 L 247.085 170.591 C 247.085 170.591 249.341 169.634 249.614 169.429 C 249.888 169.224 252.417 164.233 252.417 164.233 L 253.511 158.286 L 253.306 151.655 L 253.306 151.655 L 253.306 151.655 L 253.032 142.837 L 254.81 143.384 L 255.288 141.88 L 252.964 139.282 C 252.964 139.282 247.29 135.933 246.675 135.796 C 246.06 135.591 244.351 132.925 244.351 132.925 L 240.864 128.345 L 235.532 123.56 L 234.78 123.56 L 234.712 123.628 L 241.685 129.985 Z  M 252.349 157.671 L 251.802 154.185 L 238.403 148.716 L 222.202 148.237 L 222.134 149.604 L 238.062 150.083 L 250.503 155.142 L 250.845 157.329 L 246.812 161.978 L 241.753 164.302 C 237.788 165.259 231.362 166.831 230.747 166.899 C 230.474 166.899 228.696 166.626 226.919 166.353 C 223.159 165.737 218.511 164.985 217.075 164.985 C 215.708 164.985 213.521 163.618 212.358 162.798 L 214.546 156.44 L 221.382 148.716 L 228.56 143.589 L 237.446 143.589 L 245.786 144.546 L 249.204 148.374 L 252.417 153.228 L 252.417 157.056 C 252.349 157.261 252.349 157.466 252.349 157.671 L 252.349 157.671 Z " fill="rgb(0,0,0)"/><path d=" M 208.667 224.458 L 213.042 223.979 L 205.317 223.979 L 208.667 224.458 Z " fill="rgb(0,0,0)"/><path d=" M 247.563 224.253 C 247.358 224.595 243.394 231.021 243.394 231.021 L 241.616 231.978 L 242.026 232.456 L 245.171 229.722 L 248.179 224.663 L 248.179 223.979 L 247.563 223.979 C 247.632 224.116 247.632 224.185 247.563 224.253 Z " fill="rgb(0,0,0)"/><path d=" M 247.563 224.253 C 247.563 224.185 247.632 224.048 247.632 223.979 L 246.88 223.979 L 246.88 224.253 L 244.146 228.765 L 241.206 231.362 L 241.685 231.909 L 241.753 231.978 L 243.53 231.021 C 243.462 231.021 247.427 224.663 247.563 224.253 Z " fill="rgb(0,0,0)"/><path d=" M 254.126 182.349 L 254.741 183.237 C 254.604 182.075 254.399 180.913 253.989 179.751 L 252.759 179.751 C 253.511 181.187 254.126 182.349 254.126 182.349 Z " fill="rgb(0,0,0)"/><path d=" M 258.569 190.005 C 258.501 190.347 257.681 193.081 257.476 193.491 C 257.271 193.97 250.845 202.788 250.845 202.788 L 252.349 205.864 C 252.349 205.864 252.622 208.052 252.417 208.394 C 252.212 208.735 246.538 217.554 246.538 217.554 L 247.427 220.015 C 247.427 220.015 247.632 223.091 247.563 224.048 L 248.179 224.048 L 248.179 219.331 L 247.427 217.28 L 247.427 217.28 L 248.042 216.802 L 252.212 210.376 L 253.306 206.89 L 251.665 202.856 C 251.802 202.72 251.87 202.651 251.87 202.651 L 257.202 195.337 L 259.321 191.44 L 259.253 191.167 C 258.979 190.073 258.706 188.911 258.569 187.749 C 258.569 187.476 258.569 186.724 255.015 182.964 L 254.741 183.237 L 256.86 186.245 C 256.86 186.245 258.638 189.663 258.569 190.005 Z " fill="rgb(0,0,0)"/><path d=" M 252.759 179.751 L 252.554 179.751 C 253.374 181.87 253.647 184.126 253.374 186.382 L 248.862 194.106 L 244.214 199.644 C 241.069 200.737 235.942 202.446 235.054 202.446 C 233.618 202.446 220.356 202.651 219.468 202.72 C 218.442 202.651 202.173 201.763 200.054 201.763 C 198.823 201.763 192.808 200.806 188.433 200.054 C 184.399 199.37 182.69 199.097 182.28 199.097 L 182.28 199.097 C 181.392 199.028 168.745 196.499 160.405 194.79 L 143.384 189.526 L 135.591 187.749 L 132.241 190.21 L 131.147 193.97 L 131.968 198.003 L 140.376 203.677 L 154.116 211.606 L 169.771 218.101 L 169.839 218.101 L 186.177 220.767 L 196.294 222.681 L 205.249 223.911 L 213.042 223.911 L 226.919 222.476 L 236.489 222.681 L 236.626 222.681 L 242.847 220.903 L 246.333 218.101 L 246.88 219.468 L 246.88 223.911 L 247.632 223.911 C 247.7 222.954 247.495 219.878 247.495 219.878 L 246.606 217.417 C 246.606 217.417 252.28 208.599 252.485 208.257 C 252.69 207.915 252.417 205.728 252.417 205.728 L 250.913 202.651 C 250.913 202.651 257.407 193.833 257.544 193.354 C 257.749 192.876 258.501 190.21 258.638 189.868 C 258.706 189.526 256.929 186.108 256.929 186.108 L 254.81 183.101 L 254.81 183.101 L 254.81 183.101 L 254.194 182.212 C 254.126 182.349 253.511 181.187 252.759 179.751 Z  M 254.741 186.724 C 254.81 186.108 254.878 185.493 254.878 184.878 C 255.767 185.767 256.519 186.792 257.202 187.886 C 257.339 189.048 257.544 190.21 257.886 191.304 L 256.108 194.653 L 250.913 201.763 C 250.776 201.899 250.366 202.241 249.888 202.72 C 245.854 206.411 244.009 207.847 243.599 208.052 L 237.925 209.487 L 221.724 210.171 L 204.771 209.214 L 187.817 206.138 L 187.749 206.138 L 174.077 206.411 L 160.063 202.856 L 147.69 198.55 L 141.06 194.517 L 140.308 195.679 L 147.007 199.78 L 159.585 204.155 L 173.804 207.778 L 173.872 207.778 L 187.544 207.505 L 204.497 210.581 L 221.587 211.538 L 221.655 211.538 L 237.993 210.786 L 243.872 209.351 C 244.146 209.282 244.829 209.077 250.571 203.882 L 251.87 207.026 L 250.981 209.829 L 247.017 215.913 L 242.163 219.81 L 236.421 221.45 L 226.919 221.245 L 226.851 221.245 L 208.667 223.159 L 196.567 221.519 L 186.45 219.604 L 170.249 217.007 L 154.8 210.581 L 141.196 202.72 L 133.267 197.388 L 132.651 194.243 L 133.472 191.304 L 135.933 189.458 L 143.042 191.03 L 160.063 196.294 L 160.132 196.294 C 163.687 197.046 181.323 200.601 182.349 200.601 C 182.69 200.601 185.562 201.079 188.296 201.489 C 193.218 202.31 198.755 203.198 200.122 203.198 C 202.241 203.198 219.331 204.155 219.536 204.155 L 219.536 204.155 L 219.536 204.155 C 219.673 204.155 233.687 203.882 235.122 203.882 C 236.626 203.882 243.599 201.421 244.966 200.942 L 245.171 200.874 L 250.093 194.995 L 254.81 186.86 L 254.741 186.724 Z " fill="rgb(0,0,0)"/><path d=" M 137.778 185.151 C 139.351 184.81 140.991 184.81 142.563 185.151 L 142.905 183.784 C 142.563 183.716 134.224 181.597 126.636 190.483 L 127.661 191.372 C 131.353 187.065 135.181 185.63 137.778 185.151 Z " fill="rgb(0,0,0)"/><path d=" M 135.591 179.751 L 140.239 178.657 L 139.966 177.29 L 132.993 178.931 L 133.198 179.751 L 135.591 179.751 Z " fill="rgb(0,0,0)"/><path d=" M 133.335 180.298 L 135.591 179.751 L 133.198 179.751 L 133.335 180.298 Z " fill="rgb(0,0,0)"/><path d=" M 218.306 173.599 C 221.04 175.376 223.569 177.427 225.825 179.751 L 227.739 179.751 C 225.825 177.563 223.706 175.649 221.382 173.94 L 226.782 174.556 L 231.431 173.599 L 231.157 172.231 L 226.714 173.188 L 218.921 172.3 C 217.69 171.479 216.392 170.796 215.024 170.181 L 214.409 171.411 L 218.306 173.599 L 218.306 173.599 Z " fill="rgb(0,0,0)"/><path d=" M 230.132 185.493 L 231.362 184.81 C 230.337 183.032 229.106 181.323 227.739 179.751 L 225.825 179.751 C 227.466 181.528 228.901 183.442 230.132 185.493 Z " fill="rgb(0,0,0)"/><path d=" M 142.222 149.741 L 144.614 151.108 L 144.751 151.997 L 145.776 151.792 L 153.364 156.235 L 153.433 156.235 C 155.688 157.329 158.354 158.696 158.696 159.106 C 159.175 159.79 164.438 162.729 168.745 165.122 L 168.813 165.19 L 168.882 165.19 C 172.368 165.942 179.204 167.446 180.298 167.788 C 181.118 168.062 183.647 168.13 185.903 168.13 C 187.886 168.13 189.731 168.062 190.073 168.062 L 198.276 167.104 L 204.224 164.917 L 204.155 164.712 L 205.933 165.874 L 205.933 167.583 L 203.403 169.907 L 197.661 172.3 L 196.636 173.188 L 196.704 172.71 C 194.106 172.505 191.03 172.095 190.552 171.89 C 190.21 171.685 189.663 171.274 176.743 171.274 C 174.282 171.274 168.13 169.907 167.378 169.634 C 166.694 169.429 161.362 167.788 160.337 167.515 C 159.448 166.626 154.048 161.636 149.741 159.106 L 149.058 160.337 C 153.501 162.935 159.448 168.54 159.448 168.608 L 159.585 168.745 L 159.722 168.813 C 159.79 168.813 166.216 170.728 166.899 170.933 C 167.72 171.206 174.009 172.642 176.743 172.642 C 187.476 172.642 189.458 172.915 189.868 173.052 C 190.62 173.462 193.491 173.804 195.679 174.009 L 194.927 174.624 L 191.782 179.751 L 193.423 179.751 L 196.021 175.513 L 198.481 173.462 L 204.224 171.069 L 207.437 168.13 L 207.437 165.054 L 203.95 162.798 L 201.558 155.278 L 196.362 148.374 L 190.962 145.161 L 177.905 138.394 L 167.856 137.437 L 155.962 138.667 L 146.802 142.153 L 141.743 148.442 L 138.667 150.083 L 137.437 148.989 L 138.052 145.298 L 143.862 139.692 L 148.989 135.522 L 156.167 134.155 L 164.233 133.95 L 172.847 133.95 L 179.888 134.155 L 187.202 138.188 C 190.347 139.829 193.97 141.88 194.312 142.427 C 194.79 143.384 200.122 148.442 201.831 150.015 L 206.685 156.304 L 207.368 161.362 L 208.735 161.157 L 207.983 155.688 L 202.856 149.058 L 202.788 148.989 C 199.438 145.913 195.815 142.358 195.474 141.743 C 194.995 140.718 190.415 138.257 187.749 136.89 L 182.759 134.155 L 194.175 134.36 L 198.276 136.89 L 203.677 141.812 L 206.616 145.503 L 208.052 153.228 L 209.419 152.954 L 207.915 144.888 L 204.702 140.923 L 199.097 135.796 L 194.517 132.993 L 179.956 132.72 L 172.778 132.446 L 164.097 132.446 L 155.962 132.72 L 148.237 134.224 L 142.837 138.667 L 136.616 144.614 L 135.796 149.536 L 138.394 151.792 L 142.222 149.741 Z  M 195.542 149.468 L 200.396 155.962 L 202.856 163.755 L 203.13 163.892 L 198.276 165.737 L 190.21 166.694 C 187.134 166.763 181.87 166.831 180.913 166.489 C 179.546 166.011 170.522 164.097 169.429 163.823 C 165.122 161.499 160.405 158.833 159.927 158.286 C 159.38 157.534 156.099 155.894 154.185 154.937 L 148.032 151.313 L 152.544 150.493 C 155.347 150.151 162.729 149.331 163.687 149.331 C 164.097 149.331 165.601 149.468 167.173 149.604 C 171.821 150.015 174.009 150.151 174.624 150.015 C 175.308 149.878 181.802 149.194 186.04 148.853 L 192.739 148.374 L 192.671 147.69 L 195.542 149.468 Z  M 147.69 143.315 L 156.304 140.034 L 167.925 138.872 L 177.563 139.829 L 190.347 146.46 L 191.509 147.144 L 185.835 147.554 C 184.741 147.622 175.171 148.511 174.214 148.784 C 173.599 148.921 169.634 148.511 167.173 148.306 C 165.396 148.169 164.028 148.032 163.55 148.032 C 162.319 148.032 152.612 149.194 152.202 149.263 L 146.05 150.425 L 143.247 148.784 L 147.69 143.315 Z " fill="rgb(0,0,0)"/><path d=" M 191.167 180.776 C 189.595 181.665 188.022 182.349 186.382 183.032 C 185.63 183.032 181.392 185.015 177.974 186.655 C 177.358 186.86 171.753 188.569 170.454 188.774 L 170.659 190.142 C 172.095 189.868 178.179 188.022 178.452 187.954 L 178.521 187.886 C 181.938 186.245 185.835 184.468 186.382 184.331 C 187.202 184.263 190.21 182.759 191.919 181.87 L 192.056 181.802 L 193.354 179.683 L 191.714 179.683 L 191.167 180.776 Z " fill="rgb(0,0,0)"/><path d=" M 197.729 124.79 L 196.841 125.405 C 197.251 125.337 197.661 125.337 198.071 125.269 L 197.729 124.79 Z " fill="rgb(0,0,0)"/><path d=" M 200.942 131.831 L 202.72 134.907 L 201.831 137.983 L 203.198 138.394 L 204.224 134.771 L 202.173 131.147 L 198.14 125.337 C 197.729 125.405 197.319 125.405 196.909 125.474 L 196.636 125.679 L 200.942 131.831 Z " fill="rgb(0,0,0)"/><path d=" M 242.778 130.19 L 248.862 129.575 C 248.862 129.575 264.038 134.087 264.653 134.702 C 265.269 135.317 272.925 138.667 272.925 138.667 L 277.437 139.077 L 278.052 134.976 L 274.702 130.19 L 265.063 123.081 L 254.058 117.749 L 247.153 115.356 L 244.692 80.493 L 238.882 71.812 L 230.2 64.702 L 218.989 59.165 L 207.368 58.96 L 185.493 61.694 L 165.396 65.659 L 164.233 62.241 C 162.661 61.831 161.089 61.558 159.517 61.353 C 158.354 61.353 147.69 64.634 147.69 64.634 L 141.196 68.052 L 139.829 72.017 L 130.532 77.144 L 123.013 86.577 L 118.706 95.669 C 118.706 95.669 116.519 104.761 116.519 105.308 C 116.519 105.854 117.681 110.845 118.501 111.187 C 119.321 111.528 125.405 113.169 125.405 113.169 L 133.403 117.134 L 144.956 123.833 L 159.312 128.55 C 159.312 128.55 172.915 127.593 174.282 127.593 C 175.649 127.593 196.157 125.405 197.319 125.405 C 198.481 125.405 220.972 123.628 221.587 123.628 C 222.202 123.628 235.601 123.423 235.601 123.423 L 240.933 128.14 L 242.778 130.19 Z " fill="rgb(200,39,39)"/><path d=" M 237.446 149.536 L 239.224 153.296 L 240.317 157.603 L 239.771 160.337 L 237.446 166.284 L 230.063 167.515 L 218.169 165.396 L 216.733 161.226 L 217.28 157.466 L 218.511 151.519 L 221.587 148.101 L 223.569 149.194 L 236.694 149.536" fill="rgb(0,0,0)"/><path d=" M 183.306 148.989 L 185.493 153.159 L 185.698 158.218 L 184.604 162.729 L 182.28 166.353 L 178.521 166.558 L 164.097 162.251 L 158.354 157.192 L 159.106 153.979 L 161.089 150.903 L 163.755 148.784 L 173.872 149.058 C 173.735 148.989 182.896 149.741 183.306 148.989 Z " fill="rgb(0,0,0)"/><path d=" M 276.206 130.737 L 270.601 125.815 L 262.534 120.415 L 249.272 115.562 L 247.427 114.81 L 246.88 103.394 C 246.196 97.788 245.239 89.312 245.239 88.628 C 245.239 87.671 244.761 80.698 244.761 80.425 L 244.761 80.288 L 240.796 73.11 L 234.165 66.274 L 223.979 60.464 L 215.503 58.071 L 203.882 58.071 L 192.466 59.507 C 187.886 60.259 180.708 61.421 179.888 61.421 C 178.657 61.421 169.087 63.608 167.993 63.813 L 164.644 64.702 L 165.19 64.429 L 164.097 62.241 L 160.542 60.874 L 155.347 61.353 L 147.007 63.403 L 140.718 67.437 L 139.419 70.786 L 140.308 71.128 L 136.821 72.017 L 136.685 72.017 L 129.302 76.665 L 124.175 82.476 L 119.526 90.269 L 115.835 102.983 L 115.835 107.563 L 118.228 111.802 L 133.198 117.134 L 138.188 121.646 L 149.331 126.704 L 159.175 129.165 L 177.563 127.935 L 204.155 125.063 L 223.091 123.628 L 238.813 123.833 L 255.425 126.226 L 268.55 132.446 L 269.165 131.216 L 255.903 124.927 L 239.019 122.534 L 223.091 122.261 L 204.087 123.696 L 177.495 126.567 L 159.38 127.729 L 149.946 125.405 L 139.077 120.415 L 134.019 115.835 L 119.253 110.571 L 117.339 107.153 L 117.339 103.12 L 120.894 90.815 L 125.405 83.296 L 130.327 77.69 L 137.368 73.247 L 168.403 65.112 C 172.437 64.224 179.204 62.72 180.024 62.72 C 181.255 62.72 191.646 61.011 192.808 60.806 L 204.019 59.37 L 215.366 59.37 L 223.364 61.694 L 233.276 67.368 L 239.634 73.931 L 243.325 80.698 C 243.462 83.228 243.804 87.944 243.804 88.628 C 243.804 89.585 245.308 102.163 245.513 103.53 L 246.06 114.263 L 237.993 111.187 L 222.065 109.478 L 210.034 108.247 L 198.208 109.204 L 184.536 110.64 L 168.608 114.263 L 156.646 117.134 L 148.647 117.612 L 138.394 115.562 L 143.589 119.321 L 147.827 121.782 L 157.534 124.175 L 167.036 124.448 L 167.104 124.448 L 175.581 123.491 L 187.544 121.577 L 199.233 119.663 L 212.358 118.706 L 221.45 118.228 L 232.388 118.911 L 247.222 120.825 L 266.362 124.448 L 269.712 126.636 L 275.044 131.284 L 276.548 134.771 L 276.206 137.368 L 273.335 137.573 L 267.729 134.976 L 257.407 130.874 L 249.272 128.413 L 242.163 129.165 L 242.3 130.532 L 249.136 129.849 L 256.86 132.173 L 267.114 136.206 L 273.062 138.94 L 277.368 138.667 L 277.983 134.565 L 276.206 130.737 Z  M 140.854 70.923 L 141.88 68.325 L 147.554 64.702 L 155.552 62.788 L 160.405 62.31 L 163.14 63.335 L 163.892 64.839 L 140.854 70.923 Z  M 247.427 119.731 L 247.29 120.415 L 247.427 119.731 L 232.456 117.817 L 221.382 117.065 L 212.222 117.544 L 199.028 118.501 L 187.202 120.415 L 175.239 122.329 L 166.899 123.286 L 157.671 123.081 L 148.237 120.757 L 144.272 118.433 L 144.204 118.433 L 148.374 119.253 L 156.646 118.774 L 168.745 115.903 L 184.536 112.349 L 198.14 110.913 L 209.829 109.956 L 221.724 111.118 L 237.446 112.759 L 248.657 117.065 L 261.782 121.851 L 263.286 122.876 L 247.427 119.731 Z " fill="rgb(0,0,0)"/><path d=" M 173.639 158.076 C 173.069 156.159 174.456 154.053 176.734 153.376 C 179.013 152.698 181.325 153.704 181.895 155.62 C 182.465 157.537 181.079 159.643 178.8 160.321 C 176.522 160.999 174.21 159.993 173.639 158.076 Z " fill="rgb(255,255,255)"/><circle vector-effect="non-scaling-stroke" cx="167.6513671875" cy="158.1494140625" r="1.77734375" fill="rgb(255,255,255)"/><circle vector-effect="non-scaling-stroke" cx="166.5576171875" cy="152.6123046875" r="1.77734375" fill="rgb(255,255,255)"/><circle vector-effect="non-scaling-stroke" cx="224.4580078125" cy="160.5419921875" r="1.640625" fill="rgb(255,255,255)"/><circle vector-effect="non-scaling-stroke" cx="224.2529296875" cy="154.1845703125" r="1.77734375" fill="rgb(255,255,255)"/><circle vector-effect="non-scaling-stroke" cx="234.02832031250006" cy="157.8076171875" r="3.212890625" fill="rgb(255,255,255)"/></g></g></svg>