<?xml version="1.0" encoding="UTF-8" standalone="no"?><!-- Generator: Gravit.io --><svg xmlns="http://www.w3.org/2000/svg" xmlns:xlink="http://www.w3.org/1999/xlink" style="isolation:isolate" viewBox="0 0 350 350" width="350pt" height="350pt"><defs><clipPath id="_clipPath_GlJySPVbQvubZMfhYF3ixMKMMDnxePhA"><rect width="350" height="350"/></clipPath></defs><g clip-path="url(#_clipPath_GlJySPVbQvubZMfhYF3ixMKMMDnxePhA)"><rect width="350" height="350" style="fill:rgb(203,255,161)"/><g><clipPath id="_clipPath_KVcbWGWcrNIL4Kp4n15LZxylj2lEMyC2"><rect x="45" y="82.24" width="260" height="185.52" transform="matrix(1,0,0,1,0,0)" fill="rgb(255,255,255)"/></clipPath><g clip-path="url(#_clipPath_KVcbWGWcrNIL4Kp4n15LZxylj2lEMyC2)"><g><path d=" M 175.031 196.098 L 175.031 185.807 C 191.575 185.807 207.614 184.463 222.699 181.815 C 237.183 179.272 250.161 175.644 261.27 171.033 C 271.963 166.595 280.643 161.276 286.374 155.653 C 291.856 150.272 294.636 144.727 294.636 139.169 C 294.636 133.612 291.856 128.066 286.374 122.686 C 280.644 117.063 271.965 111.746 261.27 107.305 C 250.161 102.695 237.183 99.066 222.699 96.524 C 207.613 93.875 191.575 92.532 175.031 92.532 C 167.448 92.532 159.858 92.82 152.471 93.391 C 146.363 93.862 140.3 94.534 134.448 95.386 L 132.965 85.202 C 139.045 84.316 145.342 83.618 151.679 83.129 C 159.33 82.539 167.187 82.239 175.032 82.239 C 209.016 82.239 241.044 87.765 265.218 97.799 C 290.827 108.43 304.931 123.121 304.931 139.168 C 304.931 155.216 290.827 169.907 265.218 180.537 C 241.044 190.571 209.016 196.097 175.032 196.097 L 175.031 196.098 Z " fill="rgb(37,49,28)"/><path d=" M 174.896 267.76 C 140.913 267.76 108.885 262.234 84.711 252.199 C 59.104 241.569 45 226.878 45 210.83 C 45 194.782 59.104 180.091 84.713 169.46 C 108.886 159.427 140.914 153.9 174.898 153.9 L 174.898 164.192 C 158.355 164.192 142.317 165.535 127.229 168.184 C 112.745 170.728 99.768 174.355 88.659 178.967 C 77.966 183.405 69.285 188.723 63.555 194.347 C 58.073 199.727 55.293 205.272 55.293 210.83 C 55.293 216.387 58.073 221.934 63.555 227.314 C 69.284 232.937 77.964 238.254 88.659 242.694 C 99.768 247.305 112.745 250.932 127.229 253.476 C 142.317 256.124 158.355 257.468 174.898 257.468 C 182.48 257.468 190.07 257.179 197.457 256.609 C 203.565 256.137 209.629 255.465 215.481 254.614 L 216.964 264.798 C 210.884 265.684 204.588 266.382 198.249 266.87 C 190.6 267.461 182.743 267.761 174.896 267.761 L 174.896 267.76 Z " fill="rgb(37,49,28)"/><path d=" M 175.069 231.899 C 141.078 231.899 109.04 226.378 84.863 216.351 C 59.245 205.73 45.139 191.048 45.139 175.01 C 45.139 158.973 59.247 144.289 84.863 133.668 C 109.042 123.642 141.078 118.12 175.069 118.12 C 209.061 118.12 241.098 123.642 265.276 133.668 C 290.892 144.289 305 158.973 305 175.01 C 305 191.048 290.892 205.73 265.276 216.351 C 241.096 226.378 209.061 231.899 175.069 231.899 Z  M 175.069 128.412 C 158.52 128.412 142.478 129.754 127.386 132.402 C 112.898 134.943 99.916 138.568 88.805 143.177 C 78.109 147.612 69.425 152.925 63.693 158.545 C 58.21 163.919 55.43 169.459 55.43 175.011 C 55.43 180.563 58.21 186.104 63.693 191.478 C 69.425 197.096 78.107 202.411 88.805 206.846 C 99.916 211.455 112.898 215.08 127.386 217.621 C 142.478 220.269 158.521 221.611 175.069 221.611 C 191.617 221.611 207.66 220.269 222.752 217.621 C 237.24 215.08 250.221 211.455 261.334 206.846 C 272.03 202.411 280.714 197.096 286.445 191.478 C 291.928 186.104 294.708 180.563 294.708 175.011 C 294.708 169.459 291.928 163.919 286.445 158.545 C 280.714 152.925 272.031 147.612 261.334 143.177 C 250.221 138.568 237.24 134.943 222.752 132.402 C 207.66 129.754 191.617 128.412 175.069 128.412 Z " fill="rgb(37,49,28)"/></g></g></g></g></svg>