<?xml version="1.0" encoding="UTF-8" standalone="no"?><!-- Generator: Gravit.io --><svg xmlns="http://www.w3.org/2000/svg" xmlns:xlink="http://www.w3.org/1999/xlink" style="isolation:isolate" viewBox="0 0 350 350" width="350pt" height="350pt"><defs><clipPath id="_clipPath_d7dzlY2NWEsSBg7vsOSxYLaw5euCWgeM"><rect width="350" height="350"/></clipPath></defs><g clip-path="url(#_clipPath_d7dzlY2NWEsSBg7vsOSxYLaw5euCWgeM)"><circle vector-effect="non-scaling-stroke" cx="174.99999999999997" cy="175.00000000000014" r="174.99999999999997" fill="rgb(230,1,123)"/><g><ellipse vector-effect="non-scaling-stroke" cx="175.00245794670462" cy="64.36604736916766" rx="50.49212877606013" ry="29.366047369167486" fill="rgb(255,255,255)"/><ellipse vector-effect="non-scaling-stroke" cx="175.00245794670462" cy="285.63395263083265" rx="50.49212877606013" ry="29.36604736916746" fill="rgb(255,255,255)"/><path d=" M 53.944 163.415 C 39.899 155.306 39.808 129.129 53.742 104.996 C 67.676 80.863 90.391 67.853 104.436 75.963 C 118.481 84.072 118.572 110.249 104.638 134.382 C 90.705 158.515 67.989 171.524 53.944 163.415 Z " fill="rgb(255,255,255)"/><path d=" M 245.564 274.046 C 231.528 265.942 231.446 239.769 245.379 215.636 C 259.313 191.503 282.021 178.489 296.056 186.593 C 310.092 194.697 310.175 220.869 296.241 245.002 C 282.308 269.136 259.6 282.149 245.564 274.046 Z " fill="rgb(255,255,255)"/><path d=" M 53.749 245.006 C 39.815 220.872 39.906 194.696 53.951 186.586 C 67.996 178.477 90.712 191.487 104.645 215.62 C 118.579 239.753 118.488 265.93 104.443 274.039 C 90.398 282.148 67.683 269.139 53.749 245.006 Z " fill="rgb(255,255,255)"/><path d=" M 245.391 134.378 C 231.457 110.245 231.54 84.073 245.576 75.969 C 259.612 67.865 282.319 80.879 296.253 105.012 C 310.187 129.145 310.104 155.318 296.068 163.421 C 282.032 171.525 259.325 158.511 245.391 134.378 Z " fill="rgb(255,255,255)"/></g></g></svg>