<?xml version="1.0" encoding="UTF-8" standalone="no"?><!-- Generator: Gravit.io --><svg xmlns="http://www.w3.org/2000/svg" xmlns:xlink="http://www.w3.org/1999/xlink" style="isolation:isolate" viewBox="0 0 350 350" width="350pt" height="350pt"><defs><clipPath id="_clipPath_i0UvfOoMVx4ZGyOdOkxfcnlr6bLDqccm"><rect width="350" height="350"/></clipPath></defs><g clip-path="url(#_clipPath_i0UvfOoMVx4ZGyOdOkxfcnlr6bLDqccm)"><rect width="350" height="350" style="fill:rgb(240,4,1)"/><g><g><path d=" M 250.29 180.851 C 250.161 181.536 248.147 183.594 246.132 185.094 C 240.217 189.423 229.63 193.453 218.871 195.381 C 212.741 196.496 206.612 196.667 204.769 195.767 C 203.569 195.167 203.397 194.696 203.826 193.152 C 204.726 189.938 207.641 186.423 212.184 183.122 C 214.499 181.451 223.886 175.75 228.258 173.35 C 235.459 169.406 241.288 167.049 245.232 166.491 C 246.475 166.32 247.975 166.277 248.447 166.491 C 249.218 166.791 250.076 169.063 250.418 171.806 C 250.59 173.264 250.504 179.693 250.29 180.851 Z " fill="rgb(0,0,0)"/><path d=" M 149.303 195.038 C 149.046 195.553 147.76 196.11 146.303 196.324 C 144.845 196.539 140.388 196.41 137.859 196.11 C 128.772 194.91 119.127 192.124 112.098 188.695 C 108.154 186.766 105.325 184.837 103.225 182.737 L 102.025 181.494 L 101.896 179.865 C 101.682 177.036 101.725 172.578 102.068 170.992 C 102.282 169.663 102.753 168.377 103.396 167.22 C 103.739 166.791 103.739 166.791 105.282 166.791 C 107.168 166.791 108.754 167.091 111.326 167.906 C 116.598 169.535 124.442 173.478 134.001 179.222 C 141.888 183.937 144.845 186.251 147.117 189.423 C 148.66 191.395 149.689 194.181 149.303 195.038 Z " fill="rgb(0,0,0)"/><path d=" M 209.998 254.705 C 209.998 254.833 209.484 256.891 208.841 259.334 C 208.198 261.777 207.683 263.749 207.683 263.835 C 207.212 263.877 206.783 263.92 206.312 263.877 L 204.94 263.877 L 203.054 268.335 C 202.025 270.778 201.082 273.05 200.954 273.393 L 200.697 273.993 L 199.797 272.536 L 198.896 271.078 L 198.896 259.205 L 198.554 259.291 C 197.825 259.462 192.638 260.148 190.367 260.363 C 180.979 261.306 171.549 261.091 162.205 259.762 C 160.705 259.548 159.419 259.377 159.376 259.42 C 159.333 259.462 159.376 262.206 159.462 265.592 L 159.591 271.679 L 158.862 272.793 C 158.476 273.393 158.09 273.907 158.09 273.95 C 157.962 274.079 157.533 273.393 156.547 271.421 C 155.476 269.364 154.704 267.178 154.147 264.906 L 153.847 263.663 L 152.518 263.749 L 151.189 263.877 L 150.846 262.291 C 150.675 261.434 150.461 260.105 150.375 259.377 L 150.246 258.005 L 149.132 257.019 C 148.489 256.462 147.846 255.905 147.717 255.819 C 147.503 255.648 147.417 255.348 147.417 255.09 L 147.417 254.576 L 152.775 254.619 L 158.133 254.662 L 158.305 255.219 L 158.476 255.776 L 160.319 255.862 C 161.348 255.905 164.606 255.99 167.52 256.076 L 172.878 256.205 L 174.25 254.062 L 175.664 251.918 L 177.465 251.918 L 177.422 247.461 L 177.379 243.003 L 175.021 241.974 C 167.435 238.631 162.977 234.816 161.305 230.187 C 160.962 229.244 160.962 228.901 160.876 224.614 C 160.834 220.371 160.834 219.985 161.134 219.042 C 161.734 216.899 163.405 215.227 165.549 214.67 C 166.277 214.456 168.206 214.456 178.322 214.456 L 190.238 214.499 L 191.567 215.142 C 193.153 215.913 193.881 216.47 194.782 217.67 C 195.81 219.042 196.11 220.114 196.11 222.728 C 196.11 226.457 195.853 229.672 195.467 230.958 C 194.91 232.716 194.053 234.387 192.981 235.887 C 190.838 238.631 186.938 241.374 183.38 242.617 L 182.351 243.003 L 182.394 247.503 L 182.437 252.004 L 183.38 252.09 L 184.323 252.176 L 185.609 254.104 L 186.852 256.033 L 192.595 256.033 C 195.767 256.033 198.554 256.076 198.811 256.119 C 199.239 256.205 199.325 256.162 199.754 255.433 L 200.268 254.662 L 205.197 254.662 C 208.884 254.49 209.998 254.576 209.998 254.705 Z " fill="rgb(0,0,0)"/><path d=" M 187.366 267.006 C 186.552 267.478 185.994 267.692 185.866 267.606 C 185.737 267.564 185.137 267.049 184.494 266.578 L 183.337 265.635 L 182.137 266.921 C 179.522 269.75 179.436 269.878 178.665 269.921 C 177.465 270.05 177.207 269.835 175.75 267.649 C 174.979 266.535 174.378 265.592 174.378 265.592 C 174.378 265.592 173.821 265.506 173.178 265.463 L 171.978 265.335 L 171.421 266.492 L 170.864 267.649 L 169.878 267.349 C 169.106 267.092 168.335 266.792 167.606 266.449 L 166.32 265.806 L 166.32 263.363 L 177.722 263.406 L 189.124 263.449 L 189.166 264.606 C 189.209 265.978 189.252 265.935 187.366 267.006 Z " fill="rgb(0,0,0)"/></g><path d=" M 294.525 214.713 C 294.482 214.541 294.482 214.241 294.439 213.77 C 284.152 212.655 254.79 211.97 227.529 234.473 C 227.529 234.473 218.742 194.181 177.593 194.181 C 136.444 194.181 121.185 234.473 121.185 234.473 C 98.124 209.655 67.262 211.455 56.118 213.084 C 56.118 213.341 56.075 213.641 56.075 213.898 C 55.732 220.114 55.904 223.071 56.932 226.972 C 60.147 239.188 70.049 252.647 85.565 265.849 C 110.983 287.452 145.446 303.055 171.549 304.855 C 198.768 306.698 238.931 290.796 265.678 267.564 C 269.879 263.835 273.822 259.891 277.508 255.69 C 280.166 252.604 284.109 247.289 283.809 247.289 C 283.723 247.289 283.809 247.203 283.981 247.118 C 284.109 247.032 284.238 246.903 284.152 246.818 C 284.109 246.775 284.195 246.646 284.323 246.603 C 284.452 246.56 284.538 246.475 284.495 246.389 C 284.452 246.303 284.495 246.218 284.666 246.175 C 284.795 246.132 284.838 246.003 284.795 245.918 C 284.752 245.832 284.795 245.746 284.881 245.746 C 284.966 245.746 285.052 245.617 285.052 245.532 C 285.052 245.446 285.138 245.317 285.224 245.317 C 285.309 245.317 285.395 245.232 285.395 245.146 C 285.524 244.803 285.738 244.46 285.952 244.16 C 286.595 243.174 289.167 238.588 289.51 237.816 C 291.953 232.287 293.496 227.358 294.225 222.428 C 294.482 220.071 294.697 215.742 294.525 214.713 Z  M 187.366 267.006 C 186.552 267.478 185.994 267.692 185.866 267.606 C 185.737 267.564 185.137 267.049 184.494 266.578 L 183.337 265.635 L 182.137 266.921 C 179.522 269.75 179.436 269.878 178.665 269.921 C 177.465 270.05 177.207 269.835 175.75 267.649 C 174.979 266.535 174.378 265.592 174.378 265.592 C 174.378 265.592 173.821 265.506 173.178 265.463 L 171.978 265.335 L 171.421 266.492 L 170.864 267.649 L 169.878 267.349 C 169.106 267.092 168.335 266.792 167.606 266.449 L 166.32 265.806 L 166.32 263.363 L 177.722 263.406 L 189.124 263.449 L 189.166 264.606 C 189.209 265.978 189.252 265.935 187.366 267.006 Z  M 208.798 259.291 C 208.155 261.734 207.641 263.706 207.641 263.792 C 207.169 263.835 206.74 263.877 206.269 263.835 L 204.897 263.835 L 203.054 268.335 C 202.025 270.778 201.082 273.05 200.954 273.393 L 200.697 273.993 L 199.797 272.536 L 198.896 271.078 L 198.896 259.205 L 198.554 259.291 C 197.825 259.462 192.638 260.148 190.367 260.363 C 180.979 261.306 171.549 261.091 162.205 259.762 C 160.705 259.548 159.419 259.377 159.376 259.42 C 159.333 259.462 159.376 262.206 159.462 265.592 L 159.591 271.679 L 158.862 272.793 C 158.476 273.393 158.09 273.907 158.09 273.95 C 157.962 274.079 157.533 273.393 156.547 271.421 C 155.476 269.364 154.704 267.178 154.147 264.906 L 153.847 263.663 L 152.518 263.749 L 151.189 263.877 L 150.846 262.291 C 150.675 261.434 150.461 260.105 150.375 259.377 L 150.246 258.005 L 149.132 257.019 C 148.489 256.462 147.846 255.905 147.717 255.819 C 147.503 255.648 147.417 255.348 147.417 255.09 L 147.417 254.576 L 152.775 254.619 L 158.133 254.662 L 158.305 255.219 L 158.476 255.776 L 160.319 255.862 C 161.348 255.905 164.606 255.99 167.52 256.076 L 172.878 256.205 L 174.25 254.062 L 175.664 251.918 L 177.465 251.918 L 177.422 247.461 L 177.379 243.003 L 175.021 241.974 C 167.435 238.631 162.977 234.816 161.305 230.187 C 160.962 229.244 160.962 228.901 160.876 224.614 C 160.834 220.371 160.834 219.985 161.134 219.042 C 161.734 216.899 163.405 215.227 165.549 214.67 C 166.277 214.456 168.206 214.456 178.322 214.456 L 190.238 214.499 L 191.567 215.142 C 193.153 215.913 193.881 216.47 194.782 217.67 C 195.81 219.042 196.11 220.114 196.11 222.728 C 196.11 226.457 195.853 229.672 195.467 230.958 C 194.91 232.716 194.053 234.387 192.981 235.887 C 190.838 238.631 186.938 241.374 183.38 242.617 L 182.351 243.003 L 182.394 247.503 L 182.437 252.004 L 183.38 252.09 L 184.323 252.176 L 185.609 254.104 L 186.852 256.033 L 192.595 256.033 C 195.767 256.033 198.554 256.076 198.811 256.119 C 199.239 256.205 199.325 256.162 199.754 255.433 L 200.268 254.662 L 205.197 254.662 C 209.012 254.662 210.127 254.705 210.127 254.833 C 209.998 254.79 209.441 256.891 208.798 259.291 Z " fill="rgb(255,255,255)"/><path d=" M 56.032 213.084 C 53.332 213.47 51.746 213.898 51.746 213.898" fill="none"/><path d=" M 298.254 214.327 C 298.254 214.327 296.883 214.027 294.439 213.77" fill="none"/><path d=" M 294.182 210.341 C 294.096 208.412 293.925 205.712 293.796 204.383 C 291.953 184.923 286.981 169.02 277.551 152.175 C 277.165 151.532 276.822 150.889 276.608 150.375 C 276.522 150.246 276.479 150.117 276.437 150.032 L 276.437 150.032 C 277.765 146.045 283.209 129.372 287.538 110.297 C 293.411 84.408 297.14 54.146 285.738 45.059 C 285.738 45.059 266.021 43.602 239.617 69.491 C 232.459 76.649 225.901 84.408 220.071 92.68 L 218.228 92.08 C 207.598 88.608 196.582 86.465 185.48 85.736 C 182.137 85.479 169.663 85.479 165.591 85.736 C 153.29 86.551 143.86 88.394 133.144 92.123 C 132.715 92.295 132.329 92.423 131.944 92.552 C 125.9 84.322 119.17 76.606 111.755 69.534 C 84.279 43.516 63.833 45.016 63.833 45.016 C 51.746 54.403 55.861 86.036 62.119 112.783 C 66.234 130.486 71.292 146.045 73.178 151.661 C 73.049 151.961 72.878 152.304 72.706 152.604 C 62.719 172.835 57.318 192.338 56.032 213.084 C 67.22 211.455 98.038 209.612 121.142 234.473 C 121.142 234.473 136.401 194.181 177.55 194.181 C 218.699 194.181 227.486 234.473 227.486 234.473 C 254.748 211.97 284.109 212.698 294.396 213.77 C 294.354 212.913 294.268 211.627 294.182 210.341 Z  M 81.279 135.501 C 81.279 135.501 65.248 95.424 69.363 72.534 C 69.363 72.534 69.363 72.534 69.363 72.534 C 70.049 68.677 71.334 65.29 73.349 62.719 C 73.349 62.719 91.523 64.519 120.842 97.095 C 120.842 97.095 115.27 99.796 107.811 105.539 C 107.811 105.539 107.768 105.582 107.726 105.582 C 99.624 111.797 89.251 121.656 81.279 135.501 L 81.279 135.501 Z  M 149.303 195.038 C 149.046 195.553 147.76 196.11 146.303 196.324 C 144.845 196.539 140.388 196.41 137.859 196.11 C 128.772 194.91 119.127 192.124 112.098 188.695 C 108.154 186.766 105.325 184.837 103.225 182.737 L 102.025 181.494 L 101.896 179.865 C 101.682 177.036 101.725 172.578 102.068 170.992 C 102.282 169.663 102.753 168.377 103.396 167.22 C 103.739 166.791 103.739 166.791 105.282 166.791 C 107.168 166.791 108.754 167.091 111.326 167.906 C 116.598 169.535 124.442 173.478 134.001 179.222 C 141.888 183.937 144.845 186.251 147.117 189.423 C 148.66 191.395 149.689 194.181 149.303 195.038 Z  M 250.29 180.851 C 250.161 181.536 248.147 183.594 246.132 185.094 C 240.217 189.423 229.63 193.453 218.871 195.381 C 212.741 196.496 206.612 196.667 204.769 195.767 C 203.569 195.167 203.397 194.696 203.826 193.152 C 204.726 189.938 207.641 186.423 212.184 183.122 C 214.499 181.451 223.886 175.75 228.258 173.35 C 235.459 169.406 241.288 167.049 245.232 166.491 C 246.475 166.32 247.975 166.277 248.447 166.491 C 249.218 166.791 250.076 169.063 250.418 171.806 C 250.59 173.264 250.504 179.693 250.29 180.851 Z  M 243.174 105.539 L 243.089 105.497 C 235.888 99.753 230.487 97.052 230.487 97.052 C 258.82 64.476 276.351 62.676 276.351 62.676 C 278.28 65.29 279.523 68.634 280.209 72.492 C 280.209 72.492 280.209 72.492 280.209 72.492 C 284.195 95.381 268.721 135.501 268.721 135.501 C 262.249 123.971 253.547 113.769 243.174 105.539 L 243.174 105.539 Z " fill="rgb(255,164,9)"/><path d=" M 220.028 92.68 C 219.942 92.766 219.9 92.895 219.814 92.98" fill="none"/><path d=" M 276.394 149.989 C 276.179 150.589 276.094 150.889 276.094 150.889" fill="none"/><g><g><g><path d=" M 280.251 72.492 C 276.908 72.063 261.091 71.977 243.174 105.539 L 243.089 105.497 C 235.888 99.753 230.487 97.052 230.487 97.052 C 258.82 64.476 276.351 62.676 276.351 62.676 C 278.323 65.29 279.566 68.634 280.251 72.492 Z " fill="rgb(255,147,0)"/></g><path d=" M 268.764 135.501 C 262.249 123.928 253.59 113.769 243.174 105.539 C 261.091 71.977 276.865 72.063 280.251 72.492 C 280.251 72.492 280.251 72.492 280.251 72.492 C 284.238 95.424 268.764 135.501 268.764 135.501 Z " fill="rgb(255,131,0)"/><path d=" M 280.894 72.62 C 280.68 72.577 280.466 72.534 280.251 72.492 L 280.894 72.62 Z " fill="rgb(255,131,0)"/></g></g><path d=" M 133.229 94.352 C 132.801 93.752 132.329 93.152 131.901 92.552" fill="none"/><path d=" M 73.178 151.661 C 73.649 153.118 73.949 153.889 73.949 153.889" fill="none"/><g><g><g><path d=" M 120.842 97.052 C 120.842 97.052 115.27 99.753 107.811 105.497 C 107.811 105.497 107.768 105.539 107.726 105.539 C 89.166 71.934 72.835 72.063 69.32 72.492 C 70.006 68.634 71.292 65.248 73.306 62.676 C 73.349 62.676 91.523 64.476 120.842 97.052 Z " fill="rgb(255,147,0)"/></g><path d=" M 107.768 105.539 C 99.624 111.797 89.251 121.613 81.279 135.501 C 81.279 135.501 65.248 95.424 69.363 72.492 C 69.363 72.492 69.363 72.492 69.363 72.492 C 72.835 72.063 89.209 71.977 107.768 105.539 Z " fill="rgb(255,131,0)"/><path d=" M 69.363 72.492 C 69.148 72.534 68.891 72.577 68.677 72.62 L 69.363 72.492 Z " fill="rgb(255,131,0)"/></g></g><path d=" M 225.386 157.747 C 225.386 157.747 211.67 158.604 213.384 147.889 C 215.099 137.173 225.815 135.887 228.815 136.315 C 231.816 136.744 243.817 141.03 241.674 150.032 C 239.531 159.033 236.531 157.319 234.816 157.747 C 233.102 158.176 225.386 157.747 225.386 157.747 Z " fill="rgb(255,255,255)"/><path d=" M 124.228 157.747 C 124.228 157.747 110.512 158.604 112.226 147.889 C 113.941 137.173 124.657 135.887 127.657 136.315 C 130.658 136.744 142.659 141.03 140.516 150.032 C 138.373 159.033 135.373 157.319 133.658 157.747 C 131.944 158.176 124.228 157.747 124.228 157.747 Z " fill="rgb(255,255,255)"/></g></g></svg>