<?xml version="1.0" encoding="UTF-8" standalone="no"?><!-- Generator: Gravit.io --><svg xmlns="http://www.w3.org/2000/svg" xmlns:xlink="http://www.w3.org/1999/xlink" style="isolation:isolate" viewBox="0 0 350 350" width="350pt" height="350pt"><defs><clipPath id="_clipPath_jks06ZekWhAnbyzDArJZAp6G18iwNtUj"><rect width="350" height="350"/></clipPath></defs><g clip-path="url(#_clipPath_jks06ZekWhAnbyzDArJZAp6G18iwNtUj)"><circle vector-effect="non-scaling-stroke" cx="174.08432249995676" cy="174.99999999999997" r="174.99999999999997" fill="rgb(241,4,0)"/><g><g><path d=" M 250.822 180.963 C 250.691 181.662 248.638 183.759 246.584 185.288 C 240.555 189.701 229.764 193.807 218.799 195.773 C 212.551 196.909 206.304 197.084 204.426 196.167 C 203.202 195.555 203.028 195.074 203.464 193.502 C 204.382 190.225 207.353 186.643 211.984 183.279 C 214.343 181.575 223.91 175.764 228.366 173.318 C 235.706 169.299 241.648 166.896 245.667 166.328 C 246.934 166.153 248.463 166.109 248.943 166.328 C 249.73 166.634 250.604 168.949 250.953 171.745 C 251.128 173.23 251.04 179.784 250.822 180.963 Z " fill="rgb(0,0,0)"/><path d=" M 147.893 195.424 C 147.631 195.948 146.321 196.516 144.835 196.734 C 143.35 196.953 138.806 196.822 136.229 196.516 C 126.967 195.293 117.137 192.453 109.972 188.958 C 105.953 186.992 103.07 185.026 100.929 182.885 L 99.706 181.618 L 99.575 179.958 C 99.356 177.075 99.4 172.531 99.749 170.915 C 99.968 169.561 100.448 168.25 101.104 167.07 C 101.453 166.634 101.453 166.634 103.026 166.634 C 104.948 166.634 106.565 166.939 109.186 167.769 C 114.56 169.43 122.554 173.449 132.297 179.303 C 140.335 184.109 143.35 186.468 145.665 189.701 C 147.238 191.71 148.287 194.55 147.893 195.424 Z " fill="rgb(0,0,0)"/><path d=" M 209.755 256.237 C 209.755 256.368 209.231 258.465 208.576 260.956 C 207.921 263.446 207.396 265.455 207.396 265.543 C 206.916 265.587 206.479 265.63 205.998 265.587 L 204.6 265.587 L 202.678 270.13 C 201.63 272.62 200.668 274.936 200.537 275.285 L 200.275 275.897 L 199.358 274.411 L 198.44 272.926 L 198.44 260.825 L 198.091 260.912 C 197.348 261.087 192.062 261.786 189.746 262.004 C 180.179 262.965 170.567 262.747 161.043 261.393 C 159.514 261.174 158.204 260.999 158.16 261.043 C 158.116 261.087 158.16 263.883 158.247 267.334 L 158.379 273.538 L 157.636 274.674 C 157.243 275.285 156.849 275.81 156.849 275.853 C 156.718 275.984 156.282 275.285 155.277 273.276 C 154.185 271.179 153.398 268.951 152.83 266.635 L 152.524 265.368 L 151.17 265.455 L 149.816 265.587 L 149.466 263.97 C 149.291 263.096 149.073 261.742 148.986 260.999 L 148.855 259.601 L 147.719 258.596 C 147.063 258.029 146.408 257.461 146.277 257.373 C 146.059 257.198 145.971 256.893 145.971 256.631 L 145.971 256.106 L 151.432 256.15 L 156.893 256.194 L 157.068 256.762 L 157.243 257.33 L 159.121 257.417 C 160.17 257.461 163.49 257.548 166.461 257.635 L 171.922 257.766 L 173.32 255.582 L 174.761 253.398 L 176.596 253.398 L 176.553 248.854 L 176.509 244.311 L 174.106 243.262 C 166.373 239.854 161.83 235.966 160.126 231.248 C 159.777 230.287 159.777 229.937 159.689 225.568 C 159.645 221.243 159.645 220.85 159.951 219.889 C 160.563 217.705 162.267 216.001 164.451 215.433 C 165.194 215.214 167.16 215.214 177.47 215.214 L 189.615 215.258 L 190.97 215.913 C 192.586 216.7 193.329 217.268 194.246 218.491 C 195.295 219.889 195.601 220.981 195.601 223.646 C 195.601 227.447 195.338 230.724 194.945 232.034 C 194.377 233.825 193.504 235.529 192.411 237.058 C 190.227 239.854 186.251 242.65 182.625 243.917 L 181.577 244.311 L 181.62 248.898 L 181.664 253.485 L 182.625 253.572 L 183.586 253.66 L 184.897 255.626 L 186.164 257.592 L 192.018 257.592 C 195.251 257.592 198.091 257.635 198.353 257.679 C 198.79 257.766 198.877 257.723 199.314 256.98 L 199.838 256.194 L 204.862 256.194 C 208.62 256.019 209.755 256.106 209.755 256.237 Z " fill="rgb(0,0,0)"/><path d=" M 186.688 268.776 C 185.858 269.256 185.29 269.475 185.159 269.387 C 185.028 269.344 184.417 268.819 183.761 268.339 L 182.582 267.378 L 181.358 268.688 C 178.693 271.572 178.606 271.703 177.82 271.747 C 176.596 271.878 176.334 271.659 174.849 269.431 C 174.062 268.295 173.451 267.334 173.451 267.334 C 173.451 267.334 172.883 267.247 172.228 267.203 L 171.004 267.072 L 170.436 268.252 L 169.868 269.431 L 168.864 269.125 C 168.077 268.863 167.291 268.557 166.548 268.208 L 165.238 267.553 L 165.238 265.062 L 176.859 265.106 L 188.479 265.15 L 188.523 266.329 C 188.567 267.727 188.611 267.684 186.688 268.776 Z " fill="rgb(0,0,0)"/></g><path d=" M 295.908 215.477 C 295.864 215.302 295.864 214.996 295.821 214.515 C 285.335 213.38 255.409 212.681 227.624 235.617 C 227.624 235.617 218.668 194.55 176.727 194.55 C 134.787 194.55 119.234 235.617 119.234 235.617 C 95.73 210.321 64.275 212.156 52.916 213.816 C 52.916 214.079 52.872 214.384 52.872 214.647 C 52.523 220.981 52.698 223.996 53.746 227.971 C 57.023 240.422 67.115 254.14 82.93 267.596 C 108.837 289.615 143.962 305.517 170.567 307.352 C 198.309 309.231 239.245 293.023 266.506 269.344 C 270.787 265.543 274.807 261.524 278.564 257.242 C 281.272 254.097 285.292 248.679 284.986 248.679 C 284.899 248.679 284.986 248.592 285.161 248.505 C 285.292 248.417 285.423 248.286 285.335 248.199 C 285.292 248.155 285.379 248.024 285.51 247.98 C 285.641 247.937 285.729 247.849 285.685 247.762 C 285.641 247.675 285.685 247.587 285.86 247.543 C 285.991 247.5 286.034 247.369 285.991 247.281 C 285.947 247.194 285.991 247.107 286.078 247.107 C 286.166 247.107 286.253 246.976 286.253 246.888 C 286.253 246.801 286.34 246.67 286.428 246.67 C 286.515 246.67 286.602 246.582 286.602 246.495 C 286.733 246.145 286.952 245.796 287.17 245.49 C 287.826 244.485 290.447 239.811 290.796 239.024 C 293.287 233.389 294.859 228.364 295.602 223.34 C 295.864 220.938 296.083 216.525 295.908 215.477 Z  M 186.688 268.776 C 185.858 269.256 185.29 269.475 185.159 269.387 C 185.028 269.344 184.417 268.819 183.761 268.339 L 182.582 267.378 L 181.358 268.688 C 178.693 271.572 178.606 271.703 177.82 271.747 C 176.596 271.878 176.334 271.659 174.849 269.431 C 174.062 268.295 173.451 267.334 173.451 267.334 C 173.451 267.334 172.883 267.247 172.228 267.203 L 171.004 267.072 L 170.436 268.252 L 169.868 269.431 L 168.864 269.125 C 168.077 268.863 167.291 268.557 166.548 268.208 L 165.238 267.553 L 165.238 265.062 L 176.859 265.106 L 188.479 265.15 L 188.523 266.329 C 188.567 267.727 188.611 267.684 186.688 268.776 Z  M 208.532 260.912 C 207.877 263.402 207.353 265.412 207.353 265.499 C 206.872 265.543 206.435 265.587 205.955 265.543 L 204.557 265.543 L 202.678 270.13 C 201.63 272.62 200.668 274.936 200.537 275.285 L 200.275 275.897 L 199.358 274.411 L 198.44 272.926 L 198.44 260.825 L 198.091 260.912 C 197.348 261.087 192.062 261.786 189.746 262.004 C 180.179 262.965 170.567 262.747 161.043 261.393 C 159.514 261.174 158.204 260.999 158.16 261.043 C 158.116 261.087 158.16 263.883 158.247 267.334 L 158.379 273.538 L 157.636 274.674 C 157.243 275.285 156.849 275.81 156.849 275.853 C 156.718 275.984 156.282 275.285 155.277 273.276 C 154.185 271.179 153.398 268.951 152.83 266.635 L 152.524 265.368 L 151.17 265.455 L 149.816 265.587 L 149.466 263.97 C 149.291 263.096 149.073 261.742 148.986 260.999 L 148.855 259.601 L 147.719 258.596 C 147.063 258.029 146.408 257.461 146.277 257.373 C 146.059 257.198 145.971 256.893 145.971 256.631 L 145.971 256.106 L 151.432 256.15 L 156.893 256.194 L 157.068 256.762 L 157.243 257.33 L 159.121 257.417 C 160.17 257.461 163.49 257.548 166.461 257.635 L 171.922 257.766 L 173.32 255.582 L 174.761 253.398 L 176.596 253.398 L 176.553 248.854 L 176.509 244.311 L 174.106 243.262 C 166.373 239.854 161.83 235.966 160.126 231.248 C 159.777 230.287 159.777 229.937 159.689 225.568 C 159.645 221.243 159.645 220.85 159.951 219.889 C 160.563 217.705 162.267 216.001 164.451 215.433 C 165.194 215.214 167.16 215.214 177.47 215.214 L 189.615 215.258 L 190.97 215.913 C 192.586 216.7 193.329 217.268 194.246 218.491 C 195.295 219.889 195.601 220.981 195.601 223.646 C 195.601 227.447 195.338 230.724 194.945 232.034 C 194.377 233.825 193.504 235.529 192.411 237.058 C 190.227 239.854 186.251 242.65 182.625 243.917 L 181.577 244.311 L 181.62 248.898 L 181.664 253.485 L 182.625 253.572 L 183.586 253.66 L 184.897 255.626 L 186.164 257.592 L 192.018 257.592 C 195.251 257.592 198.091 257.635 198.353 257.679 C 198.79 257.766 198.877 257.723 199.314 256.98 L 199.838 256.194 L 204.862 256.194 C 208.751 256.194 209.887 256.237 209.887 256.368 C 209.755 256.325 209.188 258.465 208.532 260.912 Z " fill="rgb(255,255,255)"/><path d=" M 52.829 213.816 C 50.076 214.21 48.46 214.647 48.46 214.647" fill="none"/><path d=" M 299.709 215.083 C 299.709 215.083 298.311 214.778 295.821 214.515" fill="none"/><path d=" M 295.558 211.02 C 295.471 209.054 295.296 206.302 295.165 204.948 C 293.287 185.114 288.219 168.905 278.608 151.736 C 278.214 151.081 277.865 150.425 277.646 149.901 C 277.559 149.77 277.515 149.639 277.472 149.552 L 277.472 149.552 C 278.826 145.489 284.374 128.494 288.787 109.053 C 294.772 82.665 298.573 51.822 286.952 42.56 C 286.952 42.56 266.855 41.075 239.944 67.462 C 232.648 74.758 225.964 82.665 220.022 91.097 L 218.144 90.486 C 207.309 86.947 196.081 84.763 184.766 84.02 C 181.358 83.758 168.645 83.758 164.495 84.02 C 151.956 84.85 142.345 86.728 131.423 90.529 C 130.986 90.704 130.593 90.835 130.2 90.966 C 124.04 82.578 117.181 74.714 109.623 67.506 C 81.619 40.987 60.78 42.516 60.78 42.516 C 48.46 52.084 52.654 84.326 59.032 111.587 C 63.226 129.63 68.382 145.489 70.304 151.212 C 70.173 151.518 69.998 151.867 69.823 152.173 C 59.644 172.794 54.139 192.672 52.829 213.816 C 64.231 212.156 95.643 210.278 119.191 235.617 C 119.191 235.617 134.743 194.55 176.684 194.55 C 218.624 194.55 227.58 235.617 227.58 235.617 C 255.366 212.681 285.292 213.423 295.777 214.515 C 295.733 213.642 295.646 212.331 295.558 211.02 Z  M 78.561 134.741 C 78.561 134.741 62.222 93.893 66.416 70.564 C 66.416 70.564 66.416 70.564 66.416 70.564 C 67.115 66.632 68.425 63.181 70.479 60.559 C 70.479 60.559 89.002 62.394 118.885 95.597 C 118.885 95.597 113.205 98.349 105.604 104.204 C 105.604 104.204 105.56 104.247 105.516 104.247 C 97.259 110.582 86.687 120.63 78.561 134.741 L 78.561 134.741 Z  M 147.893 195.424 C 147.631 195.948 146.321 196.516 144.835 196.734 C 143.35 196.953 138.806 196.822 136.229 196.516 C 126.967 195.293 117.137 192.453 109.972 188.958 C 105.953 186.992 103.07 185.026 100.929 182.885 L 99.706 181.618 L 99.575 179.958 C 99.356 177.075 99.4 172.531 99.749 170.915 C 99.968 169.561 100.448 168.25 101.104 167.07 C 101.453 166.634 101.453 166.634 103.026 166.634 C 104.948 166.634 106.565 166.939 109.186 167.769 C 114.56 169.43 122.554 173.449 132.297 179.303 C 140.335 184.109 143.35 186.468 145.665 189.701 C 147.238 191.71 148.287 194.55 147.893 195.424 Z  M 250.822 180.963 C 250.691 181.662 248.638 183.759 246.584 185.288 C 240.555 189.701 229.764 193.807 218.799 195.773 C 212.551 196.909 206.304 197.084 204.426 196.167 C 203.202 195.555 203.028 195.074 203.464 193.502 C 204.382 190.225 207.353 186.643 211.984 183.279 C 214.343 181.575 223.91 175.764 228.366 173.318 C 235.706 169.299 241.648 166.896 245.667 166.328 C 246.934 166.153 248.463 166.109 248.943 166.328 C 249.73 166.634 250.604 168.949 250.953 171.745 C 251.128 173.23 251.04 179.784 250.822 180.963 Z  M 243.57 104.204 L 243.482 104.16 C 236.143 98.306 230.638 95.553 230.638 95.553 C 259.516 62.351 277.384 60.516 277.384 60.516 C 279.35 63.181 280.617 66.588 281.316 70.52 C 281.316 70.52 281.316 70.52 281.316 70.52 C 285.379 93.85 269.608 134.741 269.608 134.741 C 263.011 122.989 254.142 112.592 243.57 104.204 L 243.57 104.204 Z " fill="rgb(255,164,9)"/><path d=" M 219.978 91.097 C 219.891 91.185 219.847 91.316 219.76 91.403" fill="none"/><path d=" M 277.428 149.508 C 277.21 150.12 277.122 150.425 277.122 150.425" fill="none"/><g><g><g><path d=" M 281.36 70.52 C 277.952 70.083 261.831 69.996 243.57 104.204 L 243.482 104.16 C 236.143 98.306 230.638 95.553 230.638 95.553 C 259.516 62.351 277.384 60.516 277.384 60.516 C 279.394 63.181 280.661 66.588 281.36 70.52 Z " fill="rgb(255,147,0)"/></g><path d=" M 269.652 134.741 C 263.011 122.946 254.186 112.592 243.57 104.204 C 261.831 69.996 277.909 70.083 281.36 70.52 C 281.36 70.52 281.36 70.52 281.36 70.52 C 285.423 93.893 269.652 134.741 269.652 134.741 Z " fill="rgb(255,131,0)"/><path d=" M 282.015 70.651 C 281.797 70.608 281.578 70.564 281.36 70.52 L 282.015 70.651 Z " fill="rgb(255,131,0)"/></g></g><path d=" M 131.511 92.801 C 131.074 92.189 130.593 91.578 130.156 90.966" fill="none"/><path d=" M 70.304 151.212 C 70.784 152.697 71.09 153.484 71.09 153.484" fill="none"/><g><g><g><path d=" M 118.885 95.553 C 118.885 95.553 113.205 98.306 105.604 104.16 C 105.604 104.16 105.56 104.204 105.516 104.204 C 86.599 69.952 69.954 70.083 66.372 70.52 C 67.071 66.588 68.382 63.137 70.435 60.516 C 70.479 60.516 89.002 62.351 118.885 95.553 Z " fill="rgb(255,147,0)"/></g><path d=" M 105.56 104.204 C 97.259 110.582 86.687 120.587 78.561 134.741 C 78.561 134.741 62.222 93.893 66.416 70.52 C 66.416 70.52 66.416 70.52 66.416 70.52 C 69.954 70.083 86.643 69.996 105.56 104.204 Z " fill="rgb(255,131,0)"/><path d=" M 66.416 70.52 C 66.197 70.564 65.935 70.608 65.717 70.651 L 66.416 70.52 Z " fill="rgb(255,131,0)"/></g></g><path d=" M 225.439 157.415 C 225.439 157.415 211.459 158.289 213.207 147.367 C 214.954 136.445 225.876 135.135 228.934 135.571 C 231.993 136.008 244.225 140.377 242.041 149.552 C 239.856 158.726 236.798 156.979 235.051 157.415 C 233.303 157.852 225.439 157.415 225.439 157.415 Z " fill="rgb(255,255,255)"/><path d=" M 122.336 157.415 C 122.336 157.415 108.356 158.289 110.103 147.367 C 111.851 136.445 122.773 135.135 125.831 135.571 C 128.889 136.008 141.122 140.377 138.937 149.552 C 136.753 158.726 133.695 156.979 131.947 157.415 C 130.2 157.852 122.336 157.415 122.336 157.415 Z " fill="rgb(255,255,255)"/></g></g></svg>