<?xml version="1.0" encoding="UTF-8" standalone="no"?><!-- Generator: Gravit.io --><svg xmlns="http://www.w3.org/2000/svg" xmlns:xlink="http://www.w3.org/1999/xlink" style="isolation:isolate" viewBox="0 0 350 350" width="350pt" height="350pt"><defs><clipPath id="_clipPath_Jh6orZb7CD4iVfqZ5eUVAWj7WXDvmtfH"><rect width="350" height="350"/></clipPath></defs><g clip-path="url(#_clipPath_Jh6orZb7CD4iVfqZ5eUVAWj7WXDvmtfH)"><rect width="350" height="350" style="fill:rgb(14,27,22)"/><clipPath id="_clipPath_nEhaXkc3EuF3yomxCGCga2qfMoXl0B4n"><path d="M 7.955 0 L 342.045 0 C 346.436 0 350 3.564 350 7.955 L 350 342.045 C 350 346.436 346.436 350 342.045 350 L 7.955 350 C 3.564 350 0 346.436 0 342.045 L 0 7.955 C 0 3.564 3.564 0 7.955 0 Z" style="stroke:none;fill:#FFFFFF;stroke-miterlimit:10;"/></clipPath><g clip-path="url(#_clipPath_nEhaXkc3EuF3yomxCGCga2qfMoXl0B4n)"><g><clipPath id="_clipPath_WgYqq4sAYYl4HDz95Ha0goZfLBsJszPX"><rect x="95.455" y="63.636" width="159.091" height="238.636" transform="matrix(1,0,0,1,0,0)" fill="rgb(255,255,255)"/></clipPath><g clip-path="url(#_clipPath_WgYqq4sAYYl4HDz95Ha0goZfLBsJszPX)"><g><path d=" M 254.545 149.943 L 254.545 116.827 L 121.946 63.636 L 95.455 77.089 L 95.594 180.161 L 194.799 220.106 L 141.815 242.665 L 141.815 225.22 L 117.491 215.345 L 95.594 225.694 L 95.594 288.82 L 121.97 302.273 L 254.545 242.459 L 254.545 200.029 L 135.227 152.271 L 135.227 123.295 L 229.895 161.119 L 254.545 149.943 Z " fill="rgb(255,255,255)"/></g></g></g></g></g></svg>