<?xml version="1.0" encoding="UTF-8" standalone="no"?><!-- Generator: Gravit.io --><svg xmlns="http://www.w3.org/2000/svg" xmlns:xlink="http://www.w3.org/1999/xlink" style="isolation:isolate" viewBox="0 0 350 350" width="350pt" height="350pt"><circle vector-effect="non-scaling-stroke" cx="175.00000000000003" cy="175.00000000000003" r="175" fill="rgb(81,174,149)"/><g><path d=" M 196.485 182.305 L 196.485 182.305 C 195.285 182.395 189.085 182.765 175.255 182.765 C 164.255 182.765 156.445 182.435 153.705 182.305 L 153.705 182.305 C 111.195 180.435 79.465 173.035 79.465 164.175 C 79.465 155.315 111.195 147.925 153.705 146.025 L 153.705 174.935 C 156.485 175.135 164.445 175.605 175.445 175.605 C 188.645 175.605 195.255 175.055 196.445 174.945 L 196.445 146.045 C 238.865 147.935 270.525 155.335 270.525 164.175 C 270.525 173.015 238.875 180.415 196.445 182.295 L 196.445 182.295 L 196.485 182.305 Z  M 196.485 143.055 L 196.485 117.185 L 255.685 117.185 L 255.685 77.735 L 94.505 77.735 L 94.505 117.185 L 153.695 117.185 L 153.695 143.045 C 105.585 145.255 69.405 154.785 69.405 166.205 C 69.405 177.625 105.585 187.145 153.695 189.365 L 153.695 272.265 L 196.475 272.265 L 196.475 189.335 C 244.475 187.125 280.595 177.605 280.595 166.195 C 280.595 154.785 244.505 145.265 196.475 143.045 L 196.475 143.045 L 196.485 143.055 Z  M 196.485 143.055" fill-rule="evenodd" fill="rgb(255,255,255)"/></g></svg>