<svg xmlns="http://www.w3.org/2000/svg" width="350pt" height="350pt" style="isolation:isolate" viewBox="0 0 350 350"><defs><clipPath id="a"><path d="M0 0h350v350H0z"/></clipPath></defs><g clip-path="url(#a)"><path d="M0 0h350v350H0z" style="fill:#0189cc"/><path fill="#FFF" fill-rule="evenodd" d="M92.866 55h164.541c6.288 0 11.528 1.048 17.817 4.192 7.336 3.144 11.528 8.384 13.624 12.577 0 0 0 1.048 1.048 1.048 3.144 5.24 5.24 11.528 5.24 18.864 0 6.288-1.048 12.577-5.24 18.865L186.141 288.712c-2.096 4.192-6.289 6.288-11.529 6.288-4.192 0-8.384-2.096-11.528-6.288L61.425 110.546c-2.097-4.192-6.289-9.432-6.289-17.817-1.048-7.336 1.048-13.624 4.192-19.912 3.145-6.289 8.385-11.529 15.721-13.625C81.337 55 88.673 55 92.866 55m69.17 25.153h-69.17c-4.193 0-6.289 0-7.337 1.048-2.096 1.048-3.144 2.096-4.192 4.192-1.048 1.048-1.048 3.144-1.048 5.24 0 1.048 1.048 2.096 3.144 6.288l78.603 136.245zm25.153 0v154.061l79.65-137.293c1.048-2.096 1.048-4.192 1.048-6.288s0-4.192-1.048-5.24-1.048-2.096-2.096-2.096l-1.048-1.048c-2.096-1.048-4.192-1.048-7.336-1.048h-69.17z"/></g></svg>