<?xml version="1.0" encoding="UTF-8" standalone="no"?><!-- Generator: Gravit.io --><svg xmlns="http://www.w3.org/2000/svg" xmlns:xlink="http://www.w3.org/1999/xlink" style="isolation:isolate" viewBox="0 0 350 350" width="350pt" height="350pt"><defs><clipPath id="_clipPath_O8IDedjf08v0sYdgR90D3Mw2ObjUSrrq"><rect width="350" height="350"/></clipPath></defs><g clip-path="url(#_clipPath_O8IDedjf08v0sYdgR90D3Mw2ObjUSrrq)"><linearGradient id="_lgradient_28" x1="0.1464466094067262" y1="0.14644660940672627" x2="0.8535533905932737" y2="0.8535533905932737"><stop offset="0%" style="stop-color:#79EAD3"/><stop offset="32.5%" style="stop-color:#69A4F8"/><stop offset="66.66666666666666%" style="stop-color:#BB56A7"/><stop offset="100%" style="stop-color:#EE9F49"/></linearGradient><rect width="350" height="350" style="fill:url(#_lgradient_28);"/><g><path d="M 175 25 L 175 25 C 257.787 25 325 92.213 325 175 L 325 175 C 325 257.787 257.787 325 175 325 L 175 325 C 92.213 325 25 257.787 25 175 L 25 175 C 25 92.213 92.213 25 175 25 Z" style="stroke:none;fill:#FFFFFF;stroke-miterlimit:10;"/><path d=" M 221.023 77.547 C 221.023 92.329 200.419 104.313 175.002 104.313 C 149.585 104.313 128.981 92.329 128.981 77.547 C 128.981 62.764 149.585 50.781 175.002 50.781 C 200.419 50.781 221.023 62.764 221.023 77.547 Z  M 221.023 279.223 C 221.023 294.005 200.419 305.988 175.002 305.988 C 149.585 305.988 128.981 294.005 128.981 279.223 C 128.981 264.44 149.585 252.457 175.002 252.457 C 200.419 252.457 221.023 264.44 221.023 279.223 Z  M 110.867 141.363 C 123.575 119.352 123.493 95.513 110.683 88.118 C 97.873 80.721 77.186 92.569 64.477 114.58 C 51.769 136.591 51.852 160.429 64.662 167.826 C 77.472 175.222 98.159 163.374 110.867 141.363 Z  M 285.338 188.952 C 298.139 196.343 298.215 220.178 285.507 242.189 C 272.798 264.2 252.119 276.051 239.317 268.66 C 226.516 261.269 226.44 237.434 239.148 215.423 C 251.857 193.412 272.536 181.56 285.338 188.952 Z  M 110.691 268.653 C 123.502 261.257 123.584 237.418 110.876 215.407 C 98.167 193.396 77.48 181.548 64.67 188.945 C 51.86 196.341 51.778 220.18 64.486 242.191 C 77.194 264.202 97.881 276.05 110.691 268.653 Z  M 285.517 114.594 C 298.226 136.605 298.151 160.44 285.349 167.831 C 272.548 175.223 251.868 163.371 239.159 141.36 C 226.451 119.349 226.526 95.514 239.328 88.122 C 252.129 80.732 272.809 92.583 285.517 114.594 Z " fill-rule="evenodd" fill="rgb(230,0,122)"/><g><linearGradient id="_lgradient_29" x1="0.5" y1="0.045454545454545414" x2="0.49999999999999983" y2="0.9545454545454546" gradientTransform="matrix(100,0,0,100,125,125)" gradientUnits="userSpaceOnUse"><stop offset="0%" stop-opacity="1" style="stop-color:rgb(122,237,207)"/><stop offset="20.133300000000002%" stop-opacity="1" style="stop-color:rgb(104,206,250)"/><stop offset="40.3244%" stop-opacity="1" style="stop-color:rgb(104,156,248)"/><stop offset="60.20759999999999%" stop-opacity="1" style="stop-color:rgb(172,87,192)"/><stop offset="80.1867%" stop-opacity="1" style="stop-color:rgb(230,86,89)"/><stop offset="100%" stop-opacity="1" style="stop-color:rgb(242,194,65)"/></linearGradient><path d=" M 175 225 C 202.614 225 225 202.614 225 175 C 225 147.386 202.614 125 175 125 C 147.386 125 125 147.386 125 175 C 125 202.614 147.386 225 175 225 Z " fill="url(#_lgradient_29)" vector-effect="non-scaling-stroke" stroke-width="2" stroke="rgb(255,255,255)" stroke-linejoin="miter" stroke-linecap="butt" stroke-miterlimit="4"/><path d=" M 173.11 194.891 L 154.629 167.17 C 153.622 165.66 154.705 163.636 156.52 163.636 L 164.737 163.636 C 165.473 163.636 166.163 163.992 166.59 164.592 L 173.149 173.816 C 174.055 175.09 175.947 175.09 176.853 173.816 L 183.412 164.592 C 183.839 163.992 184.529 163.636 185.265 163.636 L 193.481 163.636 C 195.297 163.636 196.38 165.66 195.372 167.17 L 176.892 194.891 C 175.992 196.24 174.01 196.24 173.11 194.891 Z " fill="rgb(255,255,255)"/></g></g></g></svg>