<?xml version="1.0" encoding="UTF-8" standalone="no"?><!-- Generator: Gravit.io --><svg xmlns="http://www.w3.org/2000/svg" xmlns:xlink="http://www.w3.org/1999/xlink" style="isolation:isolate" viewBox="0 0 67 67" width="67pt" height="67pt"><defs><clipPath id="_clipPath_7kfPYXq9hrDG2MkRDaDQBQVNv5tYjrhQ"><rect width="67" height="67"/></clipPath></defs><g clip-path="url(#_clipPath_7kfPYXq9hrDG2MkRDaDQBQVNv5tYjrhQ)"><g><path d="M 33.5 1.5 L 33.5 1.5 C 51.161 1.5 65.5 15.839 65.5 33.5 L 65.5 33.5 C 65.5 51.161 51.161 65.5 33.5 65.5 L 33.5 65.5 C 15.839 65.5 1.5 51.161 1.5 33.5 L 1.5 33.5 C 1.5 15.839 15.839 1.5 33.5 1.5 Z" style="stroke:none;fill:#FFFFFF;stroke-miterlimit:10;"/><path d=" M 40.95 16.926 C 40.95 19.37 37.544 21.351 33.341 21.351 C 29.139 21.351 25.732 19.37 25.732 16.926 C 25.732 14.481 29.139 12.5 33.341 12.5 C 37.544 12.5 40.95 14.481 40.95 16.926 Z  M 40.95 50.271 C 40.95 52.715 37.544 54.696 33.341 54.696 C 29.139 54.696 25.732 52.715 25.732 50.271 C 25.732 47.827 29.139 45.845 33.341 45.845 C 37.544 45.845 40.95 47.827 40.95 50.271 Z  M 22.737 27.477 C 24.838 23.838 24.825 19.896 22.707 18.673 C 20.589 17.45 17.168 19.409 15.067 23.049 C 12.966 26.688 12.98 30.629 15.098 31.852 C 17.216 33.075 20.636 31.116 22.737 27.477 Z  M 51.584 35.345 C 53.701 36.567 53.713 40.508 51.612 44.147 C 49.511 47.787 46.092 49.746 43.975 48.524 C 41.859 47.302 41.846 43.361 43.947 39.722 C 46.048 36.083 49.468 34.123 51.584 35.345 Z  M 22.708 48.523 C 24.826 47.3 24.84 43.359 22.739 39.719 C 20.637 36.08 17.217 34.121 15.099 35.344 C 12.981 36.567 12.967 40.509 15.068 44.148 C 17.17 47.787 20.59 49.746 22.708 48.523 Z  M 51.614 23.051 C 53.715 26.69 53.703 30.631 51.586 31.853 C 49.47 33.075 46.05 31.116 43.949 27.476 C 41.848 23.837 41.86 19.896 43.977 18.674 C 46.094 17.452 49.513 19.412 51.614 23.051 Z " fill-rule="evenodd" fill="rgb(230,0,122)"/><linearGradient id="_lgradient_4" x1="0.5000015625" y1="0" x2="0.5000015624999998" y2="1" gradientTransform="matrix(64,0,0,64,1.5,1.5)" gradientUnits="userSpaceOnUse"><stop offset="0%" stop-opacity="1" style="stop-color:rgb(122,237,207)"/><stop offset="20.133300000000002%" stop-opacity="1" style="stop-color:rgb(104,206,250)"/><stop offset="40.3244%" stop-opacity="1" style="stop-color:rgb(104,156,248)"/><stop offset="60.20759999999999%" stop-opacity="1" style="stop-color:rgb(172,87,192)"/><stop offset="80.1867%" stop-opacity="1" style="stop-color:rgb(230,86,89)"/><stop offset="100%" stop-opacity="1" style="stop-color:rgb(242,194,65)"/></linearGradient><path d=" M 43.256 59.753 C 40.218 60.883 36.931 61.5 33.5 61.5 C 18.036 61.5 5.5 48.964 5.5 33.5 C 5.5 18.036 18.036 5.5 33.5 5.5 C 48.964 5.5 61.5 18.036 61.5 33.5 C 61.5 36.931 60.883 40.218 59.753 43.256 C 60.974 44.003 62.051 44.961 62.932 46.081 C 64.585 42.219 65.5 37.966 65.5 33.5 C 65.5 15.827 51.173 1.5 33.5 1.5 C 15.827 1.5 1.5 15.827 1.5 33.5 C 1.5 51.173 15.827 65.5 33.5 65.5 C 37.966 65.5 42.219 64.585 46.081 62.932 C 44.961 62.051 44.003 60.974 43.256 59.753 Z " fill-rule="evenodd" fill="url(#_lgradient_4)"/><g><linearGradient id="_lgradient_5" x1="0.5" y1="0.045454545454545414" x2="0.49999999999999983" y2="0.9545454545454546" gradientTransform="matrix(22,0,0,22,42.5,42.5)" gradientUnits="userSpaceOnUse"><stop offset="0%" stop-opacity="1" style="stop-color:rgb(122,237,207)"/><stop offset="20.133300000000002%" stop-opacity="1" style="stop-color:rgb(104,206,250)"/><stop offset="40.3244%" stop-opacity="1" style="stop-color:rgb(104,156,248)"/><stop offset="60.20759999999999%" stop-opacity="1" style="stop-color:rgb(172,87,192)"/><stop offset="80.1867%" stop-opacity="1" style="stop-color:rgb(230,86,89)"/><stop offset="100%" stop-opacity="1" style="stop-color:rgb(242,194,65)"/></linearGradient><path d=" M 53.5 64.5 C 59.575 64.5 64.5 59.575 64.5 53.5 C 64.5 47.425 59.575 42.5 53.5 42.5 C 47.425 42.5 42.5 47.425 42.5 53.5 C 42.5 59.575 47.425 64.5 53.5 64.5 Z " fill="url(#_lgradient_5)" vector-effect="non-scaling-stroke" stroke-width="2" stroke="rgb(255,255,255)" stroke-linejoin="miter" stroke-linecap="butt" stroke-miterlimit="4"/><path d=" M 53.084 57.876 L 49.018 51.777 C 48.797 51.445 49.035 51 49.434 51 L 51.242 51 C 51.404 51 51.556 51.078 51.65 51.21 L 53.093 53.24 C 53.292 53.52 53.708 53.52 53.908 53.24 L 55.351 51.21 C 55.445 51.078 55.596 51 55.758 51 L 57.566 51 C 57.965 51 58.204 51.445 57.982 51.777 L 53.916 57.876 C 53.718 58.173 53.282 58.173 53.084 57.876 Z " fill="rgb(255,255,255)"/></g></g></g></svg>