<?xml version="1.0" encoding="UTF-8" standalone="no"?><!-- Generator: Gravit.io --><svg xmlns="http://www.w3.org/2000/svg" xmlns:xlink="http://www.w3.org/1999/xlink" style="isolation:isolate" viewBox="0 0 350 350" width="350pt" height="350pt"><defs><clipPath id="_clipPath_lOFT2ixc8CYDsFZczlDzNOzjh1B2Ea6F"><rect width="350" height="350"/></clipPath></defs><g clip-path="url(#_clipPath_lOFT2ixc8CYDsFZczlDzNOzjh1B2Ea6F)"><linearGradient id="_lgradient_21" x1="0.14644660940672616" y1="0.14644660940672632" x2="0.8535533905932738" y2="0.8535533905932737"><stop offset="1.6666666666666667%" style="stop-color:#6DD6EF"/><stop offset="24.166666666666668%" style="stop-color:#70DFE3"/><stop offset="50%" style="stop-color:#69AEF9"/><stop offset="67.5%" style="stop-color:#A163CA"/><stop offset="85%" style="stop-color:#F1B145"/><stop offset="100%" style="stop-color:#C45695"/></linearGradient><rect width="350" height="350" style="fill:url(#_lgradient_21);"/><g><defs><linearGradient id="_lgradient_22" x1="0" y1="0.5" x2="1" y2="0.5"><stop offset="0.4166666666666667%" style="stop-color:#70DEE4"/><stop offset="20%" style="stop-color:#6ED9EA"/><stop offset="38.75%" style="stop-color:#68AEF9"/><stop offset="62.5%" style="stop-color:#B557B0"/><stop offset="80%" style="stop-color:#EEA149"/><stop offset="99.58333333333333%" style="stop-color:#F0AF45"/></linearGradient><linearGradient id="_lgradient_23" x1="0" y1="0.5" x2="1" y2="0.5"><stop offset="0.4166666666666667%" style="stop-color:#70DEE4"/><stop offset="20%" style="stop-color:#6ED9EA"/><stop offset="38.75%" style="stop-color:#68AEF9"/><stop offset="62.5%" style="stop-color:#B557B0"/><stop offset="80%" style="stop-color:#EEA149"/><stop offset="99.58333333333333%" style="stop-color:#F0AF45"/></linearGradient></defs><path d="M 175 25 L 175 25 C 257.787 25 325 92.213 325 175 L 325 175 C 325 257.787 257.787 325 175 325 L 175 325 C 92.213 325 25 257.787 25 175 L 25 175 C 25 92.213 92.213 25 175 25 Z" style="stroke:none;fill:#FFFFFF;stroke-miterlimit:10;"/><path d="M 175 25 L 175 25 C 257.787 25 325 92.213 325 175 L 325 175 C 325 257.787 257.787 325 175 325 L 175 325 C 92.213 325 25 257.787 25 175 L 25 175 C 25 92.213 92.213 25 175 25 Z" style="fill:none;stroke:#000000;stroke-width:30;stroke-miterlimit:2;"/><path d=" M 209.924 97.307 C 209.924 108.764 193.955 118.051 174.256 118.051 C 154.557 118.051 138.588 108.764 138.588 97.307 C 138.588 85.85 154.557 76.563 174.256 76.563 C 193.955 76.563 209.924 85.85 209.924 97.307 Z  M 209.924 253.613 C 209.924 265.069 193.955 274.357 174.256 274.357 C 154.557 274.357 138.588 265.069 138.588 253.613 C 138.588 242.155 154.557 232.868 174.256 232.868 C 193.955 232.868 209.924 242.155 209.924 253.613 Z  M 124.549 146.767 C 134.398 129.708 134.335 111.231 124.406 105.499 C 114.478 99.767 98.445 108.949 88.595 126.009 C 78.746 143.068 78.81 161.544 88.738 167.276 C 98.666 173.008 114.7 163.826 124.549 146.767 Z  M 259.77 183.649 C 269.691 189.377 269.75 207.85 259.9 224.91 C 250.051 241.969 234.024 251.155 224.102 245.426 C 214.18 239.698 214.122 221.225 223.971 204.166 C 233.821 187.106 249.848 177.921 259.77 183.649 Z  M 124.413 245.421 C 134.341 239.688 134.405 221.212 124.555 204.153 C 114.706 187.094 98.673 177.911 88.745 183.644 C 78.816 189.376 78.753 207.852 88.602 224.912 C 98.451 241.971 114.484 251.153 124.413 245.421 Z  M 259.909 126.019 C 269.759 143.079 269.7 161.552 259.779 167.28 C 249.857 173.009 233.83 163.823 223.98 146.764 C 214.13 129.705 214.189 111.232 224.11 105.503 C 234.032 99.775 250.06 108.96 259.909 126.019 Z " fill-rule="evenodd" fill="rgb(230,0,122)"/><g><linearGradient id="_lgradient_24" x1="0.5" y1="0.045454545454545414" x2="0.49999999999999983" y2="0.9545454545454546" gradientTransform="matrix(90,0,0,90,130,130)" gradientUnits="userSpaceOnUse"><stop offset="0%" stop-opacity="1" style="stop-color:rgb(122,237,207)"/><stop offset="20.133300000000002%" stop-opacity="1" style="stop-color:rgb(104,206,250)"/><stop offset="40.3244%" stop-opacity="1" style="stop-color:rgb(104,156,248)"/><stop offset="60.20759999999999%" stop-opacity="1" style="stop-color:rgb(172,87,192)"/><stop offset="80.1867%" stop-opacity="1" style="stop-color:rgb(230,86,89)"/><stop offset="100%" stop-opacity="1" style="stop-color:rgb(242,194,65)"/></linearGradient><path d=" M 175 220 C 199.853 220 220 199.853 220 175 C 220 150.147 199.853 130 175 130 C 150.147 130 130 150.147 130 175 C 130 199.853 150.147 220 175 220 Z " fill="url(#_lgradient_24)" vector-effect="non-scaling-stroke" stroke-width="2" stroke="rgb(255,255,255)" stroke-linejoin="miter" stroke-linecap="butt" stroke-miterlimit="4"/><path d=" M 173.299 192.902 L 156.666 167.953 C 155.76 166.594 156.734 164.773 158.368 164.773 L 165.764 164.773 C 166.425 164.773 167.047 165.093 167.431 165.633 L 173.334 173.934 C 174.149 175.081 175.852 175.081 176.668 173.934 L 182.571 165.633 C 182.955 165.093 183.576 164.773 184.238 164.773 L 191.633 164.773 C 193.267 164.773 194.242 166.594 193.335 167.953 L 176.703 192.902 C 175.893 194.116 174.109 194.116 173.299 192.902 Z " fill="rgb(255,255,255)"/></g></g></g></svg>