<svg xmlns="http://www.w3.org/2000/svg" width="350pt" height="350pt" style="isolation:isolate" viewBox="0 0 350 350"><defs><clipPath id="a"><path d="M0 0h350v350H0z"/></clipPath></defs><g clip-path="url(#a)"><path d="M0 0h350v350H0z" style="fill:#fefeff"/><clipPath id="b"><path fill="#FFF" d="M35 35h280v280H35z"/></clipPath><g clip-path="url(#b)"><path d="M113.498 312.696c70.379 0 70.379-1.048 82.312-4.591 15.595-4.629-44.03-45.901-82.312-45.901s-69.315 11.302-69.315 25.245 31.035 25.247 69.315 25.247"/><path d="m273.302 98.018 3.238 3.489-2.831 3.826c-91.786 124.103-144.661 180.293-167.095 172.756-13.665-4.59-27.369-18.396-41.073-38.442-4.817-7.046-9.34-14.465-13.454-21.849-2.74-4.917-5.059-9.401-6.262-11.927-1.536-3.222-2.185-5.207-2.699-7.814l-.061-.313c-.215-1.107-.289-1.457-.45-2.061a125.3 125.3 0 0 1-4.174-32.161c0-69.08 56.001-125.081 125.081-125.081 21.643 0 42.498 5.508 60.982 15.847l.477.299c15.133 10.536 31.229 25.012 48.321 43.431m-54.645-33.852c-16.722-9.299-35.563-14.25-55.135-14.25-62.742 0-113.606 50.864-113.606 113.606a113.8 113.8 0 0 0 3.791 29.217c.248.936.36 1.463.623 2.819l.054.278c.332 1.682.683 2.754 1.799 5.097 1.099 2.304 3.306 6.573 5.928 11.279 3.954 7.097 8.299 14.224 12.903 20.959 12.382 18.112 24.661 30.482 35.254 34.04 14.128 4.746 67.315-51.556 151.369-164.858-15.26-16.108-29.596-28.837-42.98-38.187"/><path fill="#EC1C79" d="M218.654 64.175c-16.721-9.299-35.562-14.25-55.134-14.25-62.743 0-113.606 50.864-113.606 113.607 0 9.97 1.283 19.765 3.79 29.217.249.934.361 1.463.624 2.818l.054.278c.332 1.682.682 2.754 1.799 5.097 1.098 2.304 3.305 6.573 5.928 11.279 3.954 7.097 8.299 14.224 12.903 20.96 12.381 18.111 24.661 30.481 35.253 34.039 14.129 4.746 67.316-51.556 151.369-164.858-15.26-16.108-29.596-28.837-42.98-38.187"/><path d="M186.48 311.55c-69.081 0-125.082-56.001-125.082-125.082S117.399 61.387 186.48 61.387s125.082 56.001 125.082 125.081S255.561 311.55 186.48 311.55m0-11.475c62.743 0 113.606-50.863 113.606-113.607S249.223 72.862 186.48 72.862 72.874 123.725 72.874 186.468c0 62.744 50.863 113.607 113.606 113.607"/><path fill="#FFF" d="M186.478 300.084c62.743 0 113.606-50.863 113.606-113.606 0-62.744-50.863-113.607-113.606-113.607-62.744 0-113.607 50.863-113.607 113.607s50.863 113.606 113.607 113.606"/><path fill-rule="evenodd" d="m101.489 209.747-15.037-45.305h13.174l7.84 26.026 8.675-26.155h10.732l8.675 26.155 7.84-26.026h12.917l-15.037 45.305h-10.861l-9.061-25.898-8.996 25.898zm59.764-.322v-44.983h36.18v10.604h-23.841v6.811h21.591v9.832h-21.591v7.133h24.163v10.603zm53.852 0v-34.059h-13.496v-10.924h39.458v10.924h-13.495v34.059zm31.424 0v-44.983h12.467v16.836h16.001v-16.836h12.467v44.983h-12.467v-17.093h-16.001v17.093z"/><path d="M45.891 150.922a6.427 6.427 0 0 1 5.748-11.495l18.36 9.18a6.424 6.424 0 0 1 2.874 8.621 6.426 6.426 0 0 1-8.621 2.875zM43.782 181.361a6.426 6.426 0 0 1 5.386-11.669l18.36 8.473a6.425 6.425 0 0 1 3.142 8.527 6.424 6.424 0 0 1-8.527 3.142z"/></g></g></svg>