<svg xmlns="http://www.w3.org/2000/svg" width="350pt" height="350pt" style="isolation:isolate" viewBox="0 0 350 350"><defs><clipPath id="a"><path d="M0 0h350v350H0z"/></clipPath></defs><g clip-path="url(#a)"><path d="M0 0h350v350H0z" style="fill:#fefeff"/><radialGradient id="b" cx=".5" cy=".5" r="1" fx=".5" fy="1" gradientTransform="matrix(214.286 0 0 165.171 67.857 159.829)" gradientUnits="userSpaceOnUse"><stop offset="20.369%" style="stop-color:#56f2ff"/><stop offset="100%" style="stop-color:#4a8cea"/></radialGradient><path fill="url(#b)" d="m174.988 210.03-87.882-50.199-2.4 3.681c-27.068 41.522-21.023 95.902 14.534 130.74 41.841 40.997 109.679 40.997 151.52 0 35.557-34.838 41.602-89.218 14.534-130.74l-2.401-3.683z"/><g opacity=".6"><radialGradient id="c" cx=".5" cy=".5" r="1" fx=".5" fy=".5" gradientTransform="matrix(151.457 0 0 86.58 99.345 97.898)" gradientUnits="userSpaceOnUse"><stop offset="0%" style="stop-color:#eeff83"/><stop offset="68.96%" style="stop-color:#5699ec"/></radialGradient><path fill="url(#c)" d="m175.101 97.898-75.756 43.317 75.756 43.263 75.701-43.263z"/></g><radialGradient id="d" cx=".5" cy=".5" r="1" fx=".5" fy=".5" gradientTransform="matrix(175.746 0 0 100.874 87.172 109.198)" gradientUnits="userSpaceOnUse"><stop offset="0%" style="stop-color:#56f2ff"/><stop offset="100%" style="stop-color:#5699ec"/></radialGradient><path fill="url(#d)" d="m175.201 109.198-88.029 50.651 87.832 50.223 87.914-50.239z"/><linearGradient id="e" x1=".5" x2=".5" y1="0" y2="1" gradientTransform="matrix(75.756 0 0 159.421 99.345 25.057)" gradientUnits="userSpaceOnUse"><stop offset="37.718%" style="stop-color:#ffe336"/><stop offset="100%" stop-opacity=".7" style="stop-color:#13c0b6"/></linearGradient><path fill="url(#e)" d="M175.101 25.057 99.345 141.215l75.756 43.263z"/><linearGradient id="f" x1=".5" x2=".5" y1="0" y2="1" gradientTransform="matrix(75.763 0 0 159.486 175.096 25)" gradientUnits="userSpaceOnUse"><stop offset="40.882%" style="stop-color:#ff7f72"/><stop offset="100%" stop-opacity=".7" style="stop-color:#2978ef"/></linearGradient><path fill="url(#f)" d="m175.096 184.486 75.763-43.27L175.1 25z"/></g></svg>