<?xml version="1.0" encoding="UTF-8" standalone="no"?><!-- Generator: Gravit.io --><svg xmlns="http://www.w3.org/2000/svg" xmlns:xlink="http://www.w3.org/1999/xlink" style="isolation:isolate" viewBox="0 0 684.314 684.145" width="684.314pt" height="684.145pt"><defs><clipPath id="_clipPath_GYlAmlOW8Ui2mODsp4YltgonCMnUAAKm"><rect width="684.314" height="684.145"/></clipPath></defs><g clip-path="url(#_clipPath_GYlAmlOW8Ui2mODsp4YltgonCMnUAAKm)"><rect width="684.314" height="684.145" style="fill:rgb(1,1,0)" fill-opacity="0"/><g><path d=" M 0 342.073 C 0 530.994 153.189 684.145 342.157 684.145 C 531.125 684.145 684.314 530.994 684.314 342.073 C 684.314 153.151 531.125 0 342.157 0 C 153.189 0 0 153.151 0 342.073 Z " fill="rgb(230,0,122)"/><path d=" M 342.108 482.44 C 366.403 482.786 388.409 487.329 408.127 500.124 C 435.879 518.131 437.134 545.793 409.962 564.656 C 381.113 584.684 348.438 586.79 314.798 580.964 C 298.594 578.159 283.626 572.381 270.794 561.778 C 250.239 544.792 249.833 521.745 270.636 504.67 C 291.628 487.442 316.853 482.749 342.108 482.44 Z " fill="rgb(254,254,254)"/><path d=" M 342.023 202.122 C 318.188 201.732 295.495 197.21 275.304 183.644 C 248.436 165.592 248.6 134.482 276.723 118.407 C 318.047 94.788 360.602 95.105 403.273 115.4 C 406.043 116.717 408.575 118.617 411.033 120.489 C 436.399 139.807 435.438 166.467 408.847 184.003 C 388.545 197.392 365.844 201.806 342.023 202.122 Z " fill="rgb(254,254,254)"/><path d=" M 569.623 403.282 C 565.333 447.803 546.279 484.055 507.983 508.528 C 494.378 517.223 478.879 522.192 463.246 512.243 C 447.848 502.443 445.215 486.328 446.274 470.347 C 449.082 428.033 468.627 394.49 502.808 369.434 C 510.179 364.032 518.575 360.922 527.334 359.009 C 545.575 355.025 561.367 365.363 567.215 384.645 C 569.038 390.659 569.304 396.828 569.623 403.282 Z " fill="rgb(254,254,254)"/><path d=" M 114.939 278.71 C 119.408 236.855 138.268 200.856 176.064 176.366 C 189.267 167.811 204.261 162.531 219.908 171.414 C 235.899 180.493 239.457 196.389 238.488 212.462 C 235.745 258.018 214.927 293.773 176.29 318.491 C 167.529 324.096 157.37 327.253 146.804 326.186 C 130.57 324.547 119.763 313.335 116.534 295.596 C 115.677 290.884 115.602 286.029 114.939 278.71 Z " fill="rgb(254,254,254)"/><path d=" M 115.498 403.226 C 115.398 396.306 115.734 390.486 117.434 384.808 C 123.906 363.184 140.617 353.672 162.152 360.386 C 191.8 369.629 209.829 391.951 223.813 418.006 C 234.741 438.365 240.873 460.038 237.735 483.52 C 233.979 511.622 213.196 524.234 187.088 513.407 C 155.092 500.139 136.657 474.035 123.888 443.299 C 118.463 430.243 114.528 416.649 115.498 403.226 Z " fill="rgb(254,254,254)"/><path d=" M 500.382 312.762 C 468.805 292.746 440.343 239.596 447.024 199.256 C 451.374 172.982 472.674 160.534 497.385 170.884 C 529.328 184.262 547.8 210.271 560.734 240.925 C 567.082 255.972 570.526 271.731 569.093 288.241 C 568.055 300.198 564.965 311.23 554.867 319.01 C 546.05 319.589 539.316 328.741 529.491 325.178 L 529.606 325.217 C 520.325 319.982 509.259 318.942 500.382 312.762 Z " fill="rgb(254,254,254)"/><path d=" M 500.382 312.762 C 510.122 316.915 521.916 316.25 529.606 325.217 C 518.268 324.81 508.73 320.182 500.382 312.762 Z " fill="rgb(241,241,241)"/><path d=" M 529.492 325.178 C 538.361 324.809 545.728 318.265 554.868 319.01 C 547.436 325.29 539.213 328.313 529.492 325.178 Z " fill="rgb(241,241,241)"/></g></g></svg>