<svg width="20" height="20" viewBox="0 0 20 20" fill="none" xmlns="http://www.w3.org/2000/svg">
<path fillRule="evenodd" clipRule="evenodd" d="M4 1H16C17.6569 1 19 2.34315 19 4V16C19 17.6569 17.6569 19 16 19H4C2.34315 19 1 17.6569 1 16V4C1 2.34315 2.34315 1 4 1ZM0 4C0 1.79086 1.79086 0 4 0H16C18.2091 0 20 1.79086 20 4V16C20 18.2091 18.2091 20 16 20H4C1.79086 20 0 18.2091 0 16V4ZM15.3796 7.3254C15.5593 7.11573 15.5351 6.80008 15.3254 6.62037C15.1157 6.44066 14.8001 6.46494 14.6204 6.6746L8.97176 13.2647L5.35355 9.64645C5.15829 9.45118 4.84171 9.45118 4.64645 9.64645C4.45118 9.84171 4.45118 10.1583 4.64645 10.3536L8.64645 14.3536C8.74493 14.452 8.88002 14.505 9.01919 14.4996C9.15836 14.4943 9.28899 14.4311 9.37963 14.3254L15.3796 7.3254Z" fill="#00FF29"/>
</svg>
