<svg width="20" height="20" viewBox="0 0 20 20" fill="none" xmlns="http://www.w3.org/2000/svg">
<path fill-rule="evenodd" clip-rule="evenodd" d="M4 1H16C17.6569 1 19 2.34315 19 4V16C19 17.6569 17.6569 19 16 19H4C2.34315 19 1 17.6569 1 16V4C1 2.34315 2.34315 1 4 1ZM0 4C0 1.79086 1.79086 0 4 0H16C18.2091 0 20 1.79086 20 4V16C20 18.2091 18.2091 20 16 20H4C1.79086 20 0 18.2091 0 16V4ZM5.64645 5.64645C5.84171 5.45118 6.15829 5.45118 6.35355 5.64645L10 9.29289L13.6464 5.64645C13.8417 5.45118 14.1583 5.45118 14.3536 5.64645C14.5488 5.84171 14.5488 6.15829 14.3536 6.35355L10.7071 10L14.3536 13.6464C14.5488 13.8417 14.5488 14.1583 14.3536 14.3536C14.1583 14.5488 13.8417 14.5488 13.6464 14.3536L10 10.7071L6.35355 14.3536C6.15829 14.5488 5.84171 14.5488 5.64645 14.3536C5.45118 14.1583 5.45118 13.8417 5.64645 13.6464L9.29289 10L5.64645 6.35355C5.45118 6.15829 5.45118 5.84171 5.64645 5.64645Z" fill="#FF35C3"/>
</svg>
