<svg id="Capa_1" enable-background="new 0 0 512 512" height="512" viewBox="0 0 512 512" width="512" xmlns="http://www.w3.org/2000/svg"><g><g><path d="m420.374 290.282c-46.663-35.855-104.12-55.782-164.374-55.782l-30 35v97.519l30 18.709h66.486l70.995 118.772h64.589c16.569 0 30-13.431 30-30v-160.919c-24.532 0-48.243-8.352-67.696-23.299z" fill="#ffb39d"/><path d="m235.803 318.26c0-18.289 7.265-35.828 20.197-48.76v-35c-60.197 0-117.675 19.896-164.384 55.79-19.448 14.945-43.158 23.291-67.685 23.291v160.919c0 16.569 13.431 30 30 30h64.589l70.995-118.771h66.485v-18.709c-12.932-12.933-20.197-30.472-20.197-48.76z" fill="#ff8f71"/></g><g fill="#ffdbe0"><path d="m171 311.98c-16.016 0-29 10.297-29 23s12.984 23 29 23 29-10.298 29-23-12.984-23-29-23z"/><path d="m341 311.98c-16.016 0-29 10.297-29 23s12.984 23 29 23 29-10.298 29-23-12.984-23-29-23z"/></g><g><path d="m405.45 491.564c-1.528-17.884-6.196-34.872-13.447-50.412-2.993-6.414-10.789-8.944-16.919-5.405l-.018.011c6.056-3.497 7.909-11.451 3.898-17.18-10.084-14.405-22.636-26.957-37.042-37.042-5.729-4.01-13.682-2.158-17.179 3.898l.01-.018c3.539-6.13 1.009-13.926-5.406-16.918-15.54-7.251-32.527-11.919-50.411-13.447-6.97-.596-12.936 4.973-12.936 11.969l-9 10.432 9 10.667c0 6.161 4.668 11.304 10.797 11.933 11.338 1.164 22.148 4.14 32.133 8.633 5.611 2.524 12.228.279 15.304-5.049l-.064.111c-3.097 5.365-1.558 12.144 3.452 15.788 8.949 6.508 16.835 14.395 23.344 23.344 3.644 5.01 10.423 6.549 15.788 3.452l.112-.064c-5.328 3.077-7.573 9.693-5.049 15.304 4.492 9.986 7.469 20.795 8.633 32.133.629 6.129 5.772 10.797 11.933 10.797h21.099c6.995-.001 12.563-5.967 11.968-12.937z" fill="#fad5cb"/><path d="m243.064 355.05c-17.884 1.528-34.872 6.196-50.411 13.447-6.414 2.993-8.945 10.789-5.406 16.918l.01.018c-3.497-6.056-11.45-7.908-17.179-3.898-14.406 10.085-26.957 22.637-37.042 37.042-4.011 5.729-2.158 13.683 3.898 17.18l-.018-.011c-6.13-3.539-13.926-1.009-16.919 5.405-7.252 15.54-11.919 32.528-13.447 50.412-.596 6.97 4.973 12.936 11.969 12.936h21.099c6.161 0 11.304-4.668 11.933-10.797 1.164-11.338 4.14-22.147 8.633-32.133 2.524-5.611.279-12.228-5.049-15.304l.112.064c5.365 3.098 12.144 1.558 15.788-3.452 6.509-8.949 14.394-16.835 23.344-23.344 5.01-3.644 6.549-10.423 3.452-15.788l-.064-.111c3.076 5.328 9.693 7.573 15.304 5.049 9.986-4.493 20.795-7.469 32.133-8.633 6.129-.629 10.797-5.772 10.797-11.933v-21.099c-.001-6.995-5.967-12.563-12.937-11.968z" fill="#ffb39d"/></g><g><path d="m475.274 277.391c-10.119-1.732-21.736-5.764-33.575-14.861-51.748-39.763-116.428-63.03-185.699-63.03l-63.13 33.06 63.13 36.94c52.261 0 101.726 16.783 143.049 48.535 22.921 17.613 45.941 25.182 64.683 28.369 21.326 3.626 40.768-12.875 40.768-34.507 0-17.099-12.373-31.622-29.226-34.506z" fill="#efedff"/><path d="m256 199.5c-67.354 0-132.421 22.087-185.711 63.038-11.834 9.094-23.428 13.153-33.512 14.901-16.866 2.926-29.277 17.388-29.277 34.505 0 21.625 19.431 38.11 40.752 34.497 18.71-3.17 41.703-10.735 64.689-28.399 41.327-31.756 90.795-48.542 143.059-48.542-9.283-9.283-14.498-21.873-14.498-35s5.215-25.717 14.498-35z" fill="#d4d4ff"/></g><g fill="#efedff"><circle cx="51.223" cy="209" r="22.5"/><circle cx="446" cy="106.921" r="22.5"/><circle cx="225.118" cy="30" r="22.5"/><circle cx="71" cy="95.335" r="15"/><circle cx="341.724" cy="72.835" r="15"/></g><g><path d="m476.539 269.998c-11.092-1.898-20.993-6.287-30.271-13.416-87.537-67.259-203.344-82.704-304.443-43.035-3.856 1.513-5.756 5.865-4.242 9.721 1.512 3.856 5.865 5.757 9.721 4.242 92.684-36.365 203.32-25.503 289.825 40.967 11.103 8.531 23.511 14.018 36.879 16.307 13.322 2.279 22.992 13.682 22.992 27.112 0 17.16-15.451 29.931-32.01 27.114-22.441-3.817-43.09-12.875-61.372-26.923-42.645-32.767-93.69-50.087-147.618-50.087-53.931 0-104.979 17.322-147.629 50.096-18.335 14.09-38.983 23.158-61.369 26.95-6.655 1.13-13.416-.23-19.084-3.79-8.089-5.077-12.918-13.792-12.918-23.312 0-13.394 9.698-24.798 23.059-27.115 13.31-2.308 25.691-7.807 36.8-16.344 14.331-11.013 29.735-20.757 45.783-28.963 3.688-1.886 5.149-6.404 3.264-10.092-1.886-3.689-6.406-5.148-10.092-3.264-16.86 8.621-33.041 18.857-48.095 30.425-9.292 7.141-19.178 11.543-30.224 13.458-20.567 3.568-35.495 21.188-35.495 41.895 0 13.271 6.08 25.51 16.431 33.536v129.02c0 20.678 16.822 37.5 37.5 37.5h85.688c10.03 0 18.368-7.537 19.394-17.531 1.061-10.328 3.756-20.362 8.012-29.822 1.555-3.456 2.02-7.136 1.523-10.649 3.312-1.343 6.299-3.608 8.553-6.708 15.297-21.034 24.125-19.71 28.397-30.242 3.516.498 7.193.032 10.649-1.523 23.611-10.622 30.93-5.077 39.854-12.025 8.956 6.973 16.122 1.349 39.854 12.025 3.456 1.555 7.134 2.02 10.649 1.523 4.167 10.28 13.616 9.918 28.397 30.242 2.254 3.1 5.24 5.365 8.553 6.708-.496 3.514-.031 7.193 1.523 10.649 4.256 9.46 6.951 19.494 8.012 29.822 1.025 9.994 9.363 17.531 19.394 17.531h85.688c20.678 0 37.5-16.822 37.5-37.5v-8.268c0-4.143-3.357-7.5-7.5-7.5s-7.5 3.357-7.5 7.5v8.268c0 12.406-10.094 22.5-22.5 22.5h-45.603c.467-1.974.63-4.023.455-6.074-1.573-18.419-6.325-36.234-14.123-52.944-2.102-4.505-5.843-8.046-10.402-9.902.686-4.836-.481-9.793-3.289-13.802-10.624-15.177-23.707-28.26-38.884-38.885-4.011-2.81-8.965-3.98-13.804-3.289-1.855-4.561-5.396-8.301-9.9-10.402-16.712-7.798-34.525-12.55-52.945-14.123-4.869-.424-9.735 1.05-13.574 4.05-3.839-3-8.718-4.462-13.573-4.05-18.421 1.573-36.234 6.325-52.945 14.123-4.505 2.102-8.046 5.842-9.901 10.402-4.838-.691-9.792.479-13.804 3.289-15.177 10.625-28.259 23.707-38.884 38.884-2.808 4.011-3.975 8.968-3.289 13.803-4.56 1.856-8.301 5.397-10.401 9.901-7.799 16.712-12.551 34.525-14.124 52.945-.175 2.051-.012 4.101.455 6.074h-45.605c-12.406 0-22.5-10.094-22.5-22.5v-121.532c5.95 1.607 11.99 1.898 18.074.868 24.828-4.206 47.709-14.248 68.006-29.847 40.005-30.741 87.893-46.989 138.489-46.989 50.593 0 98.479 16.246 138.479 46.982 20.241 15.554 43.118 25.585 67.994 29.815 6.074 1.034 12.247.706 18.097-.87v83.304c0 4.143 3.357 7.5 7.5 7.5s7.5-3.357 7.5-7.5v-90.793c10.351-8.03 16.43-20.272 16.43-33.543 0-20.759-14.914-38.379-35.461-41.897zm-97.723 172.255c.003-.002.006-.004.01-.006l.008-.004c2.31-1.336 5.236-.354 6.371 2.082 7.052 15.11 11.349 31.219 12.771 47.879.219 2.571-1.872 4.797-4.496 4.797h-21.099c-2.312 0-4.234-1.746-4.472-4.062-1.225-11.93-4.338-23.519-9.254-34.445-.921-2.046-.062-4.561 1.954-5.728l18.198-10.507c.003-.003.006-.004.009-.006zm-58.156-34.749c.059-.102 10.338-17.91 10.588-18.338 1.133-2.105 4.164-3.032 6.372-1.486 13.739 9.619 25.582 21.462 35.199 35.201 1.485 2.12.745 5.083-1.505 6.382-.001.001-.003.002-.005.003-.001.001-.002.001-.002.002l-.009.005c-.001 0-.002.001-.003.001-.001.001-.003.001-.004.002l-.01.005c-.002.001-.003.003-.007.004-.002.003-.007.005-.01.006-.005.004-.005.007-.01.006-.001 0-.001.001-.002.002l-18.134 10.469c-.001 0-.002.001-.003.001s-.002.001-.004.002l-.108.062c-1.999 1.152-4.566.563-5.973-1.368-6.984-9.604-15.395-18.014-24.998-24.998-1.932-1.405-2.52-3.973-1.372-5.963zm-57.16-40.484c0-2.569 2.167-4.718 4.798-4.496 16.659 1.423 32.768 5.72 47.879 12.771 2.397 1.118 3.412 4 2.109 6.321-.01.016-.012.02-.043.075l-10.503 18.193-.002.004c-1.167 2.017-3.681 2.878-5.729 1.955-10.927-4.916-22.516-8.029-34.445-9.254-2.316-.237-4.062-2.16-4.062-4.472v-21.097zm-67.676 8.274c15.11-7.051 31.219-11.348 47.879-12.771 2.563-.222 4.797 1.866 4.797 4.496v21.099c0 2.312-1.746 4.234-4.062 4.472-11.93 1.225-23.519 4.338-34.445 9.254-1.503.677-3.254.386-4.543-.61l-11.736-19.618c-1.292-2.303-.309-5.193 2.11-6.322zm-56.644 47.586c9.618-13.739 21.461-25.582 35.2-35.2 1.945-1.363 4.922-.971 6.432 1.586h-.001l10.524 18.229c1.153 1.998.565 4.566-1.368 5.973-9.604 6.984-18.014 15.395-24.998 24.998-1.408 1.934-3.977 2.519-5.965 1.373l-18.319-10.577c-2.254-1.301-2.986-4.267-1.505-6.382zm-12.385 21.443c1.126-2.416 4.043-3.423 6.389-2.071 9.133 5.273 12.92 7.459 14.339 8.279-.003-.002-.002-.001.001 0 .008.004.015.008.022.013.009.005.02.012.034.02.032.019.064.038.094.054.007.004.016.009.023.014.027.016.053.031.079.045-.008-.005-.016-.009-.023-.014.017.01.036.021.054.032-.002-.001-.005-.003-.007-.004.006.003.014.008.02.012.07.041.154.089.254.146-.066-.038-.14-.081-.213-.123.117.068.207.119.272.157.03.017.058.034.091.052.012.007.023.014.031.018.575.332 1.547.894 3.13 1.807l.012.007c2.011 1.17 2.866 3.681 1.946 5.725-4.916 10.927-8.029 22.516-9.254 34.445-.237 2.316-2.16 4.062-4.472 4.062h-21.097c-2.622 0-4.715-2.223-4.496-4.797 1.422-16.659 5.719-32.767 12.771-47.879zm21.471 6.637c.017.01.017.01 0 0z"/><path d="m51.223 239c16.542 0 30-13.458 30-30s-13.458-30-30-30-30 13.458-30 30 13.458 30 30 30zm0-45c8.271 0 15 6.729 15 15s-6.729 15-15 15-15-6.729-15-15 6.728-15 15-15z"/><path d="m446 136.92c16.542 0 30-13.458 30-30s-13.458-30-30-30-30 13.458-30 30 13.458 30 30 30zm0-45c8.271 0 15 6.729 15 15s-6.729 15-15 15-15-6.729-15-15 6.729-15 15-15z"/><path d="m225.118 60c16.542 0 30-13.458 30-30s-13.458-30-30-30-30 13.458-30 30 13.458 30 30 30zm0-45c8.271 0 15 6.729 15 15s-6.729 15-15 15-15-6.729-15-15 6.729-15 15-15z"/><path d="m71 117.836c12.406 0 22.5-10.094 22.5-22.5s-10.094-22.5-22.5-22.5-22.5 10.094-22.5 22.5 10.094 22.5 22.5 22.5zm0-30c4.136 0 7.5 3.364 7.5 7.5s-3.364 7.5-7.5 7.5-7.5-3.364-7.5-7.5 3.364-7.5 7.5-7.5z"/><path d="m341.724 95.336c12.407 0 22.501-10.094 22.501-22.5s-10.094-22.5-22.501-22.5c-12.406 0-22.5 10.094-22.5 22.5s10.093 22.5 22.5 22.5zm0-30c4.136 0 7.501 3.364 7.501 7.5s-3.365 7.5-7.501 7.5-7.5-3.364-7.5-7.5 3.364-7.5 7.5-7.5z"/><circle cx="274.5" cy="156.584" r="7.5"/><circle cx="274.5" cy="226.584" r="7.5"/><circle cx="184.5" cy="253.584" r="7.5"/><circle cx="104.5" cy="273.584" r="7.5"/><circle cx="42.5" cy="311.584" r="7.5"/><circle cx="342.5" cy="241.584" r="7.5"/><circle cx="412.5" cy="291.584" r="7.5"/><circle cx="462.5" cy="311.584" r="7.5"/><circle cx="478.5" cy="37.5" r="7.5"/><circle cx="441.614" cy="206.802" r="7.5"/><circle cx="33.5" cy="27.5" r="7.5"/><circle cx="171.723" cy="98.5" r="7.5"/><path d="m186.407 307.356v12c0 4.143 3.357 7.5 7.5 7.5s7.5-3.357 7.5-7.5v-12c0-4.143-3.357-7.5-7.5-7.5s-7.5 3.358-7.5 7.5z"/><path d="m311.407 307.356v12c0 4.143 3.357 7.5 7.5 7.5s7.5-3.357 7.5-7.5v-12c0-4.143-3.357-7.5-7.5-7.5s-7.5 3.358-7.5 7.5z"/><path d="m266.217 312.054c-5.727 6.571-15.899 6.563-21.62-.001-2.723-3.124-7.46-3.447-10.582-.727-3.123 2.722-3.447 7.46-.727 10.582 11.733 13.46 32.569 13.392 44.237-.001 2.722-3.122 2.396-7.86-.728-10.581-3.122-2.722-7.859-2.396-10.58.728z"/></g></g></svg>