<?xml version="1.0" encoding="UTF-8"?>
<svg version="1.1" xmlns="http://www.w3.org/2000/svg" width="600" height="600">
<path d="M0 0 C1.53882446 -0.00390332 3.07764529 -0.00955195 4.61645776 -0.0167709 C8.80091693 -0.03139521 12.98499478 -0.02142291 17.1694411 -0.00703418 C21.6991196 0.00414636 26.22874767 -0.00789013 30.75842285 -0.01687622 C39.61379461 -0.03076176 48.46902313 -0.02328775 57.32438799 -0.00820064 C67.64745522 0.0087136 77.97048731 0.00544248 88.29356412 0.00170528 C106.71651564 -0.00416449 125.13939868 0.00996474 143.56233215 0.03465271 C161.42075669 0.05858134 179.27908977 0.06565175 197.13752747 0.05516052 C216.6100682 0.04374148 236.08256671 0.04183264 255.55510694 0.05625862 C257.63281047 0.05778438 259.71051401 0.05930474 261.78821754 0.06081963 C262.8103532 0.06157744 263.83248886 0.06233525 264.88559833 0.06311603 C272.07414133 0.06785041 279.26266541 0.06601351 286.45120811 0.06175423 C295.2142464 0.05681878 303.97719837 0.0628514 312.74021693 0.08264852 C317.20756204 0.09249376 321.67477596 0.09765558 326.14212799 0.08975601 C330.23724283 0.08266298 334.33209378 0.08958781 338.42717401 0.10735964 C339.90269826 0.11138069 341.37824686 0.110444 342.85376181 0.10384078 C354.84818102 0.0547876 365.57645091 1.5965738 376.27937317 7.18870544 C376.95822571 7.53828308 377.63707825 7.88786072 378.33650208 8.24803162 C394.58102594 16.86887637 407.43176312 31.08802522 413.1864658 48.65110284 C415.8819984 57.98986678 416.72516724 66.59345412 416.65557861 76.34683228 C416.65948193 77.88565673 416.66513056 79.42447756 416.67234951 80.96329004 C416.68697383 85.14774921 416.67700152 89.33182706 416.6626128 93.51627338 C416.65143225 98.04595188 416.66346874 102.57557994 416.67245483 107.10525513 C416.68634037 115.96062689 416.67886636 124.81585541 416.66377925 133.67122027 C416.64686502 143.99428749 416.65013614 154.31731958 416.65387333 164.64039639 C416.6597431 183.06334792 416.64561387 201.48623095 416.6209259 219.90916443 C416.59699727 237.76758896 416.58992687 255.62592205 416.60041809 273.48435974 C416.61183713 292.95690048 416.61374597 312.42939898 416.59931999 331.90193921 C416.59779423 333.97964274 416.59627388 336.05734628 416.59475899 338.13504982 C416.59400117 339.15718548 416.59324336 340.17932114 416.59246258 341.2324306 C416.58772821 348.4209736 416.5895651 355.60949769 416.59382439 362.79804039 C416.59875984 371.56107867 416.59272722 380.32403065 416.57293009 389.08704921 C416.56308485 393.55439432 416.55792303 398.02160824 416.5658226 402.48896027 C416.57291564 406.58407511 416.56599081 410.67892606 416.54821897 414.77400628 C416.54419793 416.24953054 416.54513462 417.72507913 416.55173784 419.20059409 C416.60079102 431.1950133 415.05900482 441.92328319 409.46687317 452.62620544 C409.11729553 453.30505798 408.7677179 453.98391052 408.407547 454.68333435 C399.78670225 470.92785822 385.56755339 483.7785954 368.00447577 489.53329808 C358.66571184 492.22883068 350.06212449 493.07199952 340.30874634 493.00241089 C338.76992188 493.0063142 337.23110105 493.01196284 335.69228858 493.01918179 C331.50782941 493.0338061 327.32375156 493.0238338 323.13930523 493.00944507 C318.60962674 492.99826453 314.07999867 493.01030102 309.55032349 493.01928711 C300.69495173 493.03317264 291.8397232 493.02569864 282.98435835 493.01061153 C272.66129112 492.99369729 262.33825903 492.99696841 252.01518222 493.00070561 C233.5922307 493.00657538 215.16934766 492.99244615 196.74641418 492.96775818 C178.88798965 492.94382955 161.02965656 492.93675914 143.17121887 492.94725037 C123.69867814 492.95866941 104.22617963 492.96057825 84.7536394 492.94615227 C82.67593587 492.94462651 80.59823233 492.94310615 78.52052879 492.94159126 C77.49839313 492.94083345 76.47625748 492.94007563 75.42314801 492.93929486 C68.23460501 492.93456048 61.04608093 492.93639738 53.85753822 492.94065666 C45.09449994 492.94559211 36.33154797 492.93955949 27.5685294 492.91976237 C23.10118429 492.90991713 18.63397038 492.90475531 14.16661835 492.91265488 C10.07150351 492.91974791 5.97665256 492.91282308 1.88157233 492.89505125 C0.40604807 492.8910302 -1.06950052 492.89196689 -2.54501548 492.89857011 C-14.53943469 492.94762329 -25.26770457 491.40583709 -35.97062683 485.81370544 C-36.64947937 485.46412781 -37.32833191 485.11455017 -38.02775574 484.75437927 C-54.2722796 476.13353452 -67.12301678 461.91438566 -72.87771946 444.35130805 C-75.57325206 435.01254411 -76.41642091 426.40895677 -76.34683228 416.65557861 C-76.35073559 415.11675416 -76.35638423 413.57793333 -76.36360317 412.03912085 C-76.37822749 407.85466168 -76.36825518 403.67058383 -76.35386646 399.48613751 C-76.34268592 394.95645901 -76.3547224 390.42683095 -76.3637085 385.89715576 C-76.37759403 377.041784 -76.37012002 368.18655548 -76.35503291 359.33119062 C-76.33811868 349.00812339 -76.3413898 338.68509131 -76.34512699 328.36201449 C-76.35099676 309.93906297 -76.33686753 291.51617994 -76.31217957 273.09324646 C-76.28825094 255.23482192 -76.28118053 237.37648884 -76.29167175 219.51805115 C-76.3030908 200.04551041 -76.30499963 180.57301191 -76.29057366 161.10047168 C-76.28904789 159.02276814 -76.28752754 156.94506461 -76.28601265 154.86736107 C-76.28487593 153.33415758 -76.28487593 153.33415758 -76.28371624 151.76998029 C-76.27898187 144.58143729 -76.28081877 137.3929132 -76.28507805 130.2043705 C-76.2900135 121.44133222 -76.28398088 112.67838024 -76.26418375 103.91536168 C-76.25433851 99.44801657 -76.2491767 94.98080265 -76.25707626 90.51345062 C-76.2641693 86.41833578 -76.25724447 82.32348483 -76.23947264 78.2284046 C-76.23545159 76.75288035 -76.23638828 75.27733176 -76.2429915 73.8018168 C-76.29204468 61.80739759 -74.75025848 51.0791277 -69.15812683 40.37620544 C-68.80854919 39.69735291 -68.45897156 39.01850037 -68.09880066 38.31907654 C-59.47795591 22.07455267 -45.25880705 9.22381549 -27.69572943 3.46911281 C-18.3569655 0.77358021 -9.75337815 -0.06958863 0 0 Z " fill="#D6FD80" transform="translate(129.8456268310547,53.49879455566406)"/>
<path d="M0 0 C27.51853132 11.7657083 56.19103839 14.25383267 84.48120117 3.25732422 C97.74569451 -1.66510626 108.34281285 1.63569495 121.01391602 6.22900391 C152.66705488 17.66229268 182.56369568 7.80274318 211.85620117 -5.54736328 C224.0586892 -10.87156207 237.3835755 -10.47598518 249.98901367 -6.31298828 C259.38925157 -2.4096954 269.10398992 4.13757261 274.39135742 13.07373047 C275.88912152 16.79932458 275.7527284 20.31838062 274.44604492 24.09716797 C271.02789322 31.52853422 265.56930752 34.47430495 258.41870117 37.81982422 C252.01860275 40.91723103 246.55487277 44.32661792 241.16870117 49.00732422 C240.55897461 49.46365234 239.94924805 49.91998047 239.32104492 50.39013672 C233.82341528 54.6190826 230.60887823 60.06208058 227.16870117 66.00732422 C226.76522461 66.64283203 226.36174805 67.27833984 225.94604492 67.93310547 C220.36813603 77.49826483 220.06379592 89.59125315 219.73120117 100.38232422 C219.17806303 116.56564968 215.34529656 130.5375389 208.16870117 145.00732422 C207.42426758 146.53679687 207.42426758 146.53679687 206.66479492 148.09716797 C203.2483826 154.73450307 199.02788319 160.36065046 194.16870117 166.00732422 C193.13422852 167.24289062 193.13422852 167.24289062 192.07885742 168.50341797 C173.39261507 190.16323957 144.7076701 204.7320839 116.10766602 207.184021 C111.17004673 207.45166519 106.23669828 207.43622973 101.29370117 207.38232422 C100.54890503 207.37833618 99.80410889 207.37434814 99.03674316 207.37023926 C88.14650611 207.30187949 77.75109577 206.78146608 67.16870117 204.00732422 C65.99694336 203.72888672 64.82518555 203.45044922 63.61791992 203.16357422 C35.30723933 195.85759213 10.64909284 177.84588284 -4.83129883 153.00732422 C-15.07898918 135.62770495 -20.85314577 116.73323895 -21.26879883 96.56982422 C-21.90614147 77.97397851 -26.78574283 63.47803346 -40.39770508 50.33544922 C-47.27497456 43.96413689 -54.86801096 39.92312717 -63.24633789 35.94702148 C-68.42034876 33.41331112 -71.64911546 30.92524397 -74.83129883 26.00732422 C-76.3296143 21.5123778 -76.83127153 17.68269327 -75.83129883 13.00732422 C-68.83640563 1.64694345 -56.3295247 -4.57731409 -44.04223633 -8.57470703 C-28.06661757 -11.59483284 -14.42153679 -6.19519749 0 0 Z " fill="#FC4848" transform="translate(198.831298828125,276.99267578125)"/>
<path d="M0 0 C7.0329294 5.5296276 11.17987899 11.53963696 14 20 C14.12053451 22.93564137 14.18542597 25.84927826 14.20532227 28.78588867 C14.21522186 29.68365524 14.22512146 30.58142181 14.23532104 31.50639343 C14.26693456 34.47689162 14.29169295 37.4474058 14.31640625 40.41796875 C14.3369759 42.47634804 14.35797238 44.53472311 14.37937927 46.59309387 C14.43459878 52.01326072 14.48400863 57.43346568 14.53222656 62.85369873 C14.58244243 68.38362016 14.63812806 73.91348617 14.69335938 79.44335938 C14.80093949 90.29552559 14.90238483 101.1477399 15 112 C16.27875 112.061875 17.5575 112.12375 18.875 112.1875 C19.59429687 112.22230469 20.31359375 112.25710937 21.0546875 112.29296875 C21.69664062 112.19628906 22.33859375 112.09960938 23 112 C25.43161487 108.35257769 25.23551613 106.67099576 25.20776367 102.32885742 C25.20656525 101.65530716 25.20536682 100.9817569 25.20413208 100.28779602 C25.20098334 98.82601221 25.19367378 97.3642328 25.1826992 95.9024868 C25.16784311 93.58587657 25.16944552 91.26984323 25.17634583 88.95320129 C25.19517556 82.36697288 25.20165505 75.78119078 25.15454102 69.19506836 C25.12690105 65.16468167 25.1333121 61.13555424 25.16155434 57.10518837 C25.16580694 55.57224054 25.15737231 54.03920143 25.1358242 52.50639915 C24.97441474 40.52928039 24.97441474 40.52928039 27.52836609 36.7210083 C30.72217989 33.8969804 33.68355384 32.24965746 38 32 C39.24910156 31.90976563 40.49820313 31.81953125 41.78515625 31.7265625 C53.55382041 31.3292326 62.84285484 32.81054014 71.875 41.0625 C85.93302388 56.37069297 85.09159815 75.86242779 85.31640625 95.36328125 C85.33703914 96.89170308 85.35803694 98.42012002 85.37937927 99.9485321 C85.43394734 103.92511983 85.48363761 107.90175329 85.53222656 111.87841797 C85.58292571 115.95479282 85.63835613 120.03110323 85.69335938 124.10742188 C85.80013959 132.07155972 85.90175417 140.03575232 86 148 C83.60908752 149.12728001 81.21701675 150.25197911 78.82421875 151.37524414 C77.81627258 151.8509573 77.81627258 151.8509573 76.78796387 152.33628082 C62.60143041 158.9860831 48.66755058 161.55896069 33.0625 161.5625 C31.16274414 161.56624634 31.16274414 161.56624634 29.22460938 161.57006836 C17.66326903 161.36619517 6.81680573 159.6902016 -3.9375 155.3125 C-15.34584757 151.06813168 -25.88870762 152.1576434 -37.31494141 155.86889648 C-48.84269081 159.40726027 -60.10550977 160.57833147 -72.125 160.5 C-73.19651306 160.49785492 -73.19651306 160.49785492 -74.28967285 160.4956665 C-92.27597709 160.40701221 -106.81840817 156.78335194 -123 149 C-122.87988376 141.64315884 -122.75519565 134.28640418 -122.62768555 126.9296875 C-122.58502633 124.43979545 -122.54332183 121.94988682 -122.50268555 119.45996094 C-122.3637448 110.97256819 -122.19300765 102.48632751 -122 94 C-121.9754071 92.80403198 -121.95081421 91.60806396 -121.92547607 90.37585449 C-121.84921387 86.89323351 -121.75360339 83.41166171 -121.65234375 79.9296875 C-121.63200577 78.90279816 -121.61166779 77.87590881 -121.5907135 76.81790161 C-121.14486052 63.35497389 -117.80008491 49.03018474 -107.6875 39.5 C-98.99267528 32.43545491 -90.01183733 30.24729213 -79 31 C-67.07210609 32.71227674 -67.07210609 32.71227674 -63.05950928 37.74816895 C-60.52771134 43.1291329 -61.32174203 49.72381607 -61.36328125 55.57421875 C-61.35523628 57.10546824 -61.34471537 58.63670654 -61.33183289 60.16792297 C-61.30334846 64.18639525 -61.30269908 68.20435096 -61.30969238 72.22290039 C-61.31703091 78.66484747 -61.28570743 85.10662921 -61.24724388 91.54844093 C-61.2383883 93.79703693 -61.24369557 96.04527372 -61.25080872 98.29386902 C-61.24742497 99.66946511 -61.24367592 101.04506037 -61.23950195 102.4206543 C-61.24125931 103.62167282 -61.24301666 104.82269135 -61.24482727 106.06010437 C-61.22286334 109.18975081 -61.22286334 109.18975081 -59 112 C-56 112.41666667 -56 112.41666667 -53 112 C-50.43057952 109.43057952 -50.75775672 107.72761888 -50.73213196 104.22529602 C-50.73625595 103.41755234 -50.74037994 102.60980865 -50.74462891 101.77758789 C-50.74100845 100.92689728 -50.737388 100.07620667 -50.73365784 99.19973755 C-50.72675177 97.34727617 -50.72426066 95.4947944 -50.72560501 93.64232063 C-50.72656902 90.70276776 -50.71363938 87.76358187 -50.69662476 84.82408142 C-50.6503381 76.46437507 -50.62578004 68.10470302 -50.61914062 59.74487305 C-50.61410157 54.63307051 -50.58972088 49.52164552 -50.55381393 44.40997124 C-50.54406178 42.46811639 -50.54165876 40.52620926 -50.54698563 38.58433723 C-50.58107688 25.53354047 -50.55556823 13.73362081 -40.9921875 3.71875 C-37.6362679 0.82344682 -34.01544429 -1.16330604 -30 -3 C-29.071875 -3.433125 -28.14375 -3.86625 -27.1875 -4.3125 C-17.32214684 -6.44032127 -8.70220963 -5.16131054 0 0 Z " fill="#FC4848" transform="translate(317,117)"/>
<path d="M0 0 C5.33320023 4.16824614 10.22932531 8.71774405 15.09375 13.41796875 C15.89683594 14.16949219 16.69992187 14.92101562 17.52734375 15.6953125 C33.53637724 31.03845899 33.53637724 31.03845899 33.90625 39.73046875 C33.56119748 47.05325001 28.28830763 52.69751902 23.46875 57.73046875 C22.93805908 58.29169434 22.40736816 58.85291992 21.8605957 59.43115234 C20.78212908 60.56728148 19.70022267 61.70015623 18.61474609 62.82958984 C17.26663181 64.23742797 15.93842234 65.66426709 14.61328125 67.09375 C-0.07362793 82.51869482 -22.06631632 97.23139195 -43.9453125 98.609375 C-70.19357688 99.07921267 -91.96307323 86.7276883 -110.546875 69.05859375 C-112.151099 67.49627415 -113.7500976 65.92857052 -115.34375 64.35546875 C-116.08906982 63.62416748 -116.83438965 62.89286621 -117.60229492 62.1394043 C-131.99318153 47.62252272 -131.99318153 47.62252272 -132.29296875 38.62890625 C-130.83991322 30.32153825 -122.4683948 23.26406689 -116.90625 17.41796875 C-116.42768555 16.90685547 -115.94912109 16.39574219 -115.45605469 15.86914062 C-82.51407697 -19.15937311 -40.41938657 -29.06394009 0 0 Z " fill="#D6F97F" transform="translate(346.90625,332.58203125)"/>
<path d="M0 0 C9.10576087 7.7698398 16.12420821 17.82570762 17.55371094 29.99707031 C18.42306103 43.69726623 16.55523167 56.20814301 7.2421875 66.95703125 C6.60667969 67.62347656 5.97117187 68.28992188 5.31640625 68.9765625 C4.67058594 69.67394531 4.02476562 70.37132812 3.359375 71.08984375 C-5.10454098 79.42813575 -15.04719987 83.52269314 -26.80859375 83.6015625 C-39.41403634 83.30521288 -49.20985152 79.41925076 -58.68359375 70.9765625 C-69.76617202 59.17299865 -72.38333168 46.89674077 -72.0625 31.171875 C-71.56254194 21.21213695 -67.13939171 13.363794 -60.68359375 5.9765625 C-60.20664062 5.38359375 -59.7296875 4.790625 -59.23828125 4.1796875 C-44.10878559 -13.0025538 -17.5103943 -13.2100888 0 0 Z " fill="#D6F97F" transform="translate(325.68359375,335.0234375)"/>
<path d="M0 0 C9.10576087 7.7698398 16.12420821 17.82570762 17.55371094 29.99707031 C18.42306103 43.69726623 16.55523167 56.20814301 7.2421875 66.95703125 C6.60667969 67.62347656 5.97117187 68.28992188 5.31640625 68.9765625 C4.67058594 69.67394531 4.02476562 70.37132812 3.359375 71.08984375 C-5.10454098 79.42813575 -15.04719987 83.52269314 -26.80859375 83.6015625 C-39.41403634 83.30521288 -49.20985152 79.41925076 -58.68359375 70.9765625 C-69.76617202 59.17299865 -72.38333168 46.89674077 -72.0625 31.171875 C-71.56254194 21.21213695 -67.13939171 13.363794 -60.68359375 5.9765625 C-60.20664062 5.38359375 -59.7296875 4.790625 -59.23828125 4.1796875 C-44.10878559 -13.0025538 -17.5103943 -13.2100888 0 0 Z M-57.68359375 15.9765625 C-63.87975013 26.45746455 -65.82177874 37.61736515 -62.77734375 49.51953125 C-58.54199009 60.23008907 -51.71377204 67.46563735 -41.1015625 72.10546875 C-31.1949022 75.67442715 -20.94644594 74.87630484 -11.54296875 70.515625 C-2.1035084 65.43482257 3.39636627 59.14025919 7.4453125 49.20703125 C9.88250796 40.16864271 9.74882535 29.67822172 5.62890625 21.2265625 C4.57260095 19.44726401 3.47379435 17.69182832 2.31640625 15.9765625 C1.93355469 15.36554688 1.55070312 14.75453125 1.15625 14.125 C-3.77988059 7.22503251 -13.48474381 2.54132724 -21.68359375 0.9765625 C-36.17118197 -0.50139045 -48.45600623 4.57651265 -57.68359375 15.9765625 Z " fill="#FB4C49" transform="translate(325.68359375,335.0234375)"/>
<path d="M0 0 C5.40572792 3.10264448 9.14476134 7.34668018 12.4296875 12.58203125 C14.26106087 19.56414222 14.8787813 27.23080623 11.6796875 33.89453125 C10.95918133 35.07963967 10.21159734 36.24900599 9.4296875 37.39453125 C8.8934375 38.28140625 8.3571875 39.16828125 7.8046875 40.08203125 C1.98854496 45.74511741 -6.0488934 48.77140411 -14.09375 48.6796875 C-20.32030141 47.96275019 -26.11555136 44.7220135 -30.5703125 40.39453125 C-36.15640001 33.05281624 -37.35709593 26.43609169 -36.5703125 17.39453125 C-35.31262646 10.35896083 -31.07134589 5.73391535 -25.5703125 1.39453125 C-17.11001931 -3.93620216 -9.04773418 -3.98833142 0 0 Z " fill="#FB4C49" transform="translate(309.5703125,349.60546875)"/>
<path d="M0 0 C4.75852474 1.643854 7.19569483 3.84547383 10 8 C11.68268168 13.04804504 11.56212419 17.32083946 9.4375 22.1875 C7.12587125 26.33554463 4.56517844 28.61398757 0 30 C-5.10261885 30.77630968 -8.80395645 30.6088949 -13.4375 28.25 C-17.2437995 24.90788336 -19.63632259 22.13001051 -20.23828125 16.94921875 C-20.4652005 10.03415304 -18.46373698 6.83703046 -13.9375 1.625 C-9.39497708 -0.88788502 -5.07418842 -0.61188743 0 0 Z " fill="#D7F87F" transform="translate(303,357)"/>
<path d="M0 0 C1.41693016 2.83386032 0.4746559 4.18346657 -0.4375 7.1875 C-3.13490178 17.55447273 -3.01991038 27.67492955 0.44140625 37.828125 C1 40 1 40 0 43 C-2.25421705 40.77506435 -4.50258669 38.54430627 -6.75 36.3125 C-7.38421875 35.68666016 -8.0184375 35.06082031 -8.671875 34.41601562 C-10.46802933 32.62921626 -12.23831348 30.82072288 -14 29 C-15.24523437 27.72189453 -15.24523437 27.72189453 -16.515625 26.41796875 C-18 24 -18 24 -18.046875 21.03515625 C-16.75720439 17.29607392 -14.98594969 15.28272578 -12.25 12.4375 C-11.38890625 11.52871094 -10.5278125 10.61992187 -9.640625 9.68359375 C-7.1070093 7.10875058 -4.5608311 4.54776563 -2 2 C-1.34 1.34 -0.68 0.68 0 0 Z " fill="#FC4B49" transform="translate(245,351)"/>
<path d="M0 0 C14.94469509 12.02073301 14.94469509 12.02073301 18.03515625 19.5078125 C17.98371781 23.15422638 16.42799635 24.59276959 14.0625 27.3125 C13.24007813 28.26382812 12.41765625 29.21515625 11.5703125 30.1953125 C8.15892274 33.91777124 4.65884699 37.520606 1 41 C0 38 0 38 0.921875 35.484375 C2.40262551 30.69876103 2.29036911 26.22885748 2.25 21.25 C2.25773437 20.3115625 2.26546875 19.373125 2.2734375 18.40625 C2.2558894 12.05383914 1.47742626 6.17557445 0 0 Z " fill="#FB4D49" transform="translate(351,352)"/>
<path d="M0 0 C2.9375 0.8125 2.9375 0.8125 4.9375 2.8125 C4.75 6.3125 4.75 6.3125 3.9375 9.8125 C0.9375 11.8125 0.9375 11.8125 -1.625 11.5625 C-4.0625 10.8125 -4.0625 10.8125 -6.0625 8.8125 C-6.39552312 5.6820827 -6.53921956 3.63351702 -4.9375 0.875 C-3.0625 -0.1875 -3.0625 -0.1875 0 0 Z " fill="#FB4F4A" transform="translate(299.0625,366.1875)"/>
</svg>
