<svg width="162" height="159" viewBox="0 0 162 159" fill="none" xmlns="http://www.w3.org/2000/svg">
<path d="M159.706 61.5152L159.069 59.2805H159.048L158.475 59.4533L159.048 61.6879C161.174 69.288 160.062 77.6545 155.852 84.3045C153.823 87.7051 150.832 90.296 148.025 93.0813C142.584 98.3819 101.151 138.811 94.4257 145.191C83.9865 154.821 66.9512 155.253 55.8858 146.508C50.3801 142.33 46.5801 136.177 45.0579 129.462C45.0795 129.322 32.6107 80.0727 29.3612 67.0857C25.7016 54.2175 38.0084 42.6339 50.6284 47.1464C61.4778 50.2339 103.462 62.1522 103.462 62.1522C104.034 62.3249 104.627 62.4544 105.264 62.4544C108.266 62.4544 110.705 60.0254 110.705 57.0135C110.705 54.4334 108.902 52.2743 106.495 51.7129C106.495 51.7129 63.8529 40.993 53.0142 38.2725C48.4261 36.9554 43.471 36.7503 38.8721 38.0782C25.6476 41.6947 17.6373 56.0311 21.8152 69.1045C25.4533 81.9943 39.3255 130.585 39.8437 132.474C42.0351 139.729 46.6448 146.26 52.7875 150.664C64.9324 159.614 82.799 159.56 94.5984 150.049C96.2286 148.786 97.7399 147.275 99.1757 145.796C104.52 140.29 143.999 99.6341 149.213 94.258C151.998 91.3864 155.032 88.5364 157.007 85.0062C161.163 78.0107 162.124 69.234 159.706 61.5044V61.5152Z" fill="#FF5C02"/>
<path d="M133.678 24.6054C130.18 22.4139 125.992 20.9565 122.062 20.0389L52.604 2.15077C48.7284 1.16838 44.7664 -0.0623041 40.7073 0.00246893C32.5459 -0.105486 24.4925 3.43544 18.9976 9.36217L17.7129 10.6792L18.1663 11.1326L19.4834 9.84797C24.9891 4.23431 32.8158 1.04963 40.6641 1.3627C44.6369 1.41668 48.3397 2.70134 52.1397 3.79169L121.058 23.6554C124.858 24.6594 128.237 25.9549 131.465 28.0816C144.117 36.1242 148.781 54.1095 141.57 67.1613C139.864 70.4431 137.446 73.2715 134.736 75.7869L91.8132 117.382C89.4598 119.735 86.8041 122.305 83.5763 123.352C73.9035 126.785 63.637 120.675 61.9421 110.602C59.1568 99.5478 48.3397 56.8084 48.3397 56.8084C47.7244 54.6817 45.6193 53.1055 43.2227 53.1055C40.2215 53.1055 37.7817 55.5345 37.7817 58.5465C37.7817 59.0323 37.8681 59.4965 37.9868 59.9499C37.9868 59.9499 49.9591 102.203 53.025 112.956C57.2352 131.902 80.6831 139.232 94.5984 125.565C104.239 115.719 138.385 80.5045 138.385 80.5045C141.948 76.942 144.646 73.509 146.514 69.6551C154.47 54.0987 148.608 33.5441 133.678 24.6162V24.6054Z" fill="#FF5C02"/>
<path d="M124.448 48.6901C121.727 41.0361 114.969 35.0446 107.078 33.2202C106.765 33.1338 45.0902 17.6531 45.0902 17.6531C40.9339 16.5196 36.5726 15.9474 32.2868 16.3144C14.8088 17.3832 -0.121338 33.1446 0.00820801 50.6333C-0.099747 54.8004 0.871841 59.0214 2.05935 62.9942C6.7338 79.6624 22.2685 134.46 23.3697 138.206C25.1833 144.09 28.9725 149.326 33.8953 152.953C37.1771 155.371 40.9771 157.077 44.9067 157.984L47.2925 158.578L47.4436 157.995L45.0902 157.325C41.2254 156.321 37.6197 154.562 34.5106 152.154C29.8794 148.516 26.4032 143.431 24.8163 137.764C23.7799 133.996 5.63266 62.0334 5.63266 62.0334C4.63947 58.4169 3.82981 54.4873 4.06731 50.7197C4.76902 30.9316 24.8271 16.9406 43.5573 23.3423C61.8556 28.5242 87.0415 35.7032 105.394 40.8958C117.776 44.3396 121.479 60.4572 111.709 68.8561C103.526 76.8016 85.4222 94.3443 71.8847 107.461C71.7767 107.558 71.442 107.893 71.2477 108.098C69.8443 109.674 69.704 112.416 70.9347 114.37C72.5324 116.907 75.8898 117.673 78.4267 116.076C78.7722 115.86 79.0745 115.611 79.3551 115.342C79.3551 115.342 119.925 73.7573 120.518 72.7749C125.959 66.1681 127.449 56.6248 124.47 48.6686L124.448 48.6901Z" fill="#FF5C02"/>
</svg>
