<svg xmlns="http://www.w3.org/2000/svg" width="350pt" height="350pt" style="isolation:isolate" viewBox="0 0 350 350"><defs><clipPath id="a"><path d="M0 0h350v350H0z"/></clipPath></defs><g clip-path="url(#a)"><path d="M0 0h350v350H0z" style="fill:#fefeff"/><linearGradient id="b" x1=".788" x2=".203" y1=".941" y2=".045" gradientTransform="matrix(269.999 0 0 270 40 40)" gradientUnits="userSpaceOnUse"><stop offset="1%" style="stop-color:#645aff"/><stop offset="50%" style="stop-color:#e40c5b"/><stop offset="100%" style="stop-color:#ff4c3b"/></linearGradient><path fill="url(#b)" fill-rule="evenodd" d="M175 310c74.557 0 135-60.437 135-135S249.557 40 175 40 40 100.456 40 175s60.437 135 135 135m.551-12.664c67.56 0 122.323-54.77 122.323-122.33s-54.763-122.33-122.323-122.33S53.221 107.421 53.221 175c0 67.578 54.77 122.329 122.33 122.329zm-.551-9.371c22.342 0 44.181-6.625 62.757-19.036a112.97 112.97 0 0 0 48.032-115.96 112.953 112.953 0 0 0-154.016-82.323 112.953 112.953 0 0 0-36.644 184.23A112.96 112.96 0 0 0 175 287.96zm.273-13.772a99.46 99.46 0 0 0 91.889-61.396 99.5 99.5 0 0 0 5.66-57.465 99.454 99.454 0 0 0-135.606-72.489 99.46 99.46 0 0 0-61.403 91.884 99.46 99.46 0 0 0 99.46 99.461zm.221-82.649a87 87 0 0 0-14.563 1.216l7.25-12.524c2.444-.165 4.888-.247 7.313-.247 5.703.004 11.396.459 17.026 1.362l-28.062-48.603-46.741 80.926-6.681-11.568 53.314-92.343.108.19.108-.183 64.343 111.439h-13.36l-15.038-26.043a86.3 86.3 0 0 0-25.017-3.628zm57.55 22.32-62.292-107.893h13.36l55.612 96.325zm-61.824-54.656-25.58 44.323c9.156-2.761 19.926-3.996 30.089-3.996.823 0 1.646 0 2.469.032 5.771.137 11.521.734 17.197 1.786l8.535 14.785a82.2 82.2 0 0 0-28.201-5.066 84.36 84.36 0 0 0-40.195 10.029l.19-.335-.259.443h-13.36l42.479-73.569z"/></g></svg>