<svg xmlns="http://www.w3.org/2000/svg" width="350pt" height="350pt" style="isolation:isolate" viewBox="0 0 350 350"><defs><clipPath id="a"><path d="M0 0h350v350H0z"/></clipPath></defs><g clip-path="url(#a)"><path d="M0 0h350v350H0z" style="fill:#190a2d"/><g fill="#FFF" fill-rule="evenodd"><path d="m303.352 270.117-63.962-39.473c-.726-.462-1.518-.66-2.376-.66H60.048c-2.047 0-3.829 1.321-4.357 3.301s.264 4.026 1.98 5.082l63.962 39.473c.726.462 1.518.66 2.376.66h176.967c2.046 0 3.828-1.32 4.356-3.3.528-1.915-.264-4.027-1.98-5.083m-178.089-.66-49.241-30.364h159.672l49.242 30.364zM112.92 120.016h176.966c2.047 0 3.829-1.321 4.357-3.301s-.264-4.026-1.98-5.082L228.301 72.16c-.726-.462-1.518-.66-2.376-.66H49.024c-2.046 0-3.828 1.32-4.356 3.3-.528 1.981.264 4.027 1.98 5.083l63.962 39.473c.66.396 1.518.66 2.31.66m111.751-39.473 49.241 30.364H114.24L64.998 80.543zM179.588 147.277c-7.459.066-14.39 3.036-19.605 8.383s-8.053 12.343-7.987 19.802c.132 15.248 12.608 27.591 27.856 27.591h.264c15.379-.132 27.723-12.805 27.591-28.119-.066-7.459-3.037-14.39-8.383-19.604-5.215-5.149-12.146-7.987-19.472-7.987-.066-.066-.132-.066-.264-.066"/></g></g></svg>