<svg xmlns="http://www.w3.org/2000/svg" width="350pt" height="350pt" style="isolation:isolate" viewBox="0 0 350 350"><defs><clipPath id="a"><path d="M0 0h350v350H0z"/></clipPath></defs><g clip-path="url(#a)"><path d="M0 0h350v350H0z" style="fill:#3c8131"/><path fill="none" d="m107.427 279.692 2.529.479c-1.982-.615-4.307-1.299-6.494-1.983z"/><path fill="#3D8130" d="m241.685 231.978-.069-.069zM104.009 138.735l-7.862 15.313-8.134 16.064-5.742 15.039-3.829 15.996-2.392 17.5-1.436 15.108-1.64 9.912 1.64 7.725 2.803 6.63 5.195 9.161 12.032 7.519 8.886 3.486c2.188.684 4.512 1.368 6.494 1.983l10.528 1.914 15.039.684h12.441c1.436 0 14.014-.684 14.082-.752l15.996.273 15.45-1.914 6.699-2.803 4.58-5.469.205-7.246c-.273-.615-1.162-2.939-1.436-3.828-.205-.615-3.281-4.238-6.084-7.383l-.068-.068c-1.23-1.777-3.213-4.853-3.213-5.879s1.231-4.033 1.504-4.58l.137-.273 6.426-1.846 4.238 3.076 3.828-2.119 4.307-4.307 7.519-5.537 6.836-3.896 5.4-1.026 7.11 4.854-.479-.547 2.94-2.598 2.734-4.511v-4.717l-.547-1.367-3.486 2.802-6.221 1.778h-.136l-9.571-.205-13.877 1.435-4.375.479-3.349-.479-8.955-1.23-10.118-1.914-16.337-2.666h-.069l-15.654-6.494-13.74-7.93-8.409-5.674-.82-4.033 1.094-3.76 3.349-2.461 7.793 1.777 17.022 5.264c8.34 1.709 21.055 4.238 21.875 4.307.41 0 2.051.273 6.152.957 4.375.683 10.391 1.709 11.621 1.709 2.119 0 18.457.888 19.414.957.889 0 14.151-.274 15.586-.274.957 0 6.084-1.709 9.161-2.802l4.648-5.537 4.443-7.725c.274-2.256 0-4.512-.82-6.631-1.094-2.871-3.145-5.332-5.742-6.973-1.367 2.598-3.145 4.239-5.196 4.991-.751.273-1.64.41-2.46.41-1.231 0-2.461-.274-3.487-.821l.684-1.23a6.29 6.29 0 0 0 4.853.342c1.846-.684 3.418-2.324 4.649-4.854-1.504.547-3.145.889-4.785.889-1.026 0-2.051-.068-3.077-.342l.137-.683.137-.684c.068 0 5.332 1.299 9.297-1.777 2.802-2.12 4.375-5.948 4.648-11.211l-4.58 5.4-5.537 2.529c-2.461.616-10.664 2.666-11.416 2.666-.273 0-1.367-.136-4.033-.615-3.35-.547-8.34-1.299-9.639-1.299-2.324 0-5.605-2.529-5.947-2.802l-.41-.274 2.597-7.588 7.178-8.134 7.588-5.401h9.434l8.886.957 3.828 4.375 1.846 2.735v-7.383l-7.383-2.666c-.82-.137-8.134-1.162-9.912-1.162-1.709 0-8.271 1.025-9.365 1.162l-9.502 6.152-.752-1.162 9.707-6.289h.137c.342-.068 7.724-1.231 9.707-1.231 1.914 0 9.844 1.163 10.185 1.231l.137.068 7.998 2.94.752.41.068-.547-3.759-3.281-6.768-3.282-8.203-.683-9.434 1.64-3.759 1.641-.547-1.299 3.965-1.709 9.707-1.709 8.613.752.342.205-2.598-4.033-7.314-6.426.068-.068-28.438.82s-3.691.479-7.929 1.026l4.033 5.81 2.051 3.623-1.026 3.623-1.367-.41.889-3.076-1.777-3.076-4.307-6.221.273-.205c-5.332.684-11.006 1.367-11.347 1.367-.616 0-23.448 1.709-24.405 1.709-1.914-.136-3.828-.342-5.673-.752-.342-.205-15.586-5.742-16.133-6.084s-5.879-5.468-5.879-5.468l-10.391-3.213-9.092 11.211zm110.947 31.377c1.367.616 2.598 1.367 3.897 2.119l7.793.889 4.443-.957.273 1.367-4.648.957-5.401-.615a39.3 39.3 0 0 1 6.358 5.811 32.5 32.5 0 0 1 3.623 5.058l-1.231.684c-1.23-2.051-2.666-4.033-4.375-5.742-2.255-2.325-4.785-4.444-7.519-6.153l-3.965-2.256zm-78.135-25.566 6.221-5.947 5.4-4.444 7.725-1.504 8.135-.273h8.681l7.178.273 14.561.274 4.58 2.803 5.605 5.126 3.213 3.965 1.504 8.067-1.367.273-1.436-7.724-2.939-3.692-5.401-4.922-4.101-2.529-11.416-.205 4.99 2.734c2.666 1.367 7.246 3.828 7.725 4.854.342.547 3.965 4.101 7.314 7.246l.069.068 5.126 6.631.752 5.469-1.367.205-.683-5.059-4.854-6.289c-1.709-1.572-7.041-6.631-7.519-7.588-.411-.546-3.965-2.597-7.11-4.238l-7.314-4.033-7.041-.205h-8.614l-8.066.205-7.178 1.367-5.127 4.17-5.81 5.605-.615 3.692 1.23 1.094 3.076-1.641 5.059-6.289 9.16-3.486 11.895-1.231 10.048.957 13.057 6.768 5.4 3.213 5.196 6.904 2.392 7.519 3.487 2.256v3.077l-3.213 2.939-5.742 2.393-2.461 2.05-2.598 4.239-1.299 2.119-.137.068c-1.709.889-4.716 2.461-5.537 2.461-.615.137-4.443 1.846-7.861 3.555l-.342.068c-.273.068-6.289 1.914-7.793 2.188l-.205-1.368c1.299-.205 6.973-1.914 7.52-2.119 3.418-1.64 7.656-3.623 8.408-3.623a34 34 0 0 0 4.785-2.256l.615-1.025 3.145-5.127.752-.615c-2.188-.205-5.059-.547-5.811-.957-.342-.137-2.392-.41-13.125-.41-2.666 0-8.955-1.436-9.844-1.709-.683-.205-7.109-2.12-7.177-2.12l-.137-.068-.137-.137c-.068-.068-6.015-5.742-10.39-8.271l.683-1.231c4.238 2.461 9.639 7.52 10.596 8.409 1.025.273 6.357 1.914 7.041 2.119.752.273 6.904 1.64 9.365 1.64 12.92 0 13.467.342 13.809.616.478.273 3.554.615 6.152.82l-.068.478 1.025-.888 5.742-2.393 2.53-2.324v-1.709l-1.778-1.162.069.205-5.948 2.187-8.203.958c-.41 0-2.187.068-4.17.068-2.324 0-4.853-.068-5.605-.342-1.094-.342-7.998-1.846-11.416-2.598h-.069l-.068-.068c-4.307-2.324-9.639-5.264-10.049-6.016-.342-.41-3.008-1.777-5.263-2.871h-.069l-7.588-4.443-1.025.205-.137-.889-2.392-1.367-3.692 1.983-2.597-2.256zm3.145 32.744.342 1.367-4.649 1.094-2.324.547-.137-.547-.205-.82zm2.939 6.494-.342 1.367c-1.572-.341-3.212-.273-4.785 0-2.597.479-6.425 1.983-10.117 6.221l-1.025-.889c7.588-8.886 15.927-6.836 16.269-6.699"/><path fill="#3D8130" d="M152.271 149.194c.41-.068 10.117-1.23 11.347-1.23.479 0 1.846.137 3.623.273 2.393.205 6.426.547 7.041.479.957-.274 10.528-1.094 11.621-1.231l5.674-.41-1.162-.683-12.783-6.631-9.639-.957-11.621 1.162-8.613 3.281-4.375 5.469 2.803 1.64zM185.972 148.921c-4.239.41-10.733 1.025-11.416 1.162-.616.137-2.803 0-7.452-.41-1.572-.137-3.076-.274-3.486-.274-.957 0-8.34.889-11.142 1.163l-4.512.82 6.152 3.623c1.914.889 5.196 2.529 5.742 3.349.547.547 5.196 3.213 9.502 5.538 1.094.205 10.118 2.187 11.485 2.666.957.341 6.22.273 9.297.205l8.066-.957 4.854-1.846-.274-.137-2.461-7.793-4.853-6.494-2.871-1.709.068.684zM249.136 148.374l-3.418-3.828-8.34-.957h-8.887l-7.178 5.127-6.835 7.724-2.188 6.358c1.094.82 3.281 2.187 4.717 2.187s6.084.752 9.844 1.368c1.777.273 3.554.546 3.828.546.615-.068 7.041-1.64 11.006-2.597l5.058-2.324 4.033-4.649-.341-2.187-12.442-5.059-15.928-.479.069-1.367 16.201.479 13.398 5.469.547 3.486v-4.443zM234.233 228.56l-4.648.888-6.563 3.76-7.382 5.469-2.051 2.051 4.648 3.281.342 2.597-3.144 3.145-.957-.957 2.666-2.666-.137-1.299-4.375-3.076-1.299 1.299-2.734 1.504-.752 3.691 3.828 3.35 5.537-.205c1.025-.752 2.734-1.846 3.555-1.914a18.7 18.7 0 0 0 2.392-1.641c1.846-1.436 2.598-1.914 3.145-1.914 1.64-.82 3.213-1.709 4.717-2.735l.205-.136 6.699.752 2.324 2.324-.478.478c-1.436 1.573-3.077 3.623-3.145 4.102 0 .342-.068.684-.205.957l1.572-.889 7.383-5.263.82 1.162-7.519 5.332-3.487 1.914c-.136.205-.273.41-.341.478l-.274-.205-5.332 2.94-3.691 5.332-1.299 3.144 2.666 3.76 2.939 3.35 3.487.41 3.213-.684-.069-.683 3.555-5.606 6.699-6.494.957 1.025-6.631 6.426-3.213 4.99.206 3.76 3.417 2.324 4.512.479 2.53-.752-.479-.752.342-.41c.137-.205 3.828-4.375 4.58-5.059.547-.547 3.691-4.17 5.264-5.947l1.025.889c-.205.205-4.58 5.332-5.332 6.015-.547.547-3.213 3.487-4.17 4.58l2.393 3.555h4.033l3.486-1.572 2.871-4.238 3.828-4.102 1.026.957-3.828 4.033-2.94 4.444-4.17 1.845h-5.058l-2.12-3.144-3.212.957-5.127-.479-4.239-2.939-.136-2.735-3.213.684-4.239-.547-3.212-3.691-4.786-2.871-4.99-5.537-1.23-8.614 1.367-.205 1.025 7.383 5.948-4.717 6.425-6.152 3.692-5.059-1.778-.205c-1.982 1.299-4.306 2.735-5.127 2.871a18.7 18.7 0 0 0-2.392 1.641c-1.914 1.435-2.666 1.914-3.145 1.914a16 16 0 0 0-2.939 1.777l-.205.137-6.494.274-4.854-4.307.684-3.281-.479.273-4.375-3.144-5.127 1.503a18.6 18.6 0 0 0-1.23 3.76c.068.547 1.572 3.076 2.939 5.059 1.846 2.051 6.084 6.904 6.358 7.929.205.752 1.093 2.94 1.435 3.76l.069.137-.206 9.297 2.667 3.965c1.367.82 11.416 6.699 12.578 7.382.82.479 8.066 2.53 12.509 3.76l14.971 1.436 12.031-1.641 10.323-4.717 5.605-5.4-1.299-4.785-6.904-12.852-4.99-7.588-8.682-9.433-12.783-7.041-1.914-4.102z"/><path fill="#983B1F" d="m245.103 200.874-.206.068c-1.367.479-8.339 2.94-9.843 2.94-1.436 0-15.45.205-15.586.273-.205 0-17.295-.957-19.414-.957-1.367 0-6.905-.888-11.826-1.709-2.735-.478-5.538-.888-5.948-.888-.957 0-18.662-3.623-22.217-4.307h-.068l-17.021-5.264-7.11-1.572-2.461 1.846-.82 2.939.615 3.145 7.93 5.332 13.603 7.861 15.45 6.426 16.201 2.597 10.117 1.915 12.1 1.64 18.183-1.914h.069l9.502.205 5.742-1.64 4.853-3.897 3.965-6.084.889-2.803-1.299-3.144c-5.742 5.195-6.357 5.4-6.699 5.469l-5.879 1.435-16.338.752h-.068l-17.09-.957-16.953-3.076-13.672.273h-.069l-14.218-3.623-12.579-4.375-6.699-4.101.752-1.162 6.631 4.033 12.373 4.306 14.014 3.555 13.672-.273h.068l16.953 3.076 16.953.957 16.201-.684 5.674-1.435c.342-.137 2.256-1.641 6.289-5.332.547-.479.889-.821 1.026-.957l5.195-7.11 1.777-3.349c-.273-1.162-.546-2.256-.683-3.418a19.7 19.7 0 0 0-2.324-3.008c0 .615 0 1.23-.137 1.846v.136l-4.717 8.135z"/><path d="m276.958 273.403-6.973-12.988-5.058-7.725-8.75-9.775-12.647-6.904-1.845-3.965-.342.205s1.162 4.238 1.982 4.648c.821.411 11.758 6.016 12.305 6.289.547.274 10.049 11.622 10.049 11.622l7.656 13.33 4.58 10.254s-5.879 6.015-6.221 6.084c-.341.068-11.689 5.605-12.031 5.605s-11.348 1.23-11.963 1.094c-.615-.205-14.15-1.367-15.176-1.436-1.093-.068-13.603-5.058-13.603-5.058l-10.801-6.495-3.076-4.785-4.307 4.854s-6.084 3.076-6.904 3.076-15.723 1.982-16.885 1.982h-30.01s-29.667-.546-30.966-1.162c-.41-.205-2.803-.957-5.948-1.982l-2.529-.479-3.965-1.504c-4.853-1.503-9.228-2.802-9.228-2.802l-12.237-7.93s-5.127-8.887-5.332-9.365c-.205-.479-3.349-7.93-3.349-8.272 0-.341-1.094-6.289-1.094-6.289l2.188-13.603.957-14.287 2.324-15.586s3.896-15.655 3.965-16.338c.068-.752 6.357-16.201 6.357-16.201l6.631-11.963 8.75-18.047 9.639-13.604 9.365-11.142.615.205-1.094-.889-9.091 11.279-10.118 14.698-7.929 15.449-8.135 15.996-5.811 15.176-3.896 16.133-2.393 17.636-1.435 15.108-1.709 10.185 1.709 8.067 2.939 6.836 5.401 9.57 12.373 7.793 13.056 5.127 13.33 2.461 15.244.752h12.442c1.435 0 13.398-.684 14.15-.752l16.065.273h.068l15.654-1.914h.069l7.177-3.008 3.692-4.443 3.076 4.58.137.069c.136.068 11.552 6.699 12.715 7.451 1.23.752 11.689 3.623 12.92 3.896l15.312 1.436 12.305-1.709h.068l10.664-4.854.137-.068 6.357-6.152z"/><path d="m113.101 123.901-9.639 13.604-8.75 18.047-6.631 11.963s-6.289 15.449-6.357 16.201-3.965 16.338-3.965 16.338l-2.324 15.586-.957 14.287-2.188 13.603s1.094 5.948 1.094 6.289c0 .342 3.144 7.793 3.349 8.272.205.478 5.332 9.365 5.332 9.365l12.237 7.93s4.375 1.299 9.228 2.802l-8.886-3.486-12.032-7.519-5.195-9.161-2.803-6.63-1.64-7.725 1.64-9.912 1.436-15.108 2.392-17.5 3.829-15.996 5.742-15.039 8.134-16.064 7.862-15.313 10.049-14.56 9.091-11.211-.615-.205zM234.507 227.124l-5.401 1.025-6.835 3.897-7.52 5.537-4.307 4.307-3.828 2.119-4.238-3.076-6.426 1.845-.137.274c-.273.615-1.503 3.554-1.503 4.58 0 1.025 2.05 4.17 3.212 5.879l.069.068c2.803 3.145 5.879 6.768 6.084 7.383.205.889 1.162 3.213 1.435 3.828l-.205 7.246-4.58 5.469-6.699 2.803-15.449 1.914-15.996-.274c-.137 0-12.715.752-14.082.752h-12.442l-15.039-.683-10.527-1.914c3.076.957 5.537 1.777 5.947 1.982 1.231.615 30.967 1.162 30.967 1.162h30.01c1.162 0 16.132-1.982 16.884-1.982.821 0 6.905-3.077 6.905-3.077l4.306-4.853 3.076 4.785 10.801 6.494s12.51 4.922 13.604 5.059c1.094.068 14.56 1.23 15.176 1.435s11.621-1.093 11.962-1.093c.342 0 11.69-5.469 12.032-5.606.341-.068 6.22-6.084 6.22-6.084l-4.58-10.254-7.656-13.33s-9.502-11.347-10.049-11.621c-.547-.273-11.484-5.879-12.304-6.289s-1.983-4.648-1.983-4.648l.342-.205v-.069zm7.93 9.844 12.783 7.041 8.545 9.433 4.99 7.588 6.904 12.852 1.299 4.785-5.605 5.4-10.323 4.717-12.031 1.641-14.971-1.436c-4.443-1.23-11.689-3.281-12.509-3.76-1.163-.683-11.211-6.562-12.579-7.382l-2.666-3.965.205-9.297v-.068c-.341-.821-1.23-3.008-1.435-3.76-.273-1.026-4.512-5.879-6.357-7.93-1.368-2.051-2.94-4.58-2.94-5.058.274-1.299.684-2.53 1.231-3.76l5.126-1.504 4.375 3.144.479-.273-.684 3.281 4.854 4.307 6.494-.274.205-.136a16 16 0 0 1 2.94-1.778c.546 0 1.23-.478 3.144-1.914a18.5 18.5 0 0 1 2.393-1.64c.82-.069 3.213-1.573 5.127-2.871l1.777.205-3.691 5.058-6.426 6.153-5.947 4.716-1.026-7.382-1.367.205 1.23 8.613 4.991 5.537 4.785 2.871 3.213 3.692 4.238.546 3.213-.683.137 2.734 4.238 2.94 5.127.478 3.213-.957 2.119 3.145h5.058l4.17-1.846 2.94-4.443 3.828-4.034-1.025-.957-3.829 4.102-2.871 4.238-3.486 1.572h-4.033l-2.393-3.554c.957-1.094 3.623-4.033 4.17-4.58.752-.752 5.127-5.811 5.332-6.016l-1.025-.889c-1.572 1.846-4.717 5.401-5.264 5.948-.752.752-4.443 4.922-4.58 5.058l-.342.41.479.752-2.53.752-4.511-.478-3.418-2.324-.205-3.76 3.213-4.99 6.63-6.426-.957-1.026-6.699 6.495-3.554 5.605.068.684-3.213.683-3.486-.41-2.94-3.35-2.666-3.759 1.299-3.145 3.691-5.332 5.332-2.939.274.205c.068-.137.205-.274.342-.479l3.486-1.914 7.52-5.332-.821-1.162-7.383 5.264-1.572.888c.137-.273.205-.615.205-.957.069-.547 1.709-2.529 3.145-4.101l.478-.479-2.324-2.324-6.699-.752-.205.137c-1.504 1.025-3.076 1.982-4.717 2.734-.547 0-1.299.547-3.145 1.914a18.5 18.5 0 0 1-2.392 1.641c-.82.068-2.461 1.162-3.555 1.914l-5.537.205-3.828-3.35.752-3.691 2.734-1.504 1.299-1.299 4.375 3.076.137 1.299-2.666 2.666.957.957 3.144-3.144-.341-2.598-4.649-3.281 2.051-2.051 7.383-5.469 6.562-3.759 4.649-.889 6.289 4.307zm-18.731 30.556-1.846-1.093-4.101-4.512 6.289-4.922 6.494-6.289 4.238-5.879 2.393.274 1.025 1.025c-1.299 1.435-3.076 3.555-3.076 4.512-.205.82-.615 1.572-1.094 2.187l-5.947 3.281-3.965 5.674-1.64 4.102zM240.454 128.208l3.486 4.58s1.709 2.666 2.325 2.871c.615.205 6.289 3.487 6.289 3.487l2.324 2.597-.479 1.504-1.777-.547.274 8.819h.546v-7.93l1.573.889.41-3.35-4.444-3.897-4.785-2.324.205-.136-3.691-5.811-7.451-6.563-.821.957h.752zM252.075 164.233s-2.529 5.059-2.803 5.196c-.273.205-2.529 1.162-2.529 1.162l.205 1.23c1.026.752 2.051 1.573 2.94 2.461.136.205 1.64 3.213 2.871 5.469h1.23c-1.162-3.418-3.486-6.357-6.562-8.203.136-.274.273-.615.41-.889.205-.137.478-.273.684-.478 3.349-2.53 5.058-6.905 5.263-13.057v-4.307l-.82-1.23.205 6.631z"/><path d="m241.685 129.985 2.597 4.034-.342-.206-8.613-.751-9.707 1.709-3.965 1.708.547 1.299 3.76-1.64 9.434-1.641 8.203.684 6.767 3.281 3.76 3.281-.068.547-.752-.41-7.998-2.94-.137-.068c-.342-.068-8.203-1.23-10.186-1.23-1.982 0-9.365 1.162-9.707 1.23h-.136l-9.707 6.289.752 1.162 9.501-6.152c1.094-.137 7.657-1.162 9.366-1.162 1.777 0 9.092 1.094 9.912 1.162l7.383 2.666v7.519l-1.846-2.734-3.828-4.375-8.887-.957h-9.434l-7.587 5.4-7.178 8.135-2.598 7.588.41.274c.342.273 3.623 2.802 5.948 2.802 1.298 0 6.357.821 9.638 1.299 2.666.41 3.76.615 4.034.615.751 0 8.955-2.05 11.416-2.666l5.537-2.529 4.58-5.4c-.274 5.263-1.846 9.091-4.649 11.211-4.033 3.076-9.297 1.777-9.297 1.777l-.136.683-.137.684c1.025.205 2.051.342 3.076.342 1.641 0 3.281-.274 4.785-.889-1.23 2.53-2.802 4.17-4.648 4.854-1.572.547-3.35.41-4.854-.342l-.683 1.23a7.9 7.9 0 0 0 3.486.821q1.23 0 2.461-.41c2.051-.752 3.76-2.393 5.195-4.991 2.598 1.641 4.649 4.102 5.743 6.973h.205c-1.163-2.256-2.735-5.264-2.872-5.469a33 33 0 0 0-2.939-2.461l-.205-1.23s2.256-.957 2.529-1.162 2.803-5.196 2.803-5.196l1.094-5.947-.205-6.631-.274-8.818 1.778.547.478-1.504-2.324-2.598s-5.674-3.349-6.289-3.486c-.615-.205-2.324-2.871-2.324-2.871l-3.487-4.58-5.332-4.785h-.752l-.068.068zm10.664 27.686-.547-3.486-13.399-5.469-16.201-.479-.068 1.367 15.928.479 12.441 5.059.342 2.187-4.033 4.649-5.059 2.324c-3.965.957-10.391 2.529-11.006 2.597-.273 0-2.051-.273-3.828-.546-3.76-.616-8.408-1.368-9.844-1.368-1.367 0-3.554-1.367-4.717-2.187l2.188-6.358 6.836-7.724 7.178-5.127h8.886l8.34.957 3.418 3.828 3.213 4.854v3.828c-.068.205-.068.41-.068.615M208.667 224.458l4.375-.479h-7.725zM247.563 224.253c-.205.342-4.169 6.768-4.169 6.768l-1.778.957.41.478 3.145-2.734 3.008-5.059v-.684h-.616c.069.137.069.206 0 .274"/><path d="M247.563 224.253c0-.068.069-.205.069-.274h-.752v.274l-2.734 4.512-2.94 2.597.479.547.068.069 1.777-.957c-.068 0 3.897-6.358 4.033-6.768M254.126 182.349l.615.888c-.137-1.162-.342-2.324-.752-3.486h-1.23a750 750 0 0 0 1.367 2.598"/><path d="M258.569 190.005c-.068.342-.888 3.076-1.093 3.486-.205.479-6.631 9.297-6.631 9.297l1.504 3.076s.273 2.188.068 2.53-5.879 9.16-5.879 9.16l.889 2.461s.205 3.076.136 4.033h.616v-4.717l-.752-2.051.615-.478 4.17-6.426 1.094-3.486-1.641-4.034.205-.205 5.332-7.314 2.119-3.897-.068-.273c-.274-1.094-.547-2.256-.684-3.418 0-.273 0-1.025-3.554-4.785l-.274.273 2.119 3.008s1.778 3.418 1.709 3.76"/><path d="M252.759 179.751h-.205a13.7 13.7 0 0 1 .82 6.631l-4.512 7.724-4.648 5.538c-3.145 1.093-8.272 2.802-9.16 2.802-1.436 0-14.698.205-15.586.274-1.026-.069-17.295-.957-19.414-.957-1.231 0-7.246-.957-11.621-1.709-4.034-.684-5.743-.957-6.153-.957-.888-.069-13.535-2.598-21.875-4.307l-17.021-5.264-7.793-1.777-3.35 2.461-1.094 3.76.821 4.033 8.408 5.674 13.74 7.929 15.655 6.495h.068l16.338 2.666 10.117 1.914 8.955 1.23h7.793l13.877-1.435 9.57.205h.137l6.221-1.778 3.486-2.802.547 1.367v4.443h.752c.068-.957-.137-4.033-.137-4.033l-.889-2.461s5.674-8.818 5.879-9.16-.068-2.529-.068-2.529l-1.504-3.077s6.494-8.818 6.631-9.297c.205-.478.957-3.144 1.094-3.486.068-.342-1.709-3.76-1.709-3.76l-2.119-3.007-.616-.889c-.068.137-.683-1.025-1.435-2.461m1.982 6.973c.069-.616.137-1.231.137-1.846.889.889 1.641 1.914 2.324 3.008.137 1.162.342 2.324.684 3.418l-1.778 3.349-5.195 7.11c-.137.136-.547.478-1.025.957-4.034 3.691-5.879 5.127-6.289 5.332l-5.674 1.435-16.201.684-16.953-.957-16.954-3.076h-.068l-13.672.273-14.014-3.555-12.373-4.306-6.63-4.033-.752 1.162 6.699 4.101 12.578 4.375 14.219 3.623h.068l13.672-.273 16.953 3.076 17.09.957h.068l16.338-.752 5.879-1.435c.274-.069.957-.274 6.699-5.469l1.299 3.144-.889 2.803-3.964 6.084-4.854 3.897-5.742 1.64-9.502-.205h-.068l-18.184 1.914-12.1-1.64-10.117-1.915-16.201-2.597-15.449-6.426-13.604-7.861-7.929-5.332-.616-3.145.821-2.939 2.461-1.846 7.109 1.572 17.021 5.264h.069c3.555.752 21.191 4.307 22.217 4.307.341 0 3.213.478 5.947.888 4.922.821 10.459 1.709 11.826 1.709 2.119 0 19.209.957 19.414.957.137 0 14.151-.273 15.586-.273 1.504 0 8.477-2.461 9.844-2.94l.205-.068 4.922-5.879 4.717-8.135z"/><path d="M137.778 185.151a11.3 11.3 0 0 1 4.785 0l.342-1.367c-.342-.068-8.681-2.187-16.269 6.699l1.025.889c3.692-4.307 7.52-5.742 10.117-6.221M135.591 179.751l4.648-1.094-.273-1.367-6.973 1.641.205.82zM133.335 180.298l2.256-.547h-2.393zM218.306 173.599a43.5 43.5 0 0 1 7.519 6.152h1.914a39.4 39.4 0 0 0-6.357-5.811l5.4.616 4.649-.957-.274-1.368-4.443.957-7.793-.888c-1.231-.821-2.529-1.504-3.897-2.119l-.615 1.23zM230.132 185.493l1.23-.683a32.5 32.5 0 0 0-3.623-5.059h-1.914a35 35 0 0 1 4.307 5.742M142.222 149.741l2.392 1.367.137.889 1.025-.205 7.588 4.443h.069c2.255 1.094 4.921 2.461 5.263 2.871.479.684 5.742 3.623 10.049 6.016l.068.068h.069c3.486.752 10.322 2.256 11.416 2.598.82.274 3.349.342 5.605.342 1.983 0 3.828-.068 4.17-.068l8.203-.958 5.948-2.187-.069-.205 1.778 1.162v1.709l-2.53 2.324-5.742 2.393-1.025.888.068-.478c-2.598-.205-5.674-.615-6.152-.82-.342-.205-.889-.616-13.809-.616-2.461 0-8.613-1.367-9.365-1.64-.684-.205-6.016-1.846-7.041-2.119-.889-.889-6.289-5.879-10.596-8.409l-.683 1.231c4.443 2.598 10.39 8.203 10.39 8.271l.137.137.137.068c.068 0 6.494 1.915 7.177 2.12.821.273 7.11 1.709 9.844 1.709 10.733 0 12.715.273 13.125.41.752.41 3.623.752 5.811.957l-.752.615-3.145 5.127h1.641l2.598-4.238 2.46-2.051 5.743-2.393 3.213-2.939v-3.076l-3.487-2.256-2.392-7.52-5.196-6.904-5.4-3.213-13.057-6.767-10.049-.957-11.894 1.23-9.16 3.486-5.059 6.289-3.076 1.641-1.23-1.094.615-3.691 5.81-5.606 5.127-4.17 7.178-1.367 8.066-.205h8.614l7.041.205 7.314 4.033c3.145 1.641 6.768 3.692 7.11 4.239.478.957 5.81 6.015 7.519 7.588l4.854 6.289.683 5.058 1.367-.205-.752-5.469-5.127-6.63-.068-.069c-3.35-3.076-6.973-6.631-7.314-7.246-.479-1.025-5.059-3.486-7.725-4.853l-4.99-2.735 11.416.205 4.101 2.53 5.401 4.922 2.939 3.691 1.436 7.725 1.367-.274-1.504-8.066-3.213-3.965-5.605-5.127-4.58-2.803-14.561-.273-7.178-.274h-8.681l-8.135.274-7.725 1.504-5.4 4.443-6.221 5.947-.82 4.922 2.598 2.256zm53.32-.273 4.854 6.494 2.46 7.793.274.137-4.854 1.845-8.066.957c-3.076.069-8.34.137-9.297-.205-1.367-.478-10.391-2.392-11.484-2.666-4.307-2.324-9.024-4.99-9.502-5.537-.547-.752-3.828-2.392-5.742-3.349l-6.153-3.624 4.512-.82c2.803-.342 10.185-1.162 11.143-1.162.41 0 1.914.137 3.486.273 4.648.411 6.836.547 7.451.411.684-.137 7.178-.821 11.416-1.162l6.699-.479-.068-.684zm-47.852-6.153 8.614-3.281 11.621-1.162 9.638.957 12.784 6.631 1.162.684-5.674.41c-1.094.068-10.664.957-11.621 1.23-.615.137-4.58-.273-7.041-.478-1.777-.137-3.145-.274-3.623-.274-1.231 0-10.938 1.162-11.348 1.231l-6.152 1.162-2.803-1.641z"/><path d="M191.167 180.776c-1.572.889-3.145 1.573-4.785 2.256-.752 0-4.99 1.983-8.408 3.623-.616.205-6.221 1.914-7.52 2.119l.205 1.368c1.436-.274 7.52-2.12 7.793-2.188l.069-.068c3.417-1.641 7.314-3.418 7.861-3.555.82-.068 3.828-1.572 5.537-2.461l.137-.068 1.298-2.119h-1.64zM197.729 124.79l-.888.615c.41-.068.82-.068 1.23-.136zM200.942 131.831l1.778 3.076-.889 3.076 1.367.411 1.026-3.623-2.051-3.624-4.033-5.81c-.411.068-.821.068-1.231.137l-.273.205z"/><path fill="#C82727" d="m242.778 130.19 6.084-.615s15.176 4.512 15.791 5.127 8.272 3.965 8.272 3.965l4.512.41.615-4.101-3.35-4.786-9.639-7.109-11.005-5.332-6.905-2.393-2.461-34.863-5.81-8.681-8.682-7.11-11.211-5.537-11.621-.205-21.875 2.734-20.097 3.965-1.163-3.418c-1.572-.41-3.144-.683-4.716-.888-1.163 0-11.827 3.281-11.827 3.281l-6.494 3.418-1.367 3.965-9.297 5.127-7.519 9.433-4.307 9.092s-2.187 9.092-2.187 9.639 1.162 5.537 1.982 5.879 6.904 1.982 6.904 1.982l7.998 3.965 11.553 6.699 14.356 4.717s13.603-.957 14.97-.957 21.875-2.188 23.037-2.188 23.653-1.777 24.268-1.777 14.014-.205 14.014-.205l5.332 4.717z"/><path d="m237.446 149.536 1.778 3.76 1.093 4.307-.546 2.734-2.325 5.947-7.383 1.231-11.894-2.119-1.436-4.17.547-3.76 1.231-5.947 3.076-3.418 1.982 1.093 13.125.342M183.306 148.989l2.187 4.17.205 5.059-1.094 4.511-2.324 3.624-3.759.205-14.424-4.307-5.743-5.059.752-3.213 1.983-3.076 2.666-2.119 10.117.274c-.137-.069 9.024.683 9.434-.069M276.206 130.737l-5.605-4.922-8.067-5.4-13.262-4.853-1.845-.752-.547-11.416c-.684-5.606-1.641-14.082-1.641-14.766 0-.957-.478-7.93-.478-8.203v-.137l-3.965-7.178-6.631-6.836-10.186-5.81-8.476-2.393h-11.621l-11.416 1.436c-4.58.752-11.758 1.914-12.578 1.914-1.231 0-10.801 2.187-11.895 2.392l-3.349.889.546-.273-1.093-2.188-3.555-1.367-5.195.479-8.34 2.05-6.289 4.034-1.299 3.349.889.342-3.487.889h-.136l-7.383 4.648-5.127 5.811-4.649 7.793-3.691 12.714v4.58l2.393 4.239 14.97 5.332 4.99 4.512 11.143 5.058 9.844 2.461 18.388-1.23 26.592-2.872 18.936-1.435 15.722.205 16.612 2.393 13.125 6.22.615-1.23-13.262-6.289-16.884-2.393-15.928-.273-19.004 1.435-26.592 2.871-18.115 1.162-9.434-2.324-10.869-4.99-5.058-4.58-14.766-5.264-1.914-3.418v-4.033l3.555-12.305 4.511-7.519 4.922-5.606 7.041-4.443 31.035-8.135c4.034-.888 10.801-2.392 11.621-2.392 1.231 0 11.622-1.709 12.784-1.914l11.211-1.436h11.347l7.998 2.324 9.912 5.674 6.358 6.563 3.691 6.767c.137 2.53.479 7.246.479 7.93 0 .957 1.504 13.535 1.709 14.902l.547 10.733-8.067-3.076-15.928-1.709-12.031-1.231-11.826.957-13.672 1.436-15.928 3.623-11.962 2.871-7.999.478-10.253-2.05 5.195 3.759 4.238 2.461 9.707 2.393 9.502.273h.068l8.477-.957 11.963-1.914 11.689-1.914 13.125-.957 9.092-.478 10.938.683 14.834 1.914 19.14 3.623 3.35 2.188 5.332 4.648 1.504 3.487-.342 2.597-2.871.205-5.606-2.597-10.322-4.102-8.135-2.461-7.109.752.137 1.367 6.836-.683 7.724 2.324 10.254 4.033 5.948 2.734 4.306-.273.615-4.102zM140.854 70.923l1.026-2.598 5.674-3.623 7.998-1.914 4.853-.478 2.735 1.025.752 1.504zm106.573 48.808-.137.684zl-14.971-1.914-11.074-.752-9.16.479-13.194.957-11.826 1.914-11.963 1.914-8.34.957-9.228-.205-9.434-2.324-3.965-2.324h-.068l4.17.82 8.272-.479 12.099-2.871 15.791-3.554 13.604-1.436 11.689-.957 11.895 1.162 15.722 1.641 11.211 4.306 13.125 4.786 1.504 1.025z"/><path fill="#FFF" d="M173.639 158.076c-.57-1.917.817-4.023 3.095-4.7s4.591.328 5.161 2.244-.816 4.023-3.095 4.701c-2.278.678-4.59-.328-5.161-2.245"/><circle cx="167.651" cy="158.149" r="1.777" fill="#FFF" vector-effect="non-scaling-stroke"/><circle cx="166.558" cy="152.612" r="1.777" fill="#FFF" vector-effect="non-scaling-stroke"/><circle cx="224.458" cy="160.542" r="1.641" fill="#FFF" vector-effect="non-scaling-stroke"/><circle cx="224.253" cy="154.185" r="1.777" fill="#FFF" vector-effect="non-scaling-stroke"/><circle cx="234.028" cy="157.808" r="3.213" fill="#FFF" vector-effect="non-scaling-stroke"/></g></svg>