<svg xmlns="http://www.w3.org/2000/svg" width="350pt" height="350pt" style="isolation:isolate" viewBox="0 0 350 350"><defs><clipPath id="a"><path d="M0 0h350v350H0z"/></clipPath></defs><g clip-path="url(#a)"><path d="M0 0h350v350H0z" style="fill:#f00401"/><path d="M250.29 180.851c-.129.685-2.143 2.743-4.158 4.243-5.915 4.329-16.502 8.359-27.261 10.287-6.13 1.115-12.259 1.286-14.102.386-1.2-.6-1.372-1.071-.943-2.615.9-3.214 3.815-6.729 8.358-10.03 2.315-1.671 11.702-7.372 16.074-9.772 7.201-3.944 13.03-6.301 16.974-6.859 1.243-.171 2.743-.214 3.215 0 .771.3 1.629 2.572 1.971 5.315.172 1.458.086 7.887-.128 9.045M149.303 195.038c-.257.515-1.543 1.072-3 1.286-1.458.215-5.915.086-8.444-.214-9.087-1.2-18.732-3.986-25.761-7.415-3.944-1.929-6.773-3.858-8.873-5.958l-1.2-1.243-.129-1.629c-.214-2.829-.171-7.287.172-8.873a11.6 11.6 0 0 1 1.328-3.772c.343-.429.343-.429 1.886-.429 1.886 0 3.472.3 6.044 1.115 5.272 1.629 13.116 5.572 22.675 11.316 7.887 4.715 10.844 7.029 13.116 10.201 1.543 1.972 2.572 4.758 2.186 5.615M209.998 254.705c0 .128-.514 2.186-1.157 4.629s-1.158 4.415-1.158 4.501c-.471.042-.9.085-1.371.042h-1.372l-1.886 4.458c-1.029 2.443-1.972 4.715-2.1 5.058l-.257.6-.9-1.457-.901-1.458v-11.873l-.342.086c-.729.171-5.916.857-8.187 1.072-9.388.943-18.818.728-28.162-.601-1.5-.214-2.786-.385-2.829-.342s0 2.786.086 6.172l.129 6.087-.729 1.114c-.386.6-.772 1.114-.772 1.157-.128.129-.557-.557-1.543-2.529-1.071-2.057-1.843-4.243-2.4-6.515l-.3-1.243-1.329.086-1.329.128-.343-1.586a46 46 0 0 1-.471-2.914l-.129-1.372-1.114-.986c-.643-.557-1.286-1.114-1.415-1.2-.214-.171-.3-.471-.3-.729v-.514l5.358.043 5.358.043.172.557.171.557 1.843.086c1.029.043 4.287.128 7.201.214l5.358.129 1.372-2.143 1.414-2.144h1.801l-.043-4.457-.043-4.458-2.358-1.029c-7.586-3.343-12.044-7.158-13.716-11.787-.343-.943-.343-1.286-.429-5.573-.042-4.243-.042-4.629.258-5.572.6-2.143 2.271-3.815 4.415-4.372.728-.214 2.657-.214 12.773-.214l11.916.043 1.329.643c1.586.771 2.314 1.328 3.215 2.528 1.028 1.372 1.328 2.444 1.328 5.058 0 3.729-.257 6.944-.643 8.23a17.7 17.7 0 0 1-2.486 4.929c-2.143 2.744-6.043 5.487-9.601 6.73l-1.029.386.043 4.5.043 4.501.943.086.943.086 1.286 1.928 1.243 1.929h5.743c3.172 0 5.959.043 6.216.086.428.086.514.043.943-.686l.514-.771h4.929c3.687-.172 4.801-.086 4.801.043"/><path d="M187.366 267.006c-.814.472-1.372.686-1.5.6-.129-.042-.729-.557-1.372-1.028l-1.157-.943-1.2 1.286c-2.615 2.829-2.701 2.957-3.472 3-1.2.129-1.458-.086-2.915-2.272-.771-1.114-1.372-2.057-1.372-2.057s-.557-.086-1.2-.129l-1.2-.128-.557 1.157-.557 1.157-.986-.3a21 21 0 0 1-2.272-.9l-1.286-.643v-2.443l11.402.043 11.402.043.042 1.157c.043 1.372.086 1.329-1.8 2.4"/><path fill="#FFF" d="M294.525 214.713c-.043-.172-.043-.472-.086-.943-10.287-1.115-39.649-1.8-66.91 20.703 0 0-8.787-40.292-49.936-40.292s-56.408 40.292-56.408 40.292c-23.061-24.818-53.923-23.018-65.067-21.389 0 .257-.043.557-.043.814-.343 6.216-.171 9.173.857 13.074 3.215 12.216 13.117 25.675 28.633 38.877 25.418 21.603 59.881 37.206 85.984 39.006 27.219 1.843 67.382-14.059 94.129-37.291a134 134 0 0 0 11.83-11.874c2.658-3.086 6.601-8.401 6.301-8.401-.086 0 0-.086.172-.171.128-.086.257-.215.171-.3-.043-.043.043-.172.171-.215.129-.043.215-.128.172-.214s0-.171.171-.214c.129-.043.172-.172.129-.257s0-.172.086-.172.171-.129.171-.214c0-.086.086-.215.172-.215s.171-.085.171-.171c.129-.343.343-.686.557-.986.643-.986 3.215-5.572 3.558-6.344 2.443-5.529 3.986-10.458 4.715-15.388.257-2.357.472-6.686.3-7.715m-107.159 52.293c-.814.472-1.372.686-1.5.6-.129-.042-.729-.557-1.372-1.028l-1.157-.943-1.2 1.286c-2.615 2.829-2.701 2.957-3.472 3-1.2.129-1.458-.086-2.915-2.272-.771-1.114-1.372-2.057-1.372-2.057s-.557-.086-1.2-.129l-1.2-.128-.557 1.157-.557 1.157-.986-.3a21 21 0 0 1-2.272-.9l-1.286-.643v-2.443l11.402.043 11.402.043.042 1.157c.043 1.372.086 1.329-1.8 2.4m21.432-7.715c-.643 2.443-1.157 4.415-1.157 4.501-.472.043-.901.085-1.372.043h-1.372l-1.843 4.5c-1.029 2.443-1.972 4.715-2.1 5.058l-.257.6-.9-1.457-.901-1.458v-11.873l-.342.086c-.729.171-5.916.857-8.187 1.072-9.388.943-18.818.728-28.162-.601-1.5-.214-2.786-.385-2.829-.342s0 2.786.086 6.172l.129 6.087-.729 1.114c-.386.6-.772 1.114-.772 1.157-.128.129-.557-.557-1.543-2.529-1.071-2.057-1.843-4.243-2.4-6.515l-.3-1.243-1.329.086-1.329.128-.343-1.586a46 46 0 0 1-.471-2.914l-.129-1.372-1.114-.986c-.643-.557-1.286-1.114-1.415-1.2-.214-.171-.3-.471-.3-.729v-.514l5.358.043 5.358.043.172.557.171.557 1.843.086c1.029.043 4.287.128 7.201.214l5.358.129 1.372-2.143 1.414-2.144h1.801l-.043-4.457-.043-4.458-2.358-1.029c-7.586-3.343-12.044-7.158-13.716-11.787-.343-.943-.343-1.286-.429-5.573-.042-4.243-.042-4.629.258-5.572.6-2.143 2.271-3.815 4.415-4.372.728-.214 2.657-.214 12.773-.214l11.916.043 1.329.643c1.586.771 2.314 1.328 3.215 2.528 1.028 1.372 1.328 2.444 1.328 5.058 0 3.729-.257 6.944-.643 8.23a17.7 17.7 0 0 1-2.486 4.929c-2.143 2.744-6.043 5.487-9.601 6.73l-1.029.386.043 4.5.043 4.501.943.086.943.086 1.286 1.928 1.243 1.929h5.743c3.172 0 5.959.043 6.216.086.428.086.514.043.943-.686l.514-.771h4.929c3.815 0 4.93.043 4.93.171-.129-.043-.686 2.058-1.329 4.458"/><path fill="none" d="M56.032 213.084c-2.7.386-4.286.814-4.286.814M298.254 214.327s-1.371-.3-3.815-.557"/><path fill="#FFA409" d="M294.182 210.341c-.086-1.929-.257-4.629-.386-5.958-1.843-19.46-6.815-35.363-16.245-52.208-.386-.643-.729-1.286-.943-1.8-.086-.129-.129-.258-.171-.343 1.328-3.987 6.772-20.66 11.101-39.735 5.873-25.889 9.602-56.151-1.8-65.238 0 0-19.717-1.457-46.121 24.432a177 177 0 0 0-19.546 23.189l-1.843-.6a133.8 133.8 0 0 0-32.748-6.344c-3.343-.257-15.817-.257-19.889 0-12.301.815-21.731 2.658-32.447 6.387-.429.172-.815.3-1.2.429-6.044-8.23-12.774-15.946-20.189-23.018-27.476-26.018-47.922-24.518-47.922-24.518-12.087 9.387-7.972 41.02-1.714 67.767 4.115 17.703 9.173 33.262 11.059 38.878-.129.3-.3.643-.472.943-9.987 20.231-15.388 39.734-16.674 60.48 11.188-1.629 42.006-3.472 65.11 21.389 0 0 15.259-40.292 56.408-40.292s49.936 40.292 49.936 40.292c27.262-22.503 56.623-21.775 66.91-20.703-.042-.857-.128-2.143-.214-3.429m-212.903-74.84S65.248 95.424 69.363 72.534c.686-3.857 1.971-7.244 3.986-9.815 0 0 18.174 1.8 47.493 34.376 0 0-5.572 2.701-13.031 8.444 0 0-.043.043-.085.043-8.102 6.215-18.475 16.074-26.447 29.919m68.024 59.537c-.257.515-1.543 1.072-3 1.286-1.458.215-5.915.086-8.444-.214-9.087-1.2-18.732-3.986-25.761-7.415-3.944-1.929-6.773-3.858-8.873-5.958l-1.2-1.243-.129-1.629c-.214-2.829-.171-7.287.172-8.873a11.6 11.6 0 0 1 1.328-3.772c.343-.429.343-.429 1.886-.429 1.886 0 3.472.3 6.044 1.115 5.272 1.629 13.116 5.572 22.675 11.316 7.887 4.715 10.844 7.029 13.116 10.201 1.543 1.972 2.572 4.758 2.186 5.615m100.987-14.187c-.129.685-2.143 2.743-4.158 4.243-5.915 4.329-16.502 8.359-27.261 10.287-6.13 1.115-12.259 1.286-14.102.386-1.2-.6-1.372-1.071-.943-2.615.9-3.214 3.815-6.729 8.358-10.03 2.315-1.671 11.702-7.372 16.074-9.772 7.201-3.944 13.03-6.301 16.974-6.859 1.243-.171 2.743-.214 3.215 0 .771.3 1.629 2.572 1.971 5.315.172 1.458.086 7.887-.128 9.045m-7.116-75.312-.085-.042c-7.201-5.744-12.602-8.445-12.602-8.445 28.333-32.576 45.864-34.376 45.864-34.376 1.929 2.614 3.172 5.958 3.858 9.816 3.986 22.889-11.488 63.009-11.488 63.009a102.1 102.1 0 0 0-25.547-29.962"/><path fill="none" d="M220.028 92.68c-.086.086-.128.215-.214.3M276.394 149.989c-.215.6-.3.9-.3.9"/><path fill="#FF9300" d="M280.251 72.492c-3.343-.429-19.16-.515-37.077 33.047l-.085-.042c-7.201-5.744-12.602-8.445-12.602-8.445 28.333-32.576 45.864-34.376 45.864-34.376 1.972 2.614 3.215 5.958 3.9 9.816"/><path fill="#FF8300" d="M268.764 135.501c-6.515-11.573-15.174-21.732-25.59-29.962 17.917-33.562 33.691-33.476 37.077-33.047 3.987 22.932-11.487 63.009-11.487 63.009M280.894 72.62l-.643-.128z"/><path fill="none" d="M133.229 94.352c-.428-.6-.9-1.2-1.328-1.8M73.178 151.661c.471 1.457.771 2.228.771 2.228"/><path fill="#FF9300" d="M120.842 97.052s-5.572 2.701-13.031 8.445c0 0-.043.042-.085.042-18.56-33.605-34.891-33.476-38.406-33.047.686-3.858 1.972-7.244 3.986-9.816.043 0 18.217 1.8 47.536 34.376"/><path fill="#FF8300" d="M107.768 105.539c-8.144 6.258-18.517 16.074-26.489 29.962 0 0-16.031-40.077-11.916-63.009 3.472-.429 19.846-.515 38.405 33.047M69.363 72.492c-.215.042-.472.085-.686.128z"/><path fill="#FFF" d="M225.386 157.747s-13.716.857-12.002-9.858c1.715-10.716 12.431-12.002 15.431-11.574s15.002 4.715 12.859 13.717c-2.143 9.001-5.143 7.287-6.858 7.715-1.714.429-9.43 0-9.43 0M124.228 157.747s-13.716.857-12.002-9.858c1.715-10.716 12.431-12.002 15.431-11.574s15.002 4.715 12.859 13.717c-2.143 9.001-5.143 7.287-6.858 7.715-1.714.429-9.43 0-9.43 0"/></g></svg>