<svg xmlns="http://www.w3.org/2000/svg" width="350pt" height="350pt" style="isolation:isolate" viewBox="0 0 350 350"><defs><clipPath id="a"><path d="M0 0h350v350H0z"/></clipPath></defs><g clip-path="url(#a)"><path d="M0 0h350v350H0z" style="fill:#cbffa1"/><clipPath id="b"><path fill="#FFF" d="M45 82.24h260v185.52H45z"/></clipPath><g fill="#25311C" clip-path="url(#b)"><path d="M175.031 196.098v-10.291c16.544 0 32.583-1.344 47.668-3.992 14.484-2.543 27.462-6.171 38.571-10.782 10.693-4.438 19.373-9.757 25.104-15.38 5.482-5.381 8.262-10.926 8.262-16.484 0-5.557-2.78-11.103-8.262-16.483-5.73-5.623-14.409-10.94-25.104-15.381-11.109-4.61-24.087-8.239-38.571-10.781-15.086-2.649-31.124-3.992-47.668-3.992-7.583 0-15.173.288-22.56.859a270 270 0 0 0-18.023 1.995l-1.483-10.184a280 280 0 0 1 18.714-2.073c7.651-.59 15.508-.89 23.353-.89 33.984 0 66.012 5.526 90.186 15.56 25.609 10.631 39.713 25.322 39.713 41.369s-14.104 30.739-39.713 41.369c-24.174 10.034-56.202 15.56-90.186 15.56z"/><path d="M174.896 267.76c-33.983 0-66.011-5.526-90.185-15.561C59.104 241.569 45 226.878 45 210.83s14.104-30.739 39.713-41.37c24.173-10.033 56.201-15.56 90.185-15.56v10.292c-16.543 0-32.581 1.343-47.669 3.992-14.484 2.544-27.461 6.171-38.57 10.783-10.693 4.438-19.374 9.756-25.104 15.38-5.482 5.38-8.262 10.925-8.262 16.483s2.78 11.104 8.262 16.484c5.729 5.623 14.409 10.94 25.104 15.38 11.109 4.611 24.086 8.238 38.57 10.782 15.088 2.648 31.126 3.992 47.669 3.992 7.582 0 15.172-.289 22.559-.859a271 271 0 0 0 18.024-1.995l1.483 10.184a279 279 0 0 1-18.715 2.072c-7.649.591-15.506.891-23.353.891z"/><path d="M175.069 231.899c-33.991 0-66.029-5.521-90.206-15.548-25.618-10.621-39.724-25.303-39.724-41.341 0-16.037 14.108-30.721 39.724-41.342 24.179-10.026 56.215-15.548 90.206-15.548s66.029 5.522 90.207 15.548C290.892 144.289 305 158.973 305 175.01c0 16.038-14.108 30.72-39.724 41.341-24.18 10.027-56.215 15.548-90.207 15.548m0-103.487c-16.549 0-32.591 1.342-47.683 3.99-14.488 2.541-27.47 6.166-38.581 10.775-10.696 4.435-19.38 9.748-25.112 15.368-5.483 5.374-8.263 10.914-8.263 16.466s2.78 11.093 8.263 16.467c5.732 5.618 14.414 10.933 25.112 15.368 11.111 4.609 24.093 8.234 38.581 10.775 15.092 2.648 31.135 3.99 47.683 3.99s32.591-1.342 47.683-3.99c14.488-2.541 27.469-6.166 38.582-10.775 10.696-4.435 19.38-9.75 25.111-15.368 5.483-5.374 8.263-10.915 8.263-16.467s-2.78-11.092-8.263-16.466c-5.731-5.62-14.414-10.933-25.111-15.368-11.113-4.609-24.094-8.234-38.582-10.775-15.092-2.648-31.135-3.99-47.683-3.99"/></g></g></svg>