<?xml version="1.0" encoding="UTF-8"?>
<svg xmlns="http://www.w3.org/2000/svg" xmlns:xlink="http://www.w3.org/1999/xlink" width="48px" height="48px" viewBox="0 0 48 48" version="1.1">
<g id="surface1">
<path style=" stroke:none;fill-rule:nonzero;fill:rgb(57.647061%,56.862748%,96.862745%);fill-opacity:1;" d="M 48 24.011719 C 48 10.734375 37.265625 0 24.011719 0 C 10.757812 0 0 10.734375 0 24.011719 C 0 37.292969 10.734375 48.023438 24.011719 48.023438 C 37.292969 48.023438 48 37.265625 48 24.011719 Z M 48 24.011719 "/>
<path style=" stroke:none;fill-rule:nonzero;fill:rgb(100%,100%,100%);fill-opacity:1;" d="M 19.527344 25.171875 C 21.59375 24.84375 22.980469 22.902344 22.652344 20.835938 C 22.324219 18.773438 20.382812 17.386719 18.316406 17.714844 C 16.253906 18.039062 14.867188 19.980469 15.195312 22.046875 C 15.546875 24.113281 17.488281 25.5 19.527344 25.171875 Z M 29.40625 25.171875 C 31.472656 24.84375 32.855469 22.902344 32.527344 20.835938 C 32.203125 18.773438 30.261719 17.386719 28.195312 17.714844 C 26.128906 18.039062 24.742188 19.980469 25.070312 22.046875 C 25.398438 24.113281 27.339844 25.5 29.40625 25.171875 Z M 29.40625 25.171875 "/>
<path style=" stroke:none;fill-rule:nonzero;fill:rgb(100%,100%,100%);fill-opacity:1;" d="M 23.863281 5.871094 C 13.605469 5.871094 5.292969 14.335938 5.292969 24.769531 L 10.027344 24.769531 C 10.027344 16.933594 16.175781 10.609375 23.835938 10.609375 C 31.519531 10.609375 37.644531 16.957031 37.644531 24.769531 L 42.382812 24.769531 C 42.429688 14.335938 34.117188 5.871094 23.863281 5.871094 Z M 23.863281 5.871094 "/>
</g>
</svg>
