<svg xmlns="http://www.w3.org/2000/svg" width="350pt" height="350pt" style="isolation:isolate" viewBox="0 0 350 350"><defs><clipPath id="a"><path d="M0 0h350v350H0z"/></clipPath></defs><g clip-path="url(#a)"><linearGradient id="b" x1=".158" x2=".796" y1=".842" y2=".203" gradientTransform="matrix(279.852 0 0 279.855 35.074 35.145)" gradientUnits="userSpaceOnUse"><stop offset="0%" style="stop-color:#e6007a"/><stop offset="21%" style="stop-color:#703ac2"/><stop offset="46%" style="stop-color:#0070eb"/><stop offset="77%" style="stop-color:#0297fb"/><stop offset="100%" style="stop-color:#0ae2ff"/></linearGradient><path fill="url(#b)" d="M314.554 165.728C309.418 88.688 242.65 30.324 165.143 35.46c-38.287 2.334-71.905 20.544-95.25 47.158l-.467.467c-23.346 27.081-36.419 63.033-34.085 101.319.467 3.736.467 7.471 1.401 10.739v.467l1.401 7.004c.467 2.334.934 4.202 1.401 6.537 15.875 64.433 76.106 110.191 144.742 105.522 77.507-5.136 135.871-71.905 130.268-148.945m-30.349 1.868c.467 9.338 0 18.676-1.868 27.547-10.272-24.746-30.349-42.955-48.092-52.761 3.736-42.022-10.738-59.764-27.08-62.566-12.607-2.334-24.747 6.07-27.081 18.677v1.401c-1.868 12.606 7.47 24.746 20.077 26.147h3.268v4.669c-14.941-3.736-28.948-4.669-41.555-3.269-4.669.467-9.338.934-14.474 1.868 1.401-14.007 7.004-30.349 17.276-42.022 9.805-11.206 24.746-17.743 41.088-15.875 3.268.467 6.537.934 9.338 1.868h.467c37.82 15.875 65.834 51.36 68.636 94.316m-97.584 21.478c-3.736 5.136-7.471 9.805-12.14 14.007-6.537-7.004-12.607-14.941-16.809-23.813 0-.467-.467-.933-.467-1.4-2.801-5.603-4.669-11.673-6.07-17.276 9.805-2.335 19.611-3.268 28.949-2.801h1.401c6.069.466 12.139 1.4 18.209 3.268-3.268 9.805-7.47 19.61-13.073 28.015M138.529 71.879c-16.342 21.478-21.945 47.625-21.945 67.702-38.287 17.743-46.224 39.22-40.621 54.629 0 .466.467.933.467 1.4 5.136 12.14 18.676 17.743 30.816 12.607 12.139-5.136 17.742-18.677 12.606-30.816l-1.4-2.802c1.4-.934 2.334-1.4 3.735-2.334 4.202 14.941 10.739 27.081 17.743 37.82 2.801 3.735 5.602 7.937 8.871 11.205-13.074 5.603-29.416 8.872-44.824 6.07-14.941-2.801-27.547-12.606-34.551-27.548-1.401-2.801-2.335-6.069-2.801-8.871-.467-2.801-.467-5.603-.934-7.937-3.269-50.894 27.547-95.25 72.838-111.125m43.889 212.444c-29.882 1.868-57.43-7.937-78.908-26.147 26.614 3.736 52.294-4.669 69.57-14.941 34.552 24.28 56.963 20.544 67.702 7.938 8.405-9.805 7.471-24.747-2.334-33.151-.467-.467-.934-.467-.934-.934-10.272-7.937-24.746-6.07-32.684 4.202-.467.934-1.401 1.868-1.868 2.802-1.4-.467-2.801-1.401-4.202-2.335 9.805-10.272 17.743-21.478 23.813-34.551 2.334-4.202 4.202-8.871 5.603-13.074 11.672 8.405 22.878 21.011 27.547 35.953 4.669 14.474 2.802 30.349-6.536 43.422-1.868 2.335-4.203 5.136-6.537 7.004-17.276 14.474-38.287 22.412-60.232 23.812"/><g opacity=".9"><radialGradient id="c" cx=".57" cy=".471" r="1" fx=".57" fy=".471" gradientTransform="matrix(47.888 0 0 142.758 187.554 79.466)" gradientUnits="userSpaceOnUse"><stop offset="0%" style="stop-color:#fff"/><stop offset="100%" stop-opacity="0" style="stop-color:#fff"/></radialGradient><path fill="url(#c)" d="M207.632 79.816c-2.802-.467-5.136-.467-7.938 0 13.541 7.471 23.346 27.548 18.21 67.702-1.868 13.074-5.603 25.681-11.206 37.353-5.136 10.739-11.673 20.544-19.144 29.883 3.736 2.801 7.471 5.136 11.673 7.47 9.805-10.272 17.743-21.478 23.813-34.551 5.603-11.673 9.805-24.28 11.205-37.353 5.603-47.625-9.338-67.235-26.613-70.504"/></g><path fill="#FFF" d="M217.904 147.518c5.136-40.154-4.669-60.231-18.21-67.702-.467 0-.934 0-1.401.467 13.074 7.471 22.412 28.015 17.276 67.235-1.868 13.074-5.603 25.681-11.206 37.353-4.669 10.272-11.206 20.077-18.676 28.949.467.467.934.467 1.4.934 7.938-8.872 14.475-19.144 19.144-29.883 6.07-11.672 9.805-24.279 11.673-37.353" opacity=".8"/><g opacity=".5"><radialGradient id="d" cx=".557" cy=".417" r="1" fx=".557" fy=".417" gradientTransform="matrix(84.511 0 0 23.315 89.036 235.765)" gradientUnits="userSpaceOnUse"><stop offset="0%" style="stop-color:#fff"/><stop offset="100%" stop-opacity="0" style="stop-color:#fff"/></radialGradient><path fill="url(#d)" d="M167.01 238.566c-1.4-.934-2.334-1.868-3.735-2.801-19.61 8.404-47.158 13.54-74.239 7.003 4.202 5.603 9.338 10.739 14.941 15.408 26.614 3.736 52.294-4.669 69.57-14.941-2.334-1.867-4.669-3.268-6.537-4.669"/></g><g opacity=".6"><linearGradient id="e" x1=".038" x2=".428" y1=".553" y2=".547" gradientTransform="matrix(76.573 0 0 11.523 86.702 233.897)" gradientUnits="userSpaceOnUse"><stop offset="0%" stop-opacity="0" style="stop-color:#fff"/><stop offset="100%" style="stop-color:#fff"/></linearGradient><path fill="url(#e)" d="M163.275 235.298c-.467-.467-1.401-.934-1.868-1.401-20.077 7.937-47.624 12.607-74.705 6.07.467.934 1.4 1.867 1.867 2.801 27.548 6.07 54.629.934 74.706-7.47"/></g><g opacity=".9"><radialGradient id="f" cx=".432" cy=".373" r="1" fx=".432" fy=".373" gradientTransform="matrix(129.397 0 0 74.313 74.499 126.9)" gradientUnits="userSpaceOnUse"><stop offset="0%" style="stop-color:#fff"/><stop offset="100%" stop-opacity="0" style="stop-color:#fff"/></radialGradient><path fill="url(#f)" d="M75.963 194.21c0 .466.467.933.467 1.4.933 2.335 1.867 4.202 3.268 5.603-.467-15.408 12.14-34.084 49.493-49.492 12.139-5.136 25.213-7.938 38.286-8.872 11.673-.933 23.813-.467 35.485 1.868.467-5.136.934-9.805.934-14.007-13.54-3.269-27.547-4.669-41.555-3.269-13.073.934-26.147 3.736-38.286 8.872-44.357 18.676-53.695 41.555-48.092 57.897"/></g><path fill="#FFF" d="M129.657 151.721c-37.352 15.408-49.959 34.084-49.492 49.492.467.467.467.934.934 1.401 0-14.941 12.606-33.618 49.492-49.026 12.14-5.136 25.213-7.937 38.287-8.871 11.206-.934 22.879-.467 34.084 1.868v-1.401c-11.672-2.335-23.345-2.802-35.485-1.868-12.606.467-25.68 3.269-37.82 8.405" opacity=".8"/><g opacity=".4"><radialGradient id="g" cx=".455" cy=".424" r="1" fx=".455" fy=".424" gradientTransform="matrix(49.493 0 0 73.305 232.845 142.382)" gradientUnits="userSpaceOnUse"><stop offset="0%" style="stop-color:#fff"/><stop offset="100%" stop-opacity="0" style="stop-color:#fff"/></radialGradient><path fill="url(#g)" d="M233.779 150.32c0 1.401-.467 3.268-.934 4.669 16.809 13.074 35.018 34.085 43.422 60.698 2.802-6.536 4.67-13.54 6.07-20.544-10.272-24.746-30.349-42.489-48.092-52.761 0 2.802 0 5.136-.466 7.938"/></g><g opacity=".5"><linearGradient id="h" x1=".949" x2=".677" y1=".959" y2=".502" gradientTransform="matrix(43.89 0 0 63.967 232.378 154.989)" gradientUnits="userSpaceOnUse"><stop offset="0%" stop-opacity="0" style="stop-color:#fff"/><stop offset="100%" style="stop-color:#fff"/></linearGradient><path fill="url(#h)" d="M232.845 154.989c0 .934-.467 1.401-.467 2.335 16.809 13.073 34.551 34.551 42.489 61.632.467-.934.934-1.868 1.4-3.269-7.937-26.613-26.147-47.624-43.422-60.698"/></g><g opacity=".9"><radialGradient id="i" cx=".446" cy=".585" r="1" fx=".446" fy=".585" gradientTransform="matrix(122.798 0 0 95.058 122.187 165.728)" gradientUnits="userSpaceOnUse"><stop offset="0%" style="stop-color:#fff"/><stop offset="100%" stop-opacity="0" style="stop-color:#fff"/></radialGradient><path fill="url(#i)" d="M240.782 251.173q2.802-2.802 4.202-7.004c-13.073 7.937-35.485 6.07-67.702-18.21-10.272-7.937-19.61-17.742-26.614-28.481-7.003-9.805-12.139-20.544-15.875-31.75-4.669 1.868-8.871 4.202-12.606 6.07q5.603 20.31 18.209 37.82c7.004 10.739 16.342 20.544 26.614 28.481 38.287 29.416 62.566 26.147 73.772 13.074"/></g><path fill="#FFF" d="M177.282 225.959c32.217 24.28 54.629 26.147 67.702 18.21 0-.467.467-.934.467-1.401-13.073 7.471-35.485 5.603-67.235-18.676-10.272-7.938-19.61-17.743-26.614-28.482-6.536-9.338-11.672-19.61-15.408-30.349-.467 0-.934.467-1.401.467 3.736 11.206 9.339 21.945 15.875 31.75 7.004 10.739 15.875 20.544 26.614 28.481" opacity=".8"/><g opacity=".3"><radialGradient id="j" cx=".394" cy=".549" r="1" fx=".394" fy=".549" gradientTransform="matrix(42.516 0 0 72.838 116.557 66.276)" gradientUnits="userSpaceOnUse"><stop offset="0%" style="stop-color:#fff"/><stop offset="100%" stop-opacity="0" style="stop-color:#fff"/></radialGradient><path fill="url(#j)" d="M124.055 136.313c1.4-.467 2.801-.934 4.202-1.868 2.801-21.011 12.139-47.625 30.816-68.169-7.004.934-14.007 2.801-21.011 5.136-16.342 21.011-21.945 47.625-21.478 67.702 2.801-.467 5.136-1.868 7.471-2.801"/></g><g opacity=".4"><linearGradient id="k" x1=".936" x2=".659" y1=".033" y2=".529" gradientTransform="matrix(34.551 0 0 68.636 128.724 66.276)" gradientUnits="userSpaceOnUse"><stop offset="0%" stop-opacity="0" style="stop-color:#fff"/><stop offset="100%" style="stop-color:#fff"/></linearGradient><path fill="url(#k)" d="M128.724 134.912c.933-.467 1.4-.467 2.334-.934 3.269-21.478 12.607-47.625 32.217-67.702-.934 0-2.335.467-3.268.467-19.611 20.544-28.949 46.691-31.283 68.169"/></g><g opacity=".4"><linearGradient id="l" x1=".68" x2=".364" y1=".311" y2=".403" gradientTransform="matrix(144.275 0 0 65.36 69.426 35)" gradientUnits="userSpaceOnUse"><stop offset="0%" style="stop-color:#231f20"/><stop offset="100%" style="stop-color:#fff"/></linearGradient><path fill="url(#l)" d="M165.61 35.46c-38.754 2.334-72.372 20.544-95.717 47.158l-.467.467c4.669 4.669 19.61 13.54 25.68 17.275 12.14-13.073 27.081-22.878 43.89-28.948 1.4-1.401 2.334-3.268 3.735-4.669C158.606 49 180.084 39.662 205.297 39.662c2.801 0 8.404.467 8.404.467-15.875-4.202-32.216-6.07-48.091-4.669"/></g><g opacity=".4"><linearGradient id="m" x1=".293" x2=".555" y1=".191" y2=".464" gradientTransform="matrix(145.75 0 0 105.849 38.61 209.151)" gradientUnits="userSpaceOnUse"><stop offset="0%" style="stop-color:#231f20"/><stop offset="100%" style="stop-color:#fff"/></linearGradient><path fill="url(#m)" d="M182.418 284.323c-29.882 1.868-57.43-7.937-78.908-26.147-1.867-.467-3.735-.467-6.069-.933-23.346-4.67-42.489-18.677-55.096-40.622-1.401-2.334-2.801-4.669-3.735-7.47 16.809 64.433 77.04 110.191 145.676 105.522.467-7.004-1.401-23.346-1.868-30.35"/></g><g opacity=".4"><linearGradient id="n" x1=".33" x2=".48" y1=".526" y2=".069" gradientTransform="matrix(42.799 0 0 109.798 272.065 165.654)" gradientUnits="userSpaceOnUse"><stop offset="0%" style="stop-color:#231f20"/><stop offset="100%" style="stop-color:#fff"/></linearGradient><path fill="url(#n)" d="M314.554 165.728c-4.202-.467-25.213 1.401-30.349 1.868.467 9.338 0 18.676-1.868 27.547.934 1.868 1.401 3.736 1.868 5.603 7.471 22.412 5.136 46.224-7.471 67.702-1.4 2.335-2.801 4.669-4.669 7.004 28.949-27.548 45.291-67.235 42.489-109.724"/></g><g opacity=".5"><linearGradient id="o" x1=".274" x2=".875" y1=".503" y2=".641" gradientTransform="matrix(101.787 0 0 31.017 160.474 62.806)" gradientUnits="userSpaceOnUse"><stop offset="0%" style="stop-color:#231f20"/><stop offset="100%" style="stop-color:#fff"/></linearGradient><path fill="url(#o)" d="M206.231 71.412c3.268.467 6.537.934 9.338 1.868h.467c12.14 5.136 22.879 11.672 32.684 20.544 4.669-5.136 13.54-11.206 13.54-11.206s-13.54-14.007-34.084-18.21c-14.475-2.801-47.158-6.069-67.702 29.416 1.4-2.335 3.268-4.669 5.136-6.537 9.805-11.206 24.746-17.743 40.621-15.875"/></g><g opacity=".5"><linearGradient id="p" x1=".824" x2=".183" y1=".345" y2="1.035" gradientTransform="matrix(53.173 0 0 93.849 208.098 202.614)" gradientUnits="userSpaceOnUse"><stop offset="0%" style="stop-color:#231f20"/><stop offset="100%" style="stop-color:#fff"/></linearGradient><path fill="url(#p)" d="M249.187 253.974c-1.868 2.335-4.203 5.136-6.537 7.004l-.467.467c-10.272 7.937-21.945 14.007-34.085 17.742 2.335 6.537 2.802 17.276 2.802 17.276s18.676-4.669 32.684-20.544c9.805-11.206 28.948-37.82 8.871-73.305v.467c1.401 2.334 2.335 5.136 3.268 7.47 4.669 14.008 2.802 30.35-6.536 43.423"/></g><g opacity=".5"><linearGradient id="q" x1=".555" x2=".326" y1=".796" y2=".05" gradientTransform="matrix(62.616 0 0 83.11 49.765 145.651)" gradientUnits="userSpaceOnUse"><stop offset="0%" style="stop-color:#231f20"/><stop offset="100%" style="stop-color:#fff"/></linearGradient><path fill="url(#q)" d="M69.426 199.812c-1.401-2.801-2.335-6.069-2.801-8.871v-.467c-1.868-13.073-1.401-26.147 1.4-38.753-7.003-1.401-16.342-6.07-16.342-6.07s-5.136 18.676 1.401 38.753c4.669 14.008 18.677 43.89 59.298 44.357h-.467c-2.802 0-5.603-.467-8.405-.934-14.474-3.735-27.547-13.073-34.084-28.015"/></g><g opacity=".6"><linearGradient id="r" x1=".909" x2=".231" y1=".355" y2="1.034" gradientTransform="matrix(23.594 0 0 38.84 180.303 87.2)" gradientUnits="userSpaceOnUse"><stop offset="0%" style="stop-color:#231f20"/><stop offset="100%" style="stop-color:#fff"/></linearGradient><path fill="url(#r)" d="M200.628 126.041h3.268s-.934-14.475-2.334-21.945c-1.868-7.471-4.669-12.607-7.471-15.408-1.867-1.868-8.404-4.669-13.54 10.739-1.868 13.073 7.003 25.213 20.077 26.614"/></g><g opacity=".5"><linearGradient id="s" x1=".2" x2="1.061" y1=".414" y2=".646" gradientTransform="matrix(30.478 0 0 34.469 91.286 174.599)" gradientUnits="userSpaceOnUse"><stop offset="0%" style="stop-color:#231f20"/><stop offset="100%" style="stop-color:#fff"/></linearGradient><path fill="url(#s)" d="m119.852 177.401-1.4-2.802s-12.14 7.938-17.743 13.074-8.404 10.272-9.338 14.007c-.467 2.802.467 9.805 16.342 6.537 11.672-5.136 17.275-18.677 12.139-30.816"/></g><g opacity=".6"><linearGradient id="t" x1=".561" x2=".389" y1=".996" y2=".356" gradientTransform="matrix(41.333 0 0 22.974 202.496 212.44)" gradientUnits="userSpaceOnUse"><stop offset="0%" style="stop-color:#231f20"/><stop offset="100%" style="stop-color:#fff"/></linearGradient><path fill="url(#t)" d="M204.363 221.757c-.467.934-1.401 1.868-1.867 2.802 0 0 13.073 6.537 20.544 8.871 7.47 2.335 13.073 2.335 16.808 1.401 2.802-.934 8.405-5.136-2.334-17.276-10.272-8.404-25.213-6.07-33.151 4.202"/></g><g opacity=".3"><linearGradient id="u" x1=".205" x2=".405" y1=".829" y2=".553" gradientTransform="matrix(53.228 0 0 61.165 174.481 161.059)" gradientUnits="userSpaceOnUse"><stop offset="0%" style="stop-color:#231f20"/><stop offset="100%" style="stop-color:#fff"/></linearGradient><path fill="url(#u)" d="M199.694 161.059c-2.801 9.805-7.004 18.676-12.14 26.614-.467.467-.467.934-.933 1.401-3.736 5.136-7.471 9.805-12.14 14.007 3.268 3.268 6.537 6.537 10.272 9.805 4.202 3.268 8.871 6.537 13.54 9.338 9.805-10.272 17.743-21.478 23.813-34.551 2.334-4.202 3.735-8.872 5.603-13.074-5.136-3.735-9.805-6.536-14.474-8.404-4.203-1.868-8.872-3.735-13.541-5.136"/></g><g opacity=".3"><linearGradient id="v" x1=".741" x2=".524" y1=".204" y2=".308" gradientTransform="matrix(106.923 0 0 68.139 66.158 190.941)" gradientUnits="userSpaceOnUse"><stop offset="0%" style="stop-color:#231f20"/><stop offset="100%" style="stop-color:#fff"/></linearGradient><path fill="url(#v)" d="M103.51 258.176c26.614 3.736 52.294-4.669 69.57-14.941-2.334-1.401-4.202-2.801-6.537-4.669-6.536-5.136-12.606-10.739-18.209-17.276-13.074 5.603-29.415 8.872-44.824 6.07-14.941-2.801-27.547-12.606-34.551-27.548-1.401-2.801-2.334-6.069-2.801-8.871 4.202 26.614 17.742 50.427 37.352 67.235"/></g><g opacity=".3"><linearGradient id="w" x1=".277" x2=".4" y1=".093" y2=".349" gradientTransform="matrix(51.827 0 0 60.231 122.654 160.592)" gradientUnits="userSpaceOnUse"><stop offset="0%" style="stop-color:#231f20"/><stop offset="100%" style="stop-color:#fff"/></linearGradient><path fill="url(#w)" d="M174.481 203.081c-6.537-7.004-12.607-14.941-16.809-23.813 0-.467-.467-.933-.467-1.4-2.801-5.603-4.669-11.673-6.07-17.276-4.669.934-9.338 2.335-13.54 4.202-5.136 1.868-10.272 4.669-14.941 7.004 4.202 14.941 10.739 27.081 17.742 37.82 2.802 3.735 5.603 7.937 8.872 11.205 5.603-2.334 10.739-5.136 14.474-8.404 3.735-2.334 7.471-5.603 10.739-9.338"/></g><g opacity=".3"><linearGradient id="x" x1=".539" x2=".489" y1=".738" y2=".565" gradientTransform="matrix(99.012 0 0 74.415 117.024 65.166)" gradientUnits="userSpaceOnUse"><stop offset="0%" style="stop-color:#231f20"/><stop offset="100%" style="stop-color:#fff"/></linearGradient><path fill="url(#x)" d="M138.529 71.879c-16.342 21.011-21.945 47.625-21.478 67.702 2.334-.934 4.669-2.335 7.004-3.268 7.47-3.269 15.875-5.603 23.812-7.004 1.401-14.007 7.004-30.349 17.276-42.022 9.805-11.206 24.746-17.743 41.088-15.875 3.268.467 6.537.934 9.338 1.868h.467c-15.408-6.07-32.217-8.872-48.559-7.938-10.272.934-19.61 3.269-28.948 6.537"/></g><g opacity=".3"><linearGradient id="y" x1="-.075" x2=".184" y1=".474" y2=".533" gradientTransform="matrix(54.369 0 0 118.595 228.176 142.382)" gradientUnits="userSpaceOnUse"><stop offset="0%" style="stop-color:#231f20"/><stop offset="100%" style="stop-color:#fff"/></linearGradient><path fill="url(#y)" d="M282.337 195.143c-9.805-24.746-29.882-42.489-47.625-52.761 0 2.335-.467 5.136-.933 7.938-.934 8.404-2.802 16.342-5.603 24.279 11.672 8.405 22.878 21.011 27.547 35.952 4.669 14.475 2.802 30.35-6.536 43.423-1.868 2.335-4.203 5.136-6.537 7.004 20.544-15.875 35.018-39.221 39.687-65.835.467 0 0 0 0 0"/></g><g opacity=".3"><linearGradient id="z" x1=".966" x2=".64" y1=".676" y2=".617" gradientTransform="matrix(56.029 0 0 34.236 147.4 126.823)" gradientUnits="userSpaceOnUse"><stop offset="0%" style="stop-color:#231f20"/><stop offset="100%" style="stop-color:#fff"/></linearGradient><path fill="url(#z)" d="M147.867 146.118c.467 4.669 1.401 9.805 2.801 14.474 9.806-2.335 19.611-3.268 28.949-2.801h1.401c6.069.466 12.139 1.4 18.209 3.268 1.401-4.669 2.335-9.338 3.269-14.007.933-6.07.933-11.673.933-16.342-14.941-3.736-28.948-4.669-41.555-3.269-4.669.467-9.338.934-14.474 1.868 0 6.07 0 11.673.467 16.809"/></g></g></svg>