<svg xmlns="http://www.w3.org/2000/svg" width="350pt" height="350pt" style="isolation:isolate" viewBox="0 0 350 350"><defs><clipPath id="a"><path d="M0 0h350v350H0z"/></clipPath></defs><g clip-path="url(#a)"><path d="M0 0h350v350H0z" style="fill:#e53f77"/><path fill="#FFFCFD" d="M58.102 156.496c42.057-39.629 90.371-48.458 144.771-32.876-14.078-13.711-30.847-22.28-49.789-24.028-18.735-1.729-37.753-.378-53.983-.378 16.667-16.985 35.464-36.947 55.192-55.942 11.691-11.257 30.418-10.925 42.256.387 20.15 19.254 39.974 38.884 59.203 59.053 13.988 14.671 9.854 36.214-8.082 45.969-18.874 10.267-39.492 14.283-60.679 15.937-2.51.196-5.031.255-7.393 1.274 42.411 13.816 80.034 4.85 113.224-24.51 20.952 13.25 22.485 28.911 5.273 46.63-39.238 40.393-85.774 54.417-140.545 39.843-3.032-.807-6.319-.653-9.638.067C179.452 253.103 223.318 257.556 262 246c.752 1.356-.752-1.356 0 0-6.085 5.101-18.71 14.776-24.417 20.269-12.825 12.341-25.239 25.108-37.946 37.574-15.18 14.893-33.841 14.89-49.039-.091-17.939-17.683-35.833-35.416-53.519-53.351-17.2-17.444-13.548-39.668 8.504-50.224 20.54-9.832 41.956-15.913 65.133-11.428 1.177.227 2.516-.382 3.976-.636-17.32-20.647-73.856-10.506-117.84 20.789-20.87-15.113-22.138-29.056-4.267-46.936 1.662-1.663 3.335-3.315 5.517-5.47"/></g></svg>