<?xml version="1.0" standalone="no"?>
<!DOCTYPE svg PUBLIC "-//W3C//DTD SVG 20010904//EN"
 "http://www.w3.org/TR/2001/REC-SVG-20010904/DTD/svg10.dtd">
<svg version="1.0" xmlns="http://www.w3.org/2000/svg"
 width="64.000000pt" height="64.000000pt" viewBox="0 0 64.000000 64.000000"
 preserveAspectRatio="xMidYMid meet">

<g transform="translate(0.000000,64.000000) scale(0.100000,-0.100000)"
fill="#d83c84" stroke="none">
<path d="M100 465 c0 -3 20 -34 45 -69 44 -64 45 -66 45 -145 0 -45 2 -81 5
-81 3 0 35 30 71 68 l64 67 23 -27 c12 -14 35 -45 50 -67 27 -39 31 -41 78
-41 28 0 49 5 49 11 0 6 -21 39 -46 75 -45 62 -47 64 -91 64 l-45 0 67 73 67
72 -68 3 -69 3 -69 -70 c-37 -39 -70 -71 -72 -71 -2 0 -4 32 -4 70 l0 70 -50
0 c-27 0 -50 -2 -50 -5z"/>
</g>
</svg>
