<svg xmlns="http://www.w3.org/2000/svg" width="350pt" height="350pt" style="isolation:isolate" viewBox="0 0 350 350"><defs><clipPath id="a"><path d="M0 0h350v350H0z"/></clipPath></defs><g clip-path="url(#a)"><path d="M0 0h350v350H0z" style="fill:#958edd"/><path fill="#2B1D3C" d="M305.38 174.81C305.38 103.063 247.032 45 175 45S44.525 103.063 44.525 174.81c0 14.825 2.471 29.079 7.127 42.383 0 .095.285.855.285.855 1.901 5.892-7.317 8.173-7.317 11.689 0 5.512 19.386 4.751 19.386 11.118 0 5.607-19.196 7.318-19.196 12.924 0 7.793 42.478 5.037 43.048 11.784.38 5.131-14.634 5.512-14.729 11.023-.19 8.838 57.967 5.892 57.967 11.784 0 4.466-26.418 2.851-26.418 8.077 0 5.227 34.781 8.553 73.173 8.553s64.81-4.276 64.81-8.838-24.708-3.611-24.138-7.792c.856-7.222 55.688-3.516 55.688-11.879 0-4.371-15.11-5.416-14.54-10.168.665-6.747 45.804-5.702 45.804-12.639 0-5.511-22.332-6.842-22.332-12.544 0-5.796 22.332-5.606 22.142-11.023-.095-4.181-9.978-4.086-6.842-12.924 4.466-13.399 7.032-27.654 6.937-42.383m-41.433 36.871c-4.561 10.168-14.729 8.173-15.87 12.449-1.235 4.466 12.544 5.037 12.544 9.693 0 5.607-41.908 3.421-41.527 10.833.285 4.657 29.744 5.512 29.174 10.359-.856 7.127-45.71 3.516-46.09 10.358-.285 4.941 21.952 5.131 21.952 9.693 0 3.801-17.485 5.892-50.936 5.892-38.201 0-56.732-2.091-54.641-6.272 1.995-3.992 35.731-3.231 35.446-9.503-.381-6.272-60.059-4.467-61.864-10.548-1.521-5.037 19.576-6.082 19.48-10.929-.095-4.846-26.988-3.801-27.653-9.693-.38-3.896 14.064-3.611 13.399-8.552-.475-3.517-6.462-3.041-9.978-10.359-5.702-12.258-8.933-25.943-8.933-40.292 0-52.931 43.144-95.885 96.36-95.885s96.36 42.954 96.36 95.885c.19 13.019-2.471 25.468-7.223 36.871"/></g></svg>