<svg xmlns="http://www.w3.org/2000/svg" width="350pt" height="350pt" style="isolation:isolate" viewBox="0 0 350 350"><defs><clipPath id="a"><path d="M0 0h350v350H0z"/></clipPath></defs><g clip-path="url(#a)"><path d="M0 0h350v350H0z" style="fill:#e7007b"/><clipPath id="b"><path fill="#FFF" d="M0 0h350v350H0z"/></clipPath><g fill="#FFF" clip-path="url(#b)"><ellipse cx="175.002" cy="64.366" rx="50.492" ry="29.366" vector-effect="non-scaling-stroke"/><ellipse cx="175.002" cy="285.634" rx="50.492" ry="29.366" vector-effect="non-scaling-stroke"/><path d="M53.944 163.415c-14.045-8.109-14.136-34.286-.202-58.419s36.649-37.143 50.694-29.033 14.136 34.286.202 58.419-36.649 37.142-50.694 29.033M245.564 274.046c-14.036-8.104-14.118-34.277-.185-58.41s36.642-37.147 50.677-29.043c14.036 8.104 14.119 34.276.185 58.409-13.933 24.134-36.641 37.147-50.677 29.044M53.749 245.006c-13.934-24.134-13.843-50.31.202-58.42s36.761 4.901 50.694 29.034 13.843 50.31-.202 58.419-36.76-4.9-50.694-29.033M245.391 134.378c-13.934-24.133-13.851-50.305.185-58.409s36.743 4.91 50.677 29.043 13.851 50.306-.185 58.409-36.743-4.91-50.677-29.043"/></g></g></svg>