<svg xmlns="http://www.w3.org/2000/svg" width="466.667" height="466.667" viewBox="0 0 350 350"><defs><clipPath id="a"><path d="M0 0h350v350H0z"/></clipPath></defs><g clip-path="url(#a)"><path fill="#321c46" d="M0 0h350v350H0z"/><clipPath id="b"><path fill="#fff" d="M0-14h350v350H0z"/></clipPath><g clip-path="url(#b)"><path fill="#331d46" d="M0-32h350v350H0z"/><path fill="#ffb39d" d="M258.471 160.409c-23.696-18.208-52.873-28.327-83.471-28.327l-15.234 17.773v49.522l15.234 9.5h33.762l36.053 60.314h32.799c8.414 0 15.234-6.82 15.234-15.234V172.24c-12.458 0-24.498-4.241-34.377-11.831"/><path fill="#ff8f71" d="M164.744 174.616A35.02 35.02 0 0 1 175 149.855v-17.773c-30.569 0-59.757 10.103-83.476 28.331-9.876 7.589-21.916 11.827-34.372 11.827v81.717c0 8.414 6.821 15.234 15.235 15.234h32.799l36.052-60.313H175v-9.501a35.02 35.02 0 0 1-10.256-24.761"/><path fill="#ffdbe0" d="M131.836 171.427c-8.133 0-14.727 5.229-14.727 11.68s6.594 11.68 14.727 11.68 14.726-5.23 14.726-11.68-6.593-11.68-14.726-11.68m86.328 0c-8.133 0-14.727 5.229-14.727 11.68s6.594 11.68 14.727 11.68 14.727-5.23 14.727-11.68-6.594-11.68-14.727-11.68"/><path fill="#fad5cb" d="M250.893 262.622a75.7 75.7 0 0 0-6.829-25.599c-1.52-3.258-5.479-4.542-8.592-2.745l-.009.005c3.076-1.775 4.016-5.815 1.98-8.724a76.6 76.6 0 0 0-18.811-18.81c-2.909-2.037-6.948-1.096-8.723 1.979l.005-.009c1.797-3.113.512-7.072-2.746-8.591a75.7 75.7 0 0 0-25.599-6.829c-3.539-.302-6.569 2.526-6.569 6.078l-4.57 5.298 4.57 5.417c0 3.128 2.37 5.74 5.483 6.059a53 53 0 0 1 16.317 4.384c2.85 1.282 6.21.142 7.772-2.564l-.033.057c-1.572 2.724-.791 6.167 1.753 8.017a53.8 53.8 0 0 1 11.855 11.854c1.85 2.545 5.293 3.326 8.017 1.753l.057-.032c-2.706 1.563-3.846 4.922-2.564 7.772a52.9 52.9 0 0 1 4.384 16.317 6.096 6.096 0 0 0 6.06 5.483h10.714c3.552-.001 6.38-3.03 6.078-6.57"/><path fill="#ffb39d" d="M168.431 193.299a75.7 75.7 0 0 0-25.599 6.828c-3.258 1.52-4.543 5.479-2.746 8.592l.005.009c-1.775-3.076-5.814-4.016-8.723-1.98a76.6 76.6 0 0 0-18.811 18.811c-2.036 2.909-1.096 6.948 1.98 8.724l-.009-.006c-3.113-1.797-7.072-.512-8.592 2.745a75.7 75.7 0 0 0-6.829 25.6c-.302 3.539 2.526 6.569 6.078 6.569H115.9a6.096 6.096 0 0 0 6.059-5.483 53 53 0 0 1 4.384-16.317c1.282-2.85.142-6.21-2.564-7.772l.057.032c2.725 1.574 6.167.792 8.018-1.753a53.8 53.8 0 0 1 11.854-11.854c2.544-1.85 3.326-5.293 1.753-8.017l-.032-.057c1.562 2.706 4.922 3.846 7.771 2.564a52.9 52.9 0 0 1 16.318-4.384 6.096 6.096 0 0 0 5.483-6.059v-10.715c-.001-3.552-3.031-6.379-6.57-6.077"/><path fill="#efedff" d="M286.35 153.863c-5.138-.88-11.038-2.927-17.05-7.547-26.278-20.192-59.123-32.007-94.3-32.007l-32.058 16.788L175 149.855c26.539 0 51.658 8.523 72.642 24.647 11.64 8.944 23.329 12.788 32.847 14.406 10.83 1.842 20.702-6.538 20.702-17.523 0-8.683-6.283-16.058-14.841-17.522"/><path fill="#d4d4ff" d="M175 114.309c-34.203 0-67.245 11.216-94.306 32.011-6.01 4.618-11.897 6.679-17.018 7.567-8.565 1.486-14.867 8.83-14.867 17.522 0 10.982 9.867 19.353 20.694 17.518 9.501-1.61 21.177-5.451 32.85-14.421 20.986-16.126 46.107-24.651 72.647-24.651-9.816-9.816-9.816-25.73 0-35.546"/><g fill="#efedff"><circle cx="71.012" cy="119.133" r="11.426" vector-effect="non-scaling-stroke"/><circle cx="271.484" cy="67.296" r="11.426" vector-effect="non-scaling-stroke"/><circle cx="159.318" cy="28.234" r="11.426" vector-effect="non-scaling-stroke"/><circle cx="81.055" cy="61.412" r="7.617" vector-effect="non-scaling-stroke"/><circle cx="218.532" cy="49.987" r="7.617" vector-effect="non-scaling-stroke"/></g><path d="M286.992 150.108c-5.632-.963-10.66-3.192-15.372-6.812-44.452-34.155-103.26-41.999-154.599-21.854a3.81 3.81 0 0 0-2.154 4.936 3.81 3.81 0 0 0 4.936 2.154c47.066-18.466 103.248-12.95 147.177 20.804 5.638 4.332 11.939 7.118 18.727 8.281 6.765 1.157 11.676 6.948 11.676 13.768 0 8.714-7.846 15.199-16.255 13.769-11.396-1.939-21.882-6.539-31.166-13.672-21.655-16.64-47.577-25.435-74.962-25.435s-53.31 8.796-74.968 25.439c-9.311 7.155-19.796 11.76-31.164 13.686a13.83 13.83 0 0 1-9.691-1.925c-4.108-2.578-6.56-7.004-6.56-11.838 0-6.802 4.925-12.593 11.71-13.769 6.759-1.172 13.046-3.965 18.687-8.3a151 151 0 0 1 23.25-14.708 3.81 3.81 0 0 0-3.468-6.782 159 159 0 0 0-24.423 15.45c-4.719 3.626-9.739 5.862-15.348 6.834C52.581 151.946 45 160.894 45 171.409a21.45 21.45 0 0 0 8.344 17.03v65.518c0 10.501 8.542 19.043 19.043 19.043H115.9a9.88 9.88 0 0 0 9.849-8.902 49 49 0 0 1 4.068-15.144 9.8 9.8 0 0 0 .774-5.408 10 10 0 0 0 4.343-3.407c7.768-10.681 12.251-10.009 14.42-15.357a9.8 9.8 0 0 0 5.408-.773c11.99-5.394 15.707-2.578 20.239-6.107 4.547 3.541 8.186.685 20.238 6.107a9.8 9.8 0 0 0 5.408.773c2.116 5.22 6.914 5.037 14.42 15.357a10 10 0 0 0 4.343 3.407 9.8 9.8 0 0 0 .774 5.408 49 49 0 0 1 4.068 15.144 9.88 9.88 0 0 0 9.849 8.902h43.513c10.501 0 19.043-8.542 19.043-19.043v-4.199a3.81 3.81 0 0 0-3.809-3.808 3.81 3.81 0 0 0-3.808 3.808v4.199c0 6.3-5.126 11.426-11.426 11.426h-23.158a9.8 9.8 0 0 0 .231-3.085 79.3 79.3 0 0 0-7.171-26.885 10 10 0 0 0-5.283-5.029 9.83 9.83 0 0 0-1.67-7.008 80.1 80.1 0 0 0-19.746-19.747 9.8 9.8 0 0 0-7.009-1.67 10 10 0 0 0-5.028-5.282 79.4 79.4 0 0 0-26.886-7.172 9.84 9.84 0 0 0-6.893 2.057 9.88 9.88 0 0 0-6.893-2.057 79.4 79.4 0 0 0-26.886 7.172 10 10 0 0 0-5.028 5.282 9.82 9.82 0 0 0-7.009 1.67 80.1 80.1 0 0 0-19.746 19.746 9.83 9.83 0 0 0-1.67 7.009 10 10 0 0 0-5.282 5.028 79.3 79.3 0 0 0-7.172 26.886 9.8 9.8 0 0 0 .231 3.085H72.387c-6.3 0-11.426-5.126-11.426-11.426v-61.715a21.2 21.2 0 0 0 9.178.44c12.608-2.136 24.227-7.235 34.535-15.156 20.315-15.611 44.633-23.862 70.326-23.862s50.009 8.25 70.321 23.858c10.279 7.899 21.896 12.992 34.529 15.141 3.084.525 6.219.358 9.189-.442v42.303a3.81 3.81 0 0 0 3.809 3.809 3.81 3.81 0 0 0 3.809-3.809v-46.106A21.46 21.46 0 0 0 305 171.384c0-10.541-7.574-19.489-18.008-21.276m-49.625 87.474.006-.003.004-.002c1.173-.679 2.659-.18 3.235 1.057a71.7 71.7 0 0 1 6.485 24.313c.111 1.306-.95 2.436-2.283 2.436H234.1a2.284 2.284 0 0 1-2.271-2.062 56.6 56.6 0 0 0-4.7-17.492c-.467-1.039-.031-2.316.993-2.909l9.241-5.335zm-29.532-17.646 5.377-9.313c.575-1.069 2.114-1.539 3.236-.754a72.5 72.5 0 0 1 17.874 17.875c.754 1.077.378 2.581-.764 3.241l-.003.002-.001.001-.004.002-.002.001-.002.001-.005.002q0 .002-.003.002-.002.003-.006.003-.002.004-.005.003l-.001.001-9.208 5.317h-.002l-.002.001-.055.032c-1.015.585-2.318.286-3.033-.695a57.5 57.5 0 0 0-12.694-12.694c-.981-.714-1.28-2.018-.697-3.028m-29.026-20.559c0-1.304 1.1-2.396 2.436-2.283a71.8 71.8 0 0 1 24.314 6.485c1.217.568 1.732 2.032 1.071 3.21l-.022.038-5.334 9.239-.001.002c-.592 1.024-1.869 1.462-2.909.993a56.7 56.7 0 0 0-17.492-4.699 2.284 2.284 0 0 1-2.062-2.271v-10.714zm-34.367 4.202a71.7 71.7 0 0 1 24.313-6.485c1.302-.113 2.436.947 2.436 2.283v10.714c0 1.174-.886 2.15-2.062 2.271a56.7 56.7 0 0 0-17.492 4.699c-.763.344-1.652.196-2.307-.309l-5.96-9.963c-.656-1.169-.157-2.637 1.072-3.21m-28.765 24.165a72.5 72.5 0 0 1 17.875-17.875c.988-.692 2.5-.493 3.267.805h-.001l5.344 9.257c.586 1.015.287 2.319-.694 3.033a57.5 57.5 0 0 0-12.695 12.695c-.715.982-2.019 1.279-3.029.697l-9.302-5.371c-1.145-.661-1.517-2.167-.765-3.241m-6.289 10.889c.572-1.227 2.053-1.738 3.244-1.052l7.282 4.204h.001l.011.007.017.01.048.027.011.008.04.022-.011-.007.027.017-.003-.002.01.006.129.074-.108-.063.138.08.062.036 1.589.917.006.004c1.021.594 1.456 1.869.988 2.907a56.7 56.7 0 0 0-4.699 17.492 2.28 2.28 0 0 1-2.271 2.062h-10.713c-1.332 0-2.394-1.129-2.283-2.436a71.8 71.8 0 0 1 6.485-24.313M71.012 134.367c8.4 0 15.234-6.834 15.234-15.234s-6.834-15.235-15.234-15.235-15.235 6.835-15.235 15.235 6.834 15.234 15.235 15.234m0-22.851a7.63 7.63 0 0 1 7.617 7.617 7.63 7.63 0 0 1-7.617 7.617 7.63 7.63 0 0 1-7.618-7.617 7.63 7.63 0 0 1 7.618-7.617M271.484 82.53c8.401 0 15.235-6.834 15.235-15.235s-6.834-15.234-15.235-15.234-15.234 6.834-15.234 15.234 6.834 15.235 15.234 15.235m0-22.852a7.63 7.63 0 0 1 7.618 7.617 7.63 7.63 0 0 1-7.618 7.617 7.63 7.63 0 0 1-7.617-7.617 7.63 7.63 0 0 1 7.617-7.617M159.318 43.469c8.4 0 15.234-6.834 15.234-15.235S167.718 13 159.318 13s-15.235 6.834-15.235 15.234 6.834 15.235 15.235 15.235m0-22.852a7.63 7.63 0 0 1 7.617 7.617 7.63 7.63 0 0 1-7.617 7.618 7.63 7.63 0 0 1-7.617-7.618 7.63 7.63 0 0 1 7.617-7.617M81.055 72.839c6.3 0 11.425-5.126 11.425-11.426s-5.125-11.426-11.425-11.426-11.426 5.126-11.426 11.426 5.126 11.426 11.426 11.426m0-15.235c2.1 0 3.808 1.708 3.808 3.809s-1.708 3.808-3.808 3.808a3.81 3.81 0 0 1-3.809-3.808 3.81 3.81 0 0 1 3.809-3.809m137.477 3.809c6.3 0 11.426-5.126 11.426-11.426s-5.126-11.426-11.426-11.426-11.426 5.126-11.426 11.426 5.125 11.426 11.426 11.426m0-15.235c2.1 0 3.809 1.709 3.809 3.809s-1.709 3.809-3.809 3.809-3.807-1.706-3.809-3.809 1.708-3.809 3.809-3.809"/><circle cx="184.395" cy="92.515" r="3.809" vector-effect="non-scaling-stroke"/><circle cx="184.395" cy="128.062" r="3.809" vector-effect="non-scaling-stroke"/><circle cx="138.691" cy="141.773" r="3.809" vector-effect="non-scaling-stroke"/><circle cx="98.066" cy="151.929" r="3.809" vector-effect="non-scaling-stroke"/><circle cx="66.582" cy="171.226" r="3.809" vector-effect="non-scaling-stroke"/><circle cx="218.926" cy="135.679" r="3.809" vector-effect="non-scaling-stroke"/><circle cx="254.473" cy="161.07" r="3.809" vector-effect="non-scaling-stroke"/><circle cx="279.863" cy="171.226" r="3.809" vector-effect="non-scaling-stroke"/><circle cx="287.988" cy="32.043" r="3.809" vector-effect="non-scaling-stroke"/><circle cx="269.257" cy="118.017" r="3.809" vector-effect="non-scaling-stroke"/><circle cx="62.012" cy="26.965" r="3.809" vector-effect="non-scaling-stroke"/><circle cx="132.203" cy="63.02" r="3.809" vector-effect="non-scaling-stroke"/><path d="M139.66 169.079v6.094a3.81 3.81 0 0 0 1.904 3.298 3.8 3.8 0 0 0 3.809 0 3.81 3.81 0 0 0 1.904-3.298v-6.094a3.81 3.81 0 0 0-1.904-3.298 3.8 3.8 0 0 0-3.809 0 3.81 3.81 0 0 0-1.904 3.298m63.476 0v6.094a3.81 3.81 0 0 0 1.904 3.299c1.179.68 2.631.68 3.81 0a3.81 3.81 0 0 0 1.904-3.299v-6.094a3.81 3.81 0 0 0-3.809-3.809 3.81 3.81 0 0 0-3.809 3.809m-22.948 2.386c-2.908 3.337-8.073 3.333-10.979-.001a3.81 3.81 0 0 0-5.742 5.005c5.958 6.835 16.539 6.801 22.464-.001a3.81 3.81 0 0 0-.37-5.373 3.81 3.81 0 0 0-5.373.37"/></g></g></svg>