<svg xmlns="http://www.w3.org/2000/svg" width="350pt" height="350pt" style="isolation:isolate" viewBox="0 0 350 350"><defs><clipPath id="a"><path d="M0 0h350v350H0z"/></clipPath></defs><g clip-path="url(#a)"><path d="M0 0h350v350H0z" style="fill:#2674ca"/><g fill="#FFF"><path d="M223.125 202.708c0-25.52-15.312-34.27-45.937-37.916-21.875-2.917-26.25-8.75-26.25-18.959 0-10.21 7.292-16.77 21.875-16.77 13.125 0 20.417 4.375 24.062 15.312.73 2.188 2.917 3.645 5.105 3.645h11.665c2.918 0 5.105-2.187 5.105-5.103v-.729c-2.917-16.043-16.042-28.438-32.812-29.896v-17.5c0-2.917-2.188-5.104-5.833-5.834h-10.938c-2.917 0-5.104 2.187-5.834 5.834v16.771c-21.875 2.917-35.728 17.5-35.728 35.729 0 24.063 14.583 33.541 45.208 37.188 20.417 3.645 26.979 8.02 26.979 19.687s-10.209 19.688-24.062 19.688c-18.96 0-25.522-8.022-27.71-18.96-.728-2.915-2.915-4.375-5.103-4.375H130.52c-2.915 0-5.103 2.188-5.103 5.105v.73c2.916 18.228 14.583 31.353 38.646 35v17.5c0 2.915 2.187 5.103 5.832 5.833h10.938c2.917 0 5.105-2.188 5.834-5.833v-17.5c21.875-3.647 36.458-18.96 36.458-38.647"/><path d="M137.813 279.27c-56.876-20.415-86.043-83.853-64.896-140 10.938-30.625 35-53.957 64.896-64.895 2.917-1.458 4.375-3.645 4.375-7.292V56.875c0-2.917-1.458-5.105-4.375-5.833-.73 0-2.188 0-2.918.728-69.27 21.875-107.187 95.522-85.312 164.793 13.125 40.832 44.479 72.187 85.312 85.312 2.918 1.458 5.835 0 6.563-2.917.73-.728.73-1.458.73-2.916v-10.209c0-2.188-2.188-5.103-4.375-6.563m77.292-227.5c-2.917-1.457-5.835 0-6.563 2.918-.729.729-.729 1.457-.729 2.917v10.208c0 2.917 2.187 5.832 4.375 7.292 56.875 20.415 86.042 83.853 64.895 140-10.938 30.625-35 53.958-64.895 64.895-2.918 1.458-4.375 3.645-4.375 7.292V297.5c0 2.917 1.457 5.105 4.375 5.833.729 0 2.187 0 2.917-.728 69.27-21.875 107.187-95.522 85.312-164.792-13.125-41.563-45.209-72.918-85.312-86.043"/></g></g></svg>