<svg xmlns="http://www.w3.org/2000/svg" width="350pt" height="350pt" style="isolation:isolate" viewBox="0 0 350 350"><defs><clipPath id="a"><path d="M0 0h350v350H0z"/></clipPath></defs><g clip-path="url(#a)"><linearGradient id="b" x1=".146" x2=".854" y1=".146" y2=".854"><stop offset="0%" style="stop-color:#79ead3"/><stop offset="32.5%" style="stop-color:#69a4f8"/><stop offset="66.667%" style="stop-color:#bb56a7"/><stop offset="100%" style="stop-color:#ee9f49"/></linearGradient><path d="M0 0h350v350H0z" style="fill:url(#b)"/><path d="M175 25c82.787 0 150 67.213 150 150s-67.213 150-150 150S25 257.787 25 175 92.213 25 175 25" style="stroke:none;fill:#fff;stroke-miterlimit:10"/><path fill="#E6007A" fill-rule="evenodd" d="M221.023 77.547c0 14.782-20.604 26.766-46.021 26.766s-46.021-11.984-46.021-26.766c0-14.783 20.604-26.766 46.021-26.766s46.021 11.983 46.021 26.766m0 201.676c0 14.782-20.604 26.765-46.021 26.765s-46.021-11.983-46.021-26.765 20.604-26.766 46.021-26.766 46.021 11.983 46.021 26.766m-110.156-137.86c12.708-22.011 12.626-45.85-.184-53.245-12.81-7.397-33.497 4.451-46.206 26.462-12.708 22.011-12.625 45.849.185 53.246 12.81 7.396 33.497-4.452 46.205-26.463m174.471 47.589c12.801 7.391 12.877 31.226.169 53.237s-33.388 33.862-46.19 26.471-12.877-31.226-.169-53.237 33.388-33.863 46.19-26.471m-174.647 79.701c12.811-7.396 12.893-31.235.185-53.246S77.48 181.548 64.67 188.945c-12.81 7.396-12.892 31.235-.184 53.246s33.395 33.859 46.205 26.462m174.826-154.059c12.709 22.011 12.634 45.846-.168 53.237s-33.481-4.46-46.19-26.471-12.633-45.846.169-53.238c12.801-7.39 33.481 4.461 46.189 26.472"/><linearGradient id="c" x1=".5" x2=".5" y1=".045" y2=".955" gradientTransform="matrix(100 0 0 100 125 125)" gradientUnits="userSpaceOnUse"><stop offset="0%" style="stop-color:#7aedcf"/><stop offset="20.133%" style="stop-color:#68cefa"/><stop offset="40.324%" style="stop-color:#689cf8"/><stop offset="60.208%" style="stop-color:#ac57c0"/><stop offset="80.187%" style="stop-color:#e65659"/><stop offset="100%" style="stop-color:#f2c241"/></linearGradient><path fill="url(#c)" stroke="#FFF" stroke-width="2" d="M175 225c27.614 0 50-22.386 50-50s-22.386-50-50-50-50 22.386-50 50 22.386 50 50 50Z" vector-effect="non-scaling-stroke"/><path fill="#FFF" d="m173.11 194.891-18.481-27.721c-1.007-1.51.076-3.534 1.891-3.534h8.217c.736 0 1.426.356 1.853.956l6.559 9.224a2.273 2.273 0 0 0 3.704 0l6.559-9.224a2.27 2.27 0 0 1 1.853-.956h8.216c1.816 0 2.899 2.024 1.891 3.534l-18.48 27.721a2.273 2.273 0 0 1-3.782 0"/></g></svg>