<svg xmlns="http://www.w3.org/2000/svg" width="350pt" height="350pt" style="isolation:isolate" viewBox="0 0 350 350"><defs><clipPath id="a"><path d="M0 0h350v350H0z"/></clipPath></defs><g clip-path="url(#a)"><path d="M0 0h350v350H0z" style="fill:#292038"/><circle cx="175" cy="175" r="175" fill="#FFF" vector-effect="non-scaling-stroke"/><path fill="#5A5564" d="m285.388 73.453-9.61 9.61c47.53 51.978 47.53 131.639 0 183.617l9.61 9.61c52.881-57.358 52.881-145.702 0-203.061zM83.288 74.286c51.978-47.53 131.639-47.53 183.617 0l9.61-9.61c-57.359-52.881-145.703-52.881-203.062 0zM74.286 266.776c-47.472-51.963-47.472-131.557 0-183.52l-9.61-9.611c-52.881 57.359-52.881 145.703 0 203.062zM266.776 275.65c-51.978 47.53-131.639 47.53-183.617 0l-9.61 9.61c57.359 52.881 145.703 52.881 203.062 0z"/><path fill="#F09242" d="M235.672 142.934c-1.922-20.053-19.22-26.78-41.099-28.83V86.491h-16.914v27.1h-13.518v-27.1h-16.786v27.805h-34.308v18.099s12.493-.224 12.301 0a8.745 8.745 0 0 1 9.61 7.432v76.112a5.93 5.93 0 0 1-2.05 4.132 5.86 5.86 0 0 1-4.357 1.474c.224.192-12.301 0-12.301 0l-3.203 20.213h33.988v28.254h16.913v-27.837h13.519v27.709h16.945V241.95c28.574-1.729 48.499-8.777 50.998-35.525 2.018-21.527-8.104-31.137-24.282-35.013 9.835-4.837 15.921-13.806 14.544-28.478m-23.705 60.16c0 21.014-36.006 18.611-47.474 18.611v-37.287c11.468.032 47.474-3.268 47.474 18.676m-7.848-52.536c0 19.221-30.048 16.882-39.594 16.882v-33.892c9.546 0 39.594-3.011 39.594 17.01"/><path fill="#282138" d="M174.968 350C78.326 349.982-.006 271.631 0 174.989S78.348.006 174.989 0 349.982 78.326 350 174.968a175 175 0 0 1-51.256 123.776A175 175 0 0 1 174.968 350m0-336.354c-89.035.071-161.165 72.287-161.129 161.322.035 89.035 72.222 161.193 161.257 161.193s161.222-72.158 161.258-161.193A161.257 161.257 0 0 0 174.968 13.646"/></g></svg>